%TF.GenerationSoftware,KiCad,Pcbnew,7.0.10*%
%TF.CreationDate,2024-02-29T08:37:14+01:00*%
%TF.ProjectId,ZX Spectrum AMP,5a582053-7065-4637-9472-756d20414d50,rev?*%
%TF.SameCoordinates,Original*%
%TF.FileFunction,Copper,L1,Top*%
%TF.FilePolarity,Positive*%
%FSLAX46Y46*%
G04 Gerber Fmt 4.6, Leading zero omitted, Abs format (unit mm)*
G04 Created by KiCad (PCBNEW 7.0.10) date 2024-02-29 08:37:14*
%MOMM*%
%LPD*%
G01*
G04 APERTURE LIST*
G04 Aperture macros list*
%AMRoundRect*
0 Rectangle with rounded corners*
0 $1 Rounding radius*
0 $2 $3 $4 $5 $6 $7 $8 $9 X,Y pos of 4 corners*
0 Add a 4 corners polygon primitive as box body*
4,1,4,$2,$3,$4,$5,$6,$7,$8,$9,$2,$3,0*
0 Add four circle primitives for the rounded corners*
1,1,$1+$1,$2,$3*
1,1,$1+$1,$4,$5*
1,1,$1+$1,$6,$7*
1,1,$1+$1,$8,$9*
0 Add four rect primitives between the rounded corners*
20,1,$1+$1,$2,$3,$4,$5,0*
20,1,$1+$1,$4,$5,$6,$7,0*
20,1,$1+$1,$6,$7,$8,$9,0*
20,1,$1+$1,$8,$9,$2,$3,0*%
G04 Aperture macros list end*
%TA.AperFunction,ComponentPad*%
%ADD10C,1.600000*%
%TD*%
%TA.AperFunction,ComponentPad*%
%ADD11O,1.600000X1.600000*%
%TD*%
%TA.AperFunction,ComponentPad*%
%ADD12R,1.700000X1.700000*%
%TD*%
%TA.AperFunction,ComponentPad*%
%ADD13O,1.700000X1.700000*%
%TD*%
%TA.AperFunction,ComponentPad*%
%ADD14R,1.600000X1.600000*%
%TD*%
%TA.AperFunction,ComponentPad*%
%ADD15C,2.000000*%
%TD*%
%TA.AperFunction,ConnectorPad*%
%ADD16RoundRect,0.585000X2.415000X0.585000X-2.415000X0.585000X-2.415000X-0.585000X2.415000X-0.585000X0*%
%TD*%
%TA.AperFunction,ComponentPad*%
%ADD17C,2.340000*%
%TD*%
%TA.AperFunction,ComponentPad*%
%ADD18R,4.600000X2.000000*%
%TD*%
%TA.AperFunction,ComponentPad*%
%ADD19O,4.200000X2.000000*%
%TD*%
%TA.AperFunction,ComponentPad*%
%ADD20O,2.000000X4.200000*%
%TD*%
%TA.AperFunction,Conductor*%
%ADD21C,0.500000*%
%TD*%
G04 APERTURE END LIST*
D10*
%TO.P,R1,1*%
%TO.N,Net-(C5-Pad2)*%
X72999600Y-51308000D03*
D11*
%TO.P,R1,2*%
%TO.N,GND*%
X83159600Y-51308000D03*
%TD*%
D12*
%TO.P,HT1,1,1*%
%TO.N,Net-(C4-Pad2)*%
X44810600Y-36677600D03*
D13*
%TO.P,HT1,2,2*%
%TO.N,GND*%
X42270600Y-36677600D03*
%TD*%
D14*
%TO.P,C2,1*%
%TO.N,Net-(IC1-BYPASS)*%
X85916900Y-56896000D03*
D10*
%TO.P,C2,2*%
%TO.N,GND*%
X88416900Y-56896000D03*
%TD*%
D14*
%TO.P,C3,1*%
%TO.N,+9V*%
X85946900Y-63416000D03*
D10*
%TO.P,C3,2*%
%TO.N,GND*%
X88446900Y-63416000D03*
%TD*%
D14*
%TO.P,C4,1*%
%TO.N,Net-(C4-Pad1)*%
X75594800Y-43311900D03*
D10*
%TO.P,C4,2*%
%TO.N,Net-(C4-Pad2)*%
X75594800Y-40811900D03*
%TD*%
D14*
%TO.P,C5,1*%
%TO.N,Net-(C4-Pad1)*%
X67959600Y-46329600D03*
D10*
%TO.P,C5,2*%
%TO.N,Net-(C5-Pad2)*%
X70459600Y-46329600D03*
%TD*%
D14*
%TO.P,IC1,1,GAIN*%
%TO.N,unconnected-(IC1-GAIN-Pad1)*%
X70002400Y-57006800D03*
D11*
%TO.P,IC1,2,-*%
%TO.N,GND*%
X70002400Y-59546800D03*
%TO.P,IC1,3,+*%
%TO.N,Net-(IC1-+)*%
X70002400Y-62086800D03*
%TO.P,IC1,4,GND*%
%TO.N,GND*%
X70002400Y-64626800D03*
%TO.P,IC1,5*%
%TO.N,Net-(C4-Pad1)*%
X77622400Y-64626800D03*
%TO.P,IC1,6,V+*%
%TO.N,+9V*%
X77622400Y-62086800D03*
%TO.P,IC1,7,BYPASS*%
%TO.N,Net-(IC1-BYPASS)*%
X77622400Y-59546800D03*
%TO.P,IC1,8,GAIN*%
%TO.N,unconnected-(IC1-GAIN-Pad8)*%
X77622400Y-57006800D03*
%TD*%
D15*
%TO.P,C1,1*%
%TO.N,Net-(IC1-+)*%
X62534800Y-56914400D03*
%TO.P,C1,2*%
%TO.N,GND*%
X62534800Y-64414400D03*
%TD*%
D12*
%TO.P,J3,1,Pin_1*%
%TO.N,+9V*%
X60040600Y-45421400D03*
D13*
%TO.P,J3,2,Pin_2*%
%TO.N,GND*%
X62580600Y-45421400D03*
%TD*%
D12*
%TO.P,MIC1,1,Pin_1*%
%TO.N,Net-(MIC1-Pin_1)*%
X49779000Y-45421400D03*
D13*
%TO.P,MIC1,2,Pin_2*%
%TO.N,GND*%
X52319000Y-45421400D03*
%TD*%
D16*
%TO.P,P1,1,1*%
%TO.N,Net-(MIC1-Pin_1)*%
X31200800Y-54740800D03*
D17*
X38750800Y-54750800D03*
D16*
%TO.P,P1,2,2*%
%TO.N,Net-(IC1-+)*%
X31200800Y-59710800D03*
D17*
X38750800Y-59750800D03*
D16*
%TO.P,P1,3,3*%
%TO.N,GND*%
X31200800Y-64760800D03*
D17*
X38750800Y-64750800D03*
%TD*%
D18*
%TO.P,J1,1*%
%TO.N,GND*%
X73761600Y-71221600D03*
D19*
%TO.P,J1,2*%
%TO.N,+9V*%
X73761600Y-77521600D03*
D20*
%TO.P,J1,3*%
%TO.N,unconnected-(J1-Pad3)*%
X78561600Y-74121600D03*
%TD*%
D17*
%TO.P,P2,1,1*%
%TO.N,Net-(MIC1-Pin_1)*%
X41698400Y-72012800D03*
%TO.P,P2,2,2*%
%TO.N,Net-(J2-Pad1)*%
X44198400Y-82012800D03*
%TO.P,P2,3,3*%
%TO.N,GND*%
X46698400Y-72012800D03*
%TD*%
D18*
%TO.P,J2,1*%
%TO.N,Net-(J2-Pad1)*%
X57829100Y-69247600D03*
D19*
%TO.P,J2,2*%
%TO.N,GND*%
X57929100Y-82397600D03*
D20*
%TO.P,J2,3*%
%TO.N,unconnected-(J2-Pad3)*%
X63229100Y-71552600D03*
%TD*%
D21*
%TO.N,Net-(IC1-+)*%
X38750800Y-59750800D02*
X31240800Y-59750800D01*
X31240800Y-59750800D02*
X31200800Y-59710800D01*
X62534800Y-59750800D02*
X62534800Y-56914400D01*
X38750800Y-59750800D02*
X62534800Y-59750800D01*
X70002400Y-62086800D02*
X68650500Y-62086800D01*
X66314500Y-59750800D02*
X68650500Y-62086800D01*
X62534800Y-59750800D02*
X66314500Y-59750800D01*
%TO.N,GND*%
X68650500Y-64626800D02*
X68438100Y-64414400D01*
X49612500Y-44019500D02*
X42270600Y-36677600D01*
X62580600Y-45421400D02*
X63982500Y-45421400D01*
X52319000Y-44021000D02*
X52319000Y-44019500D01*
X68438100Y-64414400D02*
X62534800Y-64414400D01*
X52319000Y-44021000D02*
X52320500Y-44019500D01*
X38750800Y-64750800D02*
X39436400Y-64750800D01*
X52319000Y-44019500D02*
X49612500Y-44019500D01*
X71354300Y-63274900D02*
X71354300Y-59546800D01*
X52319000Y-44220400D02*
X52319000Y-44021000D01*
X70002400Y-64626800D02*
X71354300Y-63274900D01*
X74731100Y-56170000D02*
X63982500Y-45421400D01*
X52320500Y-44019500D02*
X61178700Y-44019500D01*
X70002400Y-59546800D02*
X71354300Y-59546800D01*
X31210800Y-64750800D02*
X31200800Y-64760800D01*
X74731100Y-56170000D02*
X79593100Y-51308000D01*
X79593100Y-51308000D02*
X83159600Y-51308000D01*
X55277200Y-82397600D02*
X55277200Y-80591600D01*
X69404300Y-64626800D02*
X68650500Y-64626800D01*
X61178700Y-44019500D02*
X62580600Y-45421400D01*
X71354300Y-59546800D02*
X74731100Y-56170000D01*
X55277200Y-80591600D02*
X46698400Y-72012800D01*
X39436400Y-64750800D02*
X46698400Y-72012800D01*
X38750800Y-64750800D02*
X31210800Y-64750800D01*
X52319000Y-45421400D02*
X52319000Y-44220400D01*
X69404300Y-64626800D02*
X70002400Y-64626800D01*
X57929100Y-82397600D02*
X55277200Y-82397600D01*
%TO.N,Net-(IC1-BYPASS)*%
X77622400Y-59546800D02*
X81914200Y-59546800D01*
X81914200Y-59546800D02*
X84565000Y-56896000D01*
X85916900Y-56896000D02*
X84565000Y-56896000D01*
%TO.N,+9V*%
X80303500Y-63416000D02*
X85946900Y-63416000D01*
X78974300Y-62086800D02*
X80303500Y-63416000D01*
X77622400Y-62086800D02*
X78974300Y-62086800D01*
%TO.N,Net-(C4-Pad1)*%
X70977300Y-43311900D02*
X75594800Y-43311900D01*
X67959600Y-46329600D02*
X70977300Y-43311900D01*
%TO.N,Net-(C4-Pad2)*%
X75594800Y-40811900D02*
X50346800Y-40811900D01*
X44810600Y-36677600D02*
X46212500Y-36677600D01*
X50346800Y-40811900D02*
X46212500Y-36677600D01*
%TO.N,Net-(MIC1-Pin_1)*%
X38750800Y-54750800D02*
X31210800Y-54750800D01*
X38750800Y-54750800D02*
X38750800Y-54890500D01*
X32136900Y-55676900D02*
X31200800Y-54740800D01*
X31210800Y-54750800D02*
X31200800Y-54740800D01*
X38750800Y-54890500D02*
X37964400Y-55676900D01*
%TD*%
%TA.AperFunction,Conductor*%
%TO.N,GND*%
G36*
X90874955Y-35020930D02*
G01*
X90920753Y-35073697D01*
X90932000Y-35125300D01*
X90932000Y-84864400D01*
X90912315Y-84931439D01*
X90859511Y-84977194D01*
X90808000Y-84988400D01*
X28115053Y-84988400D01*
X28048014Y-84968715D01*
X28002259Y-84915911D01*
X27991053Y-84864148D01*
X27996854Y-82012804D01*
X42515193Y-82012804D01*
X42533992Y-82263666D01*
X42580970Y-82469489D01*
X42589973Y-82508934D01*
X42681883Y-82743116D01*
X42807669Y-82960984D01*
X42964522Y-83157672D01*
X43148938Y-83328784D01*
X43356797Y-83470500D01*
X43583455Y-83579653D01*
X43823851Y-83653805D01*
X43823852Y-83653805D01*
X43823855Y-83653806D01*
X44072606Y-83691299D01*
X44072611Y-83691299D01*
X44072614Y-83691300D01*
X44072615Y-83691300D01*
X44324185Y-83691300D01*
X44324186Y-83691300D01*
X44324193Y-83691299D01*
X44572944Y-83653806D01*
X44572945Y-83653805D01*
X44572949Y-83653805D01*
X44813345Y-83579653D01*
X45040004Y-83470500D01*
X45247862Y-83328784D01*
X45432278Y-83157672D01*
X45589131Y-82960984D01*
X45714917Y-82743116D01*
X45806827Y-82508934D01*
X45862807Y-82263669D01*
X45871505Y-82147599D01*
X55350076Y-82147599D01*
X55350078Y-82147600D01*
X56395414Y-82147600D01*
X56369607Y-82187756D01*
X56329100Y-82325711D01*
X56329100Y-82469489D01*
X56369607Y-82607444D01*
X56395414Y-82647600D01*
X55350077Y-82647600D01*
X55370016Y-82767092D01*
X55450730Y-83002203D01*
X55450735Y-83002214D01*
X55569042Y-83220828D01*
X55569048Y-83220837D01*
X55721726Y-83416997D01*
X55721735Y-83417007D01*
X55904622Y-83585367D01*
X55904621Y-83585367D01*
X56112732Y-83721332D01*
X56340382Y-83821187D01*
X56581361Y-83882212D01*
X56581369Y-83882214D01*
X56767045Y-83897599D01*
X56767061Y-83897600D01*
X57679100Y-83897600D01*
X57679100Y-82897600D01*
X58179100Y-82897600D01*
X58179100Y-83897600D01*
X59091139Y-83897600D01*
X59091154Y-83897599D01*
X59276830Y-83882214D01*
X59276838Y-83882212D01*
X59517817Y-83821187D01*
X59745467Y-83721332D01*
X59953578Y-83585367D01*
X60136464Y-83417007D01*
X60136473Y-83416997D01*
X60289151Y-83220837D01*
X60289157Y-83220828D01*
X60407464Y-83002214D01*
X60407469Y-83002203D01*
X60488183Y-82767092D01*
X60508123Y-82647600D01*
X59462786Y-82647600D01*
X59488593Y-82607444D01*
X59529100Y-82469489D01*
X59529100Y-82325711D01*
X59488593Y-82187756D01*
X59462786Y-82147600D01*
X60508122Y-82147600D01*
X60508123Y-82147599D01*
X60488183Y-82028107D01*
X60407469Y-81792996D01*
X60407464Y-81792985D01*
X60289157Y-81574371D01*
X60289151Y-81574362D01*
X60136473Y-81378202D01*
X60136464Y-81378192D01*
X59953577Y-81209832D01*
X59953578Y-81209832D01*
X59745467Y-81073867D01*
X59517817Y-80974012D01*
X59276838Y-80912987D01*
X59276830Y-80912985D01*
X59091154Y-80897600D01*
X58179100Y-80897600D01*
X58179100Y-81897600D01*
X57679100Y-81897600D01*
X57679100Y-80897600D01*
X56767045Y-80897600D01*
X56581369Y-80912985D01*
X56581361Y-80912987D01*
X56340382Y-80974012D01*
X56112732Y-81073867D01*
X55904621Y-81209832D01*
X55721735Y-81378192D01*
X55721726Y-81378202D01*
X55569048Y-81574362D01*
X55569042Y-81574371D01*
X55450735Y-81792985D01*
X55450730Y-81792996D01*
X55370016Y-82028107D01*
X55350076Y-82147599D01*
X45871505Y-82147599D01*
X45881607Y-82012800D01*
X45862807Y-81761931D01*
X45806827Y-81516666D01*
X45714917Y-81282484D01*
X45589131Y-81064616D01*
X45432278Y-80867928D01*
X45247862Y-80696816D01*
X45040004Y-80555100D01*
X45040003Y-80555099D01*
X45039996Y-80555095D01*
X44813347Y-80445948D01*
X44813349Y-80445948D01*
X44572950Y-80371795D01*
X44572944Y-80371793D01*
X44324193Y-80334300D01*
X44324186Y-80334300D01*
X44072614Y-80334300D01*
X44072606Y-80334300D01*
X43823855Y-80371793D01*
X43823849Y-80371795D01*
X43583454Y-80445947D01*
X43356801Y-80555097D01*
X43148937Y-80696816D01*
X42964523Y-80867926D01*
X42964522Y-80867928D01*
X42807669Y-81064616D01*
X42681883Y-81282483D01*
X42589975Y-81516660D01*
X42589970Y-81516677D01*
X42533992Y-81761933D01*
X42515193Y-82012795D01*
X42515193Y-82012804D01*
X27996854Y-82012804D01*
X28002923Y-79030099D01*
X28005868Y-77582533D01*
X71149418Y-77582533D01*
X71178776Y-77824321D01*
X71246537Y-78058256D01*
X71246538Y-78058259D01*
X71350951Y-78278307D01*
X71489307Y-78478748D01*
X71489308Y-78478749D01*
X71658022Y-78654400D01*
X71852729Y-78800713D01*
X71852731Y-78800714D01*
X71852735Y-78800717D01*
X71965034Y-78859656D01*
X72068392Y-78913903D01*
X72068394Y-78913903D01*
X72068395Y-78913904D01*
X72183906Y-78952467D01*
X72299417Y-78991031D01*
X72539818Y-79030100D01*
X72539821Y-79030100D01*
X74922387Y-79030100D01*
X74922397Y-79030100D01*
X75104368Y-79015410D01*
X75340848Y-78957123D01*
X75564916Y-78861656D01*
X75770768Y-78731483D01*
X75953074Y-78569975D01*
X76107110Y-78381314D01*
X76228889Y-78170387D01*
X76315256Y-77942657D01*
X76363974Y-77704021D01*
X76373781Y-77460661D01*
X76344423Y-77218880D01*
X76344423Y-77218878D01*
X76276662Y-76984943D01*
X76276661Y-76984938D01*
X76172250Y-76764896D01*
X76172249Y-76764895D01*
X76172248Y-76764892D01*
X76057150Y-76598145D01*
X76033893Y-76564452D01*
X76002961Y-76532248D01*
X75865177Y-76388799D01*
X75670470Y-76242486D01*
X75670466Y-76242483D01*
X75670465Y-76242483D01*
X75637487Y-76225175D01*
X75454807Y-76129296D01*
X75454803Y-76129295D01*
X75223782Y-76052168D01*
X74983382Y-76013100D01*
X74983379Y-76013100D01*
X72600803Y-76013100D01*
X72600793Y-76013100D01*
X72418832Y-76027789D01*
X72182349Y-76086077D01*
X71958292Y-76181539D01*
X71958284Y-76181543D01*
X71958284Y-76181544D01*
X71752432Y-76311717D01*
X71570126Y-76473225D01*
X71570124Y-76473226D01*
X71570122Y-76473229D01*
X71416089Y-76661885D01*
X71416087Y-76661889D01*
X71294315Y-76872803D01*
X71294310Y-76872813D01*
X71207945Y-77100538D01*
X71159226Y-77339174D01*
X71159225Y-77339182D01*
X71149418Y-77582532D01*
X71149418Y-77582533D01*
X28005868Y-77582533D01*
X28010955Y-75082401D01*
X32538390Y-75082401D01*
X32558804Y-75367833D01*
X32619628Y-75647437D01*
X32719635Y-75915566D01*
X32856770Y-76166709D01*
X32856775Y-76166717D01*
X33028254Y-76395787D01*
X33028270Y-76395805D01*
X33230594Y-76598129D01*
X33230612Y-76598145D01*
X33459682Y-76769624D01*
X33459690Y-76769629D01*
X33710833Y-76906764D01*
X33710832Y-76906764D01*
X33710836Y-76906765D01*
X33710839Y-76906767D01*
X33978954Y-77006769D01*
X33978960Y-77006770D01*
X33978962Y-77006771D01*
X34258566Y-77067595D01*
X34258568Y-77067595D01*
X34258572Y-77067596D01*
X34472552Y-77082900D01*
X34615448Y-77082900D01*
X34829428Y-77067596D01*
X35109046Y-77006769D01*
X35377161Y-76906767D01*
X35628315Y-76769626D01*
X35857395Y-76598139D01*
X36059739Y-76395795D01*
X36231226Y-76166715D01*
X36368367Y-75915561D01*
X36468369Y-75647446D01*
X36529196Y-75367828D01*
X36535305Y-75282406D01*
X77053100Y-75282406D01*
X77067789Y-75464367D01*
X77126077Y-75700850D01*
X77221539Y-75924907D01*
X77221542Y-75924912D01*
X77221544Y-75924916D01*
X77351717Y-76130768D01*
X77513225Y-76313074D01*
X77513229Y-76313077D01*
X77701885Y-76467110D01*
X77701889Y-76467112D01*
X77912803Y-76588884D01*
X77912813Y-76588889D01*
X78140543Y-76675256D01*
X78379179Y-76723974D01*
X78452187Y-76726916D01*
X78622532Y-76733781D01*
X78622533Y-76733781D01*
X78622534Y-76733780D01*
X78622539Y-76733781D01*
X78829779Y-76708617D01*
X78864321Y-76704423D01*
X78965023Y-76675254D01*
X79098262Y-76636661D01*
X79318304Y-76532250D01*
X79518748Y-76393893D01*
X79694402Y-76225175D01*
X79840717Y-76030465D01*
X79953904Y-75814805D01*
X80031031Y-75583782D01*
X80070100Y-75343379D01*
X80070100Y-75082401D01*
X82474790Y-75082401D01*
X82495204Y-75367833D01*
X82556028Y-75647437D01*
X82656035Y-75915566D01*
X82793170Y-76166709D01*
X82793175Y-76166717D01*
X82964654Y-76395787D01*
X82964670Y-76395805D01*
X83166994Y-76598129D01*
X83167012Y-76598145D01*
X83396082Y-76769624D01*
X83396090Y-76769629D01*
X83647233Y-76906764D01*
X83647232Y-76906764D01*
X83647236Y-76906765D01*
X83647239Y-76906767D01*
X83915354Y-77006769D01*
X83915360Y-77006770D01*
X83915362Y-77006771D01*
X84194966Y-77067595D01*
X84194968Y-77067595D01*
X84194972Y-77067596D01*
X84408952Y-77082900D01*
X84551848Y-77082900D01*
X84765828Y-77067596D01*
X85045446Y-77006769D01*
X85313561Y-76906767D01*
X85564715Y-76769626D01*
X85793795Y-76598139D01*
X85996139Y-76395795D01*
X86167626Y-76166715D01*
X86304767Y-75915561D01*
X86404769Y-75647446D01*
X86465596Y-75367828D01*
X86486010Y-75082400D01*
X86465596Y-74796972D01*
X86404769Y-74517354D01*
X86304767Y-74249239D01*
X86258649Y-74164781D01*
X86167629Y-73998090D01*
X86167624Y-73998082D01*
X85996145Y-73769012D01*
X85996129Y-73768994D01*
X85793805Y-73566670D01*
X85793787Y-73566654D01*
X85564717Y-73395175D01*
X85564709Y-73395170D01*
X85313566Y-73258035D01*
X85313567Y-73258035D01*
X85206315Y-73218032D01*
X85045446Y-73158031D01*
X85045443Y-73158030D01*
X85045437Y-73158028D01*
X84765833Y-73097204D01*
X84551850Y-73081900D01*
X84551848Y-73081900D01*
X84408952Y-73081900D01*
X84408949Y-73081900D01*
X84194966Y-73097204D01*
X83915362Y-73158028D01*
X83647233Y-73258035D01*
X83396090Y-73395170D01*
X83396082Y-73395175D01*
X83167012Y-73566654D01*
X83166994Y-73566670D01*
X82964670Y-73768994D01*
X82964654Y-73769012D01*
X82793175Y-73998082D01*
X82793170Y-73998090D01*
X82656035Y-74249233D01*
X82556028Y-74517362D01*
X82495204Y-74796966D01*
X82474790Y-75082398D01*
X82474790Y-75082401D01*
X80070100Y-75082401D01*
X80070100Y-72960803D01*
X80055410Y-72778832D01*
X79997123Y-72542352D01*
X79982880Y-72508922D01*
X79901660Y-72318292D01*
X79901658Y-72318289D01*
X79901656Y-72318284D01*
X79771483Y-72112432D01*
X79609975Y-71930126D01*
X79560871Y-71890034D01*
X79421314Y-71776089D01*
X79421310Y-71776087D01*
X79210396Y-71654315D01*
X79210386Y-71654310D01*
X78982661Y-71567945D01*
X78982658Y-71567944D01*
X78982657Y-71567944D01*
X78906508Y-71552398D01*
X78744025Y-71519226D01*
X78744017Y-71519225D01*
X78500667Y-71509418D01*
X78500666Y-71509418D01*
X78258878Y-71538776D01*
X78024943Y-71606537D01*
X78024940Y-71606538D01*
X77804892Y-71710951D01*
X77604451Y-71849307D01*
X77604450Y-71849308D01*
X77428799Y-72018022D01*
X77282486Y-72212729D01*
X77282480Y-72212740D01*
X77169296Y-72428392D01*
X77169295Y-72428396D01*
X77092168Y-72659417D01*
X77092168Y-72659418D01*
X77053100Y-72899818D01*
X77053100Y-75282406D01*
X36535305Y-75282406D01*
X36549610Y-75082400D01*
X36529196Y-74796972D01*
X36468369Y-74517354D01*
X36368367Y-74249239D01*
X36322249Y-74164781D01*
X36231229Y-73998090D01*
X36231224Y-73998082D01*
X36059745Y-73769012D01*
X36059729Y-73768994D01*
X35857405Y-73566670D01*
X35857387Y-73566654D01*
X35628317Y-73395175D01*
X35628309Y-73395170D01*
X35377166Y-73258035D01*
X35377167Y-73258035D01*
X35269915Y-73218032D01*
X35109046Y-73158031D01*
X35109043Y-73158030D01*
X35109037Y-73158028D01*
X34829433Y-73097204D01*
X34615450Y-73081900D01*
X34615448Y-73081900D01*
X34472552Y-73081900D01*
X34472549Y-73081900D01*
X34258566Y-73097204D01*
X33978962Y-73158028D01*
X33710833Y-73258035D01*
X33459690Y-73395170D01*
X33459682Y-73395175D01*
X33230612Y-73566654D01*
X33230594Y-73566670D01*
X33028270Y-73768994D01*
X33028254Y-73769012D01*
X32856775Y-73998082D01*
X32856770Y-73998090D01*
X32719635Y-74249233D01*
X32619628Y-74517362D01*
X32558804Y-74796966D01*
X32538390Y-75082398D01*
X32538390Y-75082401D01*
X28010955Y-75082401D01*
X28017200Y-72012804D01*
X40015193Y-72012804D01*
X40033992Y-72263666D01*
X40089970Y-72508922D01*
X40089973Y-72508934D01*
X40181883Y-72743116D01*
X40307669Y-72960984D01*
X40464522Y-73157672D01*
X40648938Y-73328784D01*
X40856797Y-73470500D01*
X41083455Y-73579653D01*
X41323851Y-73653805D01*
X41323852Y-73653805D01*
X41323855Y-73653806D01*
X41572606Y-73691299D01*
X41572611Y-73691299D01*
X41572614Y-73691300D01*
X41572615Y-73691300D01*
X41824185Y-73691300D01*
X41824186Y-73691300D01*
X41880580Y-73682800D01*
X42072944Y-73653806D01*
X42072945Y-73653805D01*
X42072949Y-73653805D01*
X42313345Y-73579653D01*
X42540004Y-73470500D01*
X42747862Y-73328784D01*
X42932278Y-73157672D01*
X43089131Y-72960984D01*
X43214917Y-72743116D01*
X43306827Y-72508934D01*
X43362807Y-72263669D01*
X43378524Y-72053938D01*
X43381607Y-72012804D01*
X45023717Y-72012804D01*
X45042421Y-72262397D01*
X45042421Y-72262399D01*
X45098114Y-72506407D01*
X45098120Y-72506426D01*
X45189563Y-72739418D01*
X45314711Y-72956181D01*
X45314718Y-72956192D01*
X45353199Y-73004445D01*
X45353200Y-73004445D01*
X46095852Y-72261793D01*
X46105588Y-72291756D01*
X46193586Y-72430419D01*
X46313303Y-72542840D01*
X46447910Y-72616841D01*
X45706803Y-73357948D01*
X45861058Y-73463117D01*
X45861066Y-73463122D01*
X46086567Y-73571716D01*
X46086565Y-73571716D01*
X46325746Y-73645494D01*
X46325752Y-73645496D01*
X46573243Y-73682799D01*
X46573252Y-73682800D01*
X46823548Y-73682800D01*
X46823556Y-73682799D01*
X47071047Y-73645496D01*
X47071053Y-73645494D01*
X47310233Y-73571716D01*
X47535734Y-73463122D01*
X47535744Y-73463115D01*
X47689995Y-73357948D01*
X46945934Y-72613886D01*
X47014029Y-72586926D01*
X47146892Y-72490395D01*
X47251575Y-72363855D01*
X47300031Y-72260879D01*
X48043597Y-73004445D01*
X48043598Y-73004444D01*
X48082090Y-72956179D01*
X48207236Y-72739418D01*
X48217445Y-72713406D01*
X61720600Y-72713406D01*
X61735289Y-72895367D01*
X61793577Y-73131850D01*
X61889039Y-73355907D01*
X61889042Y-73355912D01*
X61889044Y-73355916D01*
X62019217Y-73561768D01*
X62180725Y-73744074D01*
X62180729Y-73744077D01*
X62369385Y-73898110D01*
X62369389Y-73898112D01*
X62580303Y-74019884D01*
X62580313Y-74019889D01*
X62808043Y-74106256D01*
X63046679Y-74154974D01*
X63119687Y-74157916D01*
X63290032Y-74164781D01*
X63290033Y-74164781D01*
X63290034Y-74164780D01*
X63290039Y-74164781D01*
X63497279Y-74139617D01*
X63531821Y-74135423D01*
X63632523Y-74106254D01*
X63765762Y-74067661D01*
X63985804Y-73963250D01*
X64186248Y-73824893D01*
X64361902Y-73656175D01*
X64508217Y-73461465D01*
X64621404Y-73245805D01*
X64698531Y-73014782D01*
X64717938Y-72895367D01*
X64737600Y-72774381D01*
X64737600Y-72269444D01*
X70961600Y-72269444D01*
X70968001Y-72328972D01*
X70968003Y-72328979D01*
X71018245Y-72463686D01*
X71018249Y-72463693D01*
X71104409Y-72578787D01*
X71104412Y-72578790D01*
X71219506Y-72664950D01*
X71219513Y-72664954D01*
X71354220Y-72715196D01*
X71354227Y-72715198D01*
X71413755Y-72721599D01*
X71413772Y-72721600D01*
X73511600Y-72721600D01*
X73511600Y-71721600D01*
X74011600Y-71721600D01*
X74011600Y-72721600D01*
X76109428Y-72721600D01*
X76109444Y-72721599D01*
X76168972Y-72715198D01*
X76168979Y-72715196D01*
X76303686Y-72664954D01*
X76303693Y-72664950D01*
X76418787Y-72578790D01*
X76418790Y-72578787D01*
X76504950Y-72463693D01*
X76504954Y-72463686D01*
X76555196Y-72328979D01*
X76555198Y-72328972D01*
X76561599Y-72269444D01*
X76561600Y-72269427D01*
X76561600Y-71471600D01*
X75495286Y-71471600D01*
X75521093Y-71431444D01*
X75561600Y-71293489D01*
X75561600Y-71149711D01*
X75521093Y-71011756D01*
X75495286Y-70971600D01*
X76561600Y-70971600D01*
X76561600Y-70173772D01*
X76561599Y-70173755D01*
X76555198Y-70114227D01*
X76555196Y-70114220D01*
X76504954Y-69979513D01*
X76504950Y-69979506D01*
X76418790Y-69864412D01*
X76418787Y-69864409D01*
X76303693Y-69778249D01*
X76303686Y-69778245D01*
X76168979Y-69728003D01*
X76168972Y-69728001D01*
X76109444Y-69721600D01*
X74011600Y-69721600D01*
X74011600Y-70721600D01*
X73511600Y-70721600D01*
X73511600Y-69721600D01*
X71413755Y-69721600D01*
X71354227Y-69728001D01*
X71354220Y-69728003D01*
X71219513Y-69778245D01*
X71219506Y-69778249D01*
X71104412Y-69864409D01*
X71104409Y-69864412D01*
X71018249Y-69979506D01*
X71018245Y-69979513D01*
X70968003Y-70114220D01*
X70968001Y-70114227D01*
X70961600Y-70173755D01*
X70961600Y-70971600D01*
X72027914Y-70971600D01*
X72002107Y-71011756D01*
X71961600Y-71149711D01*
X71961600Y-71293489D01*
X72002107Y-71431444D01*
X72027914Y-71471600D01*
X70961600Y-71471600D01*
X70961600Y-72269444D01*
X64737600Y-72269444D01*
X64737600Y-70391812D01*
X64737599Y-70391793D01*
X64736655Y-70380105D01*
X64722910Y-70209832D01*
X64664623Y-69973352D01*
X64618208Y-69864412D01*
X64569160Y-69749292D01*
X64569158Y-69749289D01*
X64569156Y-69749284D01*
X64438983Y-69543432D01*
X64277475Y-69361126D01*
X64263116Y-69349402D01*
X64088814Y-69207089D01*
X64088810Y-69207087D01*
X63877896Y-69085315D01*
X63877886Y-69085310D01*
X63650161Y-68998945D01*
X63650158Y-68998944D01*
X63650157Y-68998944D01*
X63606397Y-68990010D01*
X63411525Y-68950226D01*
X63411517Y-68950225D01*
X63168167Y-68940418D01*
X63168166Y-68940418D01*
X62926378Y-68969776D01*
X62692443Y-69037537D01*
X62692440Y-69037538D01*
X62472392Y-69141951D01*
X62271951Y-69280307D01*
X62271950Y-69280308D01*
X62096299Y-69449022D01*
X61949986Y-69643729D01*
X61949980Y-69643740D01*
X61836796Y-69859392D01*
X61836795Y-69859396D01*
X61759668Y-70090417D01*
X61759668Y-70090418D01*
X61720600Y-70330818D01*
X61720600Y-72713406D01*
X48217445Y-72713406D01*
X48298679Y-72506426D01*
X48298685Y-72506407D01*
X48354378Y-72262399D01*
X48354378Y-72262397D01*
X48373083Y-72012804D01*
X48373083Y-72012795D01*
X48354378Y-71763202D01*
X48354378Y-71763200D01*
X48298685Y-71519192D01*
X48298679Y-71519173D01*
X48207236Y-71286181D01*
X48082088Y-71069418D01*
X48082081Y-71069407D01*
X48043599Y-71021154D01*
X48043598Y-71021153D01*
X47300946Y-71763804D01*
X47291212Y-71733844D01*
X47203214Y-71595181D01*
X47083497Y-71482760D01*
X46948888Y-71408757D01*
X47689995Y-70667650D01*
X47535735Y-70562478D01*
X47535734Y-70562477D01*
X47310232Y-70453883D01*
X47310234Y-70453883D01*
X47071053Y-70380105D01*
X47071047Y-70380103D01*
X46823556Y-70342800D01*
X46573243Y-70342800D01*
X46325752Y-70380103D01*
X46325746Y-70380105D01*
X46086566Y-70453883D01*
X45861064Y-70562479D01*
X45861051Y-70562486D01*
X45706803Y-70667649D01*
X46450866Y-71411712D01*
X46382771Y-71438674D01*
X46249908Y-71535205D01*
X46145225Y-71661745D01*
X46096767Y-71764721D01*
X45353200Y-71021154D01*
X45314711Y-71069417D01*
X45189563Y-71286181D01*
X45098120Y-71519173D01*
X45098114Y-71519192D01*
X45042421Y-71763200D01*
X45042421Y-71763202D01*
X45023717Y-72012795D01*
X45023717Y-72012804D01*
X43381607Y-72012804D01*
X43381607Y-72012795D01*
X43362807Y-71761933D01*
X43356396Y-71733844D01*
X43306827Y-71516666D01*
X43214917Y-71282484D01*
X43089131Y-71064616D01*
X42932278Y-70867928D01*
X42747862Y-70696816D01*
X42621788Y-70610860D01*
X42540007Y-70555102D01*
X42539996Y-70555095D01*
X42313347Y-70445948D01*
X42313349Y-70445948D01*
X42072950Y-70371795D01*
X42072944Y-70371793D01*
X41824193Y-70334300D01*
X41824186Y-70334300D01*
X41572614Y-70334300D01*
X41572606Y-70334300D01*
X41323855Y-70371793D01*
X41323849Y-70371795D01*
X41083454Y-70445947D01*
X40856801Y-70555097D01*
X40648937Y-70696816D01*
X40464523Y-70867926D01*
X40464522Y-70867928D01*
X40307669Y-71064616D01*
X40181883Y-71282483D01*
X40089975Y-71516660D01*
X40089970Y-71516677D01*
X40033992Y-71761933D01*
X40015193Y-72012795D01*
X40015193Y-72012804D01*
X28017200Y-72012804D01*
X28020692Y-70296254D01*
X55020600Y-70296254D01*
X55027111Y-70356802D01*
X55027111Y-70356804D01*
X55060361Y-70445947D01*
X55078211Y-70493804D01*
X55165839Y-70610861D01*
X55282896Y-70698489D01*
X55419899Y-70749589D01*
X55447150Y-70752518D01*
X55480445Y-70756099D01*
X55480462Y-70756100D01*
X60177738Y-70756100D01*
X60177754Y-70756099D01*
X60204792Y-70753191D01*
X60238301Y-70749589D01*
X60375304Y-70698489D01*
X60492361Y-70610861D01*
X60579989Y-70493804D01*
X60631089Y-70356801D01*
X60634691Y-70323292D01*
X60637599Y-70296254D01*
X60637600Y-70296237D01*
X60637600Y-68198962D01*
X60637599Y-68198945D01*
X60634257Y-68167870D01*
X60631089Y-68138399D01*
X60579989Y-68001396D01*
X60492361Y-67884339D01*
X60375304Y-67796711D01*
X60238303Y-67745611D01*
X60177754Y-67739100D01*
X60177738Y-67739100D01*
X55480462Y-67739100D01*
X55480445Y-67739100D01*
X55419897Y-67745611D01*
X55419895Y-67745611D01*
X55282895Y-67796711D01*
X55165839Y-67884339D01*
X55078211Y-68001395D01*
X55027111Y-68138395D01*
X55027111Y-68138397D01*
X55020600Y-68198945D01*
X55020600Y-70296254D01*
X28020692Y-70296254D01*
X28028666Y-66376908D01*
X28048487Y-66309911D01*
X28101384Y-66264264D01*
X28170563Y-66254461D01*
X28222169Y-66274473D01*
X28263443Y-66302408D01*
X28263455Y-66302415D01*
X28453926Y-66383980D01*
X28453933Y-66383982D01*
X28656398Y-66428026D01*
X28702966Y-66430799D01*
X30950799Y-66430799D01*
X30950800Y-66430798D01*
X30950800Y-65010800D01*
X31450800Y-65010800D01*
X31450800Y-66430799D01*
X33698632Y-66430799D01*
X33698634Y-66430798D01*
X33745200Y-66428025D01*
X33947666Y-66383982D01*
X33947673Y-66383980D01*
X34138144Y-66302415D01*
X34138148Y-66302412D01*
X34309748Y-66186271D01*
X34309753Y-66186267D01*
X34456267Y-66039753D01*
X34456271Y-66039748D01*
X34572412Y-65868148D01*
X34572415Y-65868144D01*
X34653980Y-65677673D01*
X34653982Y-65677666D01*
X34698026Y-65475201D01*
X34700800Y-65428633D01*
X34700800Y-65010800D01*
X31450800Y-65010800D01*
X30950800Y-65010800D01*
X30950800Y-64750804D01*
X37076117Y-64750804D01*
X37094821Y-65000397D01*
X37094821Y-65000399D01*
X37150514Y-65244407D01*
X37150520Y-65244426D01*
X37241963Y-65477418D01*
X37367111Y-65694181D01*
X37367118Y-65694192D01*
X37405599Y-65742445D01*
X37405600Y-65742445D01*
X38148252Y-64999793D01*
X38157988Y-65029756D01*
X38245986Y-65168419D01*
X38365703Y-65280840D01*
X38500310Y-65354841D01*
X37759203Y-66095948D01*
X37913458Y-66201117D01*
X37913466Y-66201122D01*
X38138967Y-66309716D01*
X38138965Y-66309716D01*
X38378146Y-66383494D01*
X38378152Y-66383496D01*
X38625643Y-66420799D01*
X38625652Y-66420800D01*
X38875948Y-66420800D01*
X38875956Y-66420799D01*
X39123447Y-66383496D01*
X39123453Y-66383494D01*
X39362633Y-66309716D01*
X39588134Y-66201122D01*
X39588144Y-66201115D01*
X39742395Y-66095948D01*
X38998334Y-65351886D01*
X39066429Y-65324926D01*
X39199292Y-65228395D01*
X39303975Y-65101855D01*
X39352431Y-64998879D01*
X40095997Y-65742445D01*
X40095998Y-65742444D01*
X40134490Y-65694179D01*
X40259636Y-65477418D01*
X40351079Y-65244426D01*
X40351085Y-65244407D01*
X40406778Y-65000399D01*
X40406778Y-65000397D01*
X40425483Y-64750804D01*
X40425483Y-64750795D01*
X40406778Y-64501202D01*
X40406778Y-64501200D01*
X40386968Y-64414405D01*
X61029659Y-64414405D01*
X61050185Y-64662129D01*
X61050187Y-64662138D01*
X61111212Y-64903117D01*
X61211066Y-65130764D01*
X61311364Y-65284282D01*
X62051723Y-64543923D01*
X62075307Y-64624244D01*
X62153039Y-64745198D01*
X62261700Y-64839352D01*
X62392485Y-64899080D01*
X62402266Y-64900486D01*
X61664742Y-65638009D01*
X61711568Y-65674455D01*
X61711570Y-65674456D01*
X61930185Y-65792764D01*
X61930196Y-65792769D01*
X62165306Y-65873483D01*
X62410507Y-65914400D01*
X62659093Y-65914400D01*
X62904293Y-65873483D01*
X63139403Y-65792769D01*
X63139414Y-65792764D01*
X63358028Y-65674457D01*
X63358031Y-65674455D01*
X63404856Y-65638009D01*
X62667333Y-64900486D01*
X62677115Y-64899080D01*
X62807900Y-64839352D01*
X62916561Y-64745198D01*
X62994293Y-64624244D01*
X63017876Y-64543924D01*
X63758234Y-65284282D01*
X63858531Y-65130769D01*
X63958387Y-64903117D01*
X64019412Y-64662138D01*
X64019414Y-64662129D01*
X64039941Y-64414405D01*
X64039941Y-64414394D01*
X64019414Y-64166670D01*
X64019412Y-64166661D01*
X63958387Y-63925682D01*
X63858531Y-63698030D01*
X63758234Y-63544516D01*
X63017876Y-64284875D01*
X62994293Y-64204556D01*
X62916561Y-64083602D01*
X62807900Y-63989448D01*
X62677115Y-63929720D01*
X62667334Y-63928313D01*
X63404857Y-63190790D01*
X63404856Y-63190789D01*
X63358029Y-63154343D01*
X63139414Y-63036035D01*
X63139403Y-63036030D01*
X62904293Y-62955316D01*
X62659093Y-62914400D01*
X62410507Y-62914400D01*
X62165306Y-62955316D01*
X61930196Y-63036030D01*
X61930190Y-63036032D01*
X61711561Y-63154349D01*
X61664742Y-63190788D01*
X61664742Y-63190790D01*
X62402266Y-63928313D01*
X62392485Y-63929720D01*
X62261700Y-63989448D01*
X62153039Y-64083602D01*
X62075307Y-64204556D01*
X62051723Y-64284875D01*
X61311364Y-63544516D01*
X61211067Y-63698032D01*
X61111212Y-63925682D01*
X61050187Y-64166661D01*
X61050185Y-64166670D01*
X61029659Y-64414394D01*
X61029659Y-64414405D01*
X40386968Y-64414405D01*
X40351085Y-64257192D01*
X40351079Y-64257173D01*
X40259636Y-64024181D01*
X40134488Y-63807418D01*
X40134481Y-63807407D01*
X40095999Y-63759154D01*
X40095998Y-63759153D01*
X39353346Y-64501804D01*
X39343612Y-64471844D01*
X39255614Y-64333181D01*
X39135897Y-64220760D01*
X39001288Y-64146757D01*
X39742395Y-63405650D01*
X39588135Y-63300478D01*
X39588134Y-63300477D01*
X39362632Y-63191883D01*
X39362634Y-63191883D01*
X39123453Y-63118105D01*
X39123447Y-63118103D01*
X38875956Y-63080800D01*
X38625643Y-63080800D01*
X38378152Y-63118103D01*
X38378146Y-63118105D01*
X38138966Y-63191883D01*
X37913464Y-63300479D01*
X37913451Y-63300486D01*
X37759203Y-63405649D01*
X38503266Y-64149712D01*
X38435171Y-64176674D01*
X38302308Y-64273205D01*
X38197625Y-64399745D01*
X38149167Y-64502721D01*
X37405600Y-63759154D01*
X37367111Y-63807417D01*
X37241963Y-64024181D01*
X37150520Y-64257173D01*
X37150514Y-64257192D01*
X37094821Y-64501200D01*
X37094821Y-64501202D01*
X37076117Y-64750795D01*
X37076117Y-64750804D01*
X30950800Y-64750804D01*
X30950800Y-63090800D01*
X31450800Y-63090800D01*
X31450800Y-64510800D01*
X34700799Y-64510800D01*
X34700799Y-64092968D01*
X34700798Y-64092965D01*
X34698025Y-64046399D01*
X34653982Y-63843933D01*
X34653980Y-63843926D01*
X34572415Y-63653455D01*
X34572412Y-63653451D01*
X34456271Y-63481851D01*
X34456267Y-63481846D01*
X34309753Y-63335332D01*
X34309748Y-63335328D01*
X34138148Y-63219187D01*
X34138144Y-63219184D01*
X33947673Y-63137619D01*
X33947666Y-63137617D01*
X33745201Y-63093573D01*
X33698634Y-63090800D01*
X31450800Y-63090800D01*
X30950800Y-63090800D01*
X28702968Y-63090800D01*
X28702965Y-63090801D01*
X28656399Y-63093574D01*
X28453933Y-63137617D01*
X28453926Y-63137619D01*
X28263455Y-63219184D01*
X28263445Y-63219190D01*
X28228754Y-63242670D01*
X28162202Y-63263944D01*
X28094714Y-63245860D01*
X28047715Y-63194160D01*
X28035253Y-63139731D01*
X28038906Y-61344097D01*
X28058725Y-61277107D01*
X28111622Y-61231459D01*
X28180801Y-61221656D01*
X28232406Y-61241667D01*
X28233629Y-61242495D01*
X28259357Y-61259908D01*
X28259362Y-61259910D01*
X28419068Y-61328300D01*
X28451330Y-61342115D01*
X28451332Y-61342115D01*
X28451337Y-61342117D01*
X28534424Y-61360190D01*
X28655390Y-61386505D01*
X28702307Y-61389300D01*
X33699292Y-61389299D01*
X33746210Y-61386505D01*
X33950270Y-61342115D01*
X34142243Y-61259908D01*
X34315188Y-61142855D01*
X34462855Y-60995188D01*
X34579908Y-60822243D01*
X34662115Y-60630270D01*
X34662117Y-60630261D01*
X34667190Y-60606943D01*
X34700674Y-60545620D01*
X34761997Y-60512134D01*
X34788356Y-60509300D01*
X37178964Y-60509300D01*
X37246003Y-60528985D01*
X37286350Y-60571299D01*
X37360069Y-60698984D01*
X37516922Y-60895672D01*
X37701338Y-61066784D01*
X37909197Y-61208500D01*
X38135855Y-61317653D01*
X38376251Y-61391805D01*
X38376252Y-61391805D01*
X38376255Y-61391806D01*
X38625006Y-61429299D01*
X38625011Y-61429299D01*
X38625014Y-61429300D01*
X38625015Y-61429300D01*
X38876585Y-61429300D01*
X38876586Y-61429300D01*
X38876593Y-61429299D01*
X39125344Y-61391806D01*
X39125345Y-61391805D01*
X39125349Y-61391805D01*
X39365745Y-61317653D01*
X39592404Y-61208500D01*
X39800262Y-61066784D01*
X39984678Y-60895672D01*
X40141531Y-60698984D01*
X40215249Y-60571299D01*
X40265816Y-60523084D01*
X40322636Y-60509300D01*
X62446144Y-60509300D01*
X62509120Y-60509300D01*
X62516330Y-60509510D01*
X62579203Y-60513172D01*
X62589405Y-60511372D01*
X62590478Y-60511184D01*
X62612010Y-60509300D01*
X65948957Y-60509300D01*
X66015996Y-60528985D01*
X66036638Y-60545619D01*
X68068696Y-62577677D01*
X68080477Y-62591309D01*
X68095031Y-62610858D01*
X68133435Y-62643083D01*
X68141401Y-62650382D01*
X68145400Y-62654381D01*
X68169970Y-62673808D01*
X68172766Y-62676086D01*
X68218506Y-62714465D01*
X68230860Y-62724832D01*
X68230862Y-62724833D01*
X68236896Y-62728802D01*
X68236870Y-62728841D01*
X68243427Y-62733018D01*
X68243453Y-62732978D01*
X68249591Y-62736764D01*
X68249595Y-62736767D01*
X68318331Y-62768819D01*
X68321544Y-62770374D01*
X68389312Y-62804409D01*
X68389317Y-62804410D01*
X68396106Y-62806882D01*
X68396089Y-62806928D01*
X68403424Y-62809477D01*
X68403440Y-62809432D01*
X68410289Y-62811702D01*
X68410294Y-62811703D01*
X68484650Y-62827056D01*
X68488057Y-62827811D01*
X68561844Y-62845300D01*
X68561850Y-62845300D01*
X68569017Y-62846138D01*
X68569011Y-62846186D01*
X68576742Y-62846977D01*
X68576747Y-62846930D01*
X68583937Y-62847559D01*
X68583941Y-62847558D01*
X68583942Y-62847559D01*
X68659793Y-62845352D01*
X68663399Y-62845300D01*
X68871574Y-62845300D01*
X68938613Y-62864985D01*
X68973146Y-62898173D01*
X68996202Y-62931100D01*
X69158100Y-63092998D01*
X69302574Y-63194160D01*
X69345651Y-63224323D01*
X69398801Y-63249107D01*
X69451240Y-63295279D01*
X69470392Y-63362473D01*
X69450176Y-63429354D01*
X69398801Y-63473871D01*
X69349917Y-63496665D01*
X69163579Y-63627142D01*
X69002742Y-63787979D01*
X68872265Y-63974317D01*
X68776134Y-64180473D01*
X68776130Y-64180482D01*
X68723527Y-64376799D01*
X68723528Y-64376800D01*
X69686714Y-64376800D01*
X69674759Y-64388755D01*
X69617235Y-64501652D01*
X69597414Y-64626800D01*
X69617235Y-64751948D01*
X69674759Y-64864845D01*
X69686714Y-64876800D01*
X68723528Y-64876800D01*
X68776130Y-65073117D01*
X68776134Y-65073126D01*
X68872265Y-65279282D01*
X69002742Y-65465620D01*
X69163579Y-65626457D01*
X69349917Y-65756934D01*
X69556073Y-65853065D01*
X69556082Y-65853069D01*
X69752399Y-65905672D01*
X69752400Y-65905671D01*
X69752400Y-64942486D01*
X69764355Y-64954441D01*
X69877252Y-65011965D01*
X69970919Y-65026800D01*
X70033881Y-65026800D01*
X70127548Y-65011965D01*
X70240445Y-64954441D01*
X70252400Y-64942486D01*
X70252400Y-65905672D01*
X70448717Y-65853069D01*
X70448726Y-65853065D01*
X70654882Y-65756934D01*
X70841220Y-65626457D01*
X71002057Y-65465620D01*
X71132534Y-65279282D01*
X71228665Y-65073126D01*
X71228669Y-65073117D01*
X71281272Y-64876800D01*
X70318086Y-64876800D01*
X70330041Y-64864845D01*
X70387565Y-64751948D01*
X70407386Y-64626801D01*
X76308902Y-64626801D01*
X76328856Y-64854881D01*
X76328857Y-64854889D01*
X76388114Y-65076038D01*
X76388118Y-65076049D01*
X76431191Y-65168419D01*
X76484877Y-65283549D01*
X76616202Y-65471100D01*
X76778100Y-65632998D01*
X76965651Y-65764323D01*
X77026654Y-65792769D01*
X77173150Y-65861081D01*
X77173152Y-65861081D01*
X77173157Y-65861084D01*
X77394313Y-65920343D01*
X77557232Y-65934596D01*
X77622398Y-65940298D01*
X77622400Y-65940298D01*
X77622402Y-65940298D01*
X77679421Y-65935309D01*
X77850487Y-65920343D01*
X78071643Y-65861084D01*
X78279149Y-65764323D01*
X78466700Y-65632998D01*
X78628598Y-65471100D01*
X78759923Y-65283549D01*
X78856684Y-65076043D01*
X78915943Y-64854887D01*
X78935898Y-64626800D01*
X78935674Y-64624244D01*
X78924949Y-64501652D01*
X78915943Y-64398713D01*
X78856684Y-64177557D01*
X78856272Y-64176674D01*
X78802882Y-64062178D01*
X78759923Y-63970051D01*
X78628598Y-63782500D01*
X78466700Y-63620602D01*
X78279149Y-63489277D01*
X78236055Y-63469182D01*
X78183615Y-63423010D01*
X78164463Y-63355817D01*
X78184678Y-63288936D01*
X78236055Y-63244418D01*
X78239803Y-63242670D01*
X78279149Y-63224323D01*
X78466700Y-63092998D01*
X78599580Y-62960117D01*
X78660899Y-62926635D01*
X78730591Y-62931619D01*
X78774939Y-62960120D01*
X79721696Y-63906877D01*
X79733478Y-63920510D01*
X79740334Y-63929720D01*
X79748031Y-63940058D01*
X79786435Y-63972283D01*
X79794401Y-63979582D01*
X79798400Y-63983581D01*
X79822970Y-64003008D01*
X79825766Y-64005286D01*
X79848285Y-64024181D01*
X79883860Y-64054032D01*
X79883862Y-64054033D01*
X79889896Y-64058002D01*
X79889870Y-64058041D01*
X79896427Y-64062218D01*
X79896453Y-64062178D01*
X79902591Y-64065964D01*
X79902595Y-64065967D01*
X79960499Y-64092968D01*
X79971331Y-64098019D01*
X79974544Y-64099574D01*
X80042312Y-64133609D01*
X80042317Y-64133610D01*
X80049106Y-64136082D01*
X80049089Y-64136128D01*
X80056424Y-64138677D01*
X80056440Y-64138632D01*
X80063289Y-64140902D01*
X80063294Y-64140903D01*
X80137650Y-64156256D01*
X80141057Y-64157011D01*
X80214844Y-64174500D01*
X80214850Y-64174500D01*
X80222017Y-64175338D01*
X80222011Y-64175386D01*
X80229742Y-64176177D01*
X80229747Y-64176130D01*
X80236937Y-64176759D01*
X80236941Y-64176758D01*
X80236942Y-64176759D01*
X80312793Y-64174552D01*
X80316399Y-64174500D01*
X84517326Y-64174500D01*
X84584365Y-64194185D01*
X84630120Y-64246989D01*
X84640615Y-64285245D01*
X84644910Y-64325201D01*
X84644911Y-64325204D01*
X84696011Y-64462204D01*
X84783639Y-64579261D01*
X84900696Y-64666889D01*
X85037699Y-64717989D01*
X85064950Y-64720918D01*
X85098245Y-64724499D01*
X85098262Y-64724500D01*
X86795538Y-64724500D01*
X86795554Y-64724499D01*
X86822592Y-64721591D01*
X86856101Y-64717989D01*
X86993104Y-64666889D01*
X87110161Y-64579261D01*
X87197789Y-64462204D01*
X87248889Y-64325201D01*
X87254479Y-64273205D01*
X87255399Y-64264654D01*
X87255577Y-64261331D01*
X87255755Y-64261340D01*
X87255756Y-64261335D01*
X87255859Y-64261346D01*
X87257028Y-64261408D01*
X87275085Y-64199915D01*
X87327889Y-64154160D01*
X87360867Y-64148479D01*
X88048946Y-63460400D01*
X88061735Y-63541148D01*
X88119259Y-63654045D01*
X88208855Y-63743641D01*
X88321752Y-63801165D01*
X88402499Y-63813953D01*
X87721426Y-64495025D01*
X87794413Y-64546132D01*
X87794421Y-64546136D01*
X88000568Y-64642264D01*
X88000582Y-64642269D01*
X88220289Y-64701139D01*
X88220300Y-64701141D01*
X88446898Y-64720966D01*
X88446902Y-64720966D01*
X88673499Y-64701141D01*
X88673510Y-64701139D01*
X88893217Y-64642269D01*
X88893231Y-64642264D01*
X89099378Y-64546136D01*
X89172371Y-64495024D01*
X88491300Y-63813953D01*
X88572048Y-63801165D01*
X88684945Y-63743641D01*
X88774541Y-63654045D01*
X88832065Y-63541148D01*
X88844853Y-63460400D01*
X89525924Y-64141471D01*
X89577036Y-64068478D01*
X89673164Y-63862331D01*
X89673169Y-63862317D01*
X89732039Y-63642610D01*
X89732041Y-63642599D01*
X89751866Y-63416002D01*
X89751866Y-63415997D01*
X89732041Y-63189400D01*
X89732039Y-63189389D01*
X89673169Y-62969682D01*
X89673164Y-62969668D01*
X89577036Y-62763521D01*
X89577032Y-62763513D01*
X89525925Y-62690526D01*
X88844853Y-63371598D01*
X88832065Y-63290852D01*
X88774541Y-63177955D01*
X88684945Y-63088359D01*
X88572048Y-63030835D01*
X88491301Y-63018046D01*
X89172372Y-62336974D01*
X89099378Y-62285863D01*
X88893231Y-62189735D01*
X88893217Y-62189730D01*
X88673510Y-62130860D01*
X88673499Y-62130858D01*
X88446902Y-62111034D01*
X88446898Y-62111034D01*
X88220300Y-62130858D01*
X88220289Y-62130860D01*
X88000582Y-62189730D01*
X88000573Y-62189734D01*
X87794416Y-62285866D01*
X87794412Y-62285868D01*
X87721426Y-62336973D01*
X87721426Y-62336974D01*
X88402499Y-63018046D01*
X88321752Y-63030835D01*
X88208855Y-63088359D01*
X88119259Y-63177955D01*
X88061735Y-63290852D01*
X88048946Y-63371598D01*
X87359810Y-62682463D01*
X87321705Y-62674804D01*
X87271523Y-62626188D01*
X87256865Y-62570600D01*
X87255859Y-62570653D01*
X87255756Y-62570665D01*
X87255755Y-62570659D01*
X87255577Y-62570669D01*
X87255399Y-62567345D01*
X87252032Y-62536038D01*
X87248889Y-62506799D01*
X87197789Y-62369796D01*
X87110161Y-62252739D01*
X86993104Y-62165111D01*
X86856103Y-62114011D01*
X86795554Y-62107500D01*
X86795538Y-62107500D01*
X85098262Y-62107500D01*
X85098245Y-62107500D01*
X85037697Y-62114011D01*
X85037695Y-62114011D01*
X84900695Y-62165111D01*
X84783639Y-62252739D01*
X84696011Y-62369795D01*
X84644911Y-62506795D01*
X84644910Y-62506798D01*
X84640615Y-62546755D01*
X84613877Y-62611306D01*
X84556485Y-62651155D01*
X84517326Y-62657500D01*
X80669043Y-62657500D01*
X80602004Y-62637815D01*
X80581362Y-62621181D01*
X79556104Y-61595923D01*
X79544322Y-61582290D01*
X79529772Y-61562746D01*
X79529771Y-61562745D01*
X79529769Y-61562742D01*
X79528680Y-61561828D01*
X79491359Y-61530511D01*
X79483385Y-61523204D01*
X79479402Y-61519221D01*
X79479396Y-61519216D01*
X79454812Y-61499776D01*
X79452019Y-61497501D01*
X79393942Y-61448770D01*
X79393940Y-61448768D01*
X79393935Y-61448765D01*
X79387905Y-61444799D01*
X79387930Y-61444759D01*
X79381369Y-61440579D01*
X79381345Y-61440620D01*
X79375207Y-61436834D01*
X79375206Y-61436833D01*
X79375203Y-61436832D01*
X79375199Y-61436829D01*
X79306460Y-61404774D01*
X79303216Y-61403204D01*
X79235485Y-61369189D01*
X79228701Y-61366720D01*
X79228716Y-61366676D01*
X79221371Y-61364122D01*
X79221357Y-61364167D01*
X79214505Y-61361896D01*
X79140226Y-61346558D01*
X79136708Y-61345778D01*
X79062953Y-61328299D01*
X79055782Y-61327461D01*
X79055787Y-61327412D01*
X79048057Y-61326622D01*
X79048053Y-61326670D01*
X79040862Y-61326040D01*
X78965007Y-61328248D01*
X78961401Y-61328300D01*
X78753226Y-61328300D01*
X78686187Y-61308615D01*
X78651652Y-61275425D01*
X78628598Y-61242500D01*
X78466700Y-61080602D01*
X78279149Y-60949277D01*
X78236055Y-60929182D01*
X78183615Y-60883010D01*
X78164463Y-60815817D01*
X78184678Y-60748936D01*
X78236055Y-60704418D01*
X78239282Y-60702912D01*
X78279149Y-60684323D01*
X78466700Y-60552998D01*
X78628598Y-60391100D01*
X78651652Y-60358174D01*
X78706229Y-60314551D01*
X78753226Y-60305300D01*
X81849906Y-60305300D01*
X81867876Y-60306609D01*
X81870374Y-60306974D01*
X81891989Y-60310141D01*
X81941927Y-60305771D01*
X81952734Y-60305300D01*
X81958375Y-60305300D01*
X81958380Y-60305300D01*
X81989570Y-60301653D01*
X81993051Y-60301298D01*
X82044022Y-60296839D01*
X82068618Y-60294688D01*
X82068620Y-60294687D01*
X82068626Y-60294687D01*
X82068631Y-60294685D01*
X82075693Y-60293227D01*
X82075702Y-60293274D01*
X82083297Y-60291590D01*
X82083287Y-60291544D01*
X82090308Y-60289879D01*
X82090313Y-60289879D01*
X82161614Y-60263926D01*
X82164908Y-60262781D01*
X82236938Y-60238914D01*
X82236944Y-60238910D01*
X82243484Y-60235861D01*
X82243505Y-60235906D01*
X82250502Y-60232519D01*
X82250480Y-60232475D01*
X82256928Y-60229236D01*
X82256932Y-60229235D01*
X82320303Y-60187553D01*
X82323310Y-60185637D01*
X82387851Y-60145830D01*
X82387856Y-60145824D01*
X82393519Y-60141348D01*
X82393550Y-60141387D01*
X82399574Y-60136480D01*
X82399542Y-60136442D01*
X82405064Y-60131806D01*
X82405074Y-60131801D01*
X82457162Y-60076589D01*
X82459609Y-60074070D01*
X84532914Y-58000765D01*
X84594235Y-57967282D01*
X84663927Y-57972266D01*
X84719858Y-58014136D01*
X84753639Y-58059261D01*
X84870696Y-58146889D01*
X85007699Y-58197989D01*
X85034950Y-58200918D01*
X85068245Y-58204499D01*
X85068262Y-58204500D01*
X86765538Y-58204500D01*
X86765554Y-58204499D01*
X86792592Y-58201591D01*
X86826101Y-58197989D01*
X86963104Y-58146889D01*
X87080161Y-58059261D01*
X87167789Y-57942204D01*
X87218889Y-57805201D01*
X87222491Y-57771692D01*
X87225399Y-57744654D01*
X87225577Y-57741331D01*
X87225755Y-57741340D01*
X87225756Y-57741335D01*
X87225859Y-57741346D01*
X87227028Y-57741408D01*
X87245085Y-57679915D01*
X87297889Y-57634160D01*
X87330867Y-57628479D01*
X88018946Y-56940400D01*
X88031735Y-57021148D01*
X88089259Y-57134045D01*
X88178855Y-57223641D01*
X88291752Y-57281165D01*
X88372499Y-57293953D01*
X87691426Y-57975025D01*
X87764413Y-58026132D01*
X87764421Y-58026136D01*
X87970568Y-58122264D01*
X87970582Y-58122269D01*
X88190289Y-58181139D01*
X88190300Y-58181141D01*
X88416898Y-58200966D01*
X88416902Y-58200966D01*
X88643499Y-58181141D01*
X88643510Y-58181139D01*
X88863217Y-58122269D01*
X88863231Y-58122264D01*
X89069378Y-58026136D01*
X89142371Y-57975024D01*
X88461300Y-57293953D01*
X88542048Y-57281165D01*
X88654945Y-57223641D01*
X88744541Y-57134045D01*
X88802065Y-57021148D01*
X88814853Y-56940400D01*
X89495924Y-57621471D01*
X89547036Y-57548478D01*
X89643164Y-57342331D01*
X89643169Y-57342317D01*
X89702039Y-57122610D01*
X89702041Y-57122599D01*
X89721866Y-56896002D01*
X89721866Y-56895997D01*
X89702041Y-56669400D01*
X89702039Y-56669389D01*
X89643169Y-56449682D01*
X89643164Y-56449668D01*
X89547036Y-56243521D01*
X89547032Y-56243513D01*
X89495925Y-56170526D01*
X88814853Y-56851598D01*
X88802065Y-56770852D01*
X88744541Y-56657955D01*
X88654945Y-56568359D01*
X88542048Y-56510835D01*
X88461301Y-56498046D01*
X89142372Y-55816974D01*
X89069378Y-55765863D01*
X88863231Y-55669735D01*
X88863217Y-55669730D01*
X88643510Y-55610860D01*
X88643499Y-55610858D01*
X88416902Y-55591034D01*
X88416898Y-55591034D01*
X88190300Y-55610858D01*
X88190289Y-55610860D01*
X87970582Y-55669730D01*
X87970573Y-55669734D01*
X87764416Y-55765866D01*
X87764412Y-55765868D01*
X87691426Y-55816973D01*
X87691426Y-55816974D01*
X88372499Y-56498046D01*
X88291752Y-56510835D01*
X88178855Y-56568359D01*
X88089259Y-56657955D01*
X88031735Y-56770852D01*
X88018946Y-56851598D01*
X87329810Y-56162463D01*
X87291705Y-56154804D01*
X87241523Y-56106188D01*
X87226865Y-56050600D01*
X87225859Y-56050653D01*
X87225756Y-56050665D01*
X87225755Y-56050659D01*
X87225577Y-56050669D01*
X87225399Y-56047345D01*
X87220373Y-56000602D01*
X87218889Y-55986799D01*
X87209115Y-55960595D01*
X87184900Y-55895672D01*
X87167789Y-55849796D01*
X87080161Y-55732739D01*
X86963104Y-55645111D01*
X86826103Y-55594011D01*
X86765554Y-55587500D01*
X86765538Y-55587500D01*
X85068262Y-55587500D01*
X85068245Y-55587500D01*
X85007697Y-55594011D01*
X85007695Y-55594011D01*
X84870695Y-55645111D01*
X84753639Y-55732739D01*
X84666011Y-55849795D01*
X84614911Y-55986795D01*
X84614911Y-55986797D01*
X84610280Y-56029866D01*
X84583541Y-56094417D01*
X84526148Y-56134264D01*
X84501387Y-56139771D01*
X84489683Y-56141139D01*
X84486095Y-56141505D01*
X84410576Y-56148112D01*
X84403503Y-56149573D01*
X84403493Y-56149526D01*
X84395905Y-56151209D01*
X84395916Y-56151255D01*
X84388890Y-56152920D01*
X84388887Y-56152920D01*
X84388887Y-56152921D01*
X84374534Y-56158145D01*
X84317661Y-56178844D01*
X84314260Y-56180026D01*
X84242260Y-56203886D01*
X84235713Y-56206939D01*
X84235693Y-56206896D01*
X84228702Y-56210280D01*
X84228724Y-56210323D01*
X84222270Y-56213564D01*
X84222269Y-56213564D01*
X84222268Y-56213565D01*
X84158891Y-56255247D01*
X84155885Y-56257162D01*
X84091352Y-56296968D01*
X84085682Y-56301451D01*
X84085652Y-56301413D01*
X84079627Y-56306322D01*
X84079657Y-56306357D01*
X84074126Y-56310997D01*
X84022052Y-56366191D01*
X84019541Y-56368776D01*
X81636338Y-58751981D01*
X81575015Y-58785466D01*
X81548657Y-58788300D01*
X78753226Y-58788300D01*
X78686187Y-58768615D01*
X78651652Y-58735425D01*
X78628598Y-58702500D01*
X78466700Y-58540602D01*
X78279149Y-58409277D01*
X78236055Y-58389182D01*
X78183615Y-58343010D01*
X78164463Y-58275817D01*
X78184678Y-58208936D01*
X78236055Y-58164418D01*
X78239282Y-58162912D01*
X78279149Y-58144323D01*
X78466700Y-58012998D01*
X78628598Y-57851100D01*
X78759923Y-57663549D01*
X78856684Y-57456043D01*
X78915943Y-57234887D01*
X78935898Y-57006800D01*
X78915943Y-56778713D01*
X78856684Y-56557557D01*
X78759923Y-56350051D01*
X78628598Y-56162500D01*
X78466700Y-56000602D01*
X78279149Y-55869277D01*
X78279145Y-55869275D01*
X78071649Y-55772518D01*
X78071638Y-55772514D01*
X77850489Y-55713257D01*
X77850481Y-55713256D01*
X77622402Y-55693302D01*
X77622398Y-55693302D01*
X77394318Y-55713256D01*
X77394310Y-55713257D01*
X77173161Y-55772514D01*
X77173150Y-55772518D01*
X76965654Y-55869275D01*
X76965652Y-55869276D01*
X76927955Y-55895672D01*
X76778100Y-56000602D01*
X76778098Y-56000603D01*
X76778095Y-56000606D01*
X76616206Y-56162495D01*
X76616203Y-56162498D01*
X76616202Y-56162500D01*
X76559476Y-56243513D01*
X76484876Y-56350052D01*
X76484875Y-56350054D01*
X76388118Y-56557550D01*
X76388114Y-56557561D01*
X76328857Y-56778710D01*
X76328856Y-56778718D01*
X76308902Y-57006798D01*
X76308902Y-57006801D01*
X76328856Y-57234881D01*
X76328857Y-57234889D01*
X76388114Y-57456038D01*
X76388118Y-57456049D01*
X76471173Y-57634160D01*
X76484877Y-57663549D01*
X76616202Y-57851100D01*
X76778100Y-58012998D01*
X76957446Y-58138578D01*
X76965651Y-58144323D01*
X77008745Y-58164418D01*
X77061184Y-58210591D01*
X77080336Y-58277784D01*
X77060120Y-58344665D01*
X77008745Y-58389182D01*
X76965651Y-58409276D01*
X76861742Y-58482035D01*
X76778100Y-58540602D01*
X76778098Y-58540603D01*
X76778095Y-58540606D01*
X76616206Y-58702495D01*
X76616203Y-58702498D01*
X76616202Y-58702500D01*
X76546100Y-58802616D01*
X76484876Y-58890052D01*
X76484875Y-58890054D01*
X76388118Y-59097550D01*
X76388114Y-59097561D01*
X76328857Y-59318710D01*
X76328856Y-59318718D01*
X76308902Y-59546798D01*
X76308902Y-59546801D01*
X76328856Y-59774881D01*
X76328857Y-59774889D01*
X76388114Y-59996038D01*
X76388118Y-59996049D01*
X76457961Y-60145828D01*
X76484877Y-60203549D01*
X76616202Y-60391100D01*
X76778100Y-60552998D01*
X76955097Y-60676933D01*
X76965651Y-60684323D01*
X77008745Y-60704418D01*
X77061184Y-60750591D01*
X77080336Y-60817784D01*
X77060120Y-60884665D01*
X77008745Y-60929182D01*
X76965651Y-60949276D01*
X76840526Y-61036890D01*
X76778100Y-61080602D01*
X76778098Y-61080603D01*
X76778095Y-61080606D01*
X76616206Y-61242495D01*
X76616203Y-61242498D01*
X76616202Y-61242500D01*
X76556125Y-61328299D01*
X76484876Y-61430052D01*
X76484875Y-61430054D01*
X76388118Y-61637550D01*
X76388114Y-61637561D01*
X76328857Y-61858710D01*
X76328856Y-61858718D01*
X76308902Y-62086798D01*
X76308902Y-62086801D01*
X76328856Y-62314881D01*
X76328857Y-62314889D01*
X76388114Y-62536038D01*
X76388118Y-62536049D01*
X76484875Y-62743545D01*
X76484877Y-62743549D01*
X76616202Y-62931100D01*
X76778100Y-63092998D01*
X76922574Y-63194160D01*
X76965651Y-63224323D01*
X77008745Y-63244418D01*
X77061184Y-63290591D01*
X77080336Y-63357784D01*
X77060120Y-63424665D01*
X77008745Y-63469182D01*
X76965651Y-63489276D01*
X76840526Y-63576890D01*
X76778100Y-63620602D01*
X76778098Y-63620603D01*
X76778095Y-63620606D01*
X76616206Y-63782495D01*
X76616203Y-63782498D01*
X76616202Y-63782500D01*
X76560304Y-63862331D01*
X76484876Y-63970052D01*
X76484875Y-63970054D01*
X76388118Y-64177550D01*
X76388114Y-64177561D01*
X76328857Y-64398710D01*
X76328856Y-64398718D01*
X76308902Y-64626798D01*
X76308902Y-64626801D01*
X70407386Y-64626801D01*
X70407386Y-64626800D01*
X70387565Y-64501652D01*
X70330041Y-64388755D01*
X70318086Y-64376800D01*
X71281272Y-64376800D01*
X71281272Y-64376799D01*
X71228669Y-64180482D01*
X71228665Y-64180473D01*
X71132534Y-63974317D01*
X71002057Y-63787979D01*
X70841220Y-63627142D01*
X70654881Y-63496665D01*
X70654879Y-63496664D01*
X70605999Y-63473871D01*
X70553559Y-63427699D01*
X70534407Y-63360506D01*
X70554623Y-63293624D01*
X70605999Y-63249107D01*
X70612962Y-63245860D01*
X70659149Y-63224323D01*
X70846700Y-63092998D01*
X71008598Y-62931100D01*
X71139923Y-62743549D01*
X71236684Y-62536043D01*
X71295943Y-62314887D01*
X71315898Y-62086800D01*
X71295943Y-61858713D01*
X71236684Y-61637557D01*
X71139923Y-61430051D01*
X71008598Y-61242500D01*
X70846700Y-61080602D01*
X70659149Y-60949277D01*
X70605996Y-60924491D01*
X70553558Y-60878319D01*
X70534407Y-60811125D01*
X70554623Y-60744244D01*
X70606000Y-60699727D01*
X70654883Y-60676933D01*
X70841220Y-60546457D01*
X71002057Y-60385620D01*
X71132534Y-60199282D01*
X71228665Y-59993126D01*
X71228669Y-59993117D01*
X71281272Y-59796800D01*
X70318086Y-59796800D01*
X70330041Y-59784845D01*
X70387565Y-59671948D01*
X70407386Y-59546800D01*
X70387565Y-59421652D01*
X70330041Y-59308755D01*
X70318086Y-59296800D01*
X71281272Y-59296800D01*
X71281272Y-59296799D01*
X71228669Y-59100482D01*
X71228665Y-59100473D01*
X71132534Y-58894317D01*
X71002057Y-58707979D01*
X70841218Y-58547140D01*
X70826184Y-58536613D01*
X70782560Y-58482035D01*
X70775368Y-58412537D01*
X70806891Y-58350182D01*
X70867122Y-58314770D01*
X70884040Y-58311752D01*
X70911601Y-58308789D01*
X71048604Y-58257689D01*
X71165661Y-58170061D01*
X71253289Y-58053004D01*
X71304389Y-57916001D01*
X71307991Y-57882492D01*
X71310899Y-57855454D01*
X71310900Y-57855437D01*
X71310900Y-56158162D01*
X71310899Y-56158145D01*
X71306251Y-56114919D01*
X71304389Y-56097599D01*
X71303202Y-56094417D01*
X71277381Y-56025188D01*
X71253289Y-55960596D01*
X71165661Y-55843539D01*
X71048604Y-55755911D01*
X70911603Y-55704811D01*
X70851054Y-55698300D01*
X70851038Y-55698300D01*
X69153762Y-55698300D01*
X69153745Y-55698300D01*
X69093197Y-55704811D01*
X69093195Y-55704811D01*
X68956195Y-55755911D01*
X68839139Y-55843539D01*
X68751511Y-55960595D01*
X68700411Y-56097595D01*
X68700411Y-56097597D01*
X68693900Y-56158145D01*
X68693900Y-57855454D01*
X68700411Y-57916002D01*
X68700411Y-57916004D01*
X68751511Y-58053004D01*
X68839139Y-58170061D01*
X68956196Y-58257689D01*
X69012649Y-58278745D01*
X69093193Y-58308787D01*
X69093199Y-58308789D01*
X69120746Y-58311750D01*
X69185294Y-58338486D01*
X69225144Y-58395878D01*
X69227639Y-58465703D01*
X69191987Y-58525792D01*
X69178618Y-58536611D01*
X69163581Y-58547140D01*
X69002742Y-58707979D01*
X68872265Y-58894317D01*
X68776134Y-59100473D01*
X68776130Y-59100482D01*
X68723527Y-59296799D01*
X68723528Y-59296800D01*
X69686714Y-59296800D01*
X69674759Y-59308755D01*
X69617235Y-59421652D01*
X69597414Y-59546800D01*
X69617235Y-59671948D01*
X69674759Y-59784845D01*
X69686714Y-59796800D01*
X68723528Y-59796800D01*
X68776130Y-59993117D01*
X68776134Y-59993126D01*
X68872265Y-60199282D01*
X69002742Y-60385620D01*
X69163579Y-60546457D01*
X69349917Y-60676933D01*
X69398799Y-60699727D01*
X69451239Y-60745899D01*
X69470392Y-60813092D01*
X69450177Y-60879974D01*
X69398802Y-60924491D01*
X69345656Y-60949274D01*
X69345652Y-60949276D01*
X69280083Y-60995188D01*
X69177832Y-61066786D01*
X69158099Y-61080603D01*
X69025222Y-61213480D01*
X68963899Y-61246964D01*
X68894207Y-61241980D01*
X68849860Y-61213479D01*
X66896304Y-59259923D01*
X66884522Y-59246290D01*
X66869972Y-59226746D01*
X66869971Y-59226745D01*
X66869969Y-59226742D01*
X66860932Y-59219159D01*
X66831559Y-59194511D01*
X66823585Y-59187204D01*
X66819602Y-59183221D01*
X66819596Y-59183216D01*
X66795012Y-59163776D01*
X66792219Y-59161501D01*
X66734142Y-59112770D01*
X66734140Y-59112768D01*
X66734135Y-59112765D01*
X66728105Y-59108799D01*
X66728130Y-59108759D01*
X66721569Y-59104579D01*
X66721545Y-59104620D01*
X66715407Y-59100834D01*
X66715406Y-59100833D01*
X66715403Y-59100832D01*
X66715399Y-59100829D01*
X66646660Y-59068774D01*
X66643416Y-59067204D01*
X66575685Y-59033189D01*
X66568901Y-59030720D01*
X66568916Y-59030676D01*
X66561571Y-59028122D01*
X66561557Y-59028167D01*
X66554705Y-59025896D01*
X66480426Y-59010558D01*
X66476908Y-59009778D01*
X66403153Y-58992299D01*
X66395982Y-58991461D01*
X66395987Y-58991412D01*
X66388257Y-58990622D01*
X66388253Y-58990670D01*
X66381062Y-58990040D01*
X66305207Y-58992248D01*
X66301601Y-58992300D01*
X63417300Y-58992300D01*
X63350261Y-58972615D01*
X63304506Y-58919811D01*
X63293300Y-58868300D01*
X63293300Y-58288245D01*
X63312985Y-58221206D01*
X63352510Y-58182518D01*
X63424211Y-58138579D01*
X63424213Y-58138578D01*
X63424213Y-58138577D01*
X63424216Y-58138576D01*
X63604769Y-57984369D01*
X63758976Y-57803816D01*
X63883040Y-57601363D01*
X63973905Y-57381994D01*
X64029335Y-57151111D01*
X64047965Y-56914400D01*
X64029335Y-56677689D01*
X63973905Y-56446806D01*
X63973904Y-56446803D01*
X63973904Y-56446802D01*
X63883042Y-56227440D01*
X63883040Y-56227437D01*
X63824960Y-56132659D01*
X63758978Y-56024988D01*
X63758978Y-56024986D01*
X63703983Y-55960596D01*
X63604769Y-55844431D01*
X63451183Y-55713256D01*
X63424213Y-55690221D01*
X63424210Y-55690220D01*
X63221762Y-55566159D01*
X63221759Y-55566157D01*
X63002396Y-55475295D01*
X62771514Y-55419865D01*
X62534800Y-55401235D01*
X62298085Y-55419865D01*
X62067204Y-55475295D01*
X62067202Y-55475295D01*
X61847840Y-55566157D01*
X61847837Y-55566159D01*
X61645389Y-55690220D01*
X61645386Y-55690221D01*
X61464831Y-55844431D01*
X61310621Y-56024986D01*
X61310620Y-56024989D01*
X61186559Y-56227437D01*
X61186557Y-56227440D01*
X61095695Y-56446802D01*
X61095695Y-56446804D01*
X61040265Y-56677685D01*
X61021635Y-56914400D01*
X61040265Y-57151114D01*
X61095695Y-57381995D01*
X61095695Y-57381997D01*
X61186557Y-57601359D01*
X61186559Y-57601362D01*
X61310620Y-57803810D01*
X61310621Y-57803813D01*
X61354713Y-57855438D01*
X61464831Y-57984369D01*
X61576199Y-58079486D01*
X61645386Y-58138578D01*
X61645388Y-58138579D01*
X61717090Y-58182518D01*
X61763965Y-58234329D01*
X61776300Y-58288245D01*
X61776300Y-58868300D01*
X61756615Y-58935339D01*
X61703811Y-58981094D01*
X61652300Y-58992300D01*
X40322636Y-58992300D01*
X40255597Y-58972615D01*
X40215249Y-58930300D01*
X40194671Y-58894658D01*
X40141531Y-58802616D01*
X39984678Y-58605928D01*
X39977601Y-58599362D01*
X39909974Y-58536613D01*
X39800262Y-58434816D01*
X39762803Y-58409277D01*
X39592407Y-58293102D01*
X39592396Y-58293095D01*
X39365747Y-58183948D01*
X39365749Y-58183948D01*
X39125350Y-58109795D01*
X39125344Y-58109793D01*
X38876593Y-58072300D01*
X38876586Y-58072300D01*
X38625014Y-58072300D01*
X38625006Y-58072300D01*
X38376255Y-58109793D01*
X38376249Y-58109795D01*
X38135854Y-58183947D01*
X37909201Y-58293097D01*
X37701337Y-58434816D01*
X37516923Y-58605926D01*
X37516922Y-58605928D01*
X37360069Y-58802616D01*
X37307126Y-58894317D01*
X37286351Y-58930300D01*
X37235784Y-58978516D01*
X37178964Y-58992300D01*
X34805759Y-58992300D01*
X34738720Y-58972615D01*
X34692965Y-58919811D01*
X34684593Y-58894658D01*
X34662117Y-58791337D01*
X34662113Y-58791325D01*
X34579910Y-58599362D01*
X34579908Y-58599357D01*
X34462855Y-58426412D01*
X34462854Y-58426410D01*
X34315189Y-58278745D01*
X34249564Y-58234329D01*
X34142243Y-58161692D01*
X34142238Y-58161690D01*
X34142237Y-58161689D01*
X33950274Y-58079486D01*
X33950262Y-58079482D01*
X33746215Y-58035096D01*
X33746214Y-58035095D01*
X33746210Y-58035095D01*
X33699293Y-58032300D01*
X33699281Y-58032300D01*
X28702320Y-58032300D01*
X28702319Y-58032300D01*
X28702308Y-58032301D01*
X28655390Y-58035095D01*
X28655386Y-58035095D01*
X28655383Y-58035096D01*
X28451339Y-58079482D01*
X28451325Y-58079486D01*
X28259362Y-58161689D01*
X28259354Y-58161694D01*
X28239062Y-58175428D01*
X28172510Y-58196701D01*
X28105021Y-58178616D01*
X28058023Y-58126915D01*
X28045562Y-58072491D01*
X28049004Y-56380936D01*
X28068824Y-56313941D01*
X28121721Y-56268294D01*
X28190900Y-56258491D01*
X28242502Y-56278500D01*
X28259357Y-56289908D01*
X28308605Y-56310997D01*
X28443532Y-56368776D01*
X28451330Y-56372115D01*
X28451332Y-56372115D01*
X28451337Y-56372117D01*
X28534424Y-56390190D01*
X28655390Y-56416505D01*
X28702307Y-56419300D01*
X31968763Y-56419299D01*
X31993838Y-56421860D01*
X32070342Y-56437658D01*
X32247579Y-56432501D01*
X32281081Y-56423523D01*
X32313174Y-56419299D01*
X33699280Y-56419299D01*
X33699292Y-56419299D01*
X33746210Y-56416505D01*
X33950270Y-56372115D01*
X34142243Y-56289908D01*
X34315188Y-56172855D01*
X34462855Y-56025188D01*
X34579908Y-55852243D01*
X34662115Y-55660270D01*
X34668767Y-55629693D01*
X34673716Y-55606943D01*
X34707200Y-55545619D01*
X34768523Y-55512134D01*
X34794882Y-55509300D01*
X37080256Y-55509300D01*
X37147295Y-55528985D01*
X37193050Y-55581789D01*
X37204204Y-55629693D01*
X37208798Y-55787580D01*
X37253049Y-55952724D01*
X37254690Y-55958850D01*
X37338843Y-56114919D01*
X37456719Y-56247376D01*
X37601965Y-56349078D01*
X37604417Y-56350052D01*
X37766746Y-56414541D01*
X37766748Y-56414541D01*
X37766750Y-56414542D01*
X37942189Y-56440241D01*
X38118826Y-56424787D01*
X38256830Y-56379056D01*
X38326653Y-56376655D01*
X38332368Y-56378269D01*
X38376251Y-56391805D01*
X38376252Y-56391805D01*
X38376255Y-56391806D01*
X38625006Y-56429299D01*
X38625011Y-56429299D01*
X38625014Y-56429300D01*
X38625015Y-56429300D01*
X38876585Y-56429300D01*
X38876586Y-56429300D01*
X38906528Y-56424787D01*
X39125344Y-56391806D01*
X39125345Y-56391805D01*
X39125349Y-56391805D01*
X39365745Y-56317653D01*
X39553081Y-56227437D01*
X39592396Y-56208504D01*
X39592396Y-56208503D01*
X39592404Y-56208500D01*
X39800262Y-56066784D01*
X39984678Y-55895672D01*
X40141531Y-55698984D01*
X40267317Y-55481116D01*
X40359227Y-55246934D01*
X40415207Y-55001669D01*
X40434007Y-54750800D01*
X40415207Y-54499931D01*
X40359227Y-54254666D01*
X40267317Y-54020484D01*
X40141531Y-53802616D01*
X39984678Y-53605928D01*
X39800262Y-53434816D01*
X39592404Y-53293100D01*
X39592403Y-53293099D01*
X39592396Y-53293095D01*
X39365747Y-53183948D01*
X39365749Y-53183948D01*
X39125350Y-53109795D01*
X39125344Y-53109793D01*
X38876593Y-53072300D01*
X38876586Y-53072300D01*
X38625014Y-53072300D01*
X38625006Y-53072300D01*
X38376255Y-53109793D01*
X38376249Y-53109795D01*
X38135854Y-53183947D01*
X37909201Y-53293097D01*
X37701337Y-53434816D01*
X37516923Y-53605926D01*
X37516922Y-53605928D01*
X37360069Y-53802616D01*
X37349265Y-53821330D01*
X37286351Y-53930300D01*
X37235784Y-53978516D01*
X37178964Y-53992300D01*
X34799233Y-53992300D01*
X34732194Y-53972615D01*
X34686439Y-53919811D01*
X34678067Y-53894658D01*
X34662117Y-53821337D01*
X34662113Y-53821325D01*
X34579910Y-53629362D01*
X34579908Y-53629357D01*
X34462855Y-53456412D01*
X34462854Y-53456410D01*
X34315189Y-53308745D01*
X34257539Y-53269727D01*
X34142243Y-53191692D01*
X34142238Y-53191690D01*
X34142237Y-53191689D01*
X33950274Y-53109486D01*
X33950262Y-53109482D01*
X33746215Y-53065096D01*
X33746214Y-53065095D01*
X33746210Y-53065095D01*
X33699293Y-53062300D01*
X33699281Y-53062300D01*
X28702320Y-53062300D01*
X28702319Y-53062300D01*
X28702308Y-53062301D01*
X28655390Y-53065095D01*
X28655386Y-53065095D01*
X28655383Y-53065096D01*
X28451339Y-53109482D01*
X28451325Y-53109486D01*
X28259362Y-53191689D01*
X28259352Y-53191695D01*
X28249189Y-53198574D01*
X28182637Y-53219848D01*
X28115148Y-53201764D01*
X28068150Y-53150063D01*
X28055688Y-53095638D01*
X28059325Y-51308001D01*
X71686102Y-51308001D01*
X71706056Y-51536081D01*
X71706057Y-51536089D01*
X71765314Y-51757238D01*
X71765318Y-51757249D01*
X71860087Y-51960482D01*
X71862077Y-51964749D01*
X71993402Y-52152300D01*
X72155300Y-52314198D01*
X72342851Y-52445523D01*
X72467691Y-52503736D01*
X72550350Y-52542281D01*
X72550352Y-52542281D01*
X72550357Y-52542284D01*
X72771513Y-52601543D01*
X72934432Y-52615796D01*
X72999598Y-52621498D01*
X72999600Y-52621498D01*
X72999602Y-52621498D01*
X73056621Y-52616509D01*
X73227687Y-52601543D01*
X73448843Y-52542284D01*
X73656349Y-52445523D01*
X73843900Y-52314198D01*
X74005798Y-52152300D01*
X74137123Y-51964749D01*
X74233884Y-51757243D01*
X74293143Y-51536087D01*
X74313098Y-51308000D01*
X74293143Y-51079913D01*
X74287271Y-51057999D01*
X81880727Y-51057999D01*
X81880728Y-51058000D01*
X82843914Y-51058000D01*
X82831959Y-51069955D01*
X82774435Y-51182852D01*
X82754614Y-51308000D01*
X82774435Y-51433148D01*
X82831959Y-51546045D01*
X82843914Y-51558000D01*
X81880728Y-51558000D01*
X81933330Y-51754317D01*
X81933334Y-51754326D01*
X82029465Y-51960482D01*
X82159942Y-52146820D01*
X82320779Y-52307657D01*
X82507117Y-52438134D01*
X82713273Y-52534265D01*
X82713282Y-52534269D01*
X82909599Y-52586872D01*
X82909600Y-52586871D01*
X82909600Y-51623686D01*
X82921555Y-51635641D01*
X83034452Y-51693165D01*
X83128119Y-51708000D01*
X83191081Y-51708000D01*
X83284748Y-51693165D01*
X83397645Y-51635641D01*
X83409600Y-51623686D01*
X83409600Y-52586872D01*
X83605917Y-52534269D01*
X83605926Y-52534265D01*
X83812082Y-52438134D01*
X83998420Y-52307657D01*
X84159257Y-52146820D01*
X84289734Y-51960482D01*
X84385865Y-51754326D01*
X84385869Y-51754317D01*
X84438472Y-51558000D01*
X83475286Y-51558000D01*
X83487241Y-51546045D01*
X83544765Y-51433148D01*
X83564586Y-51308000D01*
X83544765Y-51182852D01*
X83487241Y-51069955D01*
X83475286Y-51058000D01*
X84438472Y-51058000D01*
X84438472Y-51057999D01*
X84385869Y-50861682D01*
X84385865Y-50861673D01*
X84289734Y-50655517D01*
X84159257Y-50469179D01*
X83998420Y-50308342D01*
X83812082Y-50177865D01*
X83605928Y-50081734D01*
X83409600Y-50029127D01*
X83409600Y-50992314D01*
X83397645Y-50980359D01*
X83284748Y-50922835D01*
X83191081Y-50908000D01*
X83128119Y-50908000D01*
X83034452Y-50922835D01*
X82921555Y-50980359D01*
X82909600Y-50992314D01*
X82909600Y-50029127D01*
X82713271Y-50081734D01*
X82507117Y-50177865D01*
X82320779Y-50308342D01*
X82159942Y-50469179D01*
X82029465Y-50655517D01*
X81933334Y-50861673D01*
X81933330Y-50861682D01*
X81880727Y-51057999D01*
X74287271Y-51057999D01*
X74233884Y-50858757D01*
X74137123Y-50651251D01*
X74005798Y-50463700D01*
X73843900Y-50301802D01*
X73656349Y-50170477D01*
X73656345Y-50170475D01*
X73448849Y-50073718D01*
X73448838Y-50073714D01*
X73227689Y-50014457D01*
X73227681Y-50014456D01*
X72999602Y-49994502D01*
X72999598Y-49994502D01*
X72771518Y-50014456D01*
X72771510Y-50014457D01*
X72550361Y-50073714D01*
X72550350Y-50073718D01*
X72342854Y-50170475D01*
X72342852Y-50170476D01*
X72342851Y-50170477D01*
X72155300Y-50301802D01*
X72155298Y-50301803D01*
X72155295Y-50301806D01*
X71993406Y-50463695D01*
X71862076Y-50651252D01*
X71862075Y-50651254D01*
X71765318Y-50858750D01*
X71765314Y-50858761D01*
X71706057Y-51079910D01*
X71706056Y-51079918D01*
X71686102Y-51307998D01*
X71686102Y-51308001D01*
X28059325Y-51308001D01*
X28072658Y-44754801D01*
X32487590Y-44754801D01*
X32508004Y-45040233D01*
X32568828Y-45319837D01*
X32568830Y-45319843D01*
X32568831Y-45319846D01*
X32633522Y-45493289D01*
X32668835Y-45587966D01*
X32805970Y-45839109D01*
X32805975Y-45839117D01*
X32977454Y-46068187D01*
X32977470Y-46068205D01*
X33179794Y-46270529D01*
X33179812Y-46270545D01*
X33408882Y-46442024D01*
X33408890Y-46442029D01*
X33660033Y-46579164D01*
X33660032Y-46579164D01*
X33660036Y-46579165D01*
X33660039Y-46579167D01*
X33928154Y-46679169D01*
X33928160Y-46679170D01*
X33928162Y-46679171D01*
X34207766Y-46739995D01*
X34207768Y-46739995D01*
X34207772Y-46739996D01*
X34421752Y-46755300D01*
X34564648Y-46755300D01*
X34778628Y-46739996D01*
X35058246Y-46679169D01*
X35326361Y-46579167D01*
X35577515Y-46442026D01*
X35740451Y-46320054D01*
X48420500Y-46320054D01*
X48427011Y-46380602D01*
X48427011Y-46380604D01*
X48478111Y-46517604D01*
X48565739Y-46634661D01*
X48682796Y-46722289D01*
X48819799Y-46773389D01*
X48847050Y-46776318D01*
X48880345Y-46779899D01*
X48880362Y-46779900D01*
X50677638Y-46779900D01*
X50677654Y-46779899D01*
X50704692Y-46776991D01*
X50738201Y-46773389D01*
X50875204Y-46722289D01*
X50992261Y-46634661D01*
X51079889Y-46517604D01*
X51128223Y-46388015D01*
X51170093Y-46332086D01*
X51235557Y-46307669D01*
X51303830Y-46322521D01*
X51332084Y-46343672D01*
X51447917Y-46459505D01*
X51641421Y-46595000D01*
X51855507Y-46694829D01*
X51855516Y-46694833D01*
X52069000Y-46752034D01*
X52069000Y-45856901D01*
X52176685Y-45906080D01*
X52283237Y-45921400D01*
X52354763Y-45921400D01*
X52461315Y-45906080D01*
X52569000Y-45856901D01*
X52569000Y-46752033D01*
X52782483Y-46694833D01*
X52782492Y-46694829D01*
X52996578Y-46595000D01*
X53190082Y-46459505D01*
X53329533Y-46320054D01*
X58682100Y-46320054D01*
X58688611Y-46380602D01*
X58688611Y-46380604D01*
X58739711Y-46517604D01*
X58827339Y-46634661D01*
X58944396Y-46722289D01*
X59081399Y-46773389D01*
X59108650Y-46776318D01*
X59141945Y-46779899D01*
X59141962Y-46779900D01*
X60939238Y-46779900D01*
X60939254Y-46779899D01*
X60966292Y-46776991D01*
X60999801Y-46773389D01*
X61136804Y-46722289D01*
X61253861Y-46634661D01*
X61341489Y-46517604D01*
X61389823Y-46388015D01*
X61431693Y-46332086D01*
X61497157Y-46307669D01*
X61565430Y-46322521D01*
X61593684Y-46343672D01*
X61709517Y-46459505D01*
X61903021Y-46595000D01*
X62117107Y-46694829D01*
X62117116Y-46694833D01*
X62330600Y-46752034D01*
X62330600Y-45856901D01*
X62438285Y-45906080D01*
X62544837Y-45921400D01*
X62616363Y-45921400D01*
X62722915Y-45906080D01*
X62830600Y-45856901D01*
X62830600Y-46752033D01*
X63044083Y-46694833D01*
X63044092Y-46694829D01*
X63258178Y-46595000D01*
X63451682Y-46459505D01*
X63618705Y-46292482D01*
X63754200Y-46098978D01*
X63854029Y-45884892D01*
X63854032Y-45884886D01*
X63911236Y-45671400D01*
X63014286Y-45671400D01*
X63040093Y-45631244D01*
X63080600Y-45493289D01*
X63080600Y-45349511D01*
X63040093Y-45211556D01*
X63014286Y-45171400D01*
X63911236Y-45171400D01*
X63911235Y-45171399D01*
X63854032Y-44957913D01*
X63854029Y-44957907D01*
X63754200Y-44743822D01*
X63754199Y-44743820D01*
X63618713Y-44550326D01*
X63618708Y-44550320D01*
X63451682Y-44383294D01*
X63258178Y-44247799D01*
X63044092Y-44147970D01*
X63044086Y-44147967D01*
X62830600Y-44090764D01*
X62830600Y-44985898D01*
X62722915Y-44936720D01*
X62616363Y-44921400D01*
X62544837Y-44921400D01*
X62438285Y-44936720D01*
X62330600Y-44985898D01*
X62330600Y-44090764D01*
X62330599Y-44090764D01*
X62117113Y-44147967D01*
X62117107Y-44147970D01*
X61903022Y-44247799D01*
X61903020Y-44247800D01*
X61709526Y-44383286D01*
X61593684Y-44499128D01*
X61532361Y-44532612D01*
X61462669Y-44527628D01*
X61406736Y-44485756D01*
X61389823Y-44454784D01*
X61341489Y-44325196D01*
X61253861Y-44208139D01*
X61136804Y-44120511D01*
X61099827Y-44106719D01*
X60999803Y-44069411D01*
X60939254Y-44062900D01*
X60939238Y-44062900D01*
X59141962Y-44062900D01*
X59141945Y-44062900D01*
X59081397Y-44069411D01*
X59081395Y-44069411D01*
X58944395Y-44120511D01*
X58827339Y-44208139D01*
X58739711Y-44325195D01*
X58688611Y-44462195D01*
X58688611Y-44462197D01*
X58682100Y-44522745D01*
X58682100Y-46320054D01*
X53329533Y-46320054D01*
X53357105Y-46292482D01*
X53492600Y-46098978D01*
X53592429Y-45884892D01*
X53592432Y-45884886D01*
X53649636Y-45671400D01*
X52752686Y-45671400D01*
X52778493Y-45631244D01*
X52819000Y-45493289D01*
X52819000Y-45349511D01*
X52778493Y-45211556D01*
X52752686Y-45171400D01*
X53649636Y-45171400D01*
X53649635Y-45171399D01*
X53592432Y-44957913D01*
X53592429Y-44957907D01*
X53492600Y-44743822D01*
X53492599Y-44743820D01*
X53357113Y-44550326D01*
X53357108Y-44550320D01*
X53190082Y-44383294D01*
X52996578Y-44247799D01*
X52782492Y-44147970D01*
X52782486Y-44147967D01*
X52569000Y-44090764D01*
X52569000Y-44985898D01*
X52461315Y-44936720D01*
X52354763Y-44921400D01*
X52283237Y-44921400D01*
X52176685Y-44936720D01*
X52069000Y-44985898D01*
X52069000Y-44090764D01*
X52068999Y-44090764D01*
X51855513Y-44147967D01*
X51855507Y-44147970D01*
X51641422Y-44247799D01*
X51641420Y-44247800D01*
X51447926Y-44383286D01*
X51332084Y-44499128D01*
X51270761Y-44532612D01*
X51201069Y-44527628D01*
X51145136Y-44485756D01*
X51128223Y-44454784D01*
X51079889Y-44325196D01*
X50992261Y-44208139D01*
X50875204Y-44120511D01*
X50838227Y-44106719D01*
X50738203Y-44069411D01*
X50677654Y-44062900D01*
X50677638Y-44062900D01*
X48880362Y-44062900D01*
X48880345Y-44062900D01*
X48819797Y-44069411D01*
X48819795Y-44069411D01*
X48682795Y-44120511D01*
X48565739Y-44208139D01*
X48478111Y-44325195D01*
X48427011Y-44462195D01*
X48427011Y-44462197D01*
X48420500Y-44522745D01*
X48420500Y-46320054D01*
X35740451Y-46320054D01*
X35806595Y-46270539D01*
X36008939Y-46068195D01*
X36180426Y-45839115D01*
X36317567Y-45587961D01*
X36417569Y-45319846D01*
X36478396Y-45040228D01*
X36498810Y-44754800D01*
X36478396Y-44469372D01*
X36447032Y-44325195D01*
X36417571Y-44189762D01*
X36417570Y-44189760D01*
X36417569Y-44189754D01*
X36317567Y-43921639D01*
X36180426Y-43670485D01*
X36180424Y-43670482D01*
X36008945Y-43441412D01*
X36008929Y-43441394D01*
X35806605Y-43239070D01*
X35806587Y-43239054D01*
X35577517Y-43067575D01*
X35577509Y-43067570D01*
X35326366Y-42930435D01*
X35326367Y-42930435D01*
X35219115Y-42890432D01*
X35058246Y-42830431D01*
X35058243Y-42830430D01*
X35058237Y-42830428D01*
X34778633Y-42769604D01*
X34564650Y-42754300D01*
X34564648Y-42754300D01*
X34421752Y-42754300D01*
X34421749Y-42754300D01*
X34207766Y-42769604D01*
X33928162Y-42830428D01*
X33660033Y-42930435D01*
X33408890Y-43067570D01*
X33408882Y-43067575D01*
X33179812Y-43239054D01*
X33179794Y-43239070D01*
X32977470Y-43441394D01*
X32977454Y-43441412D01*
X32805975Y-43670482D01*
X32805970Y-43670490D01*
X32668835Y-43921633D01*
X32568828Y-44189762D01*
X32508004Y-44469366D01*
X32487590Y-44754798D01*
X32487590Y-44754801D01*
X28072658Y-44754801D01*
X28088583Y-36927600D01*
X40939964Y-36927600D01*
X40997167Y-37141086D01*
X40997170Y-37141092D01*
X41096999Y-37355178D01*
X41232494Y-37548682D01*
X41399517Y-37715705D01*
X41593021Y-37851200D01*
X41807107Y-37951029D01*
X41807116Y-37951033D01*
X42020600Y-38008234D01*
X42020600Y-37113101D01*
X42128285Y-37162280D01*
X42234837Y-37177600D01*
X42306363Y-37177600D01*
X42412915Y-37162280D01*
X42520600Y-37113101D01*
X42520600Y-38008233D01*
X42734083Y-37951033D01*
X42734092Y-37951029D01*
X42948178Y-37851200D01*
X43141678Y-37715708D01*
X43257514Y-37599872D01*
X43318837Y-37566387D01*
X43388529Y-37571371D01*
X43444463Y-37613242D01*
X43461377Y-37644219D01*
X43509710Y-37773803D01*
X43531740Y-37803232D01*
X43597339Y-37890861D01*
X43714396Y-37978489D01*
X43851399Y-38029589D01*
X43878650Y-38032518D01*
X43911945Y-38036099D01*
X43911962Y-38036100D01*
X45709238Y-38036100D01*
X45709254Y-38036099D01*
X45736292Y-38033191D01*
X45769801Y-38029589D01*
X45906804Y-37978489D01*
X46023861Y-37890861D01*
X46079047Y-37817140D01*
X46134977Y-37775273D01*
X46204668Y-37770288D01*
X46265989Y-37803770D01*
X46265992Y-37803773D01*
X49764996Y-41302777D01*
X49776777Y-41316409D01*
X49791331Y-41335958D01*
X49829745Y-41368191D01*
X49837708Y-41375489D01*
X49841700Y-41379481D01*
X49866285Y-41398921D01*
X49869079Y-41401197D01*
X49913639Y-41438586D01*
X49927160Y-41449932D01*
X49927162Y-41449933D01*
X49933196Y-41453902D01*
X49933169Y-41453942D01*
X49939721Y-41458116D01*
X49939747Y-41458075D01*
X49945891Y-41461865D01*
X49945894Y-41461867D01*
X50014640Y-41493923D01*
X50017831Y-41495469D01*
X50085611Y-41529509D01*
X50092394Y-41531977D01*
X50092377Y-41532022D01*
X50099725Y-41534576D01*
X50099741Y-41534531D01*
X50106589Y-41536799D01*
X50106594Y-41536802D01*
X50180912Y-41552146D01*
X50184331Y-41552905D01*
X50258144Y-41570400D01*
X50258145Y-41570400D01*
X50258149Y-41570401D01*
X50265317Y-41571239D01*
X50265311Y-41571286D01*
X50273042Y-41572076D01*
X50273047Y-41572029D01*
X50280237Y-41572658D01*
X50280241Y-41572657D01*
X50280242Y-41572658D01*
X50356058Y-41570452D01*
X50359664Y-41570400D01*
X74463974Y-41570400D01*
X74531013Y-41590085D01*
X74565546Y-41623273D01*
X74588602Y-41656200D01*
X74588605Y-41656203D01*
X74736139Y-41803737D01*
X74769624Y-41865060D01*
X74764640Y-41934752D01*
X74722768Y-41990685D01*
X74691793Y-42007599D01*
X74548595Y-42061011D01*
X74431539Y-42148639D01*
X74343911Y-42265695D01*
X74292811Y-42402695D01*
X74292810Y-42402698D01*
X74288515Y-42442655D01*
X74261777Y-42507206D01*
X74204385Y-42547055D01*
X74165226Y-42553400D01*
X71041594Y-42553400D01*
X71023624Y-42552091D01*
X70999506Y-42548558D01*
X70952711Y-42552653D01*
X70949572Y-42552928D01*
X70938766Y-42553400D01*
X70933116Y-42553400D01*
X70901978Y-42557039D01*
X70898395Y-42557405D01*
X70822876Y-42564012D01*
X70815803Y-42565473D01*
X70815793Y-42565426D01*
X70808205Y-42567109D01*
X70808216Y-42567155D01*
X70801190Y-42568820D01*
X70729961Y-42594744D01*
X70726560Y-42595926D01*
X70654560Y-42619786D01*
X70648013Y-42622839D01*
X70647993Y-42622796D01*
X70641002Y-42626180D01*
X70641024Y-42626223D01*
X70634570Y-42629464D01*
X70634569Y-42629464D01*
X70634568Y-42629465D01*
X70571191Y-42671147D01*
X70568185Y-42673062D01*
X70503652Y-42712868D01*
X70497982Y-42717351D01*
X70497952Y-42717313D01*
X70491927Y-42722222D01*
X70491957Y-42722257D01*
X70486426Y-42726897D01*
X70434352Y-42782091D01*
X70431841Y-42784676D01*
X68231738Y-44984781D01*
X68170415Y-45018266D01*
X68144057Y-45021100D01*
X67110945Y-45021100D01*
X67050397Y-45027611D01*
X67050395Y-45027611D01*
X66913395Y-45078711D01*
X66796339Y-45166339D01*
X66708711Y-45283395D01*
X66657611Y-45420395D01*
X66657611Y-45420397D01*
X66651100Y-45480945D01*
X66651100Y-47178254D01*
X66657611Y-47238802D01*
X66657611Y-47238804D01*
X66693789Y-47335798D01*
X66708711Y-47375804D01*
X66796339Y-47492861D01*
X66913396Y-47580489D01*
X67050399Y-47631589D01*
X67077650Y-47634518D01*
X67110945Y-47638099D01*
X67110962Y-47638100D01*
X68808238Y-47638100D01*
X68808254Y-47638099D01*
X68835292Y-47635191D01*
X68868801Y-47631589D01*
X69005804Y-47580489D01*
X69122861Y-47492861D01*
X69210489Y-47375804D01*
X69228488Y-47327546D01*
X69263900Y-47232607D01*
X69305771Y-47176673D01*
X69371236Y-47152257D01*
X69439509Y-47167109D01*
X69467762Y-47188260D01*
X69615300Y-47335798D01*
X69802851Y-47467123D01*
X69858045Y-47492860D01*
X70010350Y-47563881D01*
X70010352Y-47563881D01*
X70010357Y-47563884D01*
X70231513Y-47623143D01*
X70394432Y-47637396D01*
X70459598Y-47643098D01*
X70459600Y-47643098D01*
X70459602Y-47643098D01*
X70516739Y-47638099D01*
X70687687Y-47623143D01*
X70908843Y-47563884D01*
X71116349Y-47467123D01*
X71303900Y-47335798D01*
X71465798Y-47173900D01*
X71597123Y-46986349D01*
X71693884Y-46778843D01*
X71753143Y-46557687D01*
X71773098Y-46329600D01*
X71772261Y-46320038D01*
X71753143Y-46101518D01*
X71753143Y-46101513D01*
X71693884Y-45880357D01*
X71597123Y-45672851D01*
X71465798Y-45485300D01*
X71303900Y-45323402D01*
X71116349Y-45192077D01*
X71072005Y-45171399D01*
X70908849Y-45095318D01*
X70908838Y-45095314D01*
X70687689Y-45036057D01*
X70687682Y-45036056D01*
X70619840Y-45030121D01*
X70554772Y-45004668D01*
X70513793Y-44948077D01*
X70509915Y-44878315D01*
X70542965Y-44818914D01*
X70607078Y-44754801D01*
X82474790Y-44754801D01*
X82495204Y-45040233D01*
X82556028Y-45319837D01*
X82556030Y-45319843D01*
X82556031Y-45319846D01*
X82620722Y-45493289D01*
X82656035Y-45587966D01*
X82793170Y-45839109D01*
X82793175Y-45839117D01*
X82964654Y-46068187D01*
X82964670Y-46068205D01*
X83166994Y-46270529D01*
X83167012Y-46270545D01*
X83396082Y-46442024D01*
X83396090Y-46442029D01*
X83647233Y-46579164D01*
X83647232Y-46579164D01*
X83647236Y-46579165D01*
X83647239Y-46579167D01*
X83915354Y-46679169D01*
X83915360Y-46679170D01*
X83915362Y-46679171D01*
X84194966Y-46739995D01*
X84194968Y-46739995D01*
X84194972Y-46739996D01*
X84408952Y-46755300D01*
X84551848Y-46755300D01*
X84765828Y-46739996D01*
X85045446Y-46679169D01*
X85313561Y-46579167D01*
X85564715Y-46442026D01*
X85793795Y-46270539D01*
X85996139Y-46068195D01*
X86167626Y-45839115D01*
X86304767Y-45587961D01*
X86404769Y-45319846D01*
X86465596Y-45040228D01*
X86486010Y-44754800D01*
X86465596Y-44469372D01*
X86434232Y-44325195D01*
X86404771Y-44189762D01*
X86404770Y-44189760D01*
X86404769Y-44189754D01*
X86304767Y-43921639D01*
X86167626Y-43670485D01*
X86167624Y-43670482D01*
X85996145Y-43441412D01*
X85996129Y-43441394D01*
X85793805Y-43239070D01*
X85793787Y-43239054D01*
X85564717Y-43067575D01*
X85564709Y-43067570D01*
X85313566Y-42930435D01*
X85313567Y-42930435D01*
X85206315Y-42890432D01*
X85045446Y-42830431D01*
X85045443Y-42830430D01*
X85045437Y-42830428D01*
X84765833Y-42769604D01*
X84551850Y-42754300D01*
X84551848Y-42754300D01*
X84408952Y-42754300D01*
X84408949Y-42754300D01*
X84194966Y-42769604D01*
X83915362Y-42830428D01*
X83647233Y-42930435D01*
X83396090Y-43067570D01*
X83396082Y-43067575D01*
X83167012Y-43239054D01*
X83166994Y-43239070D01*
X82964670Y-43441394D01*
X82964654Y-43441412D01*
X82793175Y-43670482D01*
X82793170Y-43670490D01*
X82656035Y-43921633D01*
X82556028Y-44189762D01*
X82495204Y-44469366D01*
X82474790Y-44754798D01*
X82474790Y-44754801D01*
X70607078Y-44754801D01*
X71255162Y-44106719D01*
X71316485Y-44073234D01*
X71342843Y-44070400D01*
X74165226Y-44070400D01*
X74232265Y-44090085D01*
X74278020Y-44142889D01*
X74288515Y-44181145D01*
X74292810Y-44221101D01*
X74292811Y-44221104D01*
X74331636Y-44325195D01*
X74343911Y-44358104D01*
X74431539Y-44475161D01*
X74548596Y-44562789D01*
X74685599Y-44613889D01*
X74712850Y-44616818D01*
X74746145Y-44620399D01*
X74746162Y-44620400D01*
X76443438Y-44620400D01*
X76443454Y-44620399D01*
X76470492Y-44617491D01*
X76504001Y-44613889D01*
X76641004Y-44562789D01*
X76758061Y-44475161D01*
X76845689Y-44358104D01*
X76896789Y-44221101D01*
X76901085Y-44181145D01*
X76903299Y-44160554D01*
X76903300Y-44160537D01*
X76903300Y-42463262D01*
X76903299Y-42463245D01*
X76899957Y-42432170D01*
X76896789Y-42402699D01*
X76845689Y-42265696D01*
X76758061Y-42148639D01*
X76641004Y-42061011D01*
X76497806Y-42007599D01*
X76441873Y-41965727D01*
X76417457Y-41900262D01*
X76432310Y-41831990D01*
X76453454Y-41803743D01*
X76600998Y-41656200D01*
X76732323Y-41468649D01*
X76829084Y-41261143D01*
X76888343Y-41039987D01*
X76908298Y-40811900D01*
X76888343Y-40583813D01*
X76829084Y-40362657D01*
X76732323Y-40155151D01*
X76600998Y-39967600D01*
X76439100Y-39805702D01*
X76251549Y-39674377D01*
X76251545Y-39674375D01*
X76044049Y-39577618D01*
X76044038Y-39577614D01*
X75822889Y-39518357D01*
X75822881Y-39518356D01*
X75594802Y-39498402D01*
X75594798Y-39498402D01*
X75366718Y-39518356D01*
X75366710Y-39518357D01*
X75145561Y-39577614D01*
X75145550Y-39577618D01*
X74938054Y-39674375D01*
X74938052Y-39674376D01*
X74938051Y-39674377D01*
X74750500Y-39805702D01*
X74750498Y-39805703D01*
X74750495Y-39805706D01*
X74588605Y-39967596D01*
X74565548Y-40000525D01*
X74510971Y-40044149D01*
X74463974Y-40053400D01*
X50712343Y-40053400D01*
X50645304Y-40033715D01*
X50624662Y-40017081D01*
X46794304Y-36186723D01*
X46782522Y-36173090D01*
X46767972Y-36153546D01*
X46767971Y-36153545D01*
X46767969Y-36153542D01*
X46766880Y-36152628D01*
X46729559Y-36121311D01*
X46721585Y-36114004D01*
X46717602Y-36110021D01*
X46717596Y-36110016D01*
X46693012Y-36090576D01*
X46690219Y-36088301D01*
X46632142Y-36039570D01*
X46632140Y-36039568D01*
X46632135Y-36039565D01*
X46626105Y-36035599D01*
X46626130Y-36035559D01*
X46619569Y-36031379D01*
X46619545Y-36031420D01*
X46613407Y-36027634D01*
X46613406Y-36027633D01*
X46613403Y-36027632D01*
X46613399Y-36027629D01*
X46544660Y-35995574D01*
X46541416Y-35994004D01*
X46473685Y-35959989D01*
X46466901Y-35957520D01*
X46466916Y-35957476D01*
X46459571Y-35954922D01*
X46459557Y-35954967D01*
X46452705Y-35952696D01*
X46378426Y-35937358D01*
X46374908Y-35936578D01*
X46301153Y-35919099D01*
X46293982Y-35918261D01*
X46293987Y-35918212D01*
X46286244Y-35917421D01*
X46286240Y-35917469D01*
X46282279Y-35917122D01*
X46281913Y-35916979D01*
X46277588Y-35916537D01*
X46271981Y-35915379D01*
X46272417Y-35913263D01*
X46217213Y-35891662D01*
X46176241Y-35835066D01*
X46169100Y-35793595D01*
X46169100Y-35778962D01*
X46169099Y-35778945D01*
X46165757Y-35747870D01*
X46162589Y-35718399D01*
X46159822Y-35710981D01*
X46133159Y-35639494D01*
X46111489Y-35581396D01*
X46023861Y-35464339D01*
X45906804Y-35376711D01*
X45769803Y-35325611D01*
X45709254Y-35319100D01*
X45709238Y-35319100D01*
X43911962Y-35319100D01*
X43911945Y-35319100D01*
X43851397Y-35325611D01*
X43851395Y-35325611D01*
X43714395Y-35376711D01*
X43597339Y-35464339D01*
X43509711Y-35581395D01*
X43461377Y-35710981D01*
X43419505Y-35766914D01*
X43354041Y-35791330D01*
X43285768Y-35776478D01*
X43257515Y-35755327D01*
X43141682Y-35639494D01*
X42948178Y-35503999D01*
X42734092Y-35404170D01*
X42734086Y-35404167D01*
X42520600Y-35346964D01*
X42520600Y-36242098D01*
X42412915Y-36192920D01*
X42306363Y-36177600D01*
X42234837Y-36177600D01*
X42128285Y-36192920D01*
X42020600Y-36242098D01*
X42020600Y-35346964D01*
X42020599Y-35346964D01*
X41807113Y-35404167D01*
X41807107Y-35404170D01*
X41593022Y-35503999D01*
X41593020Y-35504000D01*
X41399526Y-35639486D01*
X41399520Y-35639491D01*
X41232491Y-35806520D01*
X41232486Y-35806526D01*
X41097000Y-36000020D01*
X41096999Y-36000022D01*
X40997170Y-36214107D01*
X40997167Y-36214113D01*
X40939964Y-36427599D01*
X40939964Y-36427600D01*
X41836914Y-36427600D01*
X41811107Y-36467756D01*
X41770600Y-36605711D01*
X41770600Y-36749489D01*
X41811107Y-36887444D01*
X41836914Y-36927600D01*
X40939964Y-36927600D01*
X28088583Y-36927600D01*
X28092148Y-35175646D01*
X28111969Y-35108648D01*
X28164866Y-35063001D01*
X28216047Y-35051900D01*
X90807901Y-35001300D01*
X90874955Y-35020930D01*
G37*
%TD.AperFunction*%
%TD*%
M02*
