%TF.GenerationSoftware,KiCad,Pcbnew,7.0.10*%
%TF.CreationDate,2024-02-29T08:37:15+01:00*%
%TF.ProjectId,ZX Spectrum AMP,5a582053-7065-4637-9472-756d20414d50,rev?*%
%TF.SameCoordinates,Original*%
%TF.FileFunction,Legend,Bot*%
%TF.FilePolarity,Positive*%
%FSLAX46Y46*%
G04 Gerber Fmt 4.6, Leading zero omitted, Abs format (unit mm)*
G04 Created by KiCad (PCBNEW 7.0.10) date 2024-02-29 08:37:15*
%MOMM*%
%LPD*%
G01*
G04 APERTURE LIST*
%ADD10C,0.150000*%
G04 APERTURE END LIST*
D10*
X30200600Y-36458760D02*
X30248219Y-36601617D01*
X30248219Y-36601617D02*
X30248219Y-36839712D01*
X30248219Y-36839712D02*
X30200600Y-36934950D01*
X30200600Y-36934950D02*
X30152980Y-36982569D01*
X30152980Y-36982569D02*
X30057742Y-37030188D01*
X30057742Y-37030188D02*
X29962504Y-37030188D01*
X29962504Y-37030188D02*
X29867266Y-36982569D01*
X29867266Y-36982569D02*
X29819647Y-36934950D01*
X29819647Y-36934950D02*
X29772028Y-36839712D01*
X29772028Y-36839712D02*
X29724409Y-36649236D01*
X29724409Y-36649236D02*
X29676790Y-36553998D01*
X29676790Y-36553998D02*
X29629171Y-36506379D01*
X29629171Y-36506379D02*
X29533933Y-36458760D01*
X29533933Y-36458760D02*
X29438695Y-36458760D01*
X29438695Y-36458760D02*
X29343457Y-36506379D01*
X29343457Y-36506379D02*
X29295838Y-36553998D01*
X29295838Y-36553998D02*
X29248219Y-36649236D01*
X29248219Y-36649236D02*
X29248219Y-36887331D01*
X29248219Y-36887331D02*
X29295838Y-37030188D01*
X29581552Y-37458760D02*
X30581552Y-37458760D01*
X29629171Y-37458760D02*
X29581552Y-37553998D01*
X29581552Y-37553998D02*
X29581552Y-37744474D01*
X29581552Y-37744474D02*
X29629171Y-37839712D01*
X29629171Y-37839712D02*
X29676790Y-37887331D01*
X29676790Y-37887331D02*
X29772028Y-37934950D01*
X29772028Y-37934950D02*
X30057742Y-37934950D01*
X30057742Y-37934950D02*
X30152980Y-37887331D01*
X30152980Y-37887331D02*
X30200600Y-37839712D01*
X30200600Y-37839712D02*
X30248219Y-37744474D01*
X30248219Y-37744474D02*
X30248219Y-37553998D01*
X30248219Y-37553998D02*
X30200600Y-37458760D01*
X30200600Y-38744474D02*
X30248219Y-38649236D01*
X30248219Y-38649236D02*
X30248219Y-38458760D01*
X30248219Y-38458760D02*
X30200600Y-38363522D01*
X30200600Y-38363522D02*
X30105361Y-38315903D01*
X30105361Y-38315903D02*
X29724409Y-38315903D01*
X29724409Y-38315903D02*
X29629171Y-38363522D01*
X29629171Y-38363522D02*
X29581552Y-38458760D01*
X29581552Y-38458760D02*
X29581552Y-38649236D01*
X29581552Y-38649236D02*
X29629171Y-38744474D01*
X29629171Y-38744474D02*
X29724409Y-38792093D01*
X29724409Y-38792093D02*
X29819647Y-38792093D01*
X29819647Y-38792093D02*
X29914885Y-38315903D01*
X30200600Y-39649236D02*
X30248219Y-39553998D01*
X30248219Y-39553998D02*
X30248219Y-39363522D01*
X30248219Y-39363522D02*
X30200600Y-39268284D01*
X30200600Y-39268284D02*
X30152980Y-39220665D01*
X30152980Y-39220665D02*
X30057742Y-39173046D01*
X30057742Y-39173046D02*
X29772028Y-39173046D01*
X29772028Y-39173046D02*
X29676790Y-39220665D01*
X29676790Y-39220665D02*
X29629171Y-39268284D01*
X29629171Y-39268284D02*
X29581552Y-39363522D01*
X29581552Y-39363522D02*
X29581552Y-39553998D01*
X29581552Y-39553998D02*
X29629171Y-39649236D01*
X29581552Y-39934951D02*
X29581552Y-40315903D01*
X29248219Y-40077808D02*
X30105361Y-40077808D01*
X30105361Y-40077808D02*
X30200600Y-40125427D01*
X30200600Y-40125427D02*
X30248219Y-40220665D01*
X30248219Y-40220665D02*
X30248219Y-40315903D01*
X30248219Y-40649237D02*
X29581552Y-40649237D01*
X29772028Y-40649237D02*
X29676790Y-40696856D01*
X29676790Y-40696856D02*
X29629171Y-40744475D01*
X29629171Y-40744475D02*
X29581552Y-40839713D01*
X29581552Y-40839713D02*
X29581552Y-40934951D01*
X29581552Y-41696856D02*
X30248219Y-41696856D01*
X29581552Y-41268285D02*
X30105361Y-41268285D01*
X30105361Y-41268285D02*
X30200600Y-41315904D01*
X30200600Y-41315904D02*
X30248219Y-41411142D01*
X30248219Y-41411142D02*
X30248219Y-41553999D01*
X30248219Y-41553999D02*
X30200600Y-41649237D01*
X30200600Y-41649237D02*
X30152980Y-41696856D01*
X30248219Y-42173047D02*
X29581552Y-42173047D01*
X29676790Y-42173047D02*
X29629171Y-42220666D01*
X29629171Y-42220666D02*
X29581552Y-42315904D01*
X29581552Y-42315904D02*
X29581552Y-42458761D01*
X29581552Y-42458761D02*
X29629171Y-42553999D01*
X29629171Y-42553999D02*
X29724409Y-42601618D01*
X29724409Y-42601618D02*
X30248219Y-42601618D01*
X29724409Y-42601618D02*
X29629171Y-42649237D01*
X29629171Y-42649237D02*
X29581552Y-42744475D01*
X29581552Y-42744475D02*
X29581552Y-42887332D01*
X29581552Y-42887332D02*
X29629171Y-42982571D01*
X29629171Y-42982571D02*
X29724409Y-43030190D01*
X29724409Y-43030190D02*
X30248219Y-43030190D01*
X29581552Y-44125428D02*
X29581552Y-44506380D01*
X30248219Y-44268285D02*
X29391076Y-44268285D01*
X29391076Y-44268285D02*
X29295838Y-44315904D01*
X29295838Y-44315904D02*
X29248219Y-44411142D01*
X29248219Y-44411142D02*
X29248219Y-44506380D01*
X30248219Y-44982571D02*
X30200600Y-44887333D01*
X30200600Y-44887333D02*
X30152980Y-44839714D01*
X30152980Y-44839714D02*
X30057742Y-44792095D01*
X30057742Y-44792095D02*
X29772028Y-44792095D01*
X29772028Y-44792095D02*
X29676790Y-44839714D01*
X29676790Y-44839714D02*
X29629171Y-44887333D01*
X29629171Y-44887333D02*
X29581552Y-44982571D01*
X29581552Y-44982571D02*
X29581552Y-45125428D01*
X29581552Y-45125428D02*
X29629171Y-45220666D01*
X29629171Y-45220666D02*
X29676790Y-45268285D01*
X29676790Y-45268285D02*
X29772028Y-45315904D01*
X29772028Y-45315904D02*
X30057742Y-45315904D01*
X30057742Y-45315904D02*
X30152980Y-45268285D01*
X30152980Y-45268285D02*
X30200600Y-45220666D01*
X30200600Y-45220666D02*
X30248219Y-45125428D01*
X30248219Y-45125428D02*
X30248219Y-44982571D01*
X30248219Y-45744476D02*
X29581552Y-45744476D01*
X29772028Y-45744476D02*
X29676790Y-45792095D01*
X29676790Y-45792095D02*
X29629171Y-45839714D01*
X29629171Y-45839714D02*
X29581552Y-45934952D01*
X29581552Y-45934952D02*
X29581552Y-46030190D01*
X30200600Y-46315905D02*
X30248219Y-46411143D01*
X30248219Y-46411143D02*
X30248219Y-46601619D01*
X30248219Y-46601619D02*
X30200600Y-46696857D01*
X30200600Y-46696857D02*
X30105361Y-46744476D01*
X30105361Y-46744476D02*
X30057742Y-46744476D01*
X30057742Y-46744476D02*
X29962504Y-46696857D01*
X29962504Y-46696857D02*
X29914885Y-46601619D01*
X29914885Y-46601619D02*
X29914885Y-46458762D01*
X29914885Y-46458762D02*
X29867266Y-46363524D01*
X29867266Y-46363524D02*
X29772028Y-46315905D01*
X29772028Y-46315905D02*
X29724409Y-46315905D01*
X29724409Y-46315905D02*
X29629171Y-46363524D01*
X29629171Y-46363524D02*
X29581552Y-46458762D01*
X29581552Y-46458762D02*
X29581552Y-46601619D01*
X29581552Y-46601619D02*
X29629171Y-46696857D01*
X29581552Y-47030191D02*
X29581552Y-47411143D01*
X29248219Y-47173048D02*
X30105361Y-47173048D01*
X30105361Y-47173048D02*
X30200600Y-47220667D01*
X30200600Y-47220667D02*
X30248219Y-47315905D01*
X30248219Y-47315905D02*
X30248219Y-47411143D01*
X29629171Y-47744477D02*
X29581552Y-47839715D01*
X29581552Y-47839715D02*
X29581552Y-48030191D01*
X29581552Y-48030191D02*
X29629171Y-48125429D01*
X29629171Y-48125429D02*
X29724409Y-48173048D01*
X30200600Y-48601620D02*
X30248219Y-48506382D01*
X30248219Y-48506382D02*
X30248219Y-48315905D01*
X30248219Y-48315905D02*
X30200600Y-48220667D01*
X30200600Y-48220667D02*
X30105361Y-48173048D01*
X30105361Y-48173048D02*
X29724409Y-48173048D01*
X29724409Y-48173048D02*
X29629171Y-48220667D01*
X29629171Y-48220667D02*
X29581552Y-48315905D01*
X29581552Y-48315905D02*
X29581552Y-48506382D01*
X29581552Y-48506382D02*
X29629171Y-48601620D01*
X29629171Y-48601620D02*
X29724409Y-48649239D01*
X29724409Y-48649239D02*
X29819647Y-48649239D01*
X29819647Y-48649239D02*
X29867266Y-48173048D01*
X29867266Y-48173048D02*
X29867266Y-47839715D01*
X29867266Y-47839715D02*
X29914885Y-47744477D01*
X29914885Y-47744477D02*
X30010123Y-47696858D01*
X30010123Y-47696858D02*
X30105361Y-47696858D01*
X30105361Y-47696858D02*
X30200600Y-47744477D01*
X30200600Y-47744477D02*
X30248219Y-47839715D01*
X30248219Y-47839715D02*
X30248219Y-48030191D01*
X30248219Y-48030191D02*
X30200600Y-48125429D01*
X30200600Y-48125429D02*
X30105361Y-48173048D01*
X30248219Y-49077810D02*
X29248219Y-49077810D01*
X29867266Y-49173048D02*
X30248219Y-49458762D01*
X29581552Y-49458762D02*
X29962504Y-49077810D01*
X30200600Y-50268286D02*
X30248219Y-50173048D01*
X30248219Y-50173048D02*
X30248219Y-49982572D01*
X30248219Y-49982572D02*
X30200600Y-49887334D01*
X30200600Y-49887334D02*
X30105361Y-49839715D01*
X30105361Y-49839715D02*
X29724409Y-49839715D01*
X29724409Y-49839715D02*
X29629171Y-49887334D01*
X29629171Y-49887334D02*
X29581552Y-49982572D01*
X29581552Y-49982572D02*
X29581552Y-50173048D01*
X29581552Y-50173048D02*
X29629171Y-50268286D01*
X29629171Y-50268286D02*
X29724409Y-50315905D01*
X29724409Y-50315905D02*
X29819647Y-50315905D01*
X29819647Y-50315905D02*
X29914885Y-49839715D01*
X30248219Y-50744477D02*
X29581552Y-50744477D01*
X29772028Y-50744477D02*
X29676790Y-50792096D01*
X29676790Y-50792096D02*
X29629171Y-50839715D01*
X29629171Y-50839715D02*
X29581552Y-50934953D01*
X29581552Y-50934953D02*
X29581552Y-51030191D01*
X29581552Y-52030192D02*
X30248219Y-52268287D01*
X30248219Y-52268287D02*
X29581552Y-52506382D01*
X29248219Y-53077811D02*
X29248219Y-53173049D01*
X29248219Y-53173049D02*
X29295838Y-53268287D01*
X29295838Y-53268287D02*
X29343457Y-53315906D01*
X29343457Y-53315906D02*
X29438695Y-53363525D01*
X29438695Y-53363525D02*
X29629171Y-53411144D01*
X29629171Y-53411144D02*
X29867266Y-53411144D01*
X29867266Y-53411144D02*
X30057742Y-53363525D01*
X30057742Y-53363525D02*
X30152980Y-53315906D01*
X30152980Y-53315906D02*
X30200600Y-53268287D01*
X30200600Y-53268287D02*
X30248219Y-53173049D01*
X30248219Y-53173049D02*
X30248219Y-53077811D01*
X30248219Y-53077811D02*
X30200600Y-52982573D01*
X30200600Y-52982573D02*
X30152980Y-52934954D01*
X30152980Y-52934954D02*
X30057742Y-52887335D01*
X30057742Y-52887335D02*
X29867266Y-52839716D01*
X29867266Y-52839716D02*
X29629171Y-52839716D01*
X29629171Y-52839716D02*
X29438695Y-52887335D01*
X29438695Y-52887335D02*
X29343457Y-52934954D01*
X29343457Y-52934954D02*
X29295838Y-52982573D01*
X29295838Y-52982573D02*
X29248219Y-53077811D01*
X30152980Y-53839716D02*
X30200600Y-53887335D01*
X30200600Y-53887335D02*
X30248219Y-53839716D01*
X30248219Y-53839716D02*
X30200600Y-53792097D01*
X30200600Y-53792097D02*
X30152980Y-53839716D01*
X30152980Y-53839716D02*
X30248219Y-53839716D01*
X29343457Y-54268287D02*
X29295838Y-54315906D01*
X29295838Y-54315906D02*
X29248219Y-54411144D01*
X29248219Y-54411144D02*
X29248219Y-54649239D01*
X29248219Y-54649239D02*
X29295838Y-54744477D01*
X29295838Y-54744477D02*
X29343457Y-54792096D01*
X29343457Y-54792096D02*
X29438695Y-54839715D01*
X29438695Y-54839715D02*
X29533933Y-54839715D01*
X29533933Y-54839715D02*
X29676790Y-54792096D01*
X29676790Y-54792096D02*
X30248219Y-54220668D01*
X30248219Y-54220668D02*
X30248219Y-54839715D01*
X30629171Y-56315906D02*
X30581552Y-56268287D01*
X30581552Y-56268287D02*
X30438695Y-56173049D01*
X30438695Y-56173049D02*
X30343457Y-56125430D01*
X30343457Y-56125430D02*
X30200600Y-56077811D01*
X30200600Y-56077811D02*
X29962504Y-56030192D01*
X29962504Y-56030192D02*
X29772028Y-56030192D01*
X29772028Y-56030192D02*
X29533933Y-56077811D01*
X29533933Y-56077811D02*
X29391076Y-56125430D01*
X29391076Y-56125430D02*
X29295838Y-56173049D01*
X29295838Y-56173049D02*
X29152980Y-56268287D01*
X29152980Y-56268287D02*
X29105361Y-56315906D01*
X30248219Y-56696859D02*
X29248219Y-56696859D01*
X29248219Y-56696859D02*
X30248219Y-57268287D01*
X30248219Y-57268287D02*
X29248219Y-57268287D01*
X29724409Y-57744478D02*
X29724409Y-58077811D01*
X30248219Y-58220668D02*
X30248219Y-57744478D01*
X30248219Y-57744478D02*
X29248219Y-57744478D01*
X29248219Y-57744478D02*
X29248219Y-58220668D01*
X29867266Y-59411145D02*
X29867266Y-60173050D01*
X29676790Y-61554002D02*
X29629171Y-61458764D01*
X29629171Y-61458764D02*
X29581552Y-61411145D01*
X29581552Y-61411145D02*
X29486314Y-61363526D01*
X29486314Y-61363526D02*
X29438695Y-61363526D01*
X29438695Y-61363526D02*
X29343457Y-61411145D01*
X29343457Y-61411145D02*
X29295838Y-61458764D01*
X29295838Y-61458764D02*
X29248219Y-61554002D01*
X29248219Y-61554002D02*
X29248219Y-61744478D01*
X29248219Y-61744478D02*
X29295838Y-61839716D01*
X29295838Y-61839716D02*
X29343457Y-61887335D01*
X29343457Y-61887335D02*
X29438695Y-61934954D01*
X29438695Y-61934954D02*
X29486314Y-61934954D01*
X29486314Y-61934954D02*
X29581552Y-61887335D01*
X29581552Y-61887335D02*
X29629171Y-61839716D01*
X29629171Y-61839716D02*
X29676790Y-61744478D01*
X29676790Y-61744478D02*
X29676790Y-61554002D01*
X29676790Y-61554002D02*
X29724409Y-61458764D01*
X29724409Y-61458764D02*
X29772028Y-61411145D01*
X29772028Y-61411145D02*
X29867266Y-61363526D01*
X29867266Y-61363526D02*
X30057742Y-61363526D01*
X30057742Y-61363526D02*
X30152980Y-61411145D01*
X30152980Y-61411145D02*
X30200600Y-61458764D01*
X30200600Y-61458764D02*
X30248219Y-61554002D01*
X30248219Y-61554002D02*
X30248219Y-61744478D01*
X30248219Y-61744478D02*
X30200600Y-61839716D01*
X30200600Y-61839716D02*
X30152980Y-61887335D01*
X30152980Y-61887335D02*
X30057742Y-61934954D01*
X30057742Y-61934954D02*
X29867266Y-61934954D01*
X29867266Y-61934954D02*
X29772028Y-61887335D01*
X29772028Y-61887335D02*
X29724409Y-61839716D01*
X29724409Y-61839716D02*
X29676790Y-61744478D01*
X29581552Y-62792097D02*
X30248219Y-62792097D01*
X29200600Y-62554002D02*
X29914885Y-62315907D01*
X29914885Y-62315907D02*
X29914885Y-62934954D01*
X30629171Y-63220669D02*
X30581552Y-63268288D01*
X30581552Y-63268288D02*
X30438695Y-63363526D01*
X30438695Y-63363526D02*
X30343457Y-63411145D01*
X30343457Y-63411145D02*
X30200600Y-63458764D01*
X30200600Y-63458764D02*
X29962504Y-63506383D01*
X29962504Y-63506383D02*
X29772028Y-63506383D01*
X29772028Y-63506383D02*
X29533933Y-63458764D01*
X29533933Y-63458764D02*
X29391076Y-63411145D01*
X29391076Y-63411145D02*
X29295838Y-63363526D01*
X29295838Y-63363526D02*
X29152980Y-63268288D01*
X29152980Y-63268288D02*
X29105361Y-63220669D01*
M02*
