%TF.GenerationSoftware,KiCad,Pcbnew,8.0.1*%
%TF.CreationDate,2024-04-04T11:04:08+02:00*%
%TF.ProjectId,ZX Spectrum AMP,5a582053-7065-4637-9472-756d20414d50,rev?*%
%TF.SameCoordinates,Original*%
%TF.FileFunction,Legend,Top*%
%TF.FilePolarity,Positive*%
%FSLAX46Y46*%
G04 Gerber Fmt 4.6, Leading zero omitted, Abs format (unit mm)*
G04 Created by KiCad (PCBNEW 8.0.1) date 2024-04-04 11:04:08*
%MOMM*%
%LPD*%
G01*
G04 APERTURE LIST*
%ADD10C,0.150000*%
%ADD11C,0.100000*%
%ADD12C,0.120000*%
G04 APERTURE END LIST*
D10*
X41029819Y-62070237D02*
X42029819Y-61736904D01*
X42029819Y-61736904D02*
X41029819Y-61403571D01*
X42029819Y-60927380D02*
X41982200Y-61022618D01*
X41982200Y-61022618D02*
X41934580Y-61070237D01*
X41934580Y-61070237D02*
X41839342Y-61117856D01*
X41839342Y-61117856D02*
X41553628Y-61117856D01*
X41553628Y-61117856D02*
X41458390Y-61070237D01*
X41458390Y-61070237D02*
X41410771Y-61022618D01*
X41410771Y-61022618D02*
X41363152Y-60927380D01*
X41363152Y-60927380D02*
X41363152Y-60784523D01*
X41363152Y-60784523D02*
X41410771Y-60689285D01*
X41410771Y-60689285D02*
X41458390Y-60641666D01*
X41458390Y-60641666D02*
X41553628Y-60594047D01*
X41553628Y-60594047D02*
X41839342Y-60594047D01*
X41839342Y-60594047D02*
X41934580Y-60641666D01*
X41934580Y-60641666D02*
X41982200Y-60689285D01*
X41982200Y-60689285D02*
X42029819Y-60784523D01*
X42029819Y-60784523D02*
X42029819Y-60927380D01*
X42029819Y-60022618D02*
X41982200Y-60117856D01*
X41982200Y-60117856D02*
X41886961Y-60165475D01*
X41886961Y-60165475D02*
X41029819Y-60165475D01*
X41363152Y-59213094D02*
X42029819Y-59213094D01*
X41363152Y-59641665D02*
X41886961Y-59641665D01*
X41886961Y-59641665D02*
X41982200Y-59594046D01*
X41982200Y-59594046D02*
X42029819Y-59498808D01*
X42029819Y-59498808D02*
X42029819Y-59355951D01*
X42029819Y-59355951D02*
X41982200Y-59260713D01*
X41982200Y-59260713D02*
X41934580Y-59213094D01*
X42029819Y-58736903D02*
X41363152Y-58736903D01*
X41458390Y-58736903D02*
X41410771Y-58689284D01*
X41410771Y-58689284D02*
X41363152Y-58594046D01*
X41363152Y-58594046D02*
X41363152Y-58451189D01*
X41363152Y-58451189D02*
X41410771Y-58355951D01*
X41410771Y-58355951D02*
X41506009Y-58308332D01*
X41506009Y-58308332D02*
X42029819Y-58308332D01*
X41506009Y-58308332D02*
X41410771Y-58260713D01*
X41410771Y-58260713D02*
X41363152Y-58165475D01*
X41363152Y-58165475D02*
X41363152Y-58022618D01*
X41363152Y-58022618D02*
X41410771Y-57927379D01*
X41410771Y-57927379D02*
X41506009Y-57879760D01*
X41506009Y-57879760D02*
X42029819Y-57879760D01*
X41982200Y-57022618D02*
X42029819Y-57117856D01*
X42029819Y-57117856D02*
X42029819Y-57308332D01*
X42029819Y-57308332D02*
X41982200Y-57403570D01*
X41982200Y-57403570D02*
X41886961Y-57451189D01*
X41886961Y-57451189D02*
X41506009Y-57451189D01*
X41506009Y-57451189D02*
X41410771Y-57403570D01*
X41410771Y-57403570D02*
X41363152Y-57308332D01*
X41363152Y-57308332D02*
X41363152Y-57117856D01*
X41363152Y-57117856D02*
X41410771Y-57022618D01*
X41410771Y-57022618D02*
X41506009Y-56974999D01*
X41506009Y-56974999D02*
X41601247Y-56974999D01*
X41601247Y-56974999D02*
X41696485Y-57451189D01*
X60194866Y-50920420D02*
X60194866Y-50158516D01*
X60575819Y-50539468D02*
X59813914Y-50539468D01*
X60575819Y-49634706D02*
X60575819Y-49444230D01*
X60575819Y-49444230D02*
X60528200Y-49348992D01*
X60528200Y-49348992D02*
X60480580Y-49301373D01*
X60480580Y-49301373D02*
X60337723Y-49206135D01*
X60337723Y-49206135D02*
X60147247Y-49158516D01*
X60147247Y-49158516D02*
X59766295Y-49158516D01*
X59766295Y-49158516D02*
X59671057Y-49206135D01*
X59671057Y-49206135D02*
X59623438Y-49253754D01*
X59623438Y-49253754D02*
X59575819Y-49348992D01*
X59575819Y-49348992D02*
X59575819Y-49539468D01*
X59575819Y-49539468D02*
X59623438Y-49634706D01*
X59623438Y-49634706D02*
X59671057Y-49682325D01*
X59671057Y-49682325D02*
X59766295Y-49729944D01*
X59766295Y-49729944D02*
X60004390Y-49729944D01*
X60004390Y-49729944D02*
X60099628Y-49682325D01*
X60099628Y-49682325D02*
X60147247Y-49634706D01*
X60147247Y-49634706D02*
X60194866Y-49539468D01*
X60194866Y-49539468D02*
X60194866Y-49348992D01*
X60194866Y-49348992D02*
X60147247Y-49253754D01*
X60147247Y-49253754D02*
X60099628Y-49206135D01*
X60099628Y-49206135D02*
X60004390Y-49158516D01*
X59575819Y-48872801D02*
X60575819Y-48539468D01*
X60575819Y-48539468D02*
X59575819Y-48206135D01*
X72996588Y-67700638D02*
X72901350Y-67653019D01*
X72901350Y-67653019D02*
X72758493Y-67653019D01*
X72758493Y-67653019D02*
X72615636Y-67700638D01*
X72615636Y-67700638D02*
X72520398Y-67795876D01*
X72520398Y-67795876D02*
X72472779Y-67891114D01*
X72472779Y-67891114D02*
X72425160Y-68081590D01*
X72425160Y-68081590D02*
X72425160Y-68224447D01*
X72425160Y-68224447D02*
X72472779Y-68414923D01*
X72472779Y-68414923D02*
X72520398Y-68510161D01*
X72520398Y-68510161D02*
X72615636Y-68605400D01*
X72615636Y-68605400D02*
X72758493Y-68653019D01*
X72758493Y-68653019D02*
X72853731Y-68653019D01*
X72853731Y-68653019D02*
X72996588Y-68605400D01*
X72996588Y-68605400D02*
X73044207Y-68557780D01*
X73044207Y-68557780D02*
X73044207Y-68224447D01*
X73044207Y-68224447D02*
X72853731Y-68224447D01*
X73472779Y-68653019D02*
X73472779Y-67653019D01*
X73472779Y-67653019D02*
X74044207Y-68653019D01*
X74044207Y-68653019D02*
X74044207Y-67653019D01*
X74520398Y-68653019D02*
X74520398Y-67653019D01*
X74520398Y-67653019D02*
X74758493Y-67653019D01*
X74758493Y-67653019D02*
X74901350Y-67700638D01*
X74901350Y-67700638D02*
X74996588Y-67795876D01*
X74996588Y-67795876D02*
X75044207Y-67891114D01*
X75044207Y-67891114D02*
X75091826Y-68081590D01*
X75091826Y-68081590D02*
X75091826Y-68224447D01*
X75091826Y-68224447D02*
X75044207Y-68414923D01*
X75044207Y-68414923D02*
X74996588Y-68510161D01*
X74996588Y-68510161D02*
X74901350Y-68605400D01*
X74901350Y-68605400D02*
X74758493Y-68653019D01*
X74758493Y-68653019D02*
X74520398Y-68653019D01*
X62112638Y-50295011D02*
X62065019Y-50390249D01*
X62065019Y-50390249D02*
X62065019Y-50533106D01*
X62065019Y-50533106D02*
X62112638Y-50675963D01*
X62112638Y-50675963D02*
X62207876Y-50771201D01*
X62207876Y-50771201D02*
X62303114Y-50818820D01*
X62303114Y-50818820D02*
X62493590Y-50866439D01*
X62493590Y-50866439D02*
X62636447Y-50866439D01*
X62636447Y-50866439D02*
X62826923Y-50818820D01*
X62826923Y-50818820D02*
X62922161Y-50771201D01*
X62922161Y-50771201D02*
X63017400Y-50675963D01*
X63017400Y-50675963D02*
X63065019Y-50533106D01*
X63065019Y-50533106D02*
X63065019Y-50437868D01*
X63065019Y-50437868D02*
X63017400Y-50295011D01*
X63017400Y-50295011D02*
X62969780Y-50247392D01*
X62969780Y-50247392D02*
X62636447Y-50247392D01*
X62636447Y-50247392D02*
X62636447Y-50437868D01*
X63065019Y-49818820D02*
X62065019Y-49818820D01*
X62065019Y-49818820D02*
X63065019Y-49247392D01*
X63065019Y-49247392D02*
X62065019Y-49247392D01*
X63065019Y-48771201D02*
X62065019Y-48771201D01*
X62065019Y-48771201D02*
X62065019Y-48533106D01*
X62065019Y-48533106D02*
X62112638Y-48390249D01*
X62112638Y-48390249D02*
X62207876Y-48295011D01*
X62207876Y-48295011D02*
X62303114Y-48247392D01*
X62303114Y-48247392D02*
X62493590Y-48199773D01*
X62493590Y-48199773D02*
X62636447Y-48199773D01*
X62636447Y-48199773D02*
X62826923Y-48247392D01*
X62826923Y-48247392D02*
X62922161Y-48295011D01*
X62922161Y-48295011D02*
X63017400Y-48390249D01*
X63017400Y-48390249D02*
X63065019Y-48533106D01*
X63065019Y-48533106D02*
X63065019Y-48771201D01*
X74683333Y-48634819D02*
X74350000Y-48158628D01*
X74111905Y-48634819D02*
X74111905Y-47634819D01*
X74111905Y-47634819D02*
X74492857Y-47634819D01*
X74492857Y-47634819D02*
X74588095Y-47682438D01*
X74588095Y-47682438D02*
X74635714Y-47730057D01*
X74635714Y-47730057D02*
X74683333Y-47825295D01*
X74683333Y-47825295D02*
X74683333Y-47968152D01*
X74683333Y-47968152D02*
X74635714Y-48063390D01*
X74635714Y-48063390D02*
X74588095Y-48111009D01*
X74588095Y-48111009D02*
X74492857Y-48158628D01*
X74492857Y-48158628D02*
X74111905Y-48158628D01*
X75635714Y-48634819D02*
X75064286Y-48634819D01*
X75350000Y-48634819D02*
X75350000Y-47634819D01*
X75350000Y-47634819D02*
X75254762Y-47777676D01*
X75254762Y-47777676D02*
X75159524Y-47872914D01*
X75159524Y-47872914D02*
X75064286Y-47920533D01*
X74659523Y-53374819D02*
X74088095Y-53374819D01*
X74373809Y-53374819D02*
X74373809Y-52374819D01*
X74373809Y-52374819D02*
X74278571Y-52517676D01*
X74278571Y-52517676D02*
X74183333Y-52612914D01*
X74183333Y-52612914D02*
X74088095Y-52660533D01*
X75278571Y-52374819D02*
X75373809Y-52374819D01*
X75373809Y-52374819D02*
X75469047Y-52422438D01*
X75469047Y-52422438D02*
X75516666Y-52470057D01*
X75516666Y-52470057D02*
X75564285Y-52565295D01*
X75564285Y-52565295D02*
X75611904Y-52755771D01*
X75611904Y-52755771D02*
X75611904Y-52993866D01*
X75611904Y-52993866D02*
X75564285Y-53184342D01*
X75564285Y-53184342D02*
X75516666Y-53279580D01*
X75516666Y-53279580D02*
X75469047Y-53327200D01*
X75469047Y-53327200D02*
X75373809Y-53374819D01*
X75373809Y-53374819D02*
X75278571Y-53374819D01*
X75278571Y-53374819D02*
X75183333Y-53327200D01*
X75183333Y-53327200D02*
X75135714Y-53279580D01*
X75135714Y-53279580D02*
X75088095Y-53184342D01*
X75088095Y-53184342D02*
X75040476Y-52993866D01*
X75040476Y-52993866D02*
X75040476Y-52755771D01*
X75040476Y-52755771D02*
X75088095Y-52565295D01*
X75088095Y-52565295D02*
X75135714Y-52470057D01*
X75135714Y-52470057D02*
X75183333Y-52422438D01*
X75183333Y-52422438D02*
X75278571Y-52374819D01*
X39675600Y-41144628D02*
X39723219Y-41001771D01*
X39723219Y-41001771D02*
X39723219Y-40763676D01*
X39723219Y-40763676D02*
X39675600Y-40668438D01*
X39675600Y-40668438D02*
X39627980Y-40620819D01*
X39627980Y-40620819D02*
X39532742Y-40573200D01*
X39532742Y-40573200D02*
X39437504Y-40573200D01*
X39437504Y-40573200D02*
X39342266Y-40620819D01*
X39342266Y-40620819D02*
X39294647Y-40668438D01*
X39294647Y-40668438D02*
X39247028Y-40763676D01*
X39247028Y-40763676D02*
X39199409Y-40954152D01*
X39199409Y-40954152D02*
X39151790Y-41049390D01*
X39151790Y-41049390D02*
X39104171Y-41097009D01*
X39104171Y-41097009D02*
X39008933Y-41144628D01*
X39008933Y-41144628D02*
X38913695Y-41144628D01*
X38913695Y-41144628D02*
X38818457Y-41097009D01*
X38818457Y-41097009D02*
X38770838Y-41049390D01*
X38770838Y-41049390D02*
X38723219Y-40954152D01*
X38723219Y-40954152D02*
X38723219Y-40716057D01*
X38723219Y-40716057D02*
X38770838Y-40573200D01*
X39056552Y-40144628D02*
X40056552Y-40144628D01*
X39104171Y-40144628D02*
X39056552Y-40049390D01*
X39056552Y-40049390D02*
X39056552Y-39858914D01*
X39056552Y-39858914D02*
X39104171Y-39763676D01*
X39104171Y-39763676D02*
X39151790Y-39716057D01*
X39151790Y-39716057D02*
X39247028Y-39668438D01*
X39247028Y-39668438D02*
X39532742Y-39668438D01*
X39532742Y-39668438D02*
X39627980Y-39716057D01*
X39627980Y-39716057D02*
X39675600Y-39763676D01*
X39675600Y-39763676D02*
X39723219Y-39858914D01*
X39723219Y-39858914D02*
X39723219Y-40049390D01*
X39723219Y-40049390D02*
X39675600Y-40144628D01*
X39675600Y-38858914D02*
X39723219Y-38954152D01*
X39723219Y-38954152D02*
X39723219Y-39144628D01*
X39723219Y-39144628D02*
X39675600Y-39239866D01*
X39675600Y-39239866D02*
X39580361Y-39287485D01*
X39580361Y-39287485D02*
X39199409Y-39287485D01*
X39199409Y-39287485D02*
X39104171Y-39239866D01*
X39104171Y-39239866D02*
X39056552Y-39144628D01*
X39056552Y-39144628D02*
X39056552Y-38954152D01*
X39056552Y-38954152D02*
X39104171Y-38858914D01*
X39104171Y-38858914D02*
X39199409Y-38811295D01*
X39199409Y-38811295D02*
X39294647Y-38811295D01*
X39294647Y-38811295D02*
X39389885Y-39287485D01*
X39723219Y-37954152D02*
X39199409Y-37954152D01*
X39199409Y-37954152D02*
X39104171Y-38001771D01*
X39104171Y-38001771D02*
X39056552Y-38097009D01*
X39056552Y-38097009D02*
X39056552Y-38287485D01*
X39056552Y-38287485D02*
X39104171Y-38382723D01*
X39675600Y-37954152D02*
X39723219Y-38049390D01*
X39723219Y-38049390D02*
X39723219Y-38287485D01*
X39723219Y-38287485D02*
X39675600Y-38382723D01*
X39675600Y-38382723D02*
X39580361Y-38430342D01*
X39580361Y-38430342D02*
X39485123Y-38430342D01*
X39485123Y-38430342D02*
X39389885Y-38382723D01*
X39389885Y-38382723D02*
X39342266Y-38287485D01*
X39342266Y-38287485D02*
X39342266Y-38049390D01*
X39342266Y-38049390D02*
X39294647Y-37954152D01*
X39723219Y-37477961D02*
X38723219Y-37477961D01*
X39342266Y-37382723D02*
X39723219Y-37097009D01*
X39056552Y-37097009D02*
X39437504Y-37477961D01*
X39675600Y-36287485D02*
X39723219Y-36382723D01*
X39723219Y-36382723D02*
X39723219Y-36573199D01*
X39723219Y-36573199D02*
X39675600Y-36668437D01*
X39675600Y-36668437D02*
X39580361Y-36716056D01*
X39580361Y-36716056D02*
X39199409Y-36716056D01*
X39199409Y-36716056D02*
X39104171Y-36668437D01*
X39104171Y-36668437D02*
X39056552Y-36573199D01*
X39056552Y-36573199D02*
X39056552Y-36382723D01*
X39056552Y-36382723D02*
X39104171Y-36287485D01*
X39104171Y-36287485D02*
X39199409Y-36239866D01*
X39199409Y-36239866D02*
X39294647Y-36239866D01*
X39294647Y-36239866D02*
X39389885Y-36716056D01*
X39723219Y-35811294D02*
X39056552Y-35811294D01*
X39247028Y-35811294D02*
X39151790Y-35763675D01*
X39151790Y-35763675D02*
X39104171Y-35716056D01*
X39104171Y-35716056D02*
X39056552Y-35620818D01*
X39056552Y-35620818D02*
X39056552Y-35525580D01*
X83413333Y-52584580D02*
X83365714Y-52632200D01*
X83365714Y-52632200D02*
X83222857Y-52679819D01*
X83222857Y-52679819D02*
X83127619Y-52679819D01*
X83127619Y-52679819D02*
X82984762Y-52632200D01*
X82984762Y-52632200D02*
X82889524Y-52536961D01*
X82889524Y-52536961D02*
X82841905Y-52441723D01*
X82841905Y-52441723D02*
X82794286Y-52251247D01*
X82794286Y-52251247D02*
X82794286Y-52108390D01*
X82794286Y-52108390D02*
X82841905Y-51917914D01*
X82841905Y-51917914D02*
X82889524Y-51822676D01*
X82889524Y-51822676D02*
X82984762Y-51727438D01*
X82984762Y-51727438D02*
X83127619Y-51679819D01*
X83127619Y-51679819D02*
X83222857Y-51679819D01*
X83222857Y-51679819D02*
X83365714Y-51727438D01*
X83365714Y-51727438D02*
X83413333Y-51775057D01*
X83794286Y-51775057D02*
X83841905Y-51727438D01*
X83841905Y-51727438D02*
X83937143Y-51679819D01*
X83937143Y-51679819D02*
X84175238Y-51679819D01*
X84175238Y-51679819D02*
X84270476Y-51727438D01*
X84270476Y-51727438D02*
X84318095Y-51775057D01*
X84318095Y-51775057D02*
X84365714Y-51870295D01*
X84365714Y-51870295D02*
X84365714Y-51965533D01*
X84365714Y-51965533D02*
X84318095Y-52108390D01*
X84318095Y-52108390D02*
X83746667Y-52679819D01*
X83746667Y-52679819D02*
X84365714Y-52679819D01*
X81046190Y-53375057D02*
X81093809Y-53327438D01*
X81093809Y-53327438D02*
X81189047Y-53279819D01*
X81189047Y-53279819D02*
X81427142Y-53279819D01*
X81427142Y-53279819D02*
X81522380Y-53327438D01*
X81522380Y-53327438D02*
X81569999Y-53375057D01*
X81569999Y-53375057D02*
X81617618Y-53470295D01*
X81617618Y-53470295D02*
X81617618Y-53565533D01*
X81617618Y-53565533D02*
X81569999Y-53708390D01*
X81569999Y-53708390D02*
X80998571Y-54279819D01*
X80998571Y-54279819D02*
X81617618Y-54279819D01*
X81998571Y-53375057D02*
X82046190Y-53327438D01*
X82046190Y-53327438D02*
X82141428Y-53279819D01*
X82141428Y-53279819D02*
X82379523Y-53279819D01*
X82379523Y-53279819D02*
X82474761Y-53327438D01*
X82474761Y-53327438D02*
X82522380Y-53375057D01*
X82522380Y-53375057D02*
X82569999Y-53470295D01*
X82569999Y-53470295D02*
X82569999Y-53565533D01*
X82569999Y-53565533D02*
X82522380Y-53708390D01*
X82522380Y-53708390D02*
X81950952Y-54279819D01*
X81950952Y-54279819D02*
X82569999Y-54279819D01*
X84189047Y-53613152D02*
X84189047Y-54279819D01*
X83760476Y-53613152D02*
X83760476Y-54136961D01*
X83760476Y-54136961D02*
X83808095Y-54232200D01*
X83808095Y-54232200D02*
X83903333Y-54279819D01*
X83903333Y-54279819D02*
X84046190Y-54279819D01*
X84046190Y-54279819D02*
X84141428Y-54232200D01*
X84141428Y-54232200D02*
X84189047Y-54184580D01*
X84998571Y-53756009D02*
X84665238Y-53756009D01*
X84665238Y-54279819D02*
X84665238Y-53279819D01*
X84665238Y-53279819D02*
X85141428Y-53279819D01*
X83153333Y-68484580D02*
X83105714Y-68532200D01*
X83105714Y-68532200D02*
X82962857Y-68579819D01*
X82962857Y-68579819D02*
X82867619Y-68579819D01*
X82867619Y-68579819D02*
X82724762Y-68532200D01*
X82724762Y-68532200D02*
X82629524Y-68436961D01*
X82629524Y-68436961D02*
X82581905Y-68341723D01*
X82581905Y-68341723D02*
X82534286Y-68151247D01*
X82534286Y-68151247D02*
X82534286Y-68008390D01*
X82534286Y-68008390D02*
X82581905Y-67817914D01*
X82581905Y-67817914D02*
X82629524Y-67722676D01*
X82629524Y-67722676D02*
X82724762Y-67627438D01*
X82724762Y-67627438D02*
X82867619Y-67579819D01*
X82867619Y-67579819D02*
X82962857Y-67579819D01*
X82962857Y-67579819D02*
X83105714Y-67627438D01*
X83105714Y-67627438D02*
X83153333Y-67675057D01*
X83486667Y-67579819D02*
X84105714Y-67579819D01*
X84105714Y-67579819D02*
X83772381Y-67960771D01*
X83772381Y-67960771D02*
X83915238Y-67960771D01*
X83915238Y-67960771D02*
X84010476Y-68008390D01*
X84010476Y-68008390D02*
X84058095Y-68056009D01*
X84058095Y-68056009D02*
X84105714Y-68151247D01*
X84105714Y-68151247D02*
X84105714Y-68389342D01*
X84105714Y-68389342D02*
X84058095Y-68484580D01*
X84058095Y-68484580D02*
X84010476Y-68532200D01*
X84010476Y-68532200D02*
X83915238Y-68579819D01*
X83915238Y-68579819D02*
X83629524Y-68579819D01*
X83629524Y-68579819D02*
X83534286Y-68532200D01*
X83534286Y-68532200D02*
X83486667Y-68484580D01*
X80916190Y-69395057D02*
X80963809Y-69347438D01*
X80963809Y-69347438D02*
X81059047Y-69299819D01*
X81059047Y-69299819D02*
X81297142Y-69299819D01*
X81297142Y-69299819D02*
X81392380Y-69347438D01*
X81392380Y-69347438D02*
X81439999Y-69395057D01*
X81439999Y-69395057D02*
X81487618Y-69490295D01*
X81487618Y-69490295D02*
X81487618Y-69585533D01*
X81487618Y-69585533D02*
X81439999Y-69728390D01*
X81439999Y-69728390D02*
X80868571Y-70299819D01*
X80868571Y-70299819D02*
X81487618Y-70299819D01*
X81868571Y-69395057D02*
X81916190Y-69347438D01*
X81916190Y-69347438D02*
X82011428Y-69299819D01*
X82011428Y-69299819D02*
X82249523Y-69299819D01*
X82249523Y-69299819D02*
X82344761Y-69347438D01*
X82344761Y-69347438D02*
X82392380Y-69395057D01*
X82392380Y-69395057D02*
X82439999Y-69490295D01*
X82439999Y-69490295D02*
X82439999Y-69585533D01*
X82439999Y-69585533D02*
X82392380Y-69728390D01*
X82392380Y-69728390D02*
X81820952Y-70299819D01*
X81820952Y-70299819D02*
X82439999Y-70299819D01*
X84059047Y-69633152D02*
X84059047Y-70299819D01*
X83630476Y-69633152D02*
X83630476Y-70156961D01*
X83630476Y-70156961D02*
X83678095Y-70252200D01*
X83678095Y-70252200D02*
X83773333Y-70299819D01*
X83773333Y-70299819D02*
X83916190Y-70299819D01*
X83916190Y-70299819D02*
X84011428Y-70252200D01*
X84011428Y-70252200D02*
X84059047Y-70204580D01*
X84868571Y-69776009D02*
X84535238Y-69776009D01*
X84535238Y-70299819D02*
X84535238Y-69299819D01*
X84535238Y-69299819D02*
X85011428Y-69299819D01*
X73249580Y-41036553D02*
X73297200Y-41084172D01*
X73297200Y-41084172D02*
X73344819Y-41227029D01*
X73344819Y-41227029D02*
X73344819Y-41322267D01*
X73344819Y-41322267D02*
X73297200Y-41465124D01*
X73297200Y-41465124D02*
X73201961Y-41560362D01*
X73201961Y-41560362D02*
X73106723Y-41607981D01*
X73106723Y-41607981D02*
X72916247Y-41655600D01*
X72916247Y-41655600D02*
X72773390Y-41655600D01*
X72773390Y-41655600D02*
X72582914Y-41607981D01*
X72582914Y-41607981D02*
X72487676Y-41560362D01*
X72487676Y-41560362D02*
X72392438Y-41465124D01*
X72392438Y-41465124D02*
X72344819Y-41322267D01*
X72344819Y-41322267D02*
X72344819Y-41227029D01*
X72344819Y-41227029D02*
X72392438Y-41084172D01*
X72392438Y-41084172D02*
X72440057Y-41036553D01*
X72678152Y-40179410D02*
X73344819Y-40179410D01*
X72297200Y-40417505D02*
X73011485Y-40655600D01*
X73011485Y-40655600D02*
X73011485Y-40036553D01*
X81004819Y-42753571D02*
X81004819Y-43324999D01*
X81004819Y-43039285D02*
X80004819Y-43039285D01*
X80004819Y-43039285D02*
X80147676Y-43134523D01*
X80147676Y-43134523D02*
X80242914Y-43229761D01*
X80242914Y-43229761D02*
X80290533Y-43324999D01*
X80004819Y-42134523D02*
X80004819Y-42039285D01*
X80004819Y-42039285D02*
X80052438Y-41944047D01*
X80052438Y-41944047D02*
X80100057Y-41896428D01*
X80100057Y-41896428D02*
X80195295Y-41848809D01*
X80195295Y-41848809D02*
X80385771Y-41801190D01*
X80385771Y-41801190D02*
X80623866Y-41801190D01*
X80623866Y-41801190D02*
X80814342Y-41848809D01*
X80814342Y-41848809D02*
X80909580Y-41896428D01*
X80909580Y-41896428D02*
X80957200Y-41944047D01*
X80957200Y-41944047D02*
X81004819Y-42039285D01*
X81004819Y-42039285D02*
X81004819Y-42134523D01*
X81004819Y-42134523D02*
X80957200Y-42229761D01*
X80957200Y-42229761D02*
X80909580Y-42277380D01*
X80909580Y-42277380D02*
X80814342Y-42324999D01*
X80814342Y-42324999D02*
X80623866Y-42372618D01*
X80623866Y-42372618D02*
X80385771Y-42372618D01*
X80385771Y-42372618D02*
X80195295Y-42324999D01*
X80195295Y-42324999D02*
X80100057Y-42277380D01*
X80100057Y-42277380D02*
X80052438Y-42229761D01*
X80052438Y-42229761D02*
X80004819Y-42134523D01*
X80004819Y-41182142D02*
X80004819Y-41086904D01*
X80004819Y-41086904D02*
X80052438Y-40991666D01*
X80052438Y-40991666D02*
X80100057Y-40944047D01*
X80100057Y-40944047D02*
X80195295Y-40896428D01*
X80195295Y-40896428D02*
X80385771Y-40848809D01*
X80385771Y-40848809D02*
X80623866Y-40848809D01*
X80623866Y-40848809D02*
X80814342Y-40896428D01*
X80814342Y-40896428D02*
X80909580Y-40944047D01*
X80909580Y-40944047D02*
X80957200Y-40991666D01*
X80957200Y-40991666D02*
X81004819Y-41086904D01*
X81004819Y-41086904D02*
X81004819Y-41182142D01*
X81004819Y-41182142D02*
X80957200Y-41277380D01*
X80957200Y-41277380D02*
X80909580Y-41324999D01*
X80909580Y-41324999D02*
X80814342Y-41372618D01*
X80814342Y-41372618D02*
X80623866Y-41420237D01*
X80623866Y-41420237D02*
X80385771Y-41420237D01*
X80385771Y-41420237D02*
X80195295Y-41372618D01*
X80195295Y-41372618D02*
X80100057Y-41324999D01*
X80100057Y-41324999D02*
X80052438Y-41277380D01*
X80052438Y-41277380D02*
X80004819Y-41182142D01*
X80338152Y-39229761D02*
X81004819Y-39229761D01*
X80338152Y-39658332D02*
X80861961Y-39658332D01*
X80861961Y-39658332D02*
X80957200Y-39610713D01*
X80957200Y-39610713D02*
X81004819Y-39515475D01*
X81004819Y-39515475D02*
X81004819Y-39372618D01*
X81004819Y-39372618D02*
X80957200Y-39277380D01*
X80957200Y-39277380D02*
X80909580Y-39229761D01*
X80481009Y-38420237D02*
X80481009Y-38753570D01*
X81004819Y-38753570D02*
X80004819Y-38753570D01*
X80004819Y-38753570D02*
X80004819Y-38277380D01*
X69729433Y-40809580D02*
X69681814Y-40857200D01*
X69681814Y-40857200D02*
X69538957Y-40904819D01*
X69538957Y-40904819D02*
X69443719Y-40904819D01*
X69443719Y-40904819D02*
X69300862Y-40857200D01*
X69300862Y-40857200D02*
X69205624Y-40761961D01*
X69205624Y-40761961D02*
X69158005Y-40666723D01*
X69158005Y-40666723D02*
X69110386Y-40476247D01*
X69110386Y-40476247D02*
X69110386Y-40333390D01*
X69110386Y-40333390D02*
X69158005Y-40142914D01*
X69158005Y-40142914D02*
X69205624Y-40047676D01*
X69205624Y-40047676D02*
X69300862Y-39952438D01*
X69300862Y-39952438D02*
X69443719Y-39904819D01*
X69443719Y-39904819D02*
X69538957Y-39904819D01*
X69538957Y-39904819D02*
X69681814Y-39952438D01*
X69681814Y-39952438D02*
X69729433Y-40000057D01*
X70634195Y-39904819D02*
X70158005Y-39904819D01*
X70158005Y-39904819D02*
X70110386Y-40381009D01*
X70110386Y-40381009D02*
X70158005Y-40333390D01*
X70158005Y-40333390D02*
X70253243Y-40285771D01*
X70253243Y-40285771D02*
X70491338Y-40285771D01*
X70491338Y-40285771D02*
X70586576Y-40333390D01*
X70586576Y-40333390D02*
X70634195Y-40381009D01*
X70634195Y-40381009D02*
X70681814Y-40476247D01*
X70681814Y-40476247D02*
X70681814Y-40714342D01*
X70681814Y-40714342D02*
X70634195Y-40809580D01*
X70634195Y-40809580D02*
X70586576Y-40857200D01*
X70586576Y-40857200D02*
X70491338Y-40904819D01*
X70491338Y-40904819D02*
X70253243Y-40904819D01*
X70253243Y-40904819D02*
X70158005Y-40857200D01*
X70158005Y-40857200D02*
X70110386Y-40809580D01*
X67872290Y-46904819D02*
X67967528Y-46904819D01*
X67967528Y-46904819D02*
X68062766Y-46952438D01*
X68062766Y-46952438D02*
X68110385Y-47000057D01*
X68110385Y-47000057D02*
X68158004Y-47095295D01*
X68158004Y-47095295D02*
X68205623Y-47285771D01*
X68205623Y-47285771D02*
X68205623Y-47523866D01*
X68205623Y-47523866D02*
X68158004Y-47714342D01*
X68158004Y-47714342D02*
X68110385Y-47809580D01*
X68110385Y-47809580D02*
X68062766Y-47857200D01*
X68062766Y-47857200D02*
X67967528Y-47904819D01*
X67967528Y-47904819D02*
X67872290Y-47904819D01*
X67872290Y-47904819D02*
X67777052Y-47857200D01*
X67777052Y-47857200D02*
X67729433Y-47809580D01*
X67729433Y-47809580D02*
X67681814Y-47714342D01*
X67681814Y-47714342D02*
X67634195Y-47523866D01*
X67634195Y-47523866D02*
X67634195Y-47285771D01*
X67634195Y-47285771D02*
X67681814Y-47095295D01*
X67681814Y-47095295D02*
X67729433Y-47000057D01*
X67729433Y-47000057D02*
X67777052Y-46952438D01*
X67777052Y-46952438D02*
X67872290Y-46904819D01*
X68681814Y-47857200D02*
X68681814Y-47904819D01*
X68681814Y-47904819D02*
X68634195Y-48000057D01*
X68634195Y-48000057D02*
X68586576Y-48047676D01*
X69634194Y-47904819D02*
X69062766Y-47904819D01*
X69348480Y-47904819D02*
X69348480Y-46904819D01*
X69348480Y-46904819D02*
X69253242Y-47047676D01*
X69253242Y-47047676D02*
X69158004Y-47142914D01*
X69158004Y-47142914D02*
X69062766Y-47190533D01*
X71253242Y-47238152D02*
X71253242Y-47904819D01*
X70824671Y-47238152D02*
X70824671Y-47761961D01*
X70824671Y-47761961D02*
X70872290Y-47857200D01*
X70872290Y-47857200D02*
X70967528Y-47904819D01*
X70967528Y-47904819D02*
X71110385Y-47904819D01*
X71110385Y-47904819D02*
X71205623Y-47857200D01*
X71205623Y-47857200D02*
X71253242Y-47809580D01*
X72062766Y-47381009D02*
X71729433Y-47381009D01*
X71729433Y-47904819D02*
X71729433Y-46904819D01*
X71729433Y-46904819D02*
X72205623Y-46904819D01*
X72836210Y-55131619D02*
X72836210Y-54131619D01*
X73883828Y-55036380D02*
X73836209Y-55084000D01*
X73836209Y-55084000D02*
X73693352Y-55131619D01*
X73693352Y-55131619D02*
X73598114Y-55131619D01*
X73598114Y-55131619D02*
X73455257Y-55084000D01*
X73455257Y-55084000D02*
X73360019Y-54988761D01*
X73360019Y-54988761D02*
X73312400Y-54893523D01*
X73312400Y-54893523D02*
X73264781Y-54703047D01*
X73264781Y-54703047D02*
X73264781Y-54560190D01*
X73264781Y-54560190D02*
X73312400Y-54369714D01*
X73312400Y-54369714D02*
X73360019Y-54274476D01*
X73360019Y-54274476D02*
X73455257Y-54179238D01*
X73455257Y-54179238D02*
X73598114Y-54131619D01*
X73598114Y-54131619D02*
X73693352Y-54131619D01*
X73693352Y-54131619D02*
X73836209Y-54179238D01*
X73836209Y-54179238D02*
X73883828Y-54226857D01*
X74836209Y-55131619D02*
X74264781Y-55131619D01*
X74550495Y-55131619D02*
X74550495Y-54131619D01*
X74550495Y-54131619D02*
X74455257Y-54274476D01*
X74455257Y-54274476D02*
X74360019Y-54369714D01*
X74360019Y-54369714D02*
X74264781Y-54417333D01*
X74028219Y-62353276D02*
X74028219Y-62829466D01*
X74028219Y-62829466D02*
X73028219Y-62829466D01*
X74028219Y-62019942D02*
X73028219Y-62019942D01*
X73028219Y-62019942D02*
X73742504Y-61686609D01*
X73742504Y-61686609D02*
X73028219Y-61353276D01*
X73028219Y-61353276D02*
X74028219Y-61353276D01*
X73028219Y-60972323D02*
X73028219Y-60353276D01*
X73028219Y-60353276D02*
X73409171Y-60686609D01*
X73409171Y-60686609D02*
X73409171Y-60543752D01*
X73409171Y-60543752D02*
X73456790Y-60448514D01*
X73456790Y-60448514D02*
X73504409Y-60400895D01*
X73504409Y-60400895D02*
X73599647Y-60353276D01*
X73599647Y-60353276D02*
X73837742Y-60353276D01*
X73837742Y-60353276D02*
X73932980Y-60400895D01*
X73932980Y-60400895D02*
X73980600Y-60448514D01*
X73980600Y-60448514D02*
X74028219Y-60543752D01*
X74028219Y-60543752D02*
X74028219Y-60829466D01*
X74028219Y-60829466D02*
X73980600Y-60924704D01*
X73980600Y-60924704D02*
X73932980Y-60972323D01*
X73456790Y-59781847D02*
X73409171Y-59877085D01*
X73409171Y-59877085D02*
X73361552Y-59924704D01*
X73361552Y-59924704D02*
X73266314Y-59972323D01*
X73266314Y-59972323D02*
X73218695Y-59972323D01*
X73218695Y-59972323D02*
X73123457Y-59924704D01*
X73123457Y-59924704D02*
X73075838Y-59877085D01*
X73075838Y-59877085D02*
X73028219Y-59781847D01*
X73028219Y-59781847D02*
X73028219Y-59591371D01*
X73028219Y-59591371D02*
X73075838Y-59496133D01*
X73075838Y-59496133D02*
X73123457Y-59448514D01*
X73123457Y-59448514D02*
X73218695Y-59400895D01*
X73218695Y-59400895D02*
X73266314Y-59400895D01*
X73266314Y-59400895D02*
X73361552Y-59448514D01*
X73361552Y-59448514D02*
X73409171Y-59496133D01*
X73409171Y-59496133D02*
X73456790Y-59591371D01*
X73456790Y-59591371D02*
X73456790Y-59781847D01*
X73456790Y-59781847D02*
X73504409Y-59877085D01*
X73504409Y-59877085D02*
X73552028Y-59924704D01*
X73552028Y-59924704D02*
X73647266Y-59972323D01*
X73647266Y-59972323D02*
X73837742Y-59972323D01*
X73837742Y-59972323D02*
X73932980Y-59924704D01*
X73932980Y-59924704D02*
X73980600Y-59877085D01*
X73980600Y-59877085D02*
X74028219Y-59781847D01*
X74028219Y-59781847D02*
X74028219Y-59591371D01*
X74028219Y-59591371D02*
X73980600Y-59496133D01*
X73980600Y-59496133D02*
X73932980Y-59448514D01*
X73932980Y-59448514D02*
X73837742Y-59400895D01*
X73837742Y-59400895D02*
X73647266Y-59400895D01*
X73647266Y-59400895D02*
X73552028Y-59448514D01*
X73552028Y-59448514D02*
X73504409Y-59496133D01*
X73504409Y-59496133D02*
X73456790Y-59591371D01*
X73028219Y-58543752D02*
X73028219Y-58734228D01*
X73028219Y-58734228D02*
X73075838Y-58829466D01*
X73075838Y-58829466D02*
X73123457Y-58877085D01*
X73123457Y-58877085D02*
X73266314Y-58972323D01*
X73266314Y-58972323D02*
X73456790Y-59019942D01*
X73456790Y-59019942D02*
X73837742Y-59019942D01*
X73837742Y-59019942D02*
X73932980Y-58972323D01*
X73932980Y-58972323D02*
X73980600Y-58924704D01*
X73980600Y-58924704D02*
X74028219Y-58829466D01*
X74028219Y-58829466D02*
X74028219Y-58638990D01*
X74028219Y-58638990D02*
X73980600Y-58543752D01*
X73980600Y-58543752D02*
X73932980Y-58496133D01*
X73932980Y-58496133D02*
X73837742Y-58448514D01*
X73837742Y-58448514D02*
X73599647Y-58448514D01*
X73599647Y-58448514D02*
X73504409Y-58496133D01*
X73504409Y-58496133D02*
X73456790Y-58543752D01*
X73456790Y-58543752D02*
X73409171Y-58638990D01*
X73409171Y-58638990D02*
X73409171Y-58829466D01*
X73409171Y-58829466D02*
X73456790Y-58924704D01*
X73456790Y-58924704D02*
X73504409Y-58972323D01*
X73504409Y-58972323D02*
X73599647Y-59019942D01*
X66644380Y-60831066D02*
X66692000Y-60878685D01*
X66692000Y-60878685D02*
X66739619Y-61021542D01*
X66739619Y-61021542D02*
X66739619Y-61116780D01*
X66739619Y-61116780D02*
X66692000Y-61259637D01*
X66692000Y-61259637D02*
X66596761Y-61354875D01*
X66596761Y-61354875D02*
X66501523Y-61402494D01*
X66501523Y-61402494D02*
X66311047Y-61450113D01*
X66311047Y-61450113D02*
X66168190Y-61450113D01*
X66168190Y-61450113D02*
X65977714Y-61402494D01*
X65977714Y-61402494D02*
X65882476Y-61354875D01*
X65882476Y-61354875D02*
X65787238Y-61259637D01*
X65787238Y-61259637D02*
X65739619Y-61116780D01*
X65739619Y-61116780D02*
X65739619Y-61021542D01*
X65739619Y-61021542D02*
X65787238Y-60878685D01*
X65787238Y-60878685D02*
X65834857Y-60831066D01*
X66739619Y-59878685D02*
X66739619Y-60450113D01*
X66739619Y-60164399D02*
X65739619Y-60164399D01*
X65739619Y-60164399D02*
X65882476Y-60259637D01*
X65882476Y-60259637D02*
X65977714Y-60354875D01*
X65977714Y-60354875D02*
X66025333Y-60450113D01*
X58572952Y-62450114D02*
X59239619Y-62450114D01*
X58192000Y-62688209D02*
X58906285Y-62926304D01*
X58906285Y-62926304D02*
X58906285Y-62307257D01*
X59192000Y-61878685D02*
X59239619Y-61878685D01*
X59239619Y-61878685D02*
X59334857Y-61926304D01*
X59334857Y-61926304D02*
X59382476Y-61973923D01*
X58239619Y-61545352D02*
X58239619Y-60878686D01*
X58239619Y-60878686D02*
X59239619Y-61307257D01*
X58572952Y-59735828D02*
X59239619Y-59735828D01*
X58668190Y-59735828D02*
X58620571Y-59688209D01*
X58620571Y-59688209D02*
X58572952Y-59592971D01*
X58572952Y-59592971D02*
X58572952Y-59450114D01*
X58572952Y-59450114D02*
X58620571Y-59354876D01*
X58620571Y-59354876D02*
X58715809Y-59307257D01*
X58715809Y-59307257D02*
X59239619Y-59307257D01*
X58715809Y-58497733D02*
X58715809Y-58831066D01*
X59239619Y-58831066D02*
X58239619Y-58831066D01*
X58239619Y-58831066D02*
X58239619Y-58354876D01*
X66088419Y-43430343D02*
X66088419Y-43239867D01*
X66088419Y-43239867D02*
X66040800Y-43144629D01*
X66040800Y-43144629D02*
X65993180Y-43097010D01*
X65993180Y-43097010D02*
X65850323Y-43001772D01*
X65850323Y-43001772D02*
X65659847Y-42954153D01*
X65659847Y-42954153D02*
X65278895Y-42954153D01*
X65278895Y-42954153D02*
X65183657Y-43001772D01*
X65183657Y-43001772D02*
X65136038Y-43049391D01*
X65136038Y-43049391D02*
X65088419Y-43144629D01*
X65088419Y-43144629D02*
X65088419Y-43335105D01*
X65088419Y-43335105D02*
X65136038Y-43430343D01*
X65136038Y-43430343D02*
X65183657Y-43477962D01*
X65183657Y-43477962D02*
X65278895Y-43525581D01*
X65278895Y-43525581D02*
X65516990Y-43525581D01*
X65516990Y-43525581D02*
X65612228Y-43477962D01*
X65612228Y-43477962D02*
X65659847Y-43430343D01*
X65659847Y-43430343D02*
X65707466Y-43335105D01*
X65707466Y-43335105D02*
X65707466Y-43144629D01*
X65707466Y-43144629D02*
X65659847Y-43049391D01*
X65659847Y-43049391D02*
X65612228Y-43001772D01*
X65612228Y-43001772D02*
X65516990Y-42954153D01*
X65088419Y-42668438D02*
X66088419Y-42335105D01*
X66088419Y-42335105D02*
X65088419Y-42001772D01*
X66088419Y-40906533D02*
X65088419Y-40906533D01*
X65088419Y-40906533D02*
X65088419Y-40668438D01*
X65088419Y-40668438D02*
X65136038Y-40525581D01*
X65136038Y-40525581D02*
X65231276Y-40430343D01*
X65231276Y-40430343D02*
X65326514Y-40382724D01*
X65326514Y-40382724D02*
X65516990Y-40335105D01*
X65516990Y-40335105D02*
X65659847Y-40335105D01*
X65659847Y-40335105D02*
X65850323Y-40382724D01*
X65850323Y-40382724D02*
X65945561Y-40430343D01*
X65945561Y-40430343D02*
X66040800Y-40525581D01*
X66040800Y-40525581D02*
X66088419Y-40668438D01*
X66088419Y-40668438D02*
X66088419Y-40906533D01*
X65993180Y-39335105D02*
X66040800Y-39382724D01*
X66040800Y-39382724D02*
X66088419Y-39525581D01*
X66088419Y-39525581D02*
X66088419Y-39620819D01*
X66088419Y-39620819D02*
X66040800Y-39763676D01*
X66040800Y-39763676D02*
X65945561Y-39858914D01*
X65945561Y-39858914D02*
X65850323Y-39906533D01*
X65850323Y-39906533D02*
X65659847Y-39954152D01*
X65659847Y-39954152D02*
X65516990Y-39954152D01*
X65516990Y-39954152D02*
X65326514Y-39906533D01*
X65326514Y-39906533D02*
X65231276Y-39858914D01*
X65231276Y-39858914D02*
X65136038Y-39763676D01*
X65136038Y-39763676D02*
X65088419Y-39620819D01*
X65088419Y-39620819D02*
X65088419Y-39525581D01*
X65088419Y-39525581D02*
X65136038Y-39382724D01*
X65136038Y-39382724D02*
X65183657Y-39335105D01*
X66469371Y-38620819D02*
X66421752Y-38668438D01*
X66421752Y-38668438D02*
X66278895Y-38763676D01*
X66278895Y-38763676D02*
X66183657Y-38811295D01*
X66183657Y-38811295D02*
X66040800Y-38858914D01*
X66040800Y-38858914D02*
X65802704Y-38906533D01*
X65802704Y-38906533D02*
X65612228Y-38906533D01*
X65612228Y-38906533D02*
X65374133Y-38858914D01*
X65374133Y-38858914D02*
X65231276Y-38811295D01*
X65231276Y-38811295D02*
X65136038Y-38763676D01*
X65136038Y-38763676D02*
X64993180Y-38668438D01*
X64993180Y-38668438D02*
X64945561Y-38620819D01*
X66088419Y-38097009D02*
X66040800Y-38192247D01*
X66040800Y-38192247D02*
X65993180Y-38239866D01*
X65993180Y-38239866D02*
X65897942Y-38287485D01*
X65897942Y-38287485D02*
X65612228Y-38287485D01*
X65612228Y-38287485D02*
X65516990Y-38239866D01*
X65516990Y-38239866D02*
X65469371Y-38192247D01*
X65469371Y-38192247D02*
X65421752Y-38097009D01*
X65421752Y-38097009D02*
X65421752Y-37954152D01*
X65421752Y-37954152D02*
X65469371Y-37858914D01*
X65469371Y-37858914D02*
X65516990Y-37811295D01*
X65516990Y-37811295D02*
X65612228Y-37763676D01*
X65612228Y-37763676D02*
X65897942Y-37763676D01*
X65897942Y-37763676D02*
X65993180Y-37811295D01*
X65993180Y-37811295D02*
X66040800Y-37858914D01*
X66040800Y-37858914D02*
X66088419Y-37954152D01*
X66088419Y-37954152D02*
X66088419Y-38097009D01*
X65421752Y-36906533D02*
X66088419Y-36906533D01*
X65421752Y-37335104D02*
X65945561Y-37335104D01*
X65945561Y-37335104D02*
X66040800Y-37287485D01*
X66040800Y-37287485D02*
X66088419Y-37192247D01*
X66088419Y-37192247D02*
X66088419Y-37049390D01*
X66088419Y-37049390D02*
X66040800Y-36954152D01*
X66040800Y-36954152D02*
X65993180Y-36906533D01*
X65421752Y-36573199D02*
X65421752Y-36192247D01*
X65088419Y-36430342D02*
X65945561Y-36430342D01*
X65945561Y-36430342D02*
X66040800Y-36382723D01*
X66040800Y-36382723D02*
X66088419Y-36287485D01*
X66088419Y-36287485D02*
X66088419Y-36192247D01*
X66469371Y-35954151D02*
X66421752Y-35906532D01*
X66421752Y-35906532D02*
X66278895Y-35811294D01*
X66278895Y-35811294D02*
X66183657Y-35763675D01*
X66183657Y-35763675D02*
X66040800Y-35716056D01*
X66040800Y-35716056D02*
X65802704Y-35668437D01*
X65802704Y-35668437D02*
X65612228Y-35668437D01*
X65612228Y-35668437D02*
X65374133Y-35716056D01*
X65374133Y-35716056D02*
X65231276Y-35763675D01*
X65231276Y-35763675D02*
X65136038Y-35811294D01*
X65136038Y-35811294D02*
X64993180Y-35906532D01*
X64993180Y-35906532D02*
X64945561Y-35954151D01*
X54826819Y-44620819D02*
X54826819Y-44430343D01*
X54826819Y-44430343D02*
X54874438Y-44335105D01*
X54874438Y-44335105D02*
X54969676Y-44239867D01*
X54969676Y-44239867D02*
X55160152Y-44192248D01*
X55160152Y-44192248D02*
X55493485Y-44192248D01*
X55493485Y-44192248D02*
X55683961Y-44239867D01*
X55683961Y-44239867D02*
X55779200Y-44335105D01*
X55779200Y-44335105D02*
X55826819Y-44430343D01*
X55826819Y-44430343D02*
X55826819Y-44620819D01*
X55826819Y-44620819D02*
X55779200Y-44716057D01*
X55779200Y-44716057D02*
X55683961Y-44811295D01*
X55683961Y-44811295D02*
X55493485Y-44858914D01*
X55493485Y-44858914D02*
X55160152Y-44858914D01*
X55160152Y-44858914D02*
X54969676Y-44811295D01*
X54969676Y-44811295D02*
X54874438Y-44716057D01*
X54874438Y-44716057D02*
X54826819Y-44620819D01*
X55160152Y-43335105D02*
X55826819Y-43335105D01*
X55160152Y-43763676D02*
X55683961Y-43763676D01*
X55683961Y-43763676D02*
X55779200Y-43716057D01*
X55779200Y-43716057D02*
X55826819Y-43620819D01*
X55826819Y-43620819D02*
X55826819Y-43477962D01*
X55826819Y-43477962D02*
X55779200Y-43382724D01*
X55779200Y-43382724D02*
X55731580Y-43335105D01*
X55160152Y-43001771D02*
X55160152Y-42620819D01*
X54826819Y-42858914D02*
X55683961Y-42858914D01*
X55683961Y-42858914D02*
X55779200Y-42811295D01*
X55779200Y-42811295D02*
X55826819Y-42716057D01*
X55826819Y-42716057D02*
X55826819Y-42620819D01*
X55160152Y-42287485D02*
X56160152Y-42287485D01*
X55207771Y-42287485D02*
X55160152Y-42192247D01*
X55160152Y-42192247D02*
X55160152Y-42001771D01*
X55160152Y-42001771D02*
X55207771Y-41906533D01*
X55207771Y-41906533D02*
X55255390Y-41858914D01*
X55255390Y-41858914D02*
X55350628Y-41811295D01*
X55350628Y-41811295D02*
X55636342Y-41811295D01*
X55636342Y-41811295D02*
X55731580Y-41858914D01*
X55731580Y-41858914D02*
X55779200Y-41906533D01*
X55779200Y-41906533D02*
X55826819Y-42001771D01*
X55826819Y-42001771D02*
X55826819Y-42192247D01*
X55826819Y-42192247D02*
X55779200Y-42287485D01*
X55160152Y-40954152D02*
X55826819Y-40954152D01*
X55160152Y-41382723D02*
X55683961Y-41382723D01*
X55683961Y-41382723D02*
X55779200Y-41335104D01*
X55779200Y-41335104D02*
X55826819Y-41239866D01*
X55826819Y-41239866D02*
X55826819Y-41097009D01*
X55826819Y-41097009D02*
X55779200Y-41001771D01*
X55779200Y-41001771D02*
X55731580Y-40954152D01*
X55160152Y-40620818D02*
X55160152Y-40239866D01*
X54826819Y-40477961D02*
X55683961Y-40477961D01*
X55683961Y-40477961D02*
X55779200Y-40430342D01*
X55779200Y-40430342D02*
X55826819Y-40335104D01*
X55826819Y-40335104D02*
X55826819Y-40239866D01*
X56207771Y-38858913D02*
X56160152Y-38906532D01*
X56160152Y-38906532D02*
X56017295Y-39001770D01*
X56017295Y-39001770D02*
X55922057Y-39049389D01*
X55922057Y-39049389D02*
X55779200Y-39097008D01*
X55779200Y-39097008D02*
X55541104Y-39144627D01*
X55541104Y-39144627D02*
X55350628Y-39144627D01*
X55350628Y-39144627D02*
X55112533Y-39097008D01*
X55112533Y-39097008D02*
X54969676Y-39049389D01*
X54969676Y-39049389D02*
X54874438Y-39001770D01*
X54874438Y-39001770D02*
X54731580Y-38906532D01*
X54731580Y-38906532D02*
X54683961Y-38858913D01*
X55826819Y-38477960D02*
X54826819Y-38477960D01*
X54826819Y-38477960D02*
X55541104Y-38144627D01*
X55541104Y-38144627D02*
X54826819Y-37811294D01*
X54826819Y-37811294D02*
X55826819Y-37811294D01*
X55826819Y-37335103D02*
X54826819Y-37335103D01*
X55731580Y-36287485D02*
X55779200Y-36335104D01*
X55779200Y-36335104D02*
X55826819Y-36477961D01*
X55826819Y-36477961D02*
X55826819Y-36573199D01*
X55826819Y-36573199D02*
X55779200Y-36716056D01*
X55779200Y-36716056D02*
X55683961Y-36811294D01*
X55683961Y-36811294D02*
X55588723Y-36858913D01*
X55588723Y-36858913D02*
X55398247Y-36906532D01*
X55398247Y-36906532D02*
X55255390Y-36906532D01*
X55255390Y-36906532D02*
X55064914Y-36858913D01*
X55064914Y-36858913D02*
X54969676Y-36811294D01*
X54969676Y-36811294D02*
X54874438Y-36716056D01*
X54874438Y-36716056D02*
X54826819Y-36573199D01*
X54826819Y-36573199D02*
X54826819Y-36477961D01*
X54826819Y-36477961D02*
X54874438Y-36335104D01*
X54874438Y-36335104D02*
X54922057Y-36287485D01*
X56207771Y-35954151D02*
X56160152Y-35906532D01*
X56160152Y-35906532D02*
X56017295Y-35811294D01*
X56017295Y-35811294D02*
X55922057Y-35763675D01*
X55922057Y-35763675D02*
X55779200Y-35716056D01*
X55779200Y-35716056D02*
X55541104Y-35668437D01*
X55541104Y-35668437D02*
X55350628Y-35668437D01*
X55350628Y-35668437D02*
X55112533Y-35716056D01*
X55112533Y-35716056D02*
X54969676Y-35763675D01*
X54969676Y-35763675D02*
X54874438Y-35811294D01*
X54874438Y-35811294D02*
X54731580Y-35906532D01*
X54731580Y-35906532D02*
X54683961Y-35954151D01*
X68120419Y-84586342D02*
X68120419Y-84395866D01*
X68120419Y-84395866D02*
X68072800Y-84300628D01*
X68072800Y-84300628D02*
X68025180Y-84253009D01*
X68025180Y-84253009D02*
X67882323Y-84157771D01*
X67882323Y-84157771D02*
X67691847Y-84110152D01*
X67691847Y-84110152D02*
X67310895Y-84110152D01*
X67310895Y-84110152D02*
X67215657Y-84157771D01*
X67215657Y-84157771D02*
X67168038Y-84205390D01*
X67168038Y-84205390D02*
X67120419Y-84300628D01*
X67120419Y-84300628D02*
X67120419Y-84491104D01*
X67120419Y-84491104D02*
X67168038Y-84586342D01*
X67168038Y-84586342D02*
X67215657Y-84633961D01*
X67215657Y-84633961D02*
X67310895Y-84681580D01*
X67310895Y-84681580D02*
X67548990Y-84681580D01*
X67548990Y-84681580D02*
X67644228Y-84633961D01*
X67644228Y-84633961D02*
X67691847Y-84586342D01*
X67691847Y-84586342D02*
X67739466Y-84491104D01*
X67739466Y-84491104D02*
X67739466Y-84300628D01*
X67739466Y-84300628D02*
X67691847Y-84205390D01*
X67691847Y-84205390D02*
X67644228Y-84157771D01*
X67644228Y-84157771D02*
X67548990Y-84110152D01*
X67120419Y-83824437D02*
X68120419Y-83491104D01*
X68120419Y-83491104D02*
X67120419Y-83157771D01*
X68120419Y-82062532D02*
X67120419Y-82062532D01*
X67120419Y-82062532D02*
X67120419Y-81824437D01*
X67120419Y-81824437D02*
X67168038Y-81681580D01*
X67168038Y-81681580D02*
X67263276Y-81586342D01*
X67263276Y-81586342D02*
X67358514Y-81538723D01*
X67358514Y-81538723D02*
X67548990Y-81491104D01*
X67548990Y-81491104D02*
X67691847Y-81491104D01*
X67691847Y-81491104D02*
X67882323Y-81538723D01*
X67882323Y-81538723D02*
X67977561Y-81586342D01*
X67977561Y-81586342D02*
X68072800Y-81681580D01*
X68072800Y-81681580D02*
X68120419Y-81824437D01*
X68120419Y-81824437D02*
X68120419Y-82062532D01*
X68025180Y-80491104D02*
X68072800Y-80538723D01*
X68072800Y-80538723D02*
X68120419Y-80681580D01*
X68120419Y-80681580D02*
X68120419Y-80776818D01*
X68120419Y-80776818D02*
X68072800Y-80919675D01*
X68072800Y-80919675D02*
X67977561Y-81014913D01*
X67977561Y-81014913D02*
X67882323Y-81062532D01*
X67882323Y-81062532D02*
X67691847Y-81110151D01*
X67691847Y-81110151D02*
X67548990Y-81110151D01*
X67548990Y-81110151D02*
X67358514Y-81062532D01*
X67358514Y-81062532D02*
X67263276Y-81014913D01*
X67263276Y-81014913D02*
X67168038Y-80919675D01*
X67168038Y-80919675D02*
X67120419Y-80776818D01*
X67120419Y-80776818D02*
X67120419Y-80681580D01*
X67120419Y-80681580D02*
X67168038Y-80538723D01*
X67168038Y-80538723D02*
X67215657Y-80491104D01*
X68501371Y-79776818D02*
X68453752Y-79824437D01*
X68453752Y-79824437D02*
X68310895Y-79919675D01*
X68310895Y-79919675D02*
X68215657Y-79967294D01*
X68215657Y-79967294D02*
X68072800Y-80014913D01*
X68072800Y-80014913D02*
X67834704Y-80062532D01*
X67834704Y-80062532D02*
X67644228Y-80062532D01*
X67644228Y-80062532D02*
X67406133Y-80014913D01*
X67406133Y-80014913D02*
X67263276Y-79967294D01*
X67263276Y-79967294D02*
X67168038Y-79919675D01*
X67168038Y-79919675D02*
X67025180Y-79824437D01*
X67025180Y-79824437D02*
X66977561Y-79776818D01*
X68120419Y-79395865D02*
X67453752Y-79395865D01*
X67120419Y-79395865D02*
X67168038Y-79443484D01*
X67168038Y-79443484D02*
X67215657Y-79395865D01*
X67215657Y-79395865D02*
X67168038Y-79348246D01*
X67168038Y-79348246D02*
X67120419Y-79395865D01*
X67120419Y-79395865D02*
X67215657Y-79395865D01*
X67453752Y-78919675D02*
X68120419Y-78919675D01*
X67548990Y-78919675D02*
X67501371Y-78872056D01*
X67501371Y-78872056D02*
X67453752Y-78776818D01*
X67453752Y-78776818D02*
X67453752Y-78633961D01*
X67453752Y-78633961D02*
X67501371Y-78538723D01*
X67501371Y-78538723D02*
X67596609Y-78491104D01*
X67596609Y-78491104D02*
X68120419Y-78491104D01*
X68501371Y-78110151D02*
X68453752Y-78062532D01*
X68453752Y-78062532D02*
X68310895Y-77967294D01*
X68310895Y-77967294D02*
X68215657Y-77919675D01*
X68215657Y-77919675D02*
X68072800Y-77872056D01*
X68072800Y-77872056D02*
X67834704Y-77824437D01*
X67834704Y-77824437D02*
X67644228Y-77824437D01*
X67644228Y-77824437D02*
X67406133Y-77872056D01*
X67406133Y-77872056D02*
X67263276Y-77919675D01*
X67263276Y-77919675D02*
X67168038Y-77967294D01*
X67168038Y-77967294D02*
X67025180Y-78062532D01*
X67025180Y-78062532D02*
X66977561Y-78110151D01*
D11*
X57525766Y-65980019D02*
X57525766Y-66694304D01*
X57525766Y-66694304D02*
X57478147Y-66837161D01*
X57478147Y-66837161D02*
X57382909Y-66932400D01*
X57382909Y-66932400D02*
X57240052Y-66980019D01*
X57240052Y-66980019D02*
X57144814Y-66980019D01*
X57954338Y-66075257D02*
X58001957Y-66027638D01*
X58001957Y-66027638D02*
X58097195Y-65980019D01*
X58097195Y-65980019D02*
X58335290Y-65980019D01*
X58335290Y-65980019D02*
X58430528Y-66027638D01*
X58430528Y-66027638D02*
X58478147Y-66075257D01*
X58478147Y-66075257D02*
X58525766Y-66170495D01*
X58525766Y-66170495D02*
X58525766Y-66265733D01*
X58525766Y-66265733D02*
X58478147Y-66408590D01*
X58478147Y-66408590D02*
X57906719Y-66980019D01*
X57906719Y-66980019D02*
X58525766Y-66980019D01*
D10*
X52118419Y-84633961D02*
X51118419Y-84633961D01*
X51451752Y-84157771D02*
X52118419Y-84157771D01*
X51546990Y-84157771D02*
X51499371Y-84110152D01*
X51499371Y-84110152D02*
X51451752Y-84014914D01*
X51451752Y-84014914D02*
X51451752Y-83872057D01*
X51451752Y-83872057D02*
X51499371Y-83776819D01*
X51499371Y-83776819D02*
X51594609Y-83729200D01*
X51594609Y-83729200D02*
X52118419Y-83729200D01*
X51451752Y-83253009D02*
X52451752Y-83253009D01*
X51499371Y-83253009D02*
X51451752Y-83157771D01*
X51451752Y-83157771D02*
X51451752Y-82967295D01*
X51451752Y-82967295D02*
X51499371Y-82872057D01*
X51499371Y-82872057D02*
X51546990Y-82824438D01*
X51546990Y-82824438D02*
X51642228Y-82776819D01*
X51642228Y-82776819D02*
X51927942Y-82776819D01*
X51927942Y-82776819D02*
X52023180Y-82824438D01*
X52023180Y-82824438D02*
X52070800Y-82872057D01*
X52070800Y-82872057D02*
X52118419Y-82967295D01*
X52118419Y-82967295D02*
X52118419Y-83157771D01*
X52118419Y-83157771D02*
X52070800Y-83253009D01*
X51451752Y-81919676D02*
X52118419Y-81919676D01*
X51451752Y-82348247D02*
X51975561Y-82348247D01*
X51975561Y-82348247D02*
X52070800Y-82300628D01*
X52070800Y-82300628D02*
X52118419Y-82205390D01*
X52118419Y-82205390D02*
X52118419Y-82062533D01*
X52118419Y-82062533D02*
X52070800Y-81967295D01*
X52070800Y-81967295D02*
X52023180Y-81919676D01*
X51451752Y-81586342D02*
X51451752Y-81205390D01*
X51118419Y-81443485D02*
X51975561Y-81443485D01*
X51975561Y-81443485D02*
X52070800Y-81395866D01*
X52070800Y-81395866D02*
X52118419Y-81300628D01*
X52118419Y-81300628D02*
X52118419Y-81205390D01*
X52499371Y-79824437D02*
X52451752Y-79872056D01*
X52451752Y-79872056D02*
X52308895Y-79967294D01*
X52308895Y-79967294D02*
X52213657Y-80014913D01*
X52213657Y-80014913D02*
X52070800Y-80062532D01*
X52070800Y-80062532D02*
X51832704Y-80110151D01*
X51832704Y-80110151D02*
X51642228Y-80110151D01*
X51642228Y-80110151D02*
X51404133Y-80062532D01*
X51404133Y-80062532D02*
X51261276Y-80014913D01*
X51261276Y-80014913D02*
X51166038Y-79967294D01*
X51166038Y-79967294D02*
X51023180Y-79872056D01*
X51023180Y-79872056D02*
X50975561Y-79824437D01*
X52118419Y-79443484D02*
X51118419Y-79443484D01*
X51118419Y-79443484D02*
X51832704Y-79110151D01*
X51832704Y-79110151D02*
X51118419Y-78776818D01*
X51118419Y-78776818D02*
X52118419Y-78776818D01*
X52118419Y-78300627D02*
X51118419Y-78300627D01*
X52023180Y-77253009D02*
X52070800Y-77300628D01*
X52070800Y-77300628D02*
X52118419Y-77443485D01*
X52118419Y-77443485D02*
X52118419Y-77538723D01*
X52118419Y-77538723D02*
X52070800Y-77681580D01*
X52070800Y-77681580D02*
X51975561Y-77776818D01*
X51975561Y-77776818D02*
X51880323Y-77824437D01*
X51880323Y-77824437D02*
X51689847Y-77872056D01*
X51689847Y-77872056D02*
X51546990Y-77872056D01*
X51546990Y-77872056D02*
X51356514Y-77824437D01*
X51356514Y-77824437D02*
X51261276Y-77776818D01*
X51261276Y-77776818D02*
X51166038Y-77681580D01*
X51166038Y-77681580D02*
X51118419Y-77538723D01*
X51118419Y-77538723D02*
X51118419Y-77443485D01*
X51118419Y-77443485D02*
X51166038Y-77300628D01*
X51166038Y-77300628D02*
X51213657Y-77253009D01*
X52499371Y-76919675D02*
X52451752Y-76872056D01*
X52451752Y-76872056D02*
X52308895Y-76776818D01*
X52308895Y-76776818D02*
X52213657Y-76729199D01*
X52213657Y-76729199D02*
X52070800Y-76681580D01*
X52070800Y-76681580D02*
X51832704Y-76633961D01*
X51832704Y-76633961D02*
X51642228Y-76633961D01*
X51642228Y-76633961D02*
X51404133Y-76681580D01*
X51404133Y-76681580D02*
X51261276Y-76729199D01*
X51261276Y-76729199D02*
X51166038Y-76776818D01*
X51166038Y-76776818D02*
X51023180Y-76872056D01*
X51023180Y-76872056D02*
X50975561Y-76919675D01*
D12*
%TO.C,R1*%
X70810000Y-50550000D02*
X71580000Y-50550000D01*
X71580000Y-49180000D02*
X71580000Y-51920000D01*
X71580000Y-51920000D02*
X78120000Y-51920000D01*
X78120000Y-49180000D02*
X71580000Y-49180000D01*
X78120000Y-51920000D02*
X78120000Y-49180000D01*
X78890000Y-50550000D02*
X78120000Y-50550000D01*
%TO.C,HT1*%
X40940600Y-38117600D02*
X40940600Y-40777600D01*
X40940600Y-40777600D02*
X46140600Y-40777600D01*
X41890600Y-37720529D02*
X41890600Y-38117600D01*
X41890600Y-46777600D02*
X41890600Y-40777600D01*
X42650600Y-37720529D02*
X42650600Y-38117600D01*
X42650600Y-40777600D02*
X42650600Y-46777600D01*
X42650600Y-46777600D02*
X41890600Y-46777600D01*
X43540600Y-38117600D02*
X43540600Y-40777600D01*
X44430600Y-37787600D02*
X44430600Y-38117600D01*
X44430600Y-46777600D02*
X44430600Y-40777600D01*
X44530600Y-40777600D02*
X44530600Y-46777600D01*
X44650600Y-40777600D02*
X44650600Y-46777600D01*
X44770600Y-40777600D02*
X44770600Y-46777600D01*
X44810600Y-35407600D02*
X46080600Y-35407600D01*
X44890600Y-40777600D02*
X44890600Y-46777600D01*
X45010600Y-40777600D02*
X45010600Y-46777600D01*
X45130600Y-40777600D02*
X45130600Y-46777600D01*
X45190600Y-37787600D02*
X45190600Y-38117600D01*
X45190600Y-40777600D02*
X45190600Y-46777600D01*
X45190600Y-46777600D02*
X44430600Y-46777600D01*
X46080600Y-35407600D02*
X46080600Y-36677600D01*
X46140600Y-38117600D02*
X40940600Y-38117600D01*
X46140600Y-40777600D02*
X46140600Y-38117600D01*
%TO.C,C2*%
X84945225Y-50500000D02*
X85445225Y-50500000D01*
X85195225Y-50250000D02*
X85195225Y-50750000D01*
X87750000Y-49395000D02*
X87750000Y-54555000D01*
X87790000Y-49395000D02*
X87790000Y-54555000D01*
X87830000Y-49396000D02*
X87830000Y-54554000D01*
X87870000Y-49397000D02*
X87870000Y-54553000D01*
X87910000Y-49399000D02*
X87910000Y-54551000D01*
X87950000Y-49402000D02*
X87950000Y-54548000D01*
X87990000Y-49406000D02*
X87990000Y-50935000D01*
X87990000Y-53015000D02*
X87990000Y-54544000D01*
X88030000Y-49410000D02*
X88030000Y-50935000D01*
X88030000Y-53015000D02*
X88030000Y-54540000D01*
X88070000Y-49414000D02*
X88070000Y-50935000D01*
X88070000Y-53015000D02*
X88070000Y-54536000D01*
X88110000Y-49419000D02*
X88110000Y-50935000D01*
X88110000Y-53015000D02*
X88110000Y-54531000D01*
X88150000Y-49425000D02*
X88150000Y-50935000D01*
X88150000Y-53015000D02*
X88150000Y-54525000D01*
X88190000Y-49432000D02*
X88190000Y-50935000D01*
X88190000Y-53015000D02*
X88190000Y-54518000D01*
X88230000Y-49439000D02*
X88230000Y-50935000D01*
X88230000Y-53015000D02*
X88230000Y-54511000D01*
X88270000Y-49447000D02*
X88270000Y-50935000D01*
X88270000Y-53015000D02*
X88270000Y-54503000D01*
X88310000Y-49455000D02*
X88310000Y-50935000D01*
X88310000Y-53015000D02*
X88310000Y-54495000D01*
X88350000Y-49464000D02*
X88350000Y-50935000D01*
X88350000Y-53015000D02*
X88350000Y-54486000D01*
X88390000Y-49474000D02*
X88390000Y-50935000D01*
X88390000Y-53015000D02*
X88390000Y-54476000D01*
X88430000Y-49484000D02*
X88430000Y-50935000D01*
X88430000Y-53015000D02*
X88430000Y-54466000D01*
X88471000Y-49495000D02*
X88471000Y-50935000D01*
X88471000Y-53015000D02*
X88471000Y-54455000D01*
X88511000Y-49507000D02*
X88511000Y-50935000D01*
X88511000Y-53015000D02*
X88511000Y-54443000D01*
X88551000Y-49520000D02*
X88551000Y-50935000D01*
X88551000Y-53015000D02*
X88551000Y-54430000D01*
X88591000Y-49533000D02*
X88591000Y-50935000D01*
X88591000Y-53015000D02*
X88591000Y-54417000D01*
X88631000Y-49547000D02*
X88631000Y-50935000D01*
X88631000Y-53015000D02*
X88631000Y-54403000D01*
X88671000Y-49561000D02*
X88671000Y-50935000D01*
X88671000Y-53015000D02*
X88671000Y-54389000D01*
X88711000Y-49577000D02*
X88711000Y-50935000D01*
X88711000Y-53015000D02*
X88711000Y-54373000D01*
X88751000Y-49593000D02*
X88751000Y-50935000D01*
X88751000Y-53015000D02*
X88751000Y-54357000D01*
X88791000Y-49610000D02*
X88791000Y-50935000D01*
X88791000Y-53015000D02*
X88791000Y-54340000D01*
X88831000Y-49627000D02*
X88831000Y-50935000D01*
X88831000Y-53015000D02*
X88831000Y-54323000D01*
X88871000Y-49646000D02*
X88871000Y-50935000D01*
X88871000Y-53015000D02*
X88871000Y-54304000D01*
X88911000Y-49665000D02*
X88911000Y-50935000D01*
X88911000Y-53015000D02*
X88911000Y-54285000D01*
X88951000Y-49685000D02*
X88951000Y-50935000D01*
X88951000Y-53015000D02*
X88951000Y-54265000D01*
X88991000Y-49707000D02*
X88991000Y-50935000D01*
X88991000Y-53015000D02*
X88991000Y-54243000D01*
X89031000Y-49728000D02*
X89031000Y-50935000D01*
X89031000Y-53015000D02*
X89031000Y-54222000D01*
X89071000Y-49751000D02*
X89071000Y-50935000D01*
X89071000Y-53015000D02*
X89071000Y-54199000D01*
X89111000Y-49775000D02*
X89111000Y-50935000D01*
X89111000Y-53015000D02*
X89111000Y-54175000D01*
X89151000Y-49800000D02*
X89151000Y-50935000D01*
X89151000Y-53015000D02*
X89151000Y-54150000D01*
X89191000Y-49826000D02*
X89191000Y-50935000D01*
X89191000Y-53015000D02*
X89191000Y-54124000D01*
X89231000Y-49853000D02*
X89231000Y-50935000D01*
X89231000Y-53015000D02*
X89231000Y-54097000D01*
X89271000Y-49880000D02*
X89271000Y-50935000D01*
X89271000Y-53015000D02*
X89271000Y-54070000D01*
X89311000Y-49910000D02*
X89311000Y-50935000D01*
X89311000Y-53015000D02*
X89311000Y-54040000D01*
X89351000Y-49940000D02*
X89351000Y-50935000D01*
X89351000Y-53015000D02*
X89351000Y-54010000D01*
X89391000Y-49971000D02*
X89391000Y-50935000D01*
X89391000Y-53015000D02*
X89391000Y-53979000D01*
X89431000Y-50004000D02*
X89431000Y-50935000D01*
X89431000Y-53015000D02*
X89431000Y-53946000D01*
X89471000Y-50038000D02*
X89471000Y-50935000D01*
X89471000Y-53015000D02*
X89471000Y-53912000D01*
X89511000Y-50074000D02*
X89511000Y-50935000D01*
X89511000Y-53015000D02*
X89511000Y-53876000D01*
X89551000Y-50111000D02*
X89551000Y-50935000D01*
X89551000Y-53015000D02*
X89551000Y-53839000D01*
X89591000Y-50149000D02*
X89591000Y-50935000D01*
X89591000Y-53015000D02*
X89591000Y-53801000D01*
X89631000Y-50190000D02*
X89631000Y-50935000D01*
X89631000Y-53015000D02*
X89631000Y-53760000D01*
X89671000Y-50232000D02*
X89671000Y-50935000D01*
X89671000Y-53015000D02*
X89671000Y-53718000D01*
X89711000Y-50276000D02*
X89711000Y-50935000D01*
X89711000Y-53015000D02*
X89711000Y-53674000D01*
X89751000Y-50322000D02*
X89751000Y-50935000D01*
X89751000Y-53015000D02*
X89751000Y-53628000D01*
X89791000Y-50370000D02*
X89791000Y-50935000D01*
X89791000Y-53015000D02*
X89791000Y-53580000D01*
X89831000Y-50421000D02*
X89831000Y-50935000D01*
X89831000Y-53015000D02*
X89831000Y-53529000D01*
X89871000Y-50475000D02*
X89871000Y-50935000D01*
X89871000Y-53015000D02*
X89871000Y-53475000D01*
X89911000Y-50532000D02*
X89911000Y-50935000D01*
X89911000Y-53015000D02*
X89911000Y-53418000D01*
X89951000Y-50592000D02*
X89951000Y-50935000D01*
X89951000Y-53015000D02*
X89951000Y-53358000D01*
X89991000Y-50656000D02*
X89991000Y-50935000D01*
X89991000Y-53015000D02*
X89991000Y-53294000D01*
X90031000Y-50724000D02*
X90031000Y-50935000D01*
X90031000Y-53015000D02*
X90031000Y-53226000D01*
X90071000Y-50797000D02*
X90071000Y-53153000D01*
X90111000Y-50877000D02*
X90111000Y-53073000D01*
X90151000Y-50964000D02*
X90151000Y-52986000D01*
X90191000Y-51060000D02*
X90191000Y-52890000D01*
X90231000Y-51170000D02*
X90231000Y-52780000D01*
X90271000Y-51298000D02*
X90271000Y-52652000D01*
X90311000Y-51457000D02*
X90311000Y-52493000D01*
X90351000Y-51691000D02*
X90351000Y-52259000D01*
X90370000Y-51975000D02*
G75*
G02*
X85130000Y-51975000I-2620000J0D01*
G01*
X85130000Y-51975000D02*
G75*
G02*
X90370000Y-51975000I2620000J0D01*
G01*
%TO.C,C3*%
X84845225Y-66650000D02*
X85345225Y-66650000D01*
X85095225Y-66400000D02*
X85095225Y-66900000D01*
X87650000Y-65545000D02*
X87650000Y-70705000D01*
X87690000Y-65545000D02*
X87690000Y-70705000D01*
X87730000Y-65546000D02*
X87730000Y-70704000D01*
X87770000Y-65547000D02*
X87770000Y-70703000D01*
X87810000Y-65549000D02*
X87810000Y-70701000D01*
X87850000Y-65552000D02*
X87850000Y-70698000D01*
X87890000Y-65556000D02*
X87890000Y-67085000D01*
X87890000Y-69165000D02*
X87890000Y-70694000D01*
X87930000Y-65560000D02*
X87930000Y-67085000D01*
X87930000Y-69165000D02*
X87930000Y-70690000D01*
X87970000Y-65564000D02*
X87970000Y-67085000D01*
X87970000Y-69165000D02*
X87970000Y-70686000D01*
X88010000Y-65569000D02*
X88010000Y-67085000D01*
X88010000Y-69165000D02*
X88010000Y-70681000D01*
X88050000Y-65575000D02*
X88050000Y-67085000D01*
X88050000Y-69165000D02*
X88050000Y-70675000D01*
X88090000Y-65582000D02*
X88090000Y-67085000D01*
X88090000Y-69165000D02*
X88090000Y-70668000D01*
X88130000Y-65589000D02*
X88130000Y-67085000D01*
X88130000Y-69165000D02*
X88130000Y-70661000D01*
X88170000Y-65597000D02*
X88170000Y-67085000D01*
X88170000Y-69165000D02*
X88170000Y-70653000D01*
X88210000Y-65605000D02*
X88210000Y-67085000D01*
X88210000Y-69165000D02*
X88210000Y-70645000D01*
X88250000Y-65614000D02*
X88250000Y-67085000D01*
X88250000Y-69165000D02*
X88250000Y-70636000D01*
X88290000Y-65624000D02*
X88290000Y-67085000D01*
X88290000Y-69165000D02*
X88290000Y-70626000D01*
X88330000Y-65634000D02*
X88330000Y-67085000D01*
X88330000Y-69165000D02*
X88330000Y-70616000D01*
X88371000Y-65645000D02*
X88371000Y-67085000D01*
X88371000Y-69165000D02*
X88371000Y-70605000D01*
X88411000Y-65657000D02*
X88411000Y-67085000D01*
X88411000Y-69165000D02*
X88411000Y-70593000D01*
X88451000Y-65670000D02*
X88451000Y-67085000D01*
X88451000Y-69165000D02*
X88451000Y-70580000D01*
X88491000Y-65683000D02*
X88491000Y-67085000D01*
X88491000Y-69165000D02*
X88491000Y-70567000D01*
X88531000Y-65697000D02*
X88531000Y-67085000D01*
X88531000Y-69165000D02*
X88531000Y-70553000D01*
X88571000Y-65711000D02*
X88571000Y-67085000D01*
X88571000Y-69165000D02*
X88571000Y-70539000D01*
X88611000Y-65727000D02*
X88611000Y-67085000D01*
X88611000Y-69165000D02*
X88611000Y-70523000D01*
X88651000Y-65743000D02*
X88651000Y-67085000D01*
X88651000Y-69165000D02*
X88651000Y-70507000D01*
X88691000Y-65760000D02*
X88691000Y-67085000D01*
X88691000Y-69165000D02*
X88691000Y-70490000D01*
X88731000Y-65777000D02*
X88731000Y-67085000D01*
X88731000Y-69165000D02*
X88731000Y-70473000D01*
X88771000Y-65796000D02*
X88771000Y-67085000D01*
X88771000Y-69165000D02*
X88771000Y-70454000D01*
X88811000Y-65815000D02*
X88811000Y-67085000D01*
X88811000Y-69165000D02*
X88811000Y-70435000D01*
X88851000Y-65835000D02*
X88851000Y-67085000D01*
X88851000Y-69165000D02*
X88851000Y-70415000D01*
X88891000Y-65857000D02*
X88891000Y-67085000D01*
X88891000Y-69165000D02*
X88891000Y-70393000D01*
X88931000Y-65878000D02*
X88931000Y-67085000D01*
X88931000Y-69165000D02*
X88931000Y-70372000D01*
X88971000Y-65901000D02*
X88971000Y-67085000D01*
X88971000Y-69165000D02*
X88971000Y-70349000D01*
X89011000Y-65925000D02*
X89011000Y-67085000D01*
X89011000Y-69165000D02*
X89011000Y-70325000D01*
X89051000Y-65950000D02*
X89051000Y-67085000D01*
X89051000Y-69165000D02*
X89051000Y-70300000D01*
X89091000Y-65976000D02*
X89091000Y-67085000D01*
X89091000Y-69165000D02*
X89091000Y-70274000D01*
X89131000Y-66003000D02*
X89131000Y-67085000D01*
X89131000Y-69165000D02*
X89131000Y-70247000D01*
X89171000Y-66030000D02*
X89171000Y-67085000D01*
X89171000Y-69165000D02*
X89171000Y-70220000D01*
X89211000Y-66060000D02*
X89211000Y-67085000D01*
X89211000Y-69165000D02*
X89211000Y-70190000D01*
X89251000Y-66090000D02*
X89251000Y-67085000D01*
X89251000Y-69165000D02*
X89251000Y-70160000D01*
X89291000Y-66121000D02*
X89291000Y-67085000D01*
X89291000Y-69165000D02*
X89291000Y-70129000D01*
X89331000Y-66154000D02*
X89331000Y-67085000D01*
X89331000Y-69165000D02*
X89331000Y-70096000D01*
X89371000Y-66188000D02*
X89371000Y-67085000D01*
X89371000Y-69165000D02*
X89371000Y-70062000D01*
X89411000Y-66224000D02*
X89411000Y-67085000D01*
X89411000Y-69165000D02*
X89411000Y-70026000D01*
X89451000Y-66261000D02*
X89451000Y-67085000D01*
X89451000Y-69165000D02*
X89451000Y-69989000D01*
X89491000Y-66299000D02*
X89491000Y-67085000D01*
X89491000Y-69165000D02*
X89491000Y-69951000D01*
X89531000Y-66340000D02*
X89531000Y-67085000D01*
X89531000Y-69165000D02*
X89531000Y-69910000D01*
X89571000Y-66382000D02*
X89571000Y-67085000D01*
X89571000Y-69165000D02*
X89571000Y-69868000D01*
X89611000Y-66426000D02*
X89611000Y-67085000D01*
X89611000Y-69165000D02*
X89611000Y-69824000D01*
X89651000Y-66472000D02*
X89651000Y-67085000D01*
X89651000Y-69165000D02*
X89651000Y-69778000D01*
X89691000Y-66520000D02*
X89691000Y-67085000D01*
X89691000Y-69165000D02*
X89691000Y-69730000D01*
X89731000Y-66571000D02*
X89731000Y-67085000D01*
X89731000Y-69165000D02*
X89731000Y-69679000D01*
X89771000Y-66625000D02*
X89771000Y-67085000D01*
X89771000Y-69165000D02*
X89771000Y-69625000D01*
X89811000Y-66682000D02*
X89811000Y-67085000D01*
X89811000Y-69165000D02*
X89811000Y-69568000D01*
X89851000Y-66742000D02*
X89851000Y-67085000D01*
X89851000Y-69165000D02*
X89851000Y-69508000D01*
X89891000Y-66806000D02*
X89891000Y-67085000D01*
X89891000Y-69165000D02*
X89891000Y-69444000D01*
X89931000Y-66874000D02*
X89931000Y-67085000D01*
X89931000Y-69165000D02*
X89931000Y-69376000D01*
X89971000Y-66947000D02*
X89971000Y-69303000D01*
X90011000Y-67027000D02*
X90011000Y-69223000D01*
X90051000Y-67114000D02*
X90051000Y-69136000D01*
X90091000Y-67210000D02*
X90091000Y-69040000D01*
X90131000Y-67320000D02*
X90131000Y-68930000D01*
X90171000Y-67448000D02*
X90171000Y-68802000D01*
X90211000Y-67607000D02*
X90211000Y-68643000D01*
X90251000Y-67841000D02*
X90251000Y-68409000D01*
X90270000Y-68125000D02*
G75*
G02*
X85030000Y-68125000I-2620000J0D01*
G01*
X85030000Y-68125000D02*
G75*
G02*
X90270000Y-68125000I2620000J0D01*
G01*
%TO.C,C4*%
X74220000Y-40785000D02*
X79380000Y-40785000D01*
X74220000Y-40825000D02*
X79380000Y-40825000D01*
X74221000Y-40745000D02*
X79379000Y-40745000D01*
X74222000Y-40705000D02*
X79378000Y-40705000D01*
X74224000Y-40665000D02*
X79376000Y-40665000D01*
X74227000Y-40625000D02*
X79373000Y-40625000D01*
X74231000Y-40585000D02*
X75760000Y-40585000D01*
X74235000Y-40545000D02*
X75760000Y-40545000D01*
X74239000Y-40505000D02*
X75760000Y-40505000D01*
X74244000Y-40465000D02*
X75760000Y-40465000D01*
X74250000Y-40425000D02*
X75760000Y-40425000D01*
X74257000Y-40385000D02*
X75760000Y-40385000D01*
X74264000Y-40345000D02*
X75760000Y-40345000D01*
X74272000Y-40305000D02*
X75760000Y-40305000D01*
X74280000Y-40265000D02*
X75760000Y-40265000D01*
X74289000Y-40225000D02*
X75760000Y-40225000D01*
X74299000Y-40185000D02*
X75760000Y-40185000D01*
X74309000Y-40145000D02*
X75760000Y-40145000D01*
X74320000Y-40104000D02*
X75760000Y-40104000D01*
X74332000Y-40064000D02*
X75760000Y-40064000D01*
X74345000Y-40024000D02*
X75760000Y-40024000D01*
X74358000Y-39984000D02*
X75760000Y-39984000D01*
X74372000Y-39944000D02*
X75760000Y-39944000D01*
X74386000Y-39904000D02*
X75760000Y-39904000D01*
X74402000Y-39864000D02*
X75760000Y-39864000D01*
X74418000Y-39824000D02*
X75760000Y-39824000D01*
X74435000Y-39784000D02*
X75760000Y-39784000D01*
X74452000Y-39744000D02*
X75760000Y-39744000D01*
X74471000Y-39704000D02*
X75760000Y-39704000D01*
X74490000Y-39664000D02*
X75760000Y-39664000D01*
X74510000Y-39624000D02*
X75760000Y-39624000D01*
X74532000Y-39584000D02*
X75760000Y-39584000D01*
X74553000Y-39544000D02*
X75760000Y-39544000D01*
X74576000Y-39504000D02*
X75760000Y-39504000D01*
X74600000Y-39464000D02*
X75760000Y-39464000D01*
X74625000Y-39424000D02*
X75760000Y-39424000D01*
X74651000Y-39384000D02*
X75760000Y-39384000D01*
X74678000Y-39344000D02*
X75760000Y-39344000D01*
X74705000Y-39304000D02*
X75760000Y-39304000D01*
X74735000Y-39264000D02*
X75760000Y-39264000D01*
X74765000Y-39224000D02*
X75760000Y-39224000D01*
X74796000Y-39184000D02*
X75760000Y-39184000D01*
X74829000Y-39144000D02*
X75760000Y-39144000D01*
X74863000Y-39104000D02*
X75760000Y-39104000D01*
X74899000Y-39064000D02*
X75760000Y-39064000D01*
X74936000Y-39024000D02*
X75760000Y-39024000D01*
X74974000Y-38984000D02*
X75760000Y-38984000D01*
X75015000Y-38944000D02*
X75760000Y-38944000D01*
X75057000Y-38904000D02*
X75760000Y-38904000D01*
X75075000Y-43379775D02*
X75575000Y-43379775D01*
X75101000Y-38864000D02*
X75760000Y-38864000D01*
X75147000Y-38824000D02*
X75760000Y-38824000D01*
X75195000Y-38784000D02*
X75760000Y-38784000D01*
X75246000Y-38744000D02*
X75760000Y-38744000D01*
X75300000Y-38704000D02*
X75760000Y-38704000D01*
X75325000Y-43629775D02*
X75325000Y-43129775D01*
X75357000Y-38664000D02*
X75760000Y-38664000D01*
X75417000Y-38624000D02*
X75760000Y-38624000D01*
X75481000Y-38584000D02*
X75760000Y-38584000D01*
X75549000Y-38544000D02*
X75760000Y-38544000D01*
X75622000Y-38504000D02*
X77978000Y-38504000D01*
X75702000Y-38464000D02*
X77898000Y-38464000D01*
X75789000Y-38424000D02*
X77811000Y-38424000D01*
X75885000Y-38384000D02*
X77715000Y-38384000D01*
X75995000Y-38344000D02*
X77605000Y-38344000D01*
X76123000Y-38304000D02*
X77477000Y-38304000D01*
X76282000Y-38264000D02*
X77318000Y-38264000D01*
X76516000Y-38224000D02*
X77084000Y-38224000D01*
X77840000Y-38544000D02*
X78051000Y-38544000D01*
X77840000Y-38584000D02*
X78119000Y-38584000D01*
X77840000Y-38624000D02*
X78183000Y-38624000D01*
X77840000Y-38664000D02*
X78243000Y-38664000D01*
X77840000Y-38704000D02*
X78300000Y-38704000D01*
X77840000Y-38744000D02*
X78354000Y-38744000D01*
X77840000Y-38784000D02*
X78405000Y-38784000D01*
X77840000Y-38824000D02*
X78453000Y-38824000D01*
X77840000Y-38864000D02*
X78499000Y-38864000D01*
X77840000Y-38904000D02*
X78543000Y-38904000D01*
X77840000Y-38944000D02*
X78585000Y-38944000D01*
X77840000Y-38984000D02*
X78626000Y-38984000D01*
X77840000Y-39024000D02*
X78664000Y-39024000D01*
X77840000Y-39064000D02*
X78701000Y-39064000D01*
X77840000Y-39104000D02*
X78737000Y-39104000D01*
X77840000Y-39144000D02*
X78771000Y-39144000D01*
X77840000Y-39184000D02*
X78804000Y-39184000D01*
X77840000Y-39224000D02*
X78835000Y-39224000D01*
X77840000Y-39264000D02*
X78865000Y-39264000D01*
X77840000Y-39304000D02*
X78895000Y-39304000D01*
X77840000Y-39344000D02*
X78922000Y-39344000D01*
X77840000Y-39384000D02*
X78949000Y-39384000D01*
X77840000Y-39424000D02*
X78975000Y-39424000D01*
X77840000Y-39464000D02*
X79000000Y-39464000D01*
X77840000Y-39504000D02*
X79024000Y-39504000D01*
X77840000Y-39544000D02*
X79047000Y-39544000D01*
X77840000Y-39584000D02*
X79068000Y-39584000D01*
X77840000Y-39624000D02*
X79090000Y-39624000D01*
X77840000Y-39664000D02*
X79110000Y-39664000D01*
X77840000Y-39704000D02*
X79129000Y-39704000D01*
X77840000Y-39744000D02*
X79148000Y-39744000D01*
X77840000Y-39784000D02*
X79165000Y-39784000D01*
X77840000Y-39824000D02*
X79182000Y-39824000D01*
X77840000Y-39864000D02*
X79198000Y-39864000D01*
X77840000Y-39904000D02*
X79214000Y-39904000D01*
X77840000Y-39944000D02*
X79228000Y-39944000D01*
X77840000Y-39984000D02*
X79242000Y-39984000D01*
X77840000Y-40024000D02*
X79255000Y-40024000D01*
X77840000Y-40064000D02*
X79268000Y-40064000D01*
X77840000Y-40104000D02*
X79280000Y-40104000D01*
X77840000Y-40145000D02*
X79291000Y-40145000D01*
X77840000Y-40185000D02*
X79301000Y-40185000D01*
X77840000Y-40225000D02*
X79311000Y-40225000D01*
X77840000Y-40265000D02*
X79320000Y-40265000D01*
X77840000Y-40305000D02*
X79328000Y-40305000D01*
X77840000Y-40345000D02*
X79336000Y-40345000D01*
X77840000Y-40385000D02*
X79343000Y-40385000D01*
X77840000Y-40425000D02*
X79350000Y-40425000D01*
X77840000Y-40465000D02*
X79356000Y-40465000D01*
X77840000Y-40505000D02*
X79361000Y-40505000D01*
X77840000Y-40545000D02*
X79365000Y-40545000D01*
X77840000Y-40585000D02*
X79369000Y-40585000D01*
X79420000Y-40825000D02*
G75*
G02*
X74180000Y-40825000I-2620000J0D01*
G01*
X74180000Y-40825000D02*
G75*
G02*
X79420000Y-40825000I2620000J0D01*
G01*
%TO.C,C5*%
X67358812Y-42615000D02*
X67808812Y-42615000D01*
X67583812Y-42390000D02*
X67583812Y-42840000D01*
X67776359Y-42890000D02*
G75*
G02*
X67776359Y-45010000I2119741J-1060000D01*
G01*
%TO.C,IC1*%
X71162400Y-55676800D02*
X71162400Y-65956800D01*
X71162400Y-65956800D02*
X76462400Y-65956800D01*
X72812400Y-55676800D02*
X71162400Y-55676800D01*
X76462400Y-55676800D02*
X74812400Y-55676800D01*
X76462400Y-65956800D02*
X76462400Y-55676800D01*
X74812400Y-55676800D02*
G75*
G02*
X72812400Y-55676800I-1000000J0D01*
G01*
%TO.C,C1*%
X59914800Y-56794400D02*
X59914800Y-64534400D01*
X61278800Y-56794400D02*
X59914800Y-56794400D01*
X61278800Y-64534400D02*
X59914800Y-64534400D01*
X65154800Y-56794400D02*
X63790800Y-56794400D01*
X65154800Y-56794400D02*
X65154800Y-64534400D01*
X65154800Y-64534400D02*
X63790800Y-64534400D01*
%TO.C,J3*%
X58710600Y-41321400D02*
X58710600Y-43981400D01*
X58710600Y-43981400D02*
X63910600Y-43981400D01*
X58770600Y-46691400D02*
X58770600Y-45421400D01*
X59660600Y-35321400D02*
X60420600Y-35321400D01*
X59660600Y-41321400D02*
X59660600Y-35321400D01*
X59660600Y-44311400D02*
X59660600Y-43981400D01*
X59720600Y-41321400D02*
X59720600Y-35321400D01*
X59840600Y-41321400D02*
X59840600Y-35321400D01*
X59960600Y-41321400D02*
X59960600Y-35321400D01*
X60040600Y-46691400D02*
X58770600Y-46691400D01*
X60080600Y-41321400D02*
X60080600Y-35321400D01*
X60200600Y-41321400D02*
X60200600Y-35321400D01*
X60320600Y-41321400D02*
X60320600Y-35321400D01*
X60420600Y-35321400D02*
X60420600Y-41321400D01*
X60420600Y-44311400D02*
X60420600Y-43981400D01*
X61310600Y-43981400D02*
X61310600Y-41321400D01*
X62200600Y-35321400D02*
X62960600Y-35321400D01*
X62200600Y-41321400D02*
X62200600Y-35321400D01*
X62200600Y-44378471D02*
X62200600Y-43981400D01*
X62960600Y-35321400D02*
X62960600Y-41321400D01*
X62960600Y-44378471D02*
X62960600Y-43981400D01*
X63910600Y-41321400D02*
X58710600Y-41321400D01*
X63910600Y-43981400D02*
X63910600Y-41321400D01*
%TO.C,MIC1*%
X48449000Y-41321400D02*
X48449000Y-43981400D01*
X48449000Y-43981400D02*
X53649000Y-43981400D01*
X48509000Y-46691400D02*
X48509000Y-45421400D01*
X49399000Y-35321400D02*
X50159000Y-35321400D01*
X49399000Y-41321400D02*
X49399000Y-35321400D01*
X49399000Y-44311400D02*
X49399000Y-43981400D01*
X49459000Y-41321400D02*
X49459000Y-35321400D01*
X49579000Y-41321400D02*
X49579000Y-35321400D01*
X49699000Y-41321400D02*
X49699000Y-35321400D01*
X49779000Y-46691400D02*
X48509000Y-46691400D01*
X49819000Y-41321400D02*
X49819000Y-35321400D01*
X49939000Y-41321400D02*
X49939000Y-35321400D01*
X50059000Y-41321400D02*
X50059000Y-35321400D01*
X50159000Y-35321400D02*
X50159000Y-41321400D01*
X50159000Y-44311400D02*
X50159000Y-43981400D01*
X51049000Y-43981400D02*
X51049000Y-41321400D01*
X51939000Y-35321400D02*
X52699000Y-35321400D01*
X51939000Y-41321400D02*
X51939000Y-35321400D01*
X51939000Y-44378471D02*
X51939000Y-43981400D01*
X52699000Y-35321400D02*
X52699000Y-41321400D01*
X52699000Y-44378471D02*
X52699000Y-43981400D01*
X53649000Y-41321400D02*
X48449000Y-41321400D01*
X53649000Y-43981400D02*
X53649000Y-41321400D01*
%TO.C,J1*%
X68861600Y-70221600D02*
X68861600Y-71521600D01*
X69161600Y-70521600D02*
X71161600Y-70521600D01*
X69161600Y-85021600D02*
X69161600Y-70521600D01*
X70561600Y-70221600D02*
X68861600Y-70221600D01*
X76361600Y-70521600D02*
X78361600Y-70521600D01*
X78361600Y-70521600D02*
X78361600Y-71821600D01*
X78361600Y-76421600D02*
X78361600Y-85021600D01*
X78361600Y-85021600D02*
X69161600Y-85021600D01*
%TO.C,P2*%
X39079043Y-77104830D02*
G75*
G02*
X40687400Y-73221800I5269357J92030D01*
G01*
X42807601Y-82052525D02*
G75*
G02*
X39078401Y-77012800I1540799J5039725D01*
G01*
X43073519Y-71898410D02*
G75*
G02*
X45354400Y-71838801I1274881J-5114390D01*
G01*
X47736874Y-72976179D02*
G75*
G02*
X45622400Y-82126799I-3388474J-4036621D01*
G01*
%TO.C,J2*%
X52939100Y-69007600D02*
X52939100Y-70307600D01*
X53239100Y-69307600D02*
X55239100Y-69307600D01*
X53259100Y-85037600D02*
X53259100Y-69337600D01*
X54639100Y-69007600D02*
X52939100Y-69007600D01*
X60439100Y-69327600D02*
X62439100Y-69327600D01*
X62579100Y-74047600D02*
X62579100Y-85037600D01*
X62579100Y-85037600D02*
X53259100Y-85037600D01*
%TD*%
M02*
