%TF.GenerationSoftware,KiCad,Pcbnew,7.0.10*%
%TF.CreationDate,2024-02-29T08:37:15+01:00*%
%TF.ProjectId,ZX Spectrum AMP,5a582053-7065-4637-9472-756d20414d50,rev?*%
%TF.SameCoordinates,Original*%
%TF.FileFunction,Legend,Top*%
%TF.FilePolarity,Positive*%
%FSLAX46Y46*%
G04 Gerber Fmt 4.6, Leading zero omitted, Abs format (unit mm)*
G04 Created by KiCad (PCBNEW 7.0.10) date 2024-02-29 08:37:15*
%MOMM*%
%LPD*%
G01*
G04 APERTURE LIST*
%ADD10C,0.150000*%
%ADD11C,0.100000*%
%ADD12C,0.120000*%
%ADD13C,0.010000*%
G04 APERTURE END LIST*
D10*
X41415619Y-61066037D02*
X42415619Y-60732704D01*
X42415619Y-60732704D02*
X41415619Y-60399371D01*
X42415619Y-59923180D02*
X42368000Y-60018418D01*
X42368000Y-60018418D02*
X42320380Y-60066037D01*
X42320380Y-60066037D02*
X42225142Y-60113656D01*
X42225142Y-60113656D02*
X41939428Y-60113656D01*
X41939428Y-60113656D02*
X41844190Y-60066037D01*
X41844190Y-60066037D02*
X41796571Y-60018418D01*
X41796571Y-60018418D02*
X41748952Y-59923180D01*
X41748952Y-59923180D02*
X41748952Y-59780323D01*
X41748952Y-59780323D02*
X41796571Y-59685085D01*
X41796571Y-59685085D02*
X41844190Y-59637466D01*
X41844190Y-59637466D02*
X41939428Y-59589847D01*
X41939428Y-59589847D02*
X42225142Y-59589847D01*
X42225142Y-59589847D02*
X42320380Y-59637466D01*
X42320380Y-59637466D02*
X42368000Y-59685085D01*
X42368000Y-59685085D02*
X42415619Y-59780323D01*
X42415619Y-59780323D02*
X42415619Y-59923180D01*
X42415619Y-59018418D02*
X42368000Y-59113656D01*
X42368000Y-59113656D02*
X42272761Y-59161275D01*
X42272761Y-59161275D02*
X41415619Y-59161275D01*
X41748952Y-58208894D02*
X42415619Y-58208894D01*
X41748952Y-58637465D02*
X42272761Y-58637465D01*
X42272761Y-58637465D02*
X42368000Y-58589846D01*
X42368000Y-58589846D02*
X42415619Y-58494608D01*
X42415619Y-58494608D02*
X42415619Y-58351751D01*
X42415619Y-58351751D02*
X42368000Y-58256513D01*
X42368000Y-58256513D02*
X42320380Y-58208894D01*
X42415619Y-57732703D02*
X41748952Y-57732703D01*
X41844190Y-57732703D02*
X41796571Y-57685084D01*
X41796571Y-57685084D02*
X41748952Y-57589846D01*
X41748952Y-57589846D02*
X41748952Y-57446989D01*
X41748952Y-57446989D02*
X41796571Y-57351751D01*
X41796571Y-57351751D02*
X41891809Y-57304132D01*
X41891809Y-57304132D02*
X42415619Y-57304132D01*
X41891809Y-57304132D02*
X41796571Y-57256513D01*
X41796571Y-57256513D02*
X41748952Y-57161275D01*
X41748952Y-57161275D02*
X41748952Y-57018418D01*
X41748952Y-57018418D02*
X41796571Y-56923179D01*
X41796571Y-56923179D02*
X41891809Y-56875560D01*
X41891809Y-56875560D02*
X42415619Y-56875560D01*
X42368000Y-56018418D02*
X42415619Y-56113656D01*
X42415619Y-56113656D02*
X42415619Y-56304132D01*
X42415619Y-56304132D02*
X42368000Y-56399370D01*
X42368000Y-56399370D02*
X42272761Y-56446989D01*
X42272761Y-56446989D02*
X41891809Y-56446989D01*
X41891809Y-56446989D02*
X41796571Y-56399370D01*
X41796571Y-56399370D02*
X41748952Y-56304132D01*
X41748952Y-56304132D02*
X41748952Y-56113656D01*
X41748952Y-56113656D02*
X41796571Y-56018418D01*
X41796571Y-56018418D02*
X41891809Y-55970799D01*
X41891809Y-55970799D02*
X41987047Y-55970799D01*
X41987047Y-55970799D02*
X42082285Y-56446989D01*
X60194866Y-50920420D02*
X60194866Y-50158516D01*
X60575819Y-50539468D02*
X59813914Y-50539468D01*
X60575819Y-49634706D02*
X60575819Y-49444230D01*
X60575819Y-49444230D02*
X60528200Y-49348992D01*
X60528200Y-49348992D02*
X60480580Y-49301373D01*
X60480580Y-49301373D02*
X60337723Y-49206135D01*
X60337723Y-49206135D02*
X60147247Y-49158516D01*
X60147247Y-49158516D02*
X59766295Y-49158516D01*
X59766295Y-49158516D02*
X59671057Y-49206135D01*
X59671057Y-49206135D02*
X59623438Y-49253754D01*
X59623438Y-49253754D02*
X59575819Y-49348992D01*
X59575819Y-49348992D02*
X59575819Y-49539468D01*
X59575819Y-49539468D02*
X59623438Y-49634706D01*
X59623438Y-49634706D02*
X59671057Y-49682325D01*
X59671057Y-49682325D02*
X59766295Y-49729944D01*
X59766295Y-49729944D02*
X60004390Y-49729944D01*
X60004390Y-49729944D02*
X60099628Y-49682325D01*
X60099628Y-49682325D02*
X60147247Y-49634706D01*
X60147247Y-49634706D02*
X60194866Y-49539468D01*
X60194866Y-49539468D02*
X60194866Y-49348992D01*
X60194866Y-49348992D02*
X60147247Y-49253754D01*
X60147247Y-49253754D02*
X60099628Y-49206135D01*
X60099628Y-49206135D02*
X60004390Y-49158516D01*
X59575819Y-48872801D02*
X60575819Y-48539468D01*
X60575819Y-48539468D02*
X59575819Y-48206135D01*
X72996588Y-67700638D02*
X72901350Y-67653019D01*
X72901350Y-67653019D02*
X72758493Y-67653019D01*
X72758493Y-67653019D02*
X72615636Y-67700638D01*
X72615636Y-67700638D02*
X72520398Y-67795876D01*
X72520398Y-67795876D02*
X72472779Y-67891114D01*
X72472779Y-67891114D02*
X72425160Y-68081590D01*
X72425160Y-68081590D02*
X72425160Y-68224447D01*
X72425160Y-68224447D02*
X72472779Y-68414923D01*
X72472779Y-68414923D02*
X72520398Y-68510161D01*
X72520398Y-68510161D02*
X72615636Y-68605400D01*
X72615636Y-68605400D02*
X72758493Y-68653019D01*
X72758493Y-68653019D02*
X72853731Y-68653019D01*
X72853731Y-68653019D02*
X72996588Y-68605400D01*
X72996588Y-68605400D02*
X73044207Y-68557780D01*
X73044207Y-68557780D02*
X73044207Y-68224447D01*
X73044207Y-68224447D02*
X72853731Y-68224447D01*
X73472779Y-68653019D02*
X73472779Y-67653019D01*
X73472779Y-67653019D02*
X74044207Y-68653019D01*
X74044207Y-68653019D02*
X74044207Y-67653019D01*
X74520398Y-68653019D02*
X74520398Y-67653019D01*
X74520398Y-67653019D02*
X74758493Y-67653019D01*
X74758493Y-67653019D02*
X74901350Y-67700638D01*
X74901350Y-67700638D02*
X74996588Y-67795876D01*
X74996588Y-67795876D02*
X75044207Y-67891114D01*
X75044207Y-67891114D02*
X75091826Y-68081590D01*
X75091826Y-68081590D02*
X75091826Y-68224447D01*
X75091826Y-68224447D02*
X75044207Y-68414923D01*
X75044207Y-68414923D02*
X74996588Y-68510161D01*
X74996588Y-68510161D02*
X74901350Y-68605400D01*
X74901350Y-68605400D02*
X74758493Y-68653019D01*
X74758493Y-68653019D02*
X74520398Y-68653019D01*
X62112638Y-50295011D02*
X62065019Y-50390249D01*
X62065019Y-50390249D02*
X62065019Y-50533106D01*
X62065019Y-50533106D02*
X62112638Y-50675963D01*
X62112638Y-50675963D02*
X62207876Y-50771201D01*
X62207876Y-50771201D02*
X62303114Y-50818820D01*
X62303114Y-50818820D02*
X62493590Y-50866439D01*
X62493590Y-50866439D02*
X62636447Y-50866439D01*
X62636447Y-50866439D02*
X62826923Y-50818820D01*
X62826923Y-50818820D02*
X62922161Y-50771201D01*
X62922161Y-50771201D02*
X63017400Y-50675963D01*
X63017400Y-50675963D02*
X63065019Y-50533106D01*
X63065019Y-50533106D02*
X63065019Y-50437868D01*
X63065019Y-50437868D02*
X63017400Y-50295011D01*
X63017400Y-50295011D02*
X62969780Y-50247392D01*
X62969780Y-50247392D02*
X62636447Y-50247392D01*
X62636447Y-50247392D02*
X62636447Y-50437868D01*
X63065019Y-49818820D02*
X62065019Y-49818820D01*
X62065019Y-49818820D02*
X63065019Y-49247392D01*
X63065019Y-49247392D02*
X62065019Y-49247392D01*
X63065019Y-48771201D02*
X62065019Y-48771201D01*
X62065019Y-48771201D02*
X62065019Y-48533106D01*
X62065019Y-48533106D02*
X62112638Y-48390249D01*
X62112638Y-48390249D02*
X62207876Y-48295011D01*
X62207876Y-48295011D02*
X62303114Y-48247392D01*
X62303114Y-48247392D02*
X62493590Y-48199773D01*
X62493590Y-48199773D02*
X62636447Y-48199773D01*
X62636447Y-48199773D02*
X62826923Y-48247392D01*
X62826923Y-48247392D02*
X62922161Y-48295011D01*
X62922161Y-48295011D02*
X63017400Y-48390249D01*
X63017400Y-48390249D02*
X63065019Y-48533106D01*
X63065019Y-48533106D02*
X63065019Y-48771201D01*
X77912933Y-49392819D02*
X77579600Y-48916628D01*
X77341505Y-49392819D02*
X77341505Y-48392819D01*
X77341505Y-48392819D02*
X77722457Y-48392819D01*
X77722457Y-48392819D02*
X77817695Y-48440438D01*
X77817695Y-48440438D02*
X77865314Y-48488057D01*
X77865314Y-48488057D02*
X77912933Y-48583295D01*
X77912933Y-48583295D02*
X77912933Y-48726152D01*
X77912933Y-48726152D02*
X77865314Y-48821390D01*
X77865314Y-48821390D02*
X77817695Y-48869009D01*
X77817695Y-48869009D02*
X77722457Y-48916628D01*
X77722457Y-48916628D02*
X77341505Y-48916628D01*
X78865314Y-49392819D02*
X78293886Y-49392819D01*
X78579600Y-49392819D02*
X78579600Y-48392819D01*
X78579600Y-48392819D02*
X78484362Y-48535676D01*
X78484362Y-48535676D02*
X78389124Y-48630914D01*
X78389124Y-48630914D02*
X78293886Y-48678533D01*
X77889123Y-54132819D02*
X77317695Y-54132819D01*
X77603409Y-54132819D02*
X77603409Y-53132819D01*
X77603409Y-53132819D02*
X77508171Y-53275676D01*
X77508171Y-53275676D02*
X77412933Y-53370914D01*
X77412933Y-53370914D02*
X77317695Y-53418533D01*
X78508171Y-53132819D02*
X78603409Y-53132819D01*
X78603409Y-53132819D02*
X78698647Y-53180438D01*
X78698647Y-53180438D02*
X78746266Y-53228057D01*
X78746266Y-53228057D02*
X78793885Y-53323295D01*
X78793885Y-53323295D02*
X78841504Y-53513771D01*
X78841504Y-53513771D02*
X78841504Y-53751866D01*
X78841504Y-53751866D02*
X78793885Y-53942342D01*
X78793885Y-53942342D02*
X78746266Y-54037580D01*
X78746266Y-54037580D02*
X78698647Y-54085200D01*
X78698647Y-54085200D02*
X78603409Y-54132819D01*
X78603409Y-54132819D02*
X78508171Y-54132819D01*
X78508171Y-54132819D02*
X78412933Y-54085200D01*
X78412933Y-54085200D02*
X78365314Y-54037580D01*
X78365314Y-54037580D02*
X78317695Y-53942342D01*
X78317695Y-53942342D02*
X78270076Y-53751866D01*
X78270076Y-53751866D02*
X78270076Y-53513771D01*
X78270076Y-53513771D02*
X78317695Y-53323295D01*
X78317695Y-53323295D02*
X78365314Y-53228057D01*
X78365314Y-53228057D02*
X78412933Y-53180438D01*
X78412933Y-53180438D02*
X78508171Y-53132819D01*
X39675600Y-41144628D02*
X39723219Y-41001771D01*
X39723219Y-41001771D02*
X39723219Y-40763676D01*
X39723219Y-40763676D02*
X39675600Y-40668438D01*
X39675600Y-40668438D02*
X39627980Y-40620819D01*
X39627980Y-40620819D02*
X39532742Y-40573200D01*
X39532742Y-40573200D02*
X39437504Y-40573200D01*
X39437504Y-40573200D02*
X39342266Y-40620819D01*
X39342266Y-40620819D02*
X39294647Y-40668438D01*
X39294647Y-40668438D02*
X39247028Y-40763676D01*
X39247028Y-40763676D02*
X39199409Y-40954152D01*
X39199409Y-40954152D02*
X39151790Y-41049390D01*
X39151790Y-41049390D02*
X39104171Y-41097009D01*
X39104171Y-41097009D02*
X39008933Y-41144628D01*
X39008933Y-41144628D02*
X38913695Y-41144628D01*
X38913695Y-41144628D02*
X38818457Y-41097009D01*
X38818457Y-41097009D02*
X38770838Y-41049390D01*
X38770838Y-41049390D02*
X38723219Y-40954152D01*
X38723219Y-40954152D02*
X38723219Y-40716057D01*
X38723219Y-40716057D02*
X38770838Y-40573200D01*
X39056552Y-40144628D02*
X40056552Y-40144628D01*
X39104171Y-40144628D02*
X39056552Y-40049390D01*
X39056552Y-40049390D02*
X39056552Y-39858914D01*
X39056552Y-39858914D02*
X39104171Y-39763676D01*
X39104171Y-39763676D02*
X39151790Y-39716057D01*
X39151790Y-39716057D02*
X39247028Y-39668438D01*
X39247028Y-39668438D02*
X39532742Y-39668438D01*
X39532742Y-39668438D02*
X39627980Y-39716057D01*
X39627980Y-39716057D02*
X39675600Y-39763676D01*
X39675600Y-39763676D02*
X39723219Y-39858914D01*
X39723219Y-39858914D02*
X39723219Y-40049390D01*
X39723219Y-40049390D02*
X39675600Y-40144628D01*
X39675600Y-38858914D02*
X39723219Y-38954152D01*
X39723219Y-38954152D02*
X39723219Y-39144628D01*
X39723219Y-39144628D02*
X39675600Y-39239866D01*
X39675600Y-39239866D02*
X39580361Y-39287485D01*
X39580361Y-39287485D02*
X39199409Y-39287485D01*
X39199409Y-39287485D02*
X39104171Y-39239866D01*
X39104171Y-39239866D02*
X39056552Y-39144628D01*
X39056552Y-39144628D02*
X39056552Y-38954152D01*
X39056552Y-38954152D02*
X39104171Y-38858914D01*
X39104171Y-38858914D02*
X39199409Y-38811295D01*
X39199409Y-38811295D02*
X39294647Y-38811295D01*
X39294647Y-38811295D02*
X39389885Y-39287485D01*
X39723219Y-37954152D02*
X39199409Y-37954152D01*
X39199409Y-37954152D02*
X39104171Y-38001771D01*
X39104171Y-38001771D02*
X39056552Y-38097009D01*
X39056552Y-38097009D02*
X39056552Y-38287485D01*
X39056552Y-38287485D02*
X39104171Y-38382723D01*
X39675600Y-37954152D02*
X39723219Y-38049390D01*
X39723219Y-38049390D02*
X39723219Y-38287485D01*
X39723219Y-38287485D02*
X39675600Y-38382723D01*
X39675600Y-38382723D02*
X39580361Y-38430342D01*
X39580361Y-38430342D02*
X39485123Y-38430342D01*
X39485123Y-38430342D02*
X39389885Y-38382723D01*
X39389885Y-38382723D02*
X39342266Y-38287485D01*
X39342266Y-38287485D02*
X39342266Y-38049390D01*
X39342266Y-38049390D02*
X39294647Y-37954152D01*
X39723219Y-37477961D02*
X38723219Y-37477961D01*
X39342266Y-37382723D02*
X39723219Y-37097009D01*
X39056552Y-37097009D02*
X39437504Y-37477961D01*
X39675600Y-36287485D02*
X39723219Y-36382723D01*
X39723219Y-36382723D02*
X39723219Y-36573199D01*
X39723219Y-36573199D02*
X39675600Y-36668437D01*
X39675600Y-36668437D02*
X39580361Y-36716056D01*
X39580361Y-36716056D02*
X39199409Y-36716056D01*
X39199409Y-36716056D02*
X39104171Y-36668437D01*
X39104171Y-36668437D02*
X39056552Y-36573199D01*
X39056552Y-36573199D02*
X39056552Y-36382723D01*
X39056552Y-36382723D02*
X39104171Y-36287485D01*
X39104171Y-36287485D02*
X39199409Y-36239866D01*
X39199409Y-36239866D02*
X39294647Y-36239866D01*
X39294647Y-36239866D02*
X39389885Y-36716056D01*
X39723219Y-35811294D02*
X39056552Y-35811294D01*
X39247028Y-35811294D02*
X39151790Y-35763675D01*
X39151790Y-35763675D02*
X39104171Y-35716056D01*
X39104171Y-35716056D02*
X39056552Y-35620818D01*
X39056552Y-35620818D02*
X39056552Y-35525580D01*
X82830233Y-57505580D02*
X82782614Y-57553200D01*
X82782614Y-57553200D02*
X82639757Y-57600819D01*
X82639757Y-57600819D02*
X82544519Y-57600819D01*
X82544519Y-57600819D02*
X82401662Y-57553200D01*
X82401662Y-57553200D02*
X82306424Y-57457961D01*
X82306424Y-57457961D02*
X82258805Y-57362723D01*
X82258805Y-57362723D02*
X82211186Y-57172247D01*
X82211186Y-57172247D02*
X82211186Y-57029390D01*
X82211186Y-57029390D02*
X82258805Y-56838914D01*
X82258805Y-56838914D02*
X82306424Y-56743676D01*
X82306424Y-56743676D02*
X82401662Y-56648438D01*
X82401662Y-56648438D02*
X82544519Y-56600819D01*
X82544519Y-56600819D02*
X82639757Y-56600819D01*
X82639757Y-56600819D02*
X82782614Y-56648438D01*
X82782614Y-56648438D02*
X82830233Y-56696057D01*
X83211186Y-56696057D02*
X83258805Y-56648438D01*
X83258805Y-56648438D02*
X83354043Y-56600819D01*
X83354043Y-56600819D02*
X83592138Y-56600819D01*
X83592138Y-56600819D02*
X83687376Y-56648438D01*
X83687376Y-56648438D02*
X83734995Y-56696057D01*
X83734995Y-56696057D02*
X83782614Y-56791295D01*
X83782614Y-56791295D02*
X83782614Y-56886533D01*
X83782614Y-56886533D02*
X83734995Y-57029390D01*
X83734995Y-57029390D02*
X83163567Y-57600819D01*
X83163567Y-57600819D02*
X83782614Y-57600819D01*
X80463090Y-58296057D02*
X80510709Y-58248438D01*
X80510709Y-58248438D02*
X80605947Y-58200819D01*
X80605947Y-58200819D02*
X80844042Y-58200819D01*
X80844042Y-58200819D02*
X80939280Y-58248438D01*
X80939280Y-58248438D02*
X80986899Y-58296057D01*
X80986899Y-58296057D02*
X81034518Y-58391295D01*
X81034518Y-58391295D02*
X81034518Y-58486533D01*
X81034518Y-58486533D02*
X80986899Y-58629390D01*
X80986899Y-58629390D02*
X80415471Y-59200819D01*
X80415471Y-59200819D02*
X81034518Y-59200819D01*
X81415471Y-58296057D02*
X81463090Y-58248438D01*
X81463090Y-58248438D02*
X81558328Y-58200819D01*
X81558328Y-58200819D02*
X81796423Y-58200819D01*
X81796423Y-58200819D02*
X81891661Y-58248438D01*
X81891661Y-58248438D02*
X81939280Y-58296057D01*
X81939280Y-58296057D02*
X81986899Y-58391295D01*
X81986899Y-58391295D02*
X81986899Y-58486533D01*
X81986899Y-58486533D02*
X81939280Y-58629390D01*
X81939280Y-58629390D02*
X81367852Y-59200819D01*
X81367852Y-59200819D02*
X81986899Y-59200819D01*
X83605947Y-58534152D02*
X83605947Y-59200819D01*
X83177376Y-58534152D02*
X83177376Y-59057961D01*
X83177376Y-59057961D02*
X83224995Y-59153200D01*
X83224995Y-59153200D02*
X83320233Y-59200819D01*
X83320233Y-59200819D02*
X83463090Y-59200819D01*
X83463090Y-59200819D02*
X83558328Y-59153200D01*
X83558328Y-59153200D02*
X83605947Y-59105580D01*
X84415471Y-58677009D02*
X84082138Y-58677009D01*
X84082138Y-59200819D02*
X84082138Y-58200819D01*
X84082138Y-58200819D02*
X84558328Y-58200819D01*
X82700233Y-63775580D02*
X82652614Y-63823200D01*
X82652614Y-63823200D02*
X82509757Y-63870819D01*
X82509757Y-63870819D02*
X82414519Y-63870819D01*
X82414519Y-63870819D02*
X82271662Y-63823200D01*
X82271662Y-63823200D02*
X82176424Y-63727961D01*
X82176424Y-63727961D02*
X82128805Y-63632723D01*
X82128805Y-63632723D02*
X82081186Y-63442247D01*
X82081186Y-63442247D02*
X82081186Y-63299390D01*
X82081186Y-63299390D02*
X82128805Y-63108914D01*
X82128805Y-63108914D02*
X82176424Y-63013676D01*
X82176424Y-63013676D02*
X82271662Y-62918438D01*
X82271662Y-62918438D02*
X82414519Y-62870819D01*
X82414519Y-62870819D02*
X82509757Y-62870819D01*
X82509757Y-62870819D02*
X82652614Y-62918438D01*
X82652614Y-62918438D02*
X82700233Y-62966057D01*
X83033567Y-62870819D02*
X83652614Y-62870819D01*
X83652614Y-62870819D02*
X83319281Y-63251771D01*
X83319281Y-63251771D02*
X83462138Y-63251771D01*
X83462138Y-63251771D02*
X83557376Y-63299390D01*
X83557376Y-63299390D02*
X83604995Y-63347009D01*
X83604995Y-63347009D02*
X83652614Y-63442247D01*
X83652614Y-63442247D02*
X83652614Y-63680342D01*
X83652614Y-63680342D02*
X83604995Y-63775580D01*
X83604995Y-63775580D02*
X83557376Y-63823200D01*
X83557376Y-63823200D02*
X83462138Y-63870819D01*
X83462138Y-63870819D02*
X83176424Y-63870819D01*
X83176424Y-63870819D02*
X83081186Y-63823200D01*
X83081186Y-63823200D02*
X83033567Y-63775580D01*
X80463090Y-64686057D02*
X80510709Y-64638438D01*
X80510709Y-64638438D02*
X80605947Y-64590819D01*
X80605947Y-64590819D02*
X80844042Y-64590819D01*
X80844042Y-64590819D02*
X80939280Y-64638438D01*
X80939280Y-64638438D02*
X80986899Y-64686057D01*
X80986899Y-64686057D02*
X81034518Y-64781295D01*
X81034518Y-64781295D02*
X81034518Y-64876533D01*
X81034518Y-64876533D02*
X80986899Y-65019390D01*
X80986899Y-65019390D02*
X80415471Y-65590819D01*
X80415471Y-65590819D02*
X81034518Y-65590819D01*
X81415471Y-64686057D02*
X81463090Y-64638438D01*
X81463090Y-64638438D02*
X81558328Y-64590819D01*
X81558328Y-64590819D02*
X81796423Y-64590819D01*
X81796423Y-64590819D02*
X81891661Y-64638438D01*
X81891661Y-64638438D02*
X81939280Y-64686057D01*
X81939280Y-64686057D02*
X81986899Y-64781295D01*
X81986899Y-64781295D02*
X81986899Y-64876533D01*
X81986899Y-64876533D02*
X81939280Y-65019390D01*
X81939280Y-65019390D02*
X81367852Y-65590819D01*
X81367852Y-65590819D02*
X81986899Y-65590819D01*
X83605947Y-64924152D02*
X83605947Y-65590819D01*
X83177376Y-64924152D02*
X83177376Y-65447961D01*
X83177376Y-65447961D02*
X83224995Y-65543200D01*
X83224995Y-65543200D02*
X83320233Y-65590819D01*
X83320233Y-65590819D02*
X83463090Y-65590819D01*
X83463090Y-65590819D02*
X83558328Y-65543200D01*
X83558328Y-65543200D02*
X83605947Y-65495580D01*
X84415471Y-65067009D02*
X84082138Y-65067009D01*
X84082138Y-65590819D02*
X84082138Y-64590819D01*
X84082138Y-64590819D02*
X84558328Y-64590819D01*
X72044380Y-42273453D02*
X72092000Y-42321072D01*
X72092000Y-42321072D02*
X72139619Y-42463929D01*
X72139619Y-42463929D02*
X72139619Y-42559167D01*
X72139619Y-42559167D02*
X72092000Y-42702024D01*
X72092000Y-42702024D02*
X71996761Y-42797262D01*
X71996761Y-42797262D02*
X71901523Y-42844881D01*
X71901523Y-42844881D02*
X71711047Y-42892500D01*
X71711047Y-42892500D02*
X71568190Y-42892500D01*
X71568190Y-42892500D02*
X71377714Y-42844881D01*
X71377714Y-42844881D02*
X71282476Y-42797262D01*
X71282476Y-42797262D02*
X71187238Y-42702024D01*
X71187238Y-42702024D02*
X71139619Y-42559167D01*
X71139619Y-42559167D02*
X71139619Y-42463929D01*
X71139619Y-42463929D02*
X71187238Y-42321072D01*
X71187238Y-42321072D02*
X71234857Y-42273453D01*
X71472952Y-41416310D02*
X72139619Y-41416310D01*
X71092000Y-41654405D02*
X71806285Y-41892500D01*
X71806285Y-41892500D02*
X71806285Y-41273453D01*
X79799619Y-43990471D02*
X79799619Y-44561899D01*
X79799619Y-44276185D02*
X78799619Y-44276185D01*
X78799619Y-44276185D02*
X78942476Y-44371423D01*
X78942476Y-44371423D02*
X79037714Y-44466661D01*
X79037714Y-44466661D02*
X79085333Y-44561899D01*
X78799619Y-43371423D02*
X78799619Y-43276185D01*
X78799619Y-43276185D02*
X78847238Y-43180947D01*
X78847238Y-43180947D02*
X78894857Y-43133328D01*
X78894857Y-43133328D02*
X78990095Y-43085709D01*
X78990095Y-43085709D02*
X79180571Y-43038090D01*
X79180571Y-43038090D02*
X79418666Y-43038090D01*
X79418666Y-43038090D02*
X79609142Y-43085709D01*
X79609142Y-43085709D02*
X79704380Y-43133328D01*
X79704380Y-43133328D02*
X79752000Y-43180947D01*
X79752000Y-43180947D02*
X79799619Y-43276185D01*
X79799619Y-43276185D02*
X79799619Y-43371423D01*
X79799619Y-43371423D02*
X79752000Y-43466661D01*
X79752000Y-43466661D02*
X79704380Y-43514280D01*
X79704380Y-43514280D02*
X79609142Y-43561899D01*
X79609142Y-43561899D02*
X79418666Y-43609518D01*
X79418666Y-43609518D02*
X79180571Y-43609518D01*
X79180571Y-43609518D02*
X78990095Y-43561899D01*
X78990095Y-43561899D02*
X78894857Y-43514280D01*
X78894857Y-43514280D02*
X78847238Y-43466661D01*
X78847238Y-43466661D02*
X78799619Y-43371423D01*
X78799619Y-42419042D02*
X78799619Y-42323804D01*
X78799619Y-42323804D02*
X78847238Y-42228566D01*
X78847238Y-42228566D02*
X78894857Y-42180947D01*
X78894857Y-42180947D02*
X78990095Y-42133328D01*
X78990095Y-42133328D02*
X79180571Y-42085709D01*
X79180571Y-42085709D02*
X79418666Y-42085709D01*
X79418666Y-42085709D02*
X79609142Y-42133328D01*
X79609142Y-42133328D02*
X79704380Y-42180947D01*
X79704380Y-42180947D02*
X79752000Y-42228566D01*
X79752000Y-42228566D02*
X79799619Y-42323804D01*
X79799619Y-42323804D02*
X79799619Y-42419042D01*
X79799619Y-42419042D02*
X79752000Y-42514280D01*
X79752000Y-42514280D02*
X79704380Y-42561899D01*
X79704380Y-42561899D02*
X79609142Y-42609518D01*
X79609142Y-42609518D02*
X79418666Y-42657137D01*
X79418666Y-42657137D02*
X79180571Y-42657137D01*
X79180571Y-42657137D02*
X78990095Y-42609518D01*
X78990095Y-42609518D02*
X78894857Y-42561899D01*
X78894857Y-42561899D02*
X78847238Y-42514280D01*
X78847238Y-42514280D02*
X78799619Y-42419042D01*
X79132952Y-40466661D02*
X79799619Y-40466661D01*
X79132952Y-40895232D02*
X79656761Y-40895232D01*
X79656761Y-40895232D02*
X79752000Y-40847613D01*
X79752000Y-40847613D02*
X79799619Y-40752375D01*
X79799619Y-40752375D02*
X79799619Y-40609518D01*
X79799619Y-40609518D02*
X79752000Y-40514280D01*
X79752000Y-40514280D02*
X79704380Y-40466661D01*
X79275809Y-39657137D02*
X79275809Y-39990470D01*
X79799619Y-39990470D02*
X78799619Y-39990470D01*
X78799619Y-39990470D02*
X78799619Y-39514280D01*
X69042933Y-43189180D02*
X68995314Y-43236800D01*
X68995314Y-43236800D02*
X68852457Y-43284419D01*
X68852457Y-43284419D02*
X68757219Y-43284419D01*
X68757219Y-43284419D02*
X68614362Y-43236800D01*
X68614362Y-43236800D02*
X68519124Y-43141561D01*
X68519124Y-43141561D02*
X68471505Y-43046323D01*
X68471505Y-43046323D02*
X68423886Y-42855847D01*
X68423886Y-42855847D02*
X68423886Y-42712990D01*
X68423886Y-42712990D02*
X68471505Y-42522514D01*
X68471505Y-42522514D02*
X68519124Y-42427276D01*
X68519124Y-42427276D02*
X68614362Y-42332038D01*
X68614362Y-42332038D02*
X68757219Y-42284419D01*
X68757219Y-42284419D02*
X68852457Y-42284419D01*
X68852457Y-42284419D02*
X68995314Y-42332038D01*
X68995314Y-42332038D02*
X69042933Y-42379657D01*
X69947695Y-42284419D02*
X69471505Y-42284419D01*
X69471505Y-42284419D02*
X69423886Y-42760609D01*
X69423886Y-42760609D02*
X69471505Y-42712990D01*
X69471505Y-42712990D02*
X69566743Y-42665371D01*
X69566743Y-42665371D02*
X69804838Y-42665371D01*
X69804838Y-42665371D02*
X69900076Y-42712990D01*
X69900076Y-42712990D02*
X69947695Y-42760609D01*
X69947695Y-42760609D02*
X69995314Y-42855847D01*
X69995314Y-42855847D02*
X69995314Y-43093942D01*
X69995314Y-43093942D02*
X69947695Y-43189180D01*
X69947695Y-43189180D02*
X69900076Y-43236800D01*
X69900076Y-43236800D02*
X69804838Y-43284419D01*
X69804838Y-43284419D02*
X69566743Y-43284419D01*
X69566743Y-43284419D02*
X69471505Y-43236800D01*
X69471505Y-43236800D02*
X69423886Y-43189180D01*
X67185790Y-49284419D02*
X67281028Y-49284419D01*
X67281028Y-49284419D02*
X67376266Y-49332038D01*
X67376266Y-49332038D02*
X67423885Y-49379657D01*
X67423885Y-49379657D02*
X67471504Y-49474895D01*
X67471504Y-49474895D02*
X67519123Y-49665371D01*
X67519123Y-49665371D02*
X67519123Y-49903466D01*
X67519123Y-49903466D02*
X67471504Y-50093942D01*
X67471504Y-50093942D02*
X67423885Y-50189180D01*
X67423885Y-50189180D02*
X67376266Y-50236800D01*
X67376266Y-50236800D02*
X67281028Y-50284419D01*
X67281028Y-50284419D02*
X67185790Y-50284419D01*
X67185790Y-50284419D02*
X67090552Y-50236800D01*
X67090552Y-50236800D02*
X67042933Y-50189180D01*
X67042933Y-50189180D02*
X66995314Y-50093942D01*
X66995314Y-50093942D02*
X66947695Y-49903466D01*
X66947695Y-49903466D02*
X66947695Y-49665371D01*
X66947695Y-49665371D02*
X66995314Y-49474895D01*
X66995314Y-49474895D02*
X67042933Y-49379657D01*
X67042933Y-49379657D02*
X67090552Y-49332038D01*
X67090552Y-49332038D02*
X67185790Y-49284419D01*
X67995314Y-50236800D02*
X67995314Y-50284419D01*
X67995314Y-50284419D02*
X67947695Y-50379657D01*
X67947695Y-50379657D02*
X67900076Y-50427276D01*
X68947694Y-50284419D02*
X68376266Y-50284419D01*
X68661980Y-50284419D02*
X68661980Y-49284419D01*
X68661980Y-49284419D02*
X68566742Y-49427276D01*
X68566742Y-49427276D02*
X68471504Y-49522514D01*
X68471504Y-49522514D02*
X68376266Y-49570133D01*
X70566742Y-49617752D02*
X70566742Y-50284419D01*
X70138171Y-49617752D02*
X70138171Y-50141561D01*
X70138171Y-50141561D02*
X70185790Y-50236800D01*
X70185790Y-50236800D02*
X70281028Y-50284419D01*
X70281028Y-50284419D02*
X70423885Y-50284419D01*
X70423885Y-50284419D02*
X70519123Y-50236800D01*
X70519123Y-50236800D02*
X70566742Y-50189180D01*
X71376266Y-49760609D02*
X71042933Y-49760609D01*
X71042933Y-50284419D02*
X71042933Y-49284419D01*
X71042933Y-49284419D02*
X71519123Y-49284419D01*
X72836210Y-55131619D02*
X72836210Y-54131619D01*
X73883828Y-55036380D02*
X73836209Y-55084000D01*
X73836209Y-55084000D02*
X73693352Y-55131619D01*
X73693352Y-55131619D02*
X73598114Y-55131619D01*
X73598114Y-55131619D02*
X73455257Y-55084000D01*
X73455257Y-55084000D02*
X73360019Y-54988761D01*
X73360019Y-54988761D02*
X73312400Y-54893523D01*
X73312400Y-54893523D02*
X73264781Y-54703047D01*
X73264781Y-54703047D02*
X73264781Y-54560190D01*
X73264781Y-54560190D02*
X73312400Y-54369714D01*
X73312400Y-54369714D02*
X73360019Y-54274476D01*
X73360019Y-54274476D02*
X73455257Y-54179238D01*
X73455257Y-54179238D02*
X73598114Y-54131619D01*
X73598114Y-54131619D02*
X73693352Y-54131619D01*
X73693352Y-54131619D02*
X73836209Y-54179238D01*
X73836209Y-54179238D02*
X73883828Y-54226857D01*
X74836209Y-55131619D02*
X74264781Y-55131619D01*
X74550495Y-55131619D02*
X74550495Y-54131619D01*
X74550495Y-54131619D02*
X74455257Y-54274476D01*
X74455257Y-54274476D02*
X74360019Y-54369714D01*
X74360019Y-54369714D02*
X74264781Y-54417333D01*
X74028219Y-62353276D02*
X74028219Y-62829466D01*
X74028219Y-62829466D02*
X73028219Y-62829466D01*
X74028219Y-62019942D02*
X73028219Y-62019942D01*
X73028219Y-62019942D02*
X73742504Y-61686609D01*
X73742504Y-61686609D02*
X73028219Y-61353276D01*
X73028219Y-61353276D02*
X74028219Y-61353276D01*
X73028219Y-60972323D02*
X73028219Y-60353276D01*
X73028219Y-60353276D02*
X73409171Y-60686609D01*
X73409171Y-60686609D02*
X73409171Y-60543752D01*
X73409171Y-60543752D02*
X73456790Y-60448514D01*
X73456790Y-60448514D02*
X73504409Y-60400895D01*
X73504409Y-60400895D02*
X73599647Y-60353276D01*
X73599647Y-60353276D02*
X73837742Y-60353276D01*
X73837742Y-60353276D02*
X73932980Y-60400895D01*
X73932980Y-60400895D02*
X73980600Y-60448514D01*
X73980600Y-60448514D02*
X74028219Y-60543752D01*
X74028219Y-60543752D02*
X74028219Y-60829466D01*
X74028219Y-60829466D02*
X73980600Y-60924704D01*
X73980600Y-60924704D02*
X73932980Y-60972323D01*
X73456790Y-59781847D02*
X73409171Y-59877085D01*
X73409171Y-59877085D02*
X73361552Y-59924704D01*
X73361552Y-59924704D02*
X73266314Y-59972323D01*
X73266314Y-59972323D02*
X73218695Y-59972323D01*
X73218695Y-59972323D02*
X73123457Y-59924704D01*
X73123457Y-59924704D02*
X73075838Y-59877085D01*
X73075838Y-59877085D02*
X73028219Y-59781847D01*
X73028219Y-59781847D02*
X73028219Y-59591371D01*
X73028219Y-59591371D02*
X73075838Y-59496133D01*
X73075838Y-59496133D02*
X73123457Y-59448514D01*
X73123457Y-59448514D02*
X73218695Y-59400895D01*
X73218695Y-59400895D02*
X73266314Y-59400895D01*
X73266314Y-59400895D02*
X73361552Y-59448514D01*
X73361552Y-59448514D02*
X73409171Y-59496133D01*
X73409171Y-59496133D02*
X73456790Y-59591371D01*
X73456790Y-59591371D02*
X73456790Y-59781847D01*
X73456790Y-59781847D02*
X73504409Y-59877085D01*
X73504409Y-59877085D02*
X73552028Y-59924704D01*
X73552028Y-59924704D02*
X73647266Y-59972323D01*
X73647266Y-59972323D02*
X73837742Y-59972323D01*
X73837742Y-59972323D02*
X73932980Y-59924704D01*
X73932980Y-59924704D02*
X73980600Y-59877085D01*
X73980600Y-59877085D02*
X74028219Y-59781847D01*
X74028219Y-59781847D02*
X74028219Y-59591371D01*
X74028219Y-59591371D02*
X73980600Y-59496133D01*
X73980600Y-59496133D02*
X73932980Y-59448514D01*
X73932980Y-59448514D02*
X73837742Y-59400895D01*
X73837742Y-59400895D02*
X73647266Y-59400895D01*
X73647266Y-59400895D02*
X73552028Y-59448514D01*
X73552028Y-59448514D02*
X73504409Y-59496133D01*
X73504409Y-59496133D02*
X73456790Y-59591371D01*
X73028219Y-58543752D02*
X73028219Y-58734228D01*
X73028219Y-58734228D02*
X73075838Y-58829466D01*
X73075838Y-58829466D02*
X73123457Y-58877085D01*
X73123457Y-58877085D02*
X73266314Y-58972323D01*
X73266314Y-58972323D02*
X73456790Y-59019942D01*
X73456790Y-59019942D02*
X73837742Y-59019942D01*
X73837742Y-59019942D02*
X73932980Y-58972323D01*
X73932980Y-58972323D02*
X73980600Y-58924704D01*
X73980600Y-58924704D02*
X74028219Y-58829466D01*
X74028219Y-58829466D02*
X74028219Y-58638990D01*
X74028219Y-58638990D02*
X73980600Y-58543752D01*
X73980600Y-58543752D02*
X73932980Y-58496133D01*
X73932980Y-58496133D02*
X73837742Y-58448514D01*
X73837742Y-58448514D02*
X73599647Y-58448514D01*
X73599647Y-58448514D02*
X73504409Y-58496133D01*
X73504409Y-58496133D02*
X73456790Y-58543752D01*
X73456790Y-58543752D02*
X73409171Y-58638990D01*
X73409171Y-58638990D02*
X73409171Y-58829466D01*
X73409171Y-58829466D02*
X73456790Y-58924704D01*
X73456790Y-58924704D02*
X73504409Y-58972323D01*
X73504409Y-58972323D02*
X73599647Y-59019942D01*
X66644380Y-60831066D02*
X66692000Y-60878685D01*
X66692000Y-60878685D02*
X66739619Y-61021542D01*
X66739619Y-61021542D02*
X66739619Y-61116780D01*
X66739619Y-61116780D02*
X66692000Y-61259637D01*
X66692000Y-61259637D02*
X66596761Y-61354875D01*
X66596761Y-61354875D02*
X66501523Y-61402494D01*
X66501523Y-61402494D02*
X66311047Y-61450113D01*
X66311047Y-61450113D02*
X66168190Y-61450113D01*
X66168190Y-61450113D02*
X65977714Y-61402494D01*
X65977714Y-61402494D02*
X65882476Y-61354875D01*
X65882476Y-61354875D02*
X65787238Y-61259637D01*
X65787238Y-61259637D02*
X65739619Y-61116780D01*
X65739619Y-61116780D02*
X65739619Y-61021542D01*
X65739619Y-61021542D02*
X65787238Y-60878685D01*
X65787238Y-60878685D02*
X65834857Y-60831066D01*
X66739619Y-59878685D02*
X66739619Y-60450113D01*
X66739619Y-60164399D02*
X65739619Y-60164399D01*
X65739619Y-60164399D02*
X65882476Y-60259637D01*
X65882476Y-60259637D02*
X65977714Y-60354875D01*
X65977714Y-60354875D02*
X66025333Y-60450113D01*
X58572952Y-62450114D02*
X59239619Y-62450114D01*
X58192000Y-62688209D02*
X58906285Y-62926304D01*
X58906285Y-62926304D02*
X58906285Y-62307257D01*
X59192000Y-61878685D02*
X59239619Y-61878685D01*
X59239619Y-61878685D02*
X59334857Y-61926304D01*
X59334857Y-61926304D02*
X59382476Y-61973923D01*
X58239619Y-61545352D02*
X58239619Y-60878686D01*
X58239619Y-60878686D02*
X59239619Y-61307257D01*
X58572952Y-59735828D02*
X59239619Y-59735828D01*
X58668190Y-59735828D02*
X58620571Y-59688209D01*
X58620571Y-59688209D02*
X58572952Y-59592971D01*
X58572952Y-59592971D02*
X58572952Y-59450114D01*
X58572952Y-59450114D02*
X58620571Y-59354876D01*
X58620571Y-59354876D02*
X58715809Y-59307257D01*
X58715809Y-59307257D02*
X59239619Y-59307257D01*
X58715809Y-58497733D02*
X58715809Y-58831066D01*
X59239619Y-58831066D02*
X58239619Y-58831066D01*
X58239619Y-58831066D02*
X58239619Y-58354876D01*
X66088419Y-43430343D02*
X66088419Y-43239867D01*
X66088419Y-43239867D02*
X66040800Y-43144629D01*
X66040800Y-43144629D02*
X65993180Y-43097010D01*
X65993180Y-43097010D02*
X65850323Y-43001772D01*
X65850323Y-43001772D02*
X65659847Y-42954153D01*
X65659847Y-42954153D02*
X65278895Y-42954153D01*
X65278895Y-42954153D02*
X65183657Y-43001772D01*
X65183657Y-43001772D02*
X65136038Y-43049391D01*
X65136038Y-43049391D02*
X65088419Y-43144629D01*
X65088419Y-43144629D02*
X65088419Y-43335105D01*
X65088419Y-43335105D02*
X65136038Y-43430343D01*
X65136038Y-43430343D02*
X65183657Y-43477962D01*
X65183657Y-43477962D02*
X65278895Y-43525581D01*
X65278895Y-43525581D02*
X65516990Y-43525581D01*
X65516990Y-43525581D02*
X65612228Y-43477962D01*
X65612228Y-43477962D02*
X65659847Y-43430343D01*
X65659847Y-43430343D02*
X65707466Y-43335105D01*
X65707466Y-43335105D02*
X65707466Y-43144629D01*
X65707466Y-43144629D02*
X65659847Y-43049391D01*
X65659847Y-43049391D02*
X65612228Y-43001772D01*
X65612228Y-43001772D02*
X65516990Y-42954153D01*
X65088419Y-42668438D02*
X66088419Y-42335105D01*
X66088419Y-42335105D02*
X65088419Y-42001772D01*
X66088419Y-40906533D02*
X65088419Y-40906533D01*
X65088419Y-40906533D02*
X65088419Y-40668438D01*
X65088419Y-40668438D02*
X65136038Y-40525581D01*
X65136038Y-40525581D02*
X65231276Y-40430343D01*
X65231276Y-40430343D02*
X65326514Y-40382724D01*
X65326514Y-40382724D02*
X65516990Y-40335105D01*
X65516990Y-40335105D02*
X65659847Y-40335105D01*
X65659847Y-40335105D02*
X65850323Y-40382724D01*
X65850323Y-40382724D02*
X65945561Y-40430343D01*
X65945561Y-40430343D02*
X66040800Y-40525581D01*
X66040800Y-40525581D02*
X66088419Y-40668438D01*
X66088419Y-40668438D02*
X66088419Y-40906533D01*
X65993180Y-39335105D02*
X66040800Y-39382724D01*
X66040800Y-39382724D02*
X66088419Y-39525581D01*
X66088419Y-39525581D02*
X66088419Y-39620819D01*
X66088419Y-39620819D02*
X66040800Y-39763676D01*
X66040800Y-39763676D02*
X65945561Y-39858914D01*
X65945561Y-39858914D02*
X65850323Y-39906533D01*
X65850323Y-39906533D02*
X65659847Y-39954152D01*
X65659847Y-39954152D02*
X65516990Y-39954152D01*
X65516990Y-39954152D02*
X65326514Y-39906533D01*
X65326514Y-39906533D02*
X65231276Y-39858914D01*
X65231276Y-39858914D02*
X65136038Y-39763676D01*
X65136038Y-39763676D02*
X65088419Y-39620819D01*
X65088419Y-39620819D02*
X65088419Y-39525581D01*
X65088419Y-39525581D02*
X65136038Y-39382724D01*
X65136038Y-39382724D02*
X65183657Y-39335105D01*
X66469371Y-38620819D02*
X66421752Y-38668438D01*
X66421752Y-38668438D02*
X66278895Y-38763676D01*
X66278895Y-38763676D02*
X66183657Y-38811295D01*
X66183657Y-38811295D02*
X66040800Y-38858914D01*
X66040800Y-38858914D02*
X65802704Y-38906533D01*
X65802704Y-38906533D02*
X65612228Y-38906533D01*
X65612228Y-38906533D02*
X65374133Y-38858914D01*
X65374133Y-38858914D02*
X65231276Y-38811295D01*
X65231276Y-38811295D02*
X65136038Y-38763676D01*
X65136038Y-38763676D02*
X64993180Y-38668438D01*
X64993180Y-38668438D02*
X64945561Y-38620819D01*
X66088419Y-38097009D02*
X66040800Y-38192247D01*
X66040800Y-38192247D02*
X65993180Y-38239866D01*
X65993180Y-38239866D02*
X65897942Y-38287485D01*
X65897942Y-38287485D02*
X65612228Y-38287485D01*
X65612228Y-38287485D02*
X65516990Y-38239866D01*
X65516990Y-38239866D02*
X65469371Y-38192247D01*
X65469371Y-38192247D02*
X65421752Y-38097009D01*
X65421752Y-38097009D02*
X65421752Y-37954152D01*
X65421752Y-37954152D02*
X65469371Y-37858914D01*
X65469371Y-37858914D02*
X65516990Y-37811295D01*
X65516990Y-37811295D02*
X65612228Y-37763676D01*
X65612228Y-37763676D02*
X65897942Y-37763676D01*
X65897942Y-37763676D02*
X65993180Y-37811295D01*
X65993180Y-37811295D02*
X66040800Y-37858914D01*
X66040800Y-37858914D02*
X66088419Y-37954152D01*
X66088419Y-37954152D02*
X66088419Y-38097009D01*
X65421752Y-36906533D02*
X66088419Y-36906533D01*
X65421752Y-37335104D02*
X65945561Y-37335104D01*
X65945561Y-37335104D02*
X66040800Y-37287485D01*
X66040800Y-37287485D02*
X66088419Y-37192247D01*
X66088419Y-37192247D02*
X66088419Y-37049390D01*
X66088419Y-37049390D02*
X66040800Y-36954152D01*
X66040800Y-36954152D02*
X65993180Y-36906533D01*
X65421752Y-36573199D02*
X65421752Y-36192247D01*
X65088419Y-36430342D02*
X65945561Y-36430342D01*
X65945561Y-36430342D02*
X66040800Y-36382723D01*
X66040800Y-36382723D02*
X66088419Y-36287485D01*
X66088419Y-36287485D02*
X66088419Y-36192247D01*
X66469371Y-35954151D02*
X66421752Y-35906532D01*
X66421752Y-35906532D02*
X66278895Y-35811294D01*
X66278895Y-35811294D02*
X66183657Y-35763675D01*
X66183657Y-35763675D02*
X66040800Y-35716056D01*
X66040800Y-35716056D02*
X65802704Y-35668437D01*
X65802704Y-35668437D02*
X65612228Y-35668437D01*
X65612228Y-35668437D02*
X65374133Y-35716056D01*
X65374133Y-35716056D02*
X65231276Y-35763675D01*
X65231276Y-35763675D02*
X65136038Y-35811294D01*
X65136038Y-35811294D02*
X64993180Y-35906532D01*
X64993180Y-35906532D02*
X64945561Y-35954151D01*
X54826819Y-44620819D02*
X54826819Y-44430343D01*
X54826819Y-44430343D02*
X54874438Y-44335105D01*
X54874438Y-44335105D02*
X54969676Y-44239867D01*
X54969676Y-44239867D02*
X55160152Y-44192248D01*
X55160152Y-44192248D02*
X55493485Y-44192248D01*
X55493485Y-44192248D02*
X55683961Y-44239867D01*
X55683961Y-44239867D02*
X55779200Y-44335105D01*
X55779200Y-44335105D02*
X55826819Y-44430343D01*
X55826819Y-44430343D02*
X55826819Y-44620819D01*
X55826819Y-44620819D02*
X55779200Y-44716057D01*
X55779200Y-44716057D02*
X55683961Y-44811295D01*
X55683961Y-44811295D02*
X55493485Y-44858914D01*
X55493485Y-44858914D02*
X55160152Y-44858914D01*
X55160152Y-44858914D02*
X54969676Y-44811295D01*
X54969676Y-44811295D02*
X54874438Y-44716057D01*
X54874438Y-44716057D02*
X54826819Y-44620819D01*
X55160152Y-43335105D02*
X55826819Y-43335105D01*
X55160152Y-43763676D02*
X55683961Y-43763676D01*
X55683961Y-43763676D02*
X55779200Y-43716057D01*
X55779200Y-43716057D02*
X55826819Y-43620819D01*
X55826819Y-43620819D02*
X55826819Y-43477962D01*
X55826819Y-43477962D02*
X55779200Y-43382724D01*
X55779200Y-43382724D02*
X55731580Y-43335105D01*
X55160152Y-43001771D02*
X55160152Y-42620819D01*
X54826819Y-42858914D02*
X55683961Y-42858914D01*
X55683961Y-42858914D02*
X55779200Y-42811295D01*
X55779200Y-42811295D02*
X55826819Y-42716057D01*
X55826819Y-42716057D02*
X55826819Y-42620819D01*
X55160152Y-42287485D02*
X56160152Y-42287485D01*
X55207771Y-42287485D02*
X55160152Y-42192247D01*
X55160152Y-42192247D02*
X55160152Y-42001771D01*
X55160152Y-42001771D02*
X55207771Y-41906533D01*
X55207771Y-41906533D02*
X55255390Y-41858914D01*
X55255390Y-41858914D02*
X55350628Y-41811295D01*
X55350628Y-41811295D02*
X55636342Y-41811295D01*
X55636342Y-41811295D02*
X55731580Y-41858914D01*
X55731580Y-41858914D02*
X55779200Y-41906533D01*
X55779200Y-41906533D02*
X55826819Y-42001771D01*
X55826819Y-42001771D02*
X55826819Y-42192247D01*
X55826819Y-42192247D02*
X55779200Y-42287485D01*
X55160152Y-40954152D02*
X55826819Y-40954152D01*
X55160152Y-41382723D02*
X55683961Y-41382723D01*
X55683961Y-41382723D02*
X55779200Y-41335104D01*
X55779200Y-41335104D02*
X55826819Y-41239866D01*
X55826819Y-41239866D02*
X55826819Y-41097009D01*
X55826819Y-41097009D02*
X55779200Y-41001771D01*
X55779200Y-41001771D02*
X55731580Y-40954152D01*
X55160152Y-40620818D02*
X55160152Y-40239866D01*
X54826819Y-40477961D02*
X55683961Y-40477961D01*
X55683961Y-40477961D02*
X55779200Y-40430342D01*
X55779200Y-40430342D02*
X55826819Y-40335104D01*
X55826819Y-40335104D02*
X55826819Y-40239866D01*
X56207771Y-38858913D02*
X56160152Y-38906532D01*
X56160152Y-38906532D02*
X56017295Y-39001770D01*
X56017295Y-39001770D02*
X55922057Y-39049389D01*
X55922057Y-39049389D02*
X55779200Y-39097008D01*
X55779200Y-39097008D02*
X55541104Y-39144627D01*
X55541104Y-39144627D02*
X55350628Y-39144627D01*
X55350628Y-39144627D02*
X55112533Y-39097008D01*
X55112533Y-39097008D02*
X54969676Y-39049389D01*
X54969676Y-39049389D02*
X54874438Y-39001770D01*
X54874438Y-39001770D02*
X54731580Y-38906532D01*
X54731580Y-38906532D02*
X54683961Y-38858913D01*
X55826819Y-38477960D02*
X54826819Y-38477960D01*
X54826819Y-38477960D02*
X55541104Y-38144627D01*
X55541104Y-38144627D02*
X54826819Y-37811294D01*
X54826819Y-37811294D02*
X55826819Y-37811294D01*
X55826819Y-37335103D02*
X54826819Y-37335103D01*
X55731580Y-36287485D02*
X55779200Y-36335104D01*
X55779200Y-36335104D02*
X55826819Y-36477961D01*
X55826819Y-36477961D02*
X55826819Y-36573199D01*
X55826819Y-36573199D02*
X55779200Y-36716056D01*
X55779200Y-36716056D02*
X55683961Y-36811294D01*
X55683961Y-36811294D02*
X55588723Y-36858913D01*
X55588723Y-36858913D02*
X55398247Y-36906532D01*
X55398247Y-36906532D02*
X55255390Y-36906532D01*
X55255390Y-36906532D02*
X55064914Y-36858913D01*
X55064914Y-36858913D02*
X54969676Y-36811294D01*
X54969676Y-36811294D02*
X54874438Y-36716056D01*
X54874438Y-36716056D02*
X54826819Y-36573199D01*
X54826819Y-36573199D02*
X54826819Y-36477961D01*
X54826819Y-36477961D02*
X54874438Y-36335104D01*
X54874438Y-36335104D02*
X54922057Y-36287485D01*
X56207771Y-35954151D02*
X56160152Y-35906532D01*
X56160152Y-35906532D02*
X56017295Y-35811294D01*
X56017295Y-35811294D02*
X55922057Y-35763675D01*
X55922057Y-35763675D02*
X55779200Y-35716056D01*
X55779200Y-35716056D02*
X55541104Y-35668437D01*
X55541104Y-35668437D02*
X55350628Y-35668437D01*
X55350628Y-35668437D02*
X55112533Y-35716056D01*
X55112533Y-35716056D02*
X54969676Y-35763675D01*
X54969676Y-35763675D02*
X54874438Y-35811294D01*
X54874438Y-35811294D02*
X54731580Y-35906532D01*
X54731580Y-35906532D02*
X54683961Y-35954151D01*
X68120419Y-84586342D02*
X68120419Y-84395866D01*
X68120419Y-84395866D02*
X68072800Y-84300628D01*
X68072800Y-84300628D02*
X68025180Y-84253009D01*
X68025180Y-84253009D02*
X67882323Y-84157771D01*
X67882323Y-84157771D02*
X67691847Y-84110152D01*
X67691847Y-84110152D02*
X67310895Y-84110152D01*
X67310895Y-84110152D02*
X67215657Y-84157771D01*
X67215657Y-84157771D02*
X67168038Y-84205390D01*
X67168038Y-84205390D02*
X67120419Y-84300628D01*
X67120419Y-84300628D02*
X67120419Y-84491104D01*
X67120419Y-84491104D02*
X67168038Y-84586342D01*
X67168038Y-84586342D02*
X67215657Y-84633961D01*
X67215657Y-84633961D02*
X67310895Y-84681580D01*
X67310895Y-84681580D02*
X67548990Y-84681580D01*
X67548990Y-84681580D02*
X67644228Y-84633961D01*
X67644228Y-84633961D02*
X67691847Y-84586342D01*
X67691847Y-84586342D02*
X67739466Y-84491104D01*
X67739466Y-84491104D02*
X67739466Y-84300628D01*
X67739466Y-84300628D02*
X67691847Y-84205390D01*
X67691847Y-84205390D02*
X67644228Y-84157771D01*
X67644228Y-84157771D02*
X67548990Y-84110152D01*
X67120419Y-83824437D02*
X68120419Y-83491104D01*
X68120419Y-83491104D02*
X67120419Y-83157771D01*
X68120419Y-82062532D02*
X67120419Y-82062532D01*
X67120419Y-82062532D02*
X67120419Y-81824437D01*
X67120419Y-81824437D02*
X67168038Y-81681580D01*
X67168038Y-81681580D02*
X67263276Y-81586342D01*
X67263276Y-81586342D02*
X67358514Y-81538723D01*
X67358514Y-81538723D02*
X67548990Y-81491104D01*
X67548990Y-81491104D02*
X67691847Y-81491104D01*
X67691847Y-81491104D02*
X67882323Y-81538723D01*
X67882323Y-81538723D02*
X67977561Y-81586342D01*
X67977561Y-81586342D02*
X68072800Y-81681580D01*
X68072800Y-81681580D02*
X68120419Y-81824437D01*
X68120419Y-81824437D02*
X68120419Y-82062532D01*
X68025180Y-80491104D02*
X68072800Y-80538723D01*
X68072800Y-80538723D02*
X68120419Y-80681580D01*
X68120419Y-80681580D02*
X68120419Y-80776818D01*
X68120419Y-80776818D02*
X68072800Y-80919675D01*
X68072800Y-80919675D02*
X67977561Y-81014913D01*
X67977561Y-81014913D02*
X67882323Y-81062532D01*
X67882323Y-81062532D02*
X67691847Y-81110151D01*
X67691847Y-81110151D02*
X67548990Y-81110151D01*
X67548990Y-81110151D02*
X67358514Y-81062532D01*
X67358514Y-81062532D02*
X67263276Y-81014913D01*
X67263276Y-81014913D02*
X67168038Y-80919675D01*
X67168038Y-80919675D02*
X67120419Y-80776818D01*
X67120419Y-80776818D02*
X67120419Y-80681580D01*
X67120419Y-80681580D02*
X67168038Y-80538723D01*
X67168038Y-80538723D02*
X67215657Y-80491104D01*
X68501371Y-79776818D02*
X68453752Y-79824437D01*
X68453752Y-79824437D02*
X68310895Y-79919675D01*
X68310895Y-79919675D02*
X68215657Y-79967294D01*
X68215657Y-79967294D02*
X68072800Y-80014913D01*
X68072800Y-80014913D02*
X67834704Y-80062532D01*
X67834704Y-80062532D02*
X67644228Y-80062532D01*
X67644228Y-80062532D02*
X67406133Y-80014913D01*
X67406133Y-80014913D02*
X67263276Y-79967294D01*
X67263276Y-79967294D02*
X67168038Y-79919675D01*
X67168038Y-79919675D02*
X67025180Y-79824437D01*
X67025180Y-79824437D02*
X66977561Y-79776818D01*
X68120419Y-79395865D02*
X67453752Y-79395865D01*
X67120419Y-79395865D02*
X67168038Y-79443484D01*
X67168038Y-79443484D02*
X67215657Y-79395865D01*
X67215657Y-79395865D02*
X67168038Y-79348246D01*
X67168038Y-79348246D02*
X67120419Y-79395865D01*
X67120419Y-79395865D02*
X67215657Y-79395865D01*
X67453752Y-78919675D02*
X68120419Y-78919675D01*
X67548990Y-78919675D02*
X67501371Y-78872056D01*
X67501371Y-78872056D02*
X67453752Y-78776818D01*
X67453752Y-78776818D02*
X67453752Y-78633961D01*
X67453752Y-78633961D02*
X67501371Y-78538723D01*
X67501371Y-78538723D02*
X67596609Y-78491104D01*
X67596609Y-78491104D02*
X68120419Y-78491104D01*
X68501371Y-78110151D02*
X68453752Y-78062532D01*
X68453752Y-78062532D02*
X68310895Y-77967294D01*
X68310895Y-77967294D02*
X68215657Y-77919675D01*
X68215657Y-77919675D02*
X68072800Y-77872056D01*
X68072800Y-77872056D02*
X67834704Y-77824437D01*
X67834704Y-77824437D02*
X67644228Y-77824437D01*
X67644228Y-77824437D02*
X67406133Y-77872056D01*
X67406133Y-77872056D02*
X67263276Y-77919675D01*
X67263276Y-77919675D02*
X67168038Y-77967294D01*
X67168038Y-77967294D02*
X67025180Y-78062532D01*
X67025180Y-78062532D02*
X66977561Y-78110151D01*
D11*
X57525766Y-65980019D02*
X57525766Y-66694304D01*
X57525766Y-66694304D02*
X57478147Y-66837161D01*
X57478147Y-66837161D02*
X57382909Y-66932400D01*
X57382909Y-66932400D02*
X57240052Y-66980019D01*
X57240052Y-66980019D02*
X57144814Y-66980019D01*
X57954338Y-66075257D02*
X58001957Y-66027638D01*
X58001957Y-66027638D02*
X58097195Y-65980019D01*
X58097195Y-65980019D02*
X58335290Y-65980019D01*
X58335290Y-65980019D02*
X58430528Y-66027638D01*
X58430528Y-66027638D02*
X58478147Y-66075257D01*
X58478147Y-66075257D02*
X58525766Y-66170495D01*
X58525766Y-66170495D02*
X58525766Y-66265733D01*
X58525766Y-66265733D02*
X58478147Y-66408590D01*
X58478147Y-66408590D02*
X57906719Y-66980019D01*
X57906719Y-66980019D02*
X58525766Y-66980019D01*
D10*
X52118419Y-84633961D02*
X51118419Y-84633961D01*
X51451752Y-84157771D02*
X52118419Y-84157771D01*
X51546990Y-84157771D02*
X51499371Y-84110152D01*
X51499371Y-84110152D02*
X51451752Y-84014914D01*
X51451752Y-84014914D02*
X51451752Y-83872057D01*
X51451752Y-83872057D02*
X51499371Y-83776819D01*
X51499371Y-83776819D02*
X51594609Y-83729200D01*
X51594609Y-83729200D02*
X52118419Y-83729200D01*
X51451752Y-83253009D02*
X52451752Y-83253009D01*
X51499371Y-83253009D02*
X51451752Y-83157771D01*
X51451752Y-83157771D02*
X51451752Y-82967295D01*
X51451752Y-82967295D02*
X51499371Y-82872057D01*
X51499371Y-82872057D02*
X51546990Y-82824438D01*
X51546990Y-82824438D02*
X51642228Y-82776819D01*
X51642228Y-82776819D02*
X51927942Y-82776819D01*
X51927942Y-82776819D02*
X52023180Y-82824438D01*
X52023180Y-82824438D02*
X52070800Y-82872057D01*
X52070800Y-82872057D02*
X52118419Y-82967295D01*
X52118419Y-82967295D02*
X52118419Y-83157771D01*
X52118419Y-83157771D02*
X52070800Y-83253009D01*
X51451752Y-81919676D02*
X52118419Y-81919676D01*
X51451752Y-82348247D02*
X51975561Y-82348247D01*
X51975561Y-82348247D02*
X52070800Y-82300628D01*
X52070800Y-82300628D02*
X52118419Y-82205390D01*
X52118419Y-82205390D02*
X52118419Y-82062533D01*
X52118419Y-82062533D02*
X52070800Y-81967295D01*
X52070800Y-81967295D02*
X52023180Y-81919676D01*
X51451752Y-81586342D02*
X51451752Y-81205390D01*
X51118419Y-81443485D02*
X51975561Y-81443485D01*
X51975561Y-81443485D02*
X52070800Y-81395866D01*
X52070800Y-81395866D02*
X52118419Y-81300628D01*
X52118419Y-81300628D02*
X52118419Y-81205390D01*
X52499371Y-79824437D02*
X52451752Y-79872056D01*
X52451752Y-79872056D02*
X52308895Y-79967294D01*
X52308895Y-79967294D02*
X52213657Y-80014913D01*
X52213657Y-80014913D02*
X52070800Y-80062532D01*
X52070800Y-80062532D02*
X51832704Y-80110151D01*
X51832704Y-80110151D02*
X51642228Y-80110151D01*
X51642228Y-80110151D02*
X51404133Y-80062532D01*
X51404133Y-80062532D02*
X51261276Y-80014913D01*
X51261276Y-80014913D02*
X51166038Y-79967294D01*
X51166038Y-79967294D02*
X51023180Y-79872056D01*
X51023180Y-79872056D02*
X50975561Y-79824437D01*
X52118419Y-79443484D02*
X51118419Y-79443484D01*
X51118419Y-79443484D02*
X51832704Y-79110151D01*
X51832704Y-79110151D02*
X51118419Y-78776818D01*
X51118419Y-78776818D02*
X52118419Y-78776818D01*
X52118419Y-78300627D02*
X51118419Y-78300627D01*
X52023180Y-77253009D02*
X52070800Y-77300628D01*
X52070800Y-77300628D02*
X52118419Y-77443485D01*
X52118419Y-77443485D02*
X52118419Y-77538723D01*
X52118419Y-77538723D02*
X52070800Y-77681580D01*
X52070800Y-77681580D02*
X51975561Y-77776818D01*
X51975561Y-77776818D02*
X51880323Y-77824437D01*
X51880323Y-77824437D02*
X51689847Y-77872056D01*
X51689847Y-77872056D02*
X51546990Y-77872056D01*
X51546990Y-77872056D02*
X51356514Y-77824437D01*
X51356514Y-77824437D02*
X51261276Y-77776818D01*
X51261276Y-77776818D02*
X51166038Y-77681580D01*
X51166038Y-77681580D02*
X51118419Y-77538723D01*
X51118419Y-77538723D02*
X51118419Y-77443485D01*
X51118419Y-77443485D02*
X51166038Y-77300628D01*
X51166038Y-77300628D02*
X51213657Y-77253009D01*
X52499371Y-76919675D02*
X52451752Y-76872056D01*
X52451752Y-76872056D02*
X52308895Y-76776818D01*
X52308895Y-76776818D02*
X52213657Y-76729199D01*
X52213657Y-76729199D02*
X52070800Y-76681580D01*
X52070800Y-76681580D02*
X51832704Y-76633961D01*
X51832704Y-76633961D02*
X51642228Y-76633961D01*
X51642228Y-76633961D02*
X51404133Y-76681580D01*
X51404133Y-76681580D02*
X51261276Y-76729199D01*
X51261276Y-76729199D02*
X51166038Y-76776818D01*
X51166038Y-76776818D02*
X51023180Y-76872056D01*
X51023180Y-76872056D02*
X50975561Y-76919675D01*
D12*
%TO.C,R1*%
X74039600Y-51308000D02*
X74809600Y-51308000D01*
X74809600Y-49938000D02*
X74809600Y-52678000D01*
X74809600Y-52678000D02*
X81349600Y-52678000D01*
X81349600Y-49938000D02*
X74809600Y-49938000D01*
X81349600Y-52678000D02*
X81349600Y-49938000D01*
X82119600Y-51308000D02*
X81349600Y-51308000D01*
%TO.C,HT1*%
X46080600Y-35407600D02*
X46080600Y-36677600D01*
X44810600Y-35407600D02*
X46080600Y-35407600D01*
X42650600Y-37720529D02*
X42650600Y-38117600D01*
X41890600Y-37720529D02*
X41890600Y-38117600D01*
X45190600Y-37787600D02*
X45190600Y-38117600D01*
X44430600Y-37787600D02*
X44430600Y-38117600D01*
X46140600Y-38117600D02*
X40940600Y-38117600D01*
X43540600Y-38117600D02*
X43540600Y-40777600D01*
X40940600Y-38117600D02*
X40940600Y-40777600D01*
X46140600Y-40777600D02*
X46140600Y-38117600D01*
X45190600Y-40777600D02*
X45190600Y-46777600D01*
X45130600Y-40777600D02*
X45130600Y-46777600D01*
X45010600Y-40777600D02*
X45010600Y-46777600D01*
X44890600Y-40777600D02*
X44890600Y-46777600D01*
X44770600Y-40777600D02*
X44770600Y-46777600D01*
X44650600Y-40777600D02*
X44650600Y-46777600D01*
X44530600Y-40777600D02*
X44530600Y-46777600D01*
X42650600Y-40777600D02*
X42650600Y-46777600D01*
X40940600Y-40777600D02*
X46140600Y-40777600D01*
X45190600Y-46777600D02*
X44430600Y-46777600D01*
X44430600Y-46777600D02*
X44430600Y-40777600D01*
X42650600Y-46777600D02*
X41890600Y-46777600D01*
X41890600Y-46777600D02*
X41890600Y-40777600D01*
%TO.C,C2*%
X84362125Y-55421000D02*
X84862125Y-55421000D01*
X84612125Y-55171000D02*
X84612125Y-55671000D01*
X87166900Y-54316000D02*
X87166900Y-59476000D01*
X87206900Y-54316000D02*
X87206900Y-59476000D01*
X87246900Y-54317000D02*
X87246900Y-59475000D01*
X87286900Y-54318000D02*
X87286900Y-59474000D01*
X87326900Y-54320000D02*
X87326900Y-59472000D01*
X87366900Y-54323000D02*
X87366900Y-59469000D01*
X87406900Y-54327000D02*
X87406900Y-55856000D01*
X87406900Y-57936000D02*
X87406900Y-59465000D01*
X87446900Y-54331000D02*
X87446900Y-55856000D01*
X87446900Y-57936000D02*
X87446900Y-59461000D01*
X87486900Y-54335000D02*
X87486900Y-55856000D01*
X87486900Y-57936000D02*
X87486900Y-59457000D01*
X87526900Y-54340000D02*
X87526900Y-55856000D01*
X87526900Y-57936000D02*
X87526900Y-59452000D01*
X87566900Y-54346000D02*
X87566900Y-55856000D01*
X87566900Y-57936000D02*
X87566900Y-59446000D01*
X87606900Y-54353000D02*
X87606900Y-55856000D01*
X87606900Y-57936000D02*
X87606900Y-59439000D01*
X87646900Y-54360000D02*
X87646900Y-55856000D01*
X87646900Y-57936000D02*
X87646900Y-59432000D01*
X87686900Y-54368000D02*
X87686900Y-55856000D01*
X87686900Y-57936000D02*
X87686900Y-59424000D01*
X87726900Y-54376000D02*
X87726900Y-55856000D01*
X87726900Y-57936000D02*
X87726900Y-59416000D01*
X87766900Y-54385000D02*
X87766900Y-55856000D01*
X87766900Y-57936000D02*
X87766900Y-59407000D01*
X87806900Y-54395000D02*
X87806900Y-55856000D01*
X87806900Y-57936000D02*
X87806900Y-59397000D01*
X87846900Y-54405000D02*
X87846900Y-55856000D01*
X87846900Y-57936000D02*
X87846900Y-59387000D01*
X87887900Y-54416000D02*
X87887900Y-55856000D01*
X87887900Y-57936000D02*
X87887900Y-59376000D01*
X87927900Y-54428000D02*
X87927900Y-55856000D01*
X87927900Y-57936000D02*
X87927900Y-59364000D01*
X87967900Y-54441000D02*
X87967900Y-55856000D01*
X87967900Y-57936000D02*
X87967900Y-59351000D01*
X88007900Y-54454000D02*
X88007900Y-55856000D01*
X88007900Y-57936000D02*
X88007900Y-59338000D01*
X88047900Y-54468000D02*
X88047900Y-55856000D01*
X88047900Y-57936000D02*
X88047900Y-59324000D01*
X88087900Y-54482000D02*
X88087900Y-55856000D01*
X88087900Y-57936000D02*
X88087900Y-59310000D01*
X88127900Y-54498000D02*
X88127900Y-55856000D01*
X88127900Y-57936000D02*
X88127900Y-59294000D01*
X88167900Y-54514000D02*
X88167900Y-55856000D01*
X88167900Y-57936000D02*
X88167900Y-59278000D01*
X88207900Y-54531000D02*
X88207900Y-55856000D01*
X88207900Y-57936000D02*
X88207900Y-59261000D01*
X88247900Y-54548000D02*
X88247900Y-55856000D01*
X88247900Y-57936000D02*
X88247900Y-59244000D01*
X88287900Y-54567000D02*
X88287900Y-55856000D01*
X88287900Y-57936000D02*
X88287900Y-59225000D01*
X88327900Y-54586000D02*
X88327900Y-55856000D01*
X88327900Y-57936000D02*
X88327900Y-59206000D01*
X88367900Y-54606000D02*
X88367900Y-55856000D01*
X88367900Y-57936000D02*
X88367900Y-59186000D01*
X88407900Y-54628000D02*
X88407900Y-55856000D01*
X88407900Y-57936000D02*
X88407900Y-59164000D01*
X88447900Y-54649000D02*
X88447900Y-55856000D01*
X88447900Y-57936000D02*
X88447900Y-59143000D01*
X88487900Y-54672000D02*
X88487900Y-55856000D01*
X88487900Y-57936000D02*
X88487900Y-59120000D01*
X88527900Y-54696000D02*
X88527900Y-55856000D01*
X88527900Y-57936000D02*
X88527900Y-59096000D01*
X88567900Y-54721000D02*
X88567900Y-55856000D01*
X88567900Y-57936000D02*
X88567900Y-59071000D01*
X88607900Y-54747000D02*
X88607900Y-55856000D01*
X88607900Y-57936000D02*
X88607900Y-59045000D01*
X88647900Y-54774000D02*
X88647900Y-55856000D01*
X88647900Y-57936000D02*
X88647900Y-59018000D01*
X88687900Y-54801000D02*
X88687900Y-55856000D01*
X88687900Y-57936000D02*
X88687900Y-58991000D01*
X88727900Y-54831000D02*
X88727900Y-55856000D01*
X88727900Y-57936000D02*
X88727900Y-58961000D01*
X88767900Y-54861000D02*
X88767900Y-55856000D01*
X88767900Y-57936000D02*
X88767900Y-58931000D01*
X88807900Y-54892000D02*
X88807900Y-55856000D01*
X88807900Y-57936000D02*
X88807900Y-58900000D01*
X88847900Y-54925000D02*
X88847900Y-55856000D01*
X88847900Y-57936000D02*
X88847900Y-58867000D01*
X88887900Y-54959000D02*
X88887900Y-55856000D01*
X88887900Y-57936000D02*
X88887900Y-58833000D01*
X88927900Y-54995000D02*
X88927900Y-55856000D01*
X88927900Y-57936000D02*
X88927900Y-58797000D01*
X88967900Y-55032000D02*
X88967900Y-55856000D01*
X88967900Y-57936000D02*
X88967900Y-58760000D01*
X89007900Y-55070000D02*
X89007900Y-55856000D01*
X89007900Y-57936000D02*
X89007900Y-58722000D01*
X89047900Y-55111000D02*
X89047900Y-55856000D01*
X89047900Y-57936000D02*
X89047900Y-58681000D01*
X89087900Y-55153000D02*
X89087900Y-55856000D01*
X89087900Y-57936000D02*
X89087900Y-58639000D01*
X89127900Y-55197000D02*
X89127900Y-55856000D01*
X89127900Y-57936000D02*
X89127900Y-58595000D01*
X89167900Y-55243000D02*
X89167900Y-55856000D01*
X89167900Y-57936000D02*
X89167900Y-58549000D01*
X89207900Y-55291000D02*
X89207900Y-55856000D01*
X89207900Y-57936000D02*
X89207900Y-58501000D01*
X89247900Y-55342000D02*
X89247900Y-55856000D01*
X89247900Y-57936000D02*
X89247900Y-58450000D01*
X89287900Y-55396000D02*
X89287900Y-55856000D01*
X89287900Y-57936000D02*
X89287900Y-58396000D01*
X89327900Y-55453000D02*
X89327900Y-55856000D01*
X89327900Y-57936000D02*
X89327900Y-58339000D01*
X89367900Y-55513000D02*
X89367900Y-55856000D01*
X89367900Y-57936000D02*
X89367900Y-58279000D01*
X89407900Y-55577000D02*
X89407900Y-55856000D01*
X89407900Y-57936000D02*
X89407900Y-58215000D01*
X89447900Y-55645000D02*
X89447900Y-55856000D01*
X89447900Y-57936000D02*
X89447900Y-58147000D01*
X89487900Y-55718000D02*
X89487900Y-58074000D01*
X89527900Y-55798000D02*
X89527900Y-57994000D01*
X89567900Y-55885000D02*
X89567900Y-57907000D01*
X89607900Y-55981000D02*
X89607900Y-57811000D01*
X89647900Y-56091000D02*
X89647900Y-57701000D01*
X89687900Y-56219000D02*
X89687900Y-57573000D01*
X89727900Y-56378000D02*
X89727900Y-57414000D01*
X89767900Y-56612000D02*
X89767900Y-57180000D01*
X89786900Y-56896000D02*
G75*
G03*
X84546900Y-56896000I-2620000J0D01*
G01*
X84546900Y-56896000D02*
G75*
G03*
X89786900Y-56896000I2620000J0D01*
G01*
%TO.C,C3*%
X84392125Y-61941000D02*
X84892125Y-61941000D01*
X84642125Y-61691000D02*
X84642125Y-62191000D01*
X87196900Y-60836000D02*
X87196900Y-65996000D01*
X87236900Y-60836000D02*
X87236900Y-65996000D01*
X87276900Y-60837000D02*
X87276900Y-65995000D01*
X87316900Y-60838000D02*
X87316900Y-65994000D01*
X87356900Y-60840000D02*
X87356900Y-65992000D01*
X87396900Y-60843000D02*
X87396900Y-65989000D01*
X87436900Y-60847000D02*
X87436900Y-62376000D01*
X87436900Y-64456000D02*
X87436900Y-65985000D01*
X87476900Y-60851000D02*
X87476900Y-62376000D01*
X87476900Y-64456000D02*
X87476900Y-65981000D01*
X87516900Y-60855000D02*
X87516900Y-62376000D01*
X87516900Y-64456000D02*
X87516900Y-65977000D01*
X87556900Y-60860000D02*
X87556900Y-62376000D01*
X87556900Y-64456000D02*
X87556900Y-65972000D01*
X87596900Y-60866000D02*
X87596900Y-62376000D01*
X87596900Y-64456000D02*
X87596900Y-65966000D01*
X87636900Y-60873000D02*
X87636900Y-62376000D01*
X87636900Y-64456000D02*
X87636900Y-65959000D01*
X87676900Y-60880000D02*
X87676900Y-62376000D01*
X87676900Y-64456000D02*
X87676900Y-65952000D01*
X87716900Y-60888000D02*
X87716900Y-62376000D01*
X87716900Y-64456000D02*
X87716900Y-65944000D01*
X87756900Y-60896000D02*
X87756900Y-62376000D01*
X87756900Y-64456000D02*
X87756900Y-65936000D01*
X87796900Y-60905000D02*
X87796900Y-62376000D01*
X87796900Y-64456000D02*
X87796900Y-65927000D01*
X87836900Y-60915000D02*
X87836900Y-62376000D01*
X87836900Y-64456000D02*
X87836900Y-65917000D01*
X87876900Y-60925000D02*
X87876900Y-62376000D01*
X87876900Y-64456000D02*
X87876900Y-65907000D01*
X87917900Y-60936000D02*
X87917900Y-62376000D01*
X87917900Y-64456000D02*
X87917900Y-65896000D01*
X87957900Y-60948000D02*
X87957900Y-62376000D01*
X87957900Y-64456000D02*
X87957900Y-65884000D01*
X87997900Y-60961000D02*
X87997900Y-62376000D01*
X87997900Y-64456000D02*
X87997900Y-65871000D01*
X88037900Y-60974000D02*
X88037900Y-62376000D01*
X88037900Y-64456000D02*
X88037900Y-65858000D01*
X88077900Y-60988000D02*
X88077900Y-62376000D01*
X88077900Y-64456000D02*
X88077900Y-65844000D01*
X88117900Y-61002000D02*
X88117900Y-62376000D01*
X88117900Y-64456000D02*
X88117900Y-65830000D01*
X88157900Y-61018000D02*
X88157900Y-62376000D01*
X88157900Y-64456000D02*
X88157900Y-65814000D01*
X88197900Y-61034000D02*
X88197900Y-62376000D01*
X88197900Y-64456000D02*
X88197900Y-65798000D01*
X88237900Y-61051000D02*
X88237900Y-62376000D01*
X88237900Y-64456000D02*
X88237900Y-65781000D01*
X88277900Y-61068000D02*
X88277900Y-62376000D01*
X88277900Y-64456000D02*
X88277900Y-65764000D01*
X88317900Y-61087000D02*
X88317900Y-62376000D01*
X88317900Y-64456000D02*
X88317900Y-65745000D01*
X88357900Y-61106000D02*
X88357900Y-62376000D01*
X88357900Y-64456000D02*
X88357900Y-65726000D01*
X88397900Y-61126000D02*
X88397900Y-62376000D01*
X88397900Y-64456000D02*
X88397900Y-65706000D01*
X88437900Y-61148000D02*
X88437900Y-62376000D01*
X88437900Y-64456000D02*
X88437900Y-65684000D01*
X88477900Y-61169000D02*
X88477900Y-62376000D01*
X88477900Y-64456000D02*
X88477900Y-65663000D01*
X88517900Y-61192000D02*
X88517900Y-62376000D01*
X88517900Y-64456000D02*
X88517900Y-65640000D01*
X88557900Y-61216000D02*
X88557900Y-62376000D01*
X88557900Y-64456000D02*
X88557900Y-65616000D01*
X88597900Y-61241000D02*
X88597900Y-62376000D01*
X88597900Y-64456000D02*
X88597900Y-65591000D01*
X88637900Y-61267000D02*
X88637900Y-62376000D01*
X88637900Y-64456000D02*
X88637900Y-65565000D01*
X88677900Y-61294000D02*
X88677900Y-62376000D01*
X88677900Y-64456000D02*
X88677900Y-65538000D01*
X88717900Y-61321000D02*
X88717900Y-62376000D01*
X88717900Y-64456000D02*
X88717900Y-65511000D01*
X88757900Y-61351000D02*
X88757900Y-62376000D01*
X88757900Y-64456000D02*
X88757900Y-65481000D01*
X88797900Y-61381000D02*
X88797900Y-62376000D01*
X88797900Y-64456000D02*
X88797900Y-65451000D01*
X88837900Y-61412000D02*
X88837900Y-62376000D01*
X88837900Y-64456000D02*
X88837900Y-65420000D01*
X88877900Y-61445000D02*
X88877900Y-62376000D01*
X88877900Y-64456000D02*
X88877900Y-65387000D01*
X88917900Y-61479000D02*
X88917900Y-62376000D01*
X88917900Y-64456000D02*
X88917900Y-65353000D01*
X88957900Y-61515000D02*
X88957900Y-62376000D01*
X88957900Y-64456000D02*
X88957900Y-65317000D01*
X88997900Y-61552000D02*
X88997900Y-62376000D01*
X88997900Y-64456000D02*
X88997900Y-65280000D01*
X89037900Y-61590000D02*
X89037900Y-62376000D01*
X89037900Y-64456000D02*
X89037900Y-65242000D01*
X89077900Y-61631000D02*
X89077900Y-62376000D01*
X89077900Y-64456000D02*
X89077900Y-65201000D01*
X89117900Y-61673000D02*
X89117900Y-62376000D01*
X89117900Y-64456000D02*
X89117900Y-65159000D01*
X89157900Y-61717000D02*
X89157900Y-62376000D01*
X89157900Y-64456000D02*
X89157900Y-65115000D01*
X89197900Y-61763000D02*
X89197900Y-62376000D01*
X89197900Y-64456000D02*
X89197900Y-65069000D01*
X89237900Y-61811000D02*
X89237900Y-62376000D01*
X89237900Y-64456000D02*
X89237900Y-65021000D01*
X89277900Y-61862000D02*
X89277900Y-62376000D01*
X89277900Y-64456000D02*
X89277900Y-64970000D01*
X89317900Y-61916000D02*
X89317900Y-62376000D01*
X89317900Y-64456000D02*
X89317900Y-64916000D01*
X89357900Y-61973000D02*
X89357900Y-62376000D01*
X89357900Y-64456000D02*
X89357900Y-64859000D01*
X89397900Y-62033000D02*
X89397900Y-62376000D01*
X89397900Y-64456000D02*
X89397900Y-64799000D01*
X89437900Y-62097000D02*
X89437900Y-62376000D01*
X89437900Y-64456000D02*
X89437900Y-64735000D01*
X89477900Y-62165000D02*
X89477900Y-62376000D01*
X89477900Y-64456000D02*
X89477900Y-64667000D01*
X89517900Y-62238000D02*
X89517900Y-64594000D01*
X89557900Y-62318000D02*
X89557900Y-64514000D01*
X89597900Y-62405000D02*
X89597900Y-64427000D01*
X89637900Y-62501000D02*
X89637900Y-64331000D01*
X89677900Y-62611000D02*
X89677900Y-64221000D01*
X89717900Y-62739000D02*
X89717900Y-64093000D01*
X89757900Y-62898000D02*
X89757900Y-63934000D01*
X89797900Y-63132000D02*
X89797900Y-63700000D01*
X89816900Y-63416000D02*
G75*
G03*
X84576900Y-63416000I-2620000J0D01*
G01*
X84576900Y-63416000D02*
G75*
G03*
X89816900Y-63416000I2620000J0D01*
G01*
%TO.C,C4*%
X74119800Y-44866675D02*
X74119800Y-44366675D01*
X73869800Y-44616675D02*
X74369800Y-44616675D01*
X73014800Y-42061900D02*
X78174800Y-42061900D01*
X73014800Y-42021900D02*
X78174800Y-42021900D01*
X73015800Y-41981900D02*
X78173800Y-41981900D01*
X73016800Y-41941900D02*
X78172800Y-41941900D01*
X73018800Y-41901900D02*
X78170800Y-41901900D01*
X73021800Y-41861900D02*
X78167800Y-41861900D01*
X73025800Y-41821900D02*
X74554800Y-41821900D01*
X76634800Y-41821900D02*
X78163800Y-41821900D01*
X73029800Y-41781900D02*
X74554800Y-41781900D01*
X76634800Y-41781900D02*
X78159800Y-41781900D01*
X73033800Y-41741900D02*
X74554800Y-41741900D01*
X76634800Y-41741900D02*
X78155800Y-41741900D01*
X73038800Y-41701900D02*
X74554800Y-41701900D01*
X76634800Y-41701900D02*
X78150800Y-41701900D01*
X73044800Y-41661900D02*
X74554800Y-41661900D01*
X76634800Y-41661900D02*
X78144800Y-41661900D01*
X73051800Y-41621900D02*
X74554800Y-41621900D01*
X76634800Y-41621900D02*
X78137800Y-41621900D01*
X73058800Y-41581900D02*
X74554800Y-41581900D01*
X76634800Y-41581900D02*
X78130800Y-41581900D01*
X73066800Y-41541900D02*
X74554800Y-41541900D01*
X76634800Y-41541900D02*
X78122800Y-41541900D01*
X73074800Y-41501900D02*
X74554800Y-41501900D01*
X76634800Y-41501900D02*
X78114800Y-41501900D01*
X73083800Y-41461900D02*
X74554800Y-41461900D01*
X76634800Y-41461900D02*
X78105800Y-41461900D01*
X73093800Y-41421900D02*
X74554800Y-41421900D01*
X76634800Y-41421900D02*
X78095800Y-41421900D01*
X73103800Y-41381900D02*
X74554800Y-41381900D01*
X76634800Y-41381900D02*
X78085800Y-41381900D01*
X73114800Y-41340900D02*
X74554800Y-41340900D01*
X76634800Y-41340900D02*
X78074800Y-41340900D01*
X73126800Y-41300900D02*
X74554800Y-41300900D01*
X76634800Y-41300900D02*
X78062800Y-41300900D01*
X73139800Y-41260900D02*
X74554800Y-41260900D01*
X76634800Y-41260900D02*
X78049800Y-41260900D01*
X73152800Y-41220900D02*
X74554800Y-41220900D01*
X76634800Y-41220900D02*
X78036800Y-41220900D01*
X73166800Y-41180900D02*
X74554800Y-41180900D01*
X76634800Y-41180900D02*
X78022800Y-41180900D01*
X73180800Y-41140900D02*
X74554800Y-41140900D01*
X76634800Y-41140900D02*
X78008800Y-41140900D01*
X73196800Y-41100900D02*
X74554800Y-41100900D01*
X76634800Y-41100900D02*
X77992800Y-41100900D01*
X73212800Y-41060900D02*
X74554800Y-41060900D01*
X76634800Y-41060900D02*
X77976800Y-41060900D01*
X73229800Y-41020900D02*
X74554800Y-41020900D01*
X76634800Y-41020900D02*
X77959800Y-41020900D01*
X73246800Y-40980900D02*
X74554800Y-40980900D01*
X76634800Y-40980900D02*
X77942800Y-40980900D01*
X73265800Y-40940900D02*
X74554800Y-40940900D01*
X76634800Y-40940900D02*
X77923800Y-40940900D01*
X73284800Y-40900900D02*
X74554800Y-40900900D01*
X76634800Y-40900900D02*
X77904800Y-40900900D01*
X73304800Y-40860900D02*
X74554800Y-40860900D01*
X76634800Y-40860900D02*
X77884800Y-40860900D01*
X73326800Y-40820900D02*
X74554800Y-40820900D01*
X76634800Y-40820900D02*
X77862800Y-40820900D01*
X73347800Y-40780900D02*
X74554800Y-40780900D01*
X76634800Y-40780900D02*
X77841800Y-40780900D01*
X73370800Y-40740900D02*
X74554800Y-40740900D01*
X76634800Y-40740900D02*
X77818800Y-40740900D01*
X73394800Y-40700900D02*
X74554800Y-40700900D01*
X76634800Y-40700900D02*
X77794800Y-40700900D01*
X73419800Y-40660900D02*
X74554800Y-40660900D01*
X76634800Y-40660900D02*
X77769800Y-40660900D01*
X73445800Y-40620900D02*
X74554800Y-40620900D01*
X76634800Y-40620900D02*
X77743800Y-40620900D01*
X73472800Y-40580900D02*
X74554800Y-40580900D01*
X76634800Y-40580900D02*
X77716800Y-40580900D01*
X73499800Y-40540900D02*
X74554800Y-40540900D01*
X76634800Y-40540900D02*
X77689800Y-40540900D01*
X73529800Y-40500900D02*
X74554800Y-40500900D01*
X76634800Y-40500900D02*
X77659800Y-40500900D01*
X73559800Y-40460900D02*
X74554800Y-40460900D01*
X76634800Y-40460900D02*
X77629800Y-40460900D01*
X73590800Y-40420900D02*
X74554800Y-40420900D01*
X76634800Y-40420900D02*
X77598800Y-40420900D01*
X73623800Y-40380900D02*
X74554800Y-40380900D01*
X76634800Y-40380900D02*
X77565800Y-40380900D01*
X73657800Y-40340900D02*
X74554800Y-40340900D01*
X76634800Y-40340900D02*
X77531800Y-40340900D01*
X73693800Y-40300900D02*
X74554800Y-40300900D01*
X76634800Y-40300900D02*
X77495800Y-40300900D01*
X73730800Y-40260900D02*
X74554800Y-40260900D01*
X76634800Y-40260900D02*
X77458800Y-40260900D01*
X73768800Y-40220900D02*
X74554800Y-40220900D01*
X76634800Y-40220900D02*
X77420800Y-40220900D01*
X73809800Y-40180900D02*
X74554800Y-40180900D01*
X76634800Y-40180900D02*
X77379800Y-40180900D01*
X73851800Y-40140900D02*
X74554800Y-40140900D01*
X76634800Y-40140900D02*
X77337800Y-40140900D01*
X73895800Y-40100900D02*
X74554800Y-40100900D01*
X76634800Y-40100900D02*
X77293800Y-40100900D01*
X73941800Y-40060900D02*
X74554800Y-40060900D01*
X76634800Y-40060900D02*
X77247800Y-40060900D01*
X73989800Y-40020900D02*
X74554800Y-40020900D01*
X76634800Y-40020900D02*
X77199800Y-40020900D01*
X74040800Y-39980900D02*
X74554800Y-39980900D01*
X76634800Y-39980900D02*
X77148800Y-39980900D01*
X74094800Y-39940900D02*
X74554800Y-39940900D01*
X76634800Y-39940900D02*
X77094800Y-39940900D01*
X74151800Y-39900900D02*
X74554800Y-39900900D01*
X76634800Y-39900900D02*
X77037800Y-39900900D01*
X74211800Y-39860900D02*
X74554800Y-39860900D01*
X76634800Y-39860900D02*
X76977800Y-39860900D01*
X74275800Y-39820900D02*
X74554800Y-39820900D01*
X76634800Y-39820900D02*
X76913800Y-39820900D01*
X74343800Y-39780900D02*
X74554800Y-39780900D01*
X76634800Y-39780900D02*
X76845800Y-39780900D01*
X74416800Y-39740900D02*
X76772800Y-39740900D01*
X74496800Y-39700900D02*
X76692800Y-39700900D01*
X74583800Y-39660900D02*
X76605800Y-39660900D01*
X74679800Y-39620900D02*
X76509800Y-39620900D01*
X74789800Y-39580900D02*
X76399800Y-39580900D01*
X74917800Y-39540900D02*
X76271800Y-39540900D01*
X75076800Y-39500900D02*
X76112800Y-39500900D01*
X75310800Y-39460900D02*
X75878800Y-39460900D01*
X78214800Y-42061900D02*
G75*
G03*
X72974800Y-42061900I-2620000J0D01*
G01*
X72974800Y-42061900D02*
G75*
G03*
X78214800Y-42061900I2620000J0D01*
G01*
%TO.C,C5*%
X66672312Y-44994600D02*
X67122312Y-44994600D01*
X66897312Y-44769600D02*
X66897312Y-45219600D01*
X67089859Y-47389600D02*
G75*
G03*
X67089859Y-45269600I2119741J1060000D01*
G01*
%TO.C,IC1*%
X71162400Y-55676800D02*
X71162400Y-65956800D01*
X71162400Y-65956800D02*
X76462400Y-65956800D01*
X72812400Y-55676800D02*
X71162400Y-55676800D01*
X76462400Y-55676800D02*
X74812400Y-55676800D01*
X76462400Y-65956800D02*
X76462400Y-55676800D01*
X72812400Y-55676800D02*
G75*
G03*
X74812400Y-55676800I1000000J0D01*
G01*
%TO.C,C1*%
X65154800Y-56794400D02*
X63790800Y-56794400D01*
X65154800Y-56794400D02*
X65154800Y-64534400D01*
X61278800Y-56794400D02*
X59914800Y-56794400D01*
X59914800Y-56794400D02*
X59914800Y-64534400D01*
X65154800Y-64534400D02*
X63790800Y-64534400D01*
X61278800Y-64534400D02*
X59914800Y-64534400D01*
%TO.C,J3*%
X58770600Y-46691400D02*
X58770600Y-45421400D01*
X60040600Y-46691400D02*
X58770600Y-46691400D01*
X62200600Y-44378471D02*
X62200600Y-43981400D01*
X62960600Y-44378471D02*
X62960600Y-43981400D01*
X59660600Y-44311400D02*
X59660600Y-43981400D01*
X60420600Y-44311400D02*
X60420600Y-43981400D01*
X58710600Y-43981400D02*
X63910600Y-43981400D01*
X61310600Y-43981400D02*
X61310600Y-41321400D01*
X63910600Y-43981400D02*
X63910600Y-41321400D01*
X58710600Y-41321400D02*
X58710600Y-43981400D01*
X59660600Y-41321400D02*
X59660600Y-35321400D01*
X59720600Y-41321400D02*
X59720600Y-35321400D01*
X59840600Y-41321400D02*
X59840600Y-35321400D01*
X59960600Y-41321400D02*
X59960600Y-35321400D01*
X60080600Y-41321400D02*
X60080600Y-35321400D01*
X60200600Y-41321400D02*
X60200600Y-35321400D01*
X60320600Y-41321400D02*
X60320600Y-35321400D01*
X62200600Y-41321400D02*
X62200600Y-35321400D01*
X63910600Y-41321400D02*
X58710600Y-41321400D01*
X59660600Y-35321400D02*
X60420600Y-35321400D01*
X60420600Y-35321400D02*
X60420600Y-41321400D01*
X62200600Y-35321400D02*
X62960600Y-35321400D01*
X62960600Y-35321400D02*
X62960600Y-41321400D01*
%TO.C,MIC1*%
X48509000Y-46691400D02*
X48509000Y-45421400D01*
X49779000Y-46691400D02*
X48509000Y-46691400D01*
X51939000Y-44378471D02*
X51939000Y-43981400D01*
X52699000Y-44378471D02*
X52699000Y-43981400D01*
X49399000Y-44311400D02*
X49399000Y-43981400D01*
X50159000Y-44311400D02*
X50159000Y-43981400D01*
X48449000Y-43981400D02*
X53649000Y-43981400D01*
X51049000Y-43981400D02*
X51049000Y-41321400D01*
X53649000Y-43981400D02*
X53649000Y-41321400D01*
X48449000Y-41321400D02*
X48449000Y-43981400D01*
X49399000Y-41321400D02*
X49399000Y-35321400D01*
X49459000Y-41321400D02*
X49459000Y-35321400D01*
X49579000Y-41321400D02*
X49579000Y-35321400D01*
X49699000Y-41321400D02*
X49699000Y-35321400D01*
X49819000Y-41321400D02*
X49819000Y-35321400D01*
X49939000Y-41321400D02*
X49939000Y-35321400D01*
X50059000Y-41321400D02*
X50059000Y-35321400D01*
X51939000Y-41321400D02*
X51939000Y-35321400D01*
X53649000Y-41321400D02*
X48449000Y-41321400D01*
X49399000Y-35321400D02*
X50159000Y-35321400D01*
X50159000Y-35321400D02*
X50159000Y-41321400D01*
X51939000Y-35321400D02*
X52699000Y-35321400D01*
X52699000Y-35321400D02*
X52699000Y-41321400D01*
%TO.C,J1*%
X68861600Y-70221600D02*
X68861600Y-71521600D01*
X69161600Y-70521600D02*
X71161600Y-70521600D01*
X69161600Y-85021600D02*
X69161600Y-70521600D01*
X70561600Y-70221600D02*
X68861600Y-70221600D01*
X76361600Y-70521600D02*
X78361600Y-70521600D01*
X78361600Y-70521600D02*
X78361600Y-71821600D01*
X78361600Y-76421600D02*
X78361600Y-85021600D01*
X78361600Y-85021600D02*
X69161600Y-85021600D01*
%TO.C,P2*%
X45354400Y-71838801D02*
G75*
G03*
X43073519Y-71898410I-1006000J-5173999D01*
G01*
X45622400Y-82126799D02*
G75*
G03*
X47736874Y-72976179I-1274000J5113999D01*
G01*
X40687400Y-73221800D02*
G75*
G03*
X39079043Y-77104830I3661000J-3791000D01*
G01*
X39078401Y-77012800D02*
G75*
G03*
X42807601Y-82052525I5269999J0D01*
G01*
%TO.C,J2*%
X52939100Y-69007600D02*
X52939100Y-70307600D01*
X53239100Y-69307600D02*
X55239100Y-69307600D01*
X53259100Y-85037600D02*
X53259100Y-69337600D01*
X54639100Y-69007600D02*
X52939100Y-69007600D01*
X60439100Y-69327600D02*
X62439100Y-69327600D01*
X62579100Y-74047600D02*
X62579100Y-85037600D01*
X62579100Y-85037600D02*
X53259100Y-85037600D01*
%TO.C,REF\u002A\u002A*%
D13*
X51089430Y-54739907D02*
X51163532Y-54740271D01*
X51220304Y-54741076D01*
X51262368Y-54742487D01*
X51292348Y-54744667D01*
X51312867Y-54747779D01*
X51326549Y-54751986D01*
X51336016Y-54757452D01*
X51340682Y-54761328D01*
X51361175Y-54792766D01*
X51360339Y-54828567D01*
X51342864Y-54859927D01*
X51321284Y-54886578D01*
X50673827Y-54886578D01*
X50652247Y-54859927D01*
X50636549Y-54834206D01*
X50630667Y-54813200D01*
X50637477Y-54790186D01*
X50652247Y-54766473D01*
X50673827Y-54739822D01*
X50995373Y-54739822D01*
X51089430Y-54739907D01*
G36*
X51089430Y-54739907D02*
G01*
X51163532Y-54740271D01*
X51220304Y-54741076D01*
X51262368Y-54742487D01*
X51292348Y-54744667D01*
X51312867Y-54747779D01*
X51326549Y-54751986D01*
X51336016Y-54757452D01*
X51340682Y-54761328D01*
X51361175Y-54792766D01*
X51360339Y-54828567D01*
X51342864Y-54859927D01*
X51321284Y-54886578D01*
X50673827Y-54886578D01*
X50652247Y-54859927D01*
X50636549Y-54834206D01*
X50630667Y-54813200D01*
X50637477Y-54790186D01*
X50652247Y-54766473D01*
X50673827Y-54739822D01*
X50995373Y-54739822D01*
X51089430Y-54739907D01*
G37*
X51091402Y-61880114D02*
X51165289Y-61880438D01*
X51221832Y-61881186D01*
X51263649Y-61882532D01*
X51293357Y-61884646D01*
X51313573Y-61887700D01*
X51326914Y-61891866D01*
X51335998Y-61897316D01*
X51341867Y-61902622D01*
X51361547Y-61935626D01*
X51359781Y-61970791D01*
X51338317Y-62002255D01*
X51329937Y-62009484D01*
X51320214Y-62015134D01*
X51306461Y-62019399D01*
X51285989Y-62022473D01*
X51256112Y-62024552D01*
X51214141Y-62025830D01*
X51157389Y-62026501D01*
X51083167Y-62026759D01*
X50999137Y-62026800D01*
X50686085Y-62026800D01*
X50658376Y-61999091D01*
X50635063Y-61964937D01*
X50634223Y-61931806D01*
X50653245Y-61902622D01*
X50660818Y-61896042D01*
X50670587Y-61890879D01*
X50685171Y-61886964D01*
X50707185Y-61884124D01*
X50739248Y-61882187D01*
X50783975Y-61880983D01*
X50843985Y-61880339D01*
X50921894Y-61880084D01*
X50997556Y-61880045D01*
X51091402Y-61880114D01*
G36*
X51091402Y-61880114D02*
G01*
X51165289Y-61880438D01*
X51221832Y-61881186D01*
X51263649Y-61882532D01*
X51293357Y-61884646D01*
X51313573Y-61887700D01*
X51326914Y-61891866D01*
X51335998Y-61897316D01*
X51341867Y-61902622D01*
X51361547Y-61935626D01*
X51359781Y-61970791D01*
X51338317Y-62002255D01*
X51329937Y-62009484D01*
X51320214Y-62015134D01*
X51306461Y-62019399D01*
X51285989Y-62022473D01*
X51256112Y-62024552D01*
X51214141Y-62025830D01*
X51157389Y-62026501D01*
X51083167Y-62026759D01*
X50999137Y-62026800D01*
X50686085Y-62026800D01*
X50658376Y-61999091D01*
X50635063Y-61964937D01*
X50634223Y-61931806D01*
X50653245Y-61902622D01*
X50660818Y-61896042D01*
X50670587Y-61890879D01*
X50685171Y-61886964D01*
X50707185Y-61884124D01*
X50739248Y-61882187D01*
X50783975Y-61880983D01*
X50843985Y-61880339D01*
X50921894Y-61880084D01*
X50997556Y-61880045D01*
X51091402Y-61880114D01*
G37*
X45966254Y-60870940D02*
X46054111Y-60904640D01*
X46133370Y-60955328D01*
X46201436Y-61021145D01*
X46255712Y-61100234D01*
X46293602Y-61190734D01*
X46306026Y-61242000D01*
X46313547Y-61286498D01*
X46316519Y-61320799D01*
X46314694Y-61353760D01*
X46307825Y-61394234D01*
X46300850Y-61427331D01*
X46269341Y-61520747D01*
X46218217Y-61604419D01*
X46149029Y-61676465D01*
X46063328Y-61735000D01*
X46036089Y-61748948D01*
X45999722Y-61765386D01*
X45969182Y-61775694D01*
X45937050Y-61781260D01*
X45895907Y-61783469D01*
X45849822Y-61783748D01*
X45765465Y-61779661D01*
X45696186Y-61766246D01*
X45635561Y-61741056D01*
X45577167Y-61701646D01*
X45532902Y-61663098D01*
X45467084Y-61591206D01*
X45421653Y-61516113D01*
X45394450Y-61433362D01*
X45384176Y-61355728D01*
X45388171Y-61251843D01*
X45412409Y-61155568D01*
X45455241Y-61068984D01*
X45515019Y-60994173D01*
X45590094Y-60933218D01*
X45678820Y-60888199D01*
X45775130Y-60861936D01*
X45872395Y-60856086D01*
X45966254Y-60870940D01*
G36*
X45966254Y-60870940D02*
G01*
X46054111Y-60904640D01*
X46133370Y-60955328D01*
X46201436Y-61021145D01*
X46255712Y-61100234D01*
X46293602Y-61190734D01*
X46306026Y-61242000D01*
X46313547Y-61286498D01*
X46316519Y-61320799D01*
X46314694Y-61353760D01*
X46307825Y-61394234D01*
X46300850Y-61427331D01*
X46269341Y-61520747D01*
X46218217Y-61604419D01*
X46149029Y-61676465D01*
X46063328Y-61735000D01*
X46036089Y-61748948D01*
X45999722Y-61765386D01*
X45969182Y-61775694D01*
X45937050Y-61781260D01*
X45895907Y-61783469D01*
X45849822Y-61783748D01*
X45765465Y-61779661D01*
X45696186Y-61766246D01*
X45635561Y-61741056D01*
X45577167Y-61701646D01*
X45532902Y-61663098D01*
X45467084Y-61591206D01*
X45421653Y-61516113D01*
X45394450Y-61433362D01*
X45384176Y-61355728D01*
X45388171Y-61251843D01*
X45412409Y-61155568D01*
X45455241Y-61068984D01*
X45515019Y-60994173D01*
X45590094Y-60933218D01*
X45678820Y-60888199D01*
X45775130Y-60861936D01*
X45872395Y-60856086D01*
X45966254Y-60870940D01*
G37*
X50747426Y-53730089D02*
X50759689Y-53740452D01*
X50768050Y-53751604D01*
X50773257Y-53767765D01*
X50776057Y-53793158D01*
X50777196Y-53832002D01*
X50777421Y-53888520D01*
X50777422Y-53899620D01*
X50777422Y-54045556D01*
X51048356Y-54045556D01*
X51133754Y-54045652D01*
X51199464Y-54046089D01*
X51248374Y-54047088D01*
X51283373Y-54048872D01*
X51307349Y-54051663D01*
X51323193Y-54055683D01*
X51333791Y-54061155D01*
X51341867Y-54068134D01*
X51361712Y-54101066D01*
X51360148Y-54135446D01*
X51337506Y-54166624D01*
X51334700Y-54168914D01*
X51324092Y-54176371D01*
X51311681Y-54182053D01*
X51294450Y-54186199D01*
X51269384Y-54189050D01*
X51233467Y-54190846D01*
X51183683Y-54191828D01*
X51117017Y-54192236D01*
X51041189Y-54192311D01*
X50777422Y-54192311D01*
X50777422Y-54331673D01*
X50777018Y-54391478D01*
X50775440Y-54432882D01*
X50772147Y-54460052D01*
X50766592Y-54477154D01*
X50758231Y-54488357D01*
X50756778Y-54489717D01*
X50723539Y-54506075D01*
X50685962Y-54504628D01*
X50653245Y-54485822D01*
X50646898Y-54478550D01*
X50641866Y-54469173D01*
X50637996Y-54455191D01*
X50635137Y-54434104D01*
X50633135Y-54403411D01*
X50631839Y-54360611D01*
X50631098Y-54303205D01*
X50630758Y-54228690D01*
X50630668Y-54134567D01*
X50630667Y-54114540D01*
X50630763Y-54015735D01*
X50631142Y-53937028D01*
X50631933Y-53875937D01*
X50633270Y-53829983D01*
X50635283Y-53796686D01*
X50638106Y-53773564D01*
X50641869Y-53758138D01*
X50646705Y-53747929D01*
X50650422Y-53742987D01*
X50682958Y-53717343D01*
X50716738Y-53714241D01*
X50747426Y-53730089D01*
G36*
X50747426Y-53730089D02*
G01*
X50759689Y-53740452D01*
X50768050Y-53751604D01*
X50773257Y-53767765D01*
X50776057Y-53793158D01*
X50777196Y-53832002D01*
X50777421Y-53888520D01*
X50777422Y-53899620D01*
X50777422Y-54045556D01*
X51048356Y-54045556D01*
X51133754Y-54045652D01*
X51199464Y-54046089D01*
X51248374Y-54047088D01*
X51283373Y-54048872D01*
X51307349Y-54051663D01*
X51323193Y-54055683D01*
X51333791Y-54061155D01*
X51341867Y-54068134D01*
X51361712Y-54101066D01*
X51360148Y-54135446D01*
X51337506Y-54166624D01*
X51334700Y-54168914D01*
X51324092Y-54176371D01*
X51311681Y-54182053D01*
X51294450Y-54186199D01*
X51269384Y-54189050D01*
X51233467Y-54190846D01*
X51183683Y-54191828D01*
X51117017Y-54192236D01*
X51041189Y-54192311D01*
X50777422Y-54192311D01*
X50777422Y-54331673D01*
X50777018Y-54391478D01*
X50775440Y-54432882D01*
X50772147Y-54460052D01*
X50766592Y-54477154D01*
X50758231Y-54488357D01*
X50756778Y-54489717D01*
X50723539Y-54506075D01*
X50685962Y-54504628D01*
X50653245Y-54485822D01*
X50646898Y-54478550D01*
X50641866Y-54469173D01*
X50637996Y-54455191D01*
X50635137Y-54434104D01*
X50633135Y-54403411D01*
X50631839Y-54360611D01*
X50631098Y-54303205D01*
X50630758Y-54228690D01*
X50630668Y-54134567D01*
X50630667Y-54114540D01*
X50630763Y-54015735D01*
X50631142Y-53937028D01*
X50631933Y-53875937D01*
X50633270Y-53829983D01*
X50635283Y-53796686D01*
X50638106Y-53773564D01*
X50641869Y-53758138D01*
X50646705Y-53747929D01*
X50650422Y-53742987D01*
X50682958Y-53717343D01*
X50716738Y-53714241D01*
X50747426Y-53730089D01*
G37*
X51087399Y-52690962D02*
X51159440Y-52691305D01*
X51214380Y-52692108D01*
X51254960Y-52693559D01*
X51283917Y-52695848D01*
X51303991Y-52699164D01*
X51317921Y-52703695D01*
X51328445Y-52709631D01*
X51334700Y-52714286D01*
X51359273Y-52745017D01*
X51361941Y-52780304D01*
X51346871Y-52812555D01*
X51337974Y-52823212D01*
X51326157Y-52830336D01*
X51307126Y-52834633D01*
X51276592Y-52836809D01*
X51230262Y-52837572D01*
X51194471Y-52837645D01*
X51059645Y-52837645D01*
X51059645Y-53334356D01*
X51182300Y-53334356D01*
X51238387Y-53334869D01*
X51276933Y-53336924D01*
X51302961Y-53341292D01*
X51321497Y-53348744D01*
X51334700Y-53357753D01*
X51359204Y-53388656D01*
X51362106Y-53423604D01*
X51344689Y-53457062D01*
X51335559Y-53466196D01*
X51323455Y-53472648D01*
X51304601Y-53476903D01*
X51275220Y-53479448D01*
X51231537Y-53480771D01*
X51169775Y-53481357D01*
X51155600Y-53481425D01*
X51039231Y-53481909D01*
X50943327Y-53482159D01*
X50865777Y-53482077D01*
X50804469Y-53481569D01*
X50757290Y-53480538D01*
X50722130Y-53478887D01*
X50696876Y-53476521D01*
X50679417Y-53473343D01*
X50667641Y-53469256D01*
X50659435Y-53464166D01*
X50653245Y-53458534D01*
X50633444Y-53426672D01*
X50636133Y-53393443D01*
X50658376Y-53362065D01*
X50672726Y-53349367D01*
X50688578Y-53341274D01*
X50711154Y-53336758D01*
X50745678Y-53334794D01*
X50797376Y-53334356D01*
X50912889Y-53334356D01*
X50912889Y-52837645D01*
X50794356Y-52837645D01*
X50739748Y-52837138D01*
X50702875Y-52835102D01*
X50678907Y-52830765D01*
X50663015Y-52823353D01*
X50653245Y-52815067D01*
X50633444Y-52783206D01*
X50636133Y-52749977D01*
X50658376Y-52718598D01*
X50686085Y-52690889D01*
X50995520Y-52690889D01*
X51087399Y-52690962D01*
G36*
X51087399Y-52690962D02*
G01*
X51159440Y-52691305D01*
X51214380Y-52692108D01*
X51254960Y-52693559D01*
X51283917Y-52695848D01*
X51303991Y-52699164D01*
X51317921Y-52703695D01*
X51328445Y-52709631D01*
X51334700Y-52714286D01*
X51359273Y-52745017D01*
X51361941Y-52780304D01*
X51346871Y-52812555D01*
X51337974Y-52823212D01*
X51326157Y-52830336D01*
X51307126Y-52834633D01*
X51276592Y-52836809D01*
X51230262Y-52837572D01*
X51194471Y-52837645D01*
X51059645Y-52837645D01*
X51059645Y-53334356D01*
X51182300Y-53334356D01*
X51238387Y-53334869D01*
X51276933Y-53336924D01*
X51302961Y-53341292D01*
X51321497Y-53348744D01*
X51334700Y-53357753D01*
X51359204Y-53388656D01*
X51362106Y-53423604D01*
X51344689Y-53457062D01*
X51335559Y-53466196D01*
X51323455Y-53472648D01*
X51304601Y-53476903D01*
X51275220Y-53479448D01*
X51231537Y-53480771D01*
X51169775Y-53481357D01*
X51155600Y-53481425D01*
X51039231Y-53481909D01*
X50943327Y-53482159D01*
X50865777Y-53482077D01*
X50804469Y-53481569D01*
X50757290Y-53480538D01*
X50722130Y-53478887D01*
X50696876Y-53476521D01*
X50679417Y-53473343D01*
X50667641Y-53469256D01*
X50659435Y-53464166D01*
X50653245Y-53458534D01*
X50633444Y-53426672D01*
X50636133Y-53393443D01*
X50658376Y-53362065D01*
X50672726Y-53349367D01*
X50688578Y-53341274D01*
X50711154Y-53336758D01*
X50745678Y-53334794D01*
X50797376Y-53334356D01*
X50912889Y-53334356D01*
X50912889Y-52837645D01*
X50794356Y-52837645D01*
X50739748Y-52837138D01*
X50702875Y-52835102D01*
X50678907Y-52830765D01*
X50663015Y-52823353D01*
X50653245Y-52815067D01*
X50633444Y-52783206D01*
X50636133Y-52749977D01*
X50658376Y-52718598D01*
X50686085Y-52690889D01*
X50995520Y-52690889D01*
X51087399Y-52690962D01*
G37*
X51049487Y-57372569D02*
X51112673Y-57395146D01*
X51122289Y-57399428D01*
X51178566Y-57428628D01*
X51222051Y-57461444D01*
X51259017Y-57503798D01*
X51295735Y-57561610D01*
X51297652Y-57564969D01*
X51321827Y-57615296D01*
X51339882Y-57672179D01*
X51352439Y-57739273D01*
X51360122Y-57820235D01*
X51363553Y-57918718D01*
X51363851Y-57953514D01*
X51364445Y-58119206D01*
X51334700Y-58142603D01*
X51324919Y-58149543D01*
X51313497Y-58154958D01*
X51297695Y-58159035D01*
X51274775Y-58161963D01*
X51241996Y-58163933D01*
X51217689Y-58164575D01*
X51196621Y-58165132D01*
X51135911Y-58165750D01*
X51057126Y-58165975D01*
X50995520Y-58166000D01*
X50686085Y-58166000D01*
X50658376Y-58138291D01*
X50647144Y-58125994D01*
X50639453Y-58112697D01*
X50634640Y-58094128D01*
X50632046Y-58066014D01*
X50631010Y-58024083D01*
X50630972Y-58007956D01*
X50777422Y-58007956D01*
X51217689Y-58007956D01*
X51217689Y-57914074D01*
X51216083Y-57859136D01*
X51211855Y-57802740D01*
X51205892Y-57756455D01*
X51205390Y-57753661D01*
X51183336Y-57671452D01*
X51150200Y-57607686D01*
X51104447Y-57560348D01*
X51044539Y-57527418D01*
X51028661Y-57521692D01*
X51003933Y-57516079D01*
X50979502Y-57518509D01*
X50947000Y-57530333D01*
X50931034Y-57537460D01*
X50888606Y-57560800D01*
X50858840Y-57588920D01*
X50838111Y-57619860D01*
X50811137Y-57681834D01*
X50791598Y-57761149D01*
X50780346Y-57853547D01*
X50777870Y-57920467D01*
X50777422Y-58007956D01*
X50630972Y-58007956D01*
X50630870Y-57964063D01*
X50630875Y-57960491D01*
X50635236Y-57831512D01*
X50648461Y-57721809D01*
X50671341Y-57629574D01*
X50704670Y-57552998D01*
X50749238Y-57490273D01*
X50805836Y-57439588D01*
X50875258Y-57399137D01*
X50876951Y-57398341D01*
X50939083Y-57374199D01*
X50994109Y-57365597D01*
X51049487Y-57372569D01*
G36*
X51049487Y-57372569D02*
G01*
X51112673Y-57395146D01*
X51122289Y-57399428D01*
X51178566Y-57428628D01*
X51222051Y-57461444D01*
X51259017Y-57503798D01*
X51295735Y-57561610D01*
X51297652Y-57564969D01*
X51321827Y-57615296D01*
X51339882Y-57672179D01*
X51352439Y-57739273D01*
X51360122Y-57820235D01*
X51363553Y-57918718D01*
X51363851Y-57953514D01*
X51364445Y-58119206D01*
X51334700Y-58142603D01*
X51324919Y-58149543D01*
X51313497Y-58154958D01*
X51297695Y-58159035D01*
X51274775Y-58161963D01*
X51241996Y-58163933D01*
X51217689Y-58164575D01*
X51196621Y-58165132D01*
X51135911Y-58165750D01*
X51057126Y-58165975D01*
X50995520Y-58166000D01*
X50686085Y-58166000D01*
X50658376Y-58138291D01*
X50647144Y-58125994D01*
X50639453Y-58112697D01*
X50634640Y-58094128D01*
X50632046Y-58066014D01*
X50631010Y-58024083D01*
X50630972Y-58007956D01*
X50777422Y-58007956D01*
X51217689Y-58007956D01*
X51217689Y-57914074D01*
X51216083Y-57859136D01*
X51211855Y-57802740D01*
X51205892Y-57756455D01*
X51205390Y-57753661D01*
X51183336Y-57671452D01*
X51150200Y-57607686D01*
X51104447Y-57560348D01*
X51044539Y-57527418D01*
X51028661Y-57521692D01*
X51003933Y-57516079D01*
X50979502Y-57518509D01*
X50947000Y-57530333D01*
X50931034Y-57537460D01*
X50888606Y-57560800D01*
X50858840Y-57588920D01*
X50838111Y-57619860D01*
X50811137Y-57681834D01*
X50791598Y-57761149D01*
X50780346Y-57853547D01*
X50777870Y-57920467D01*
X50777422Y-58007956D01*
X50630972Y-58007956D01*
X50630870Y-57964063D01*
X50630875Y-57960491D01*
X50635236Y-57831512D01*
X50648461Y-57721809D01*
X50671341Y-57629574D01*
X50704670Y-57552998D01*
X50749238Y-57490273D01*
X50805836Y-57439588D01*
X50875258Y-57399137D01*
X50876951Y-57398341D01*
X50939083Y-57374199D01*
X50994109Y-57365597D01*
X51049487Y-57372569D01*
G37*
X51056369Y-64473217D02*
X51120613Y-64494699D01*
X51181421Y-64525799D01*
X51229930Y-64562666D01*
X51235782Y-64568654D01*
X51276921Y-64619379D01*
X51309035Y-64674925D01*
X51332965Y-64738496D01*
X51349553Y-64813294D01*
X51359641Y-64902522D01*
X51364069Y-65009382D01*
X51364445Y-65058328D01*
X51364145Y-65120562D01*
X51362892Y-65164328D01*
X51360154Y-65193731D01*
X51355401Y-65212879D01*
X51348101Y-65225877D01*
X51341867Y-65232845D01*
X51334294Y-65239426D01*
X51324524Y-65244588D01*
X51309940Y-65248503D01*
X51287926Y-65251343D01*
X51255864Y-65253280D01*
X51211136Y-65254484D01*
X51151126Y-65255128D01*
X51073217Y-65255383D01*
X50997556Y-65255422D01*
X50896641Y-65255670D01*
X50816027Y-65255617D01*
X50777422Y-65254657D01*
X50753451Y-65254060D01*
X50706655Y-65249798D01*
X50673378Y-65241630D01*
X50651359Y-65228356D01*
X50638339Y-65208774D01*
X50632057Y-65181683D01*
X50630253Y-65145882D01*
X50630666Y-65100171D01*
X50631067Y-65060689D01*
X50631748Y-65032467D01*
X50777408Y-65032467D01*
X50777422Y-65108667D01*
X51217689Y-65108667D01*
X51217604Y-65015534D01*
X51215996Y-64959493D01*
X51211856Y-64900799D01*
X51206064Y-64851828D01*
X51205826Y-64850338D01*
X51186690Y-64771192D01*
X51156887Y-64709802D01*
X51114478Y-64663105D01*
X51068561Y-64633435D01*
X51017626Y-64615153D01*
X50969800Y-64616571D01*
X50918533Y-64637788D01*
X50865499Y-64679289D01*
X50826200Y-64736798D01*
X50799931Y-64811550D01*
X50790635Y-64861508D01*
X50784107Y-64918216D01*
X50779382Y-64978319D01*
X50777417Y-65029439D01*
X50777408Y-65032467D01*
X50631748Y-65032467D01*
X50633859Y-64945000D01*
X50642150Y-64848111D01*
X50656832Y-64766719D01*
X50678793Y-64697523D01*
X50708922Y-64637220D01*
X50748110Y-64582508D01*
X50765132Y-64562967D01*
X50804963Y-64530550D01*
X50859013Y-64501320D01*
X50918923Y-64478791D01*
X50976339Y-64466479D01*
X50997556Y-64465200D01*
X51056369Y-64473217D01*
G36*
X51056369Y-64473217D02*
G01*
X51120613Y-64494699D01*
X51181421Y-64525799D01*
X51229930Y-64562666D01*
X51235782Y-64568654D01*
X51276921Y-64619379D01*
X51309035Y-64674925D01*
X51332965Y-64738496D01*
X51349553Y-64813294D01*
X51359641Y-64902522D01*
X51364069Y-65009382D01*
X51364445Y-65058328D01*
X51364145Y-65120562D01*
X51362892Y-65164328D01*
X51360154Y-65193731D01*
X51355401Y-65212879D01*
X51348101Y-65225877D01*
X51341867Y-65232845D01*
X51334294Y-65239426D01*
X51324524Y-65244588D01*
X51309940Y-65248503D01*
X51287926Y-65251343D01*
X51255864Y-65253280D01*
X51211136Y-65254484D01*
X51151126Y-65255128D01*
X51073217Y-65255383D01*
X50997556Y-65255422D01*
X50896641Y-65255670D01*
X50816027Y-65255617D01*
X50777422Y-65254657D01*
X50753451Y-65254060D01*
X50706655Y-65249798D01*
X50673378Y-65241630D01*
X50651359Y-65228356D01*
X50638339Y-65208774D01*
X50632057Y-65181683D01*
X50630253Y-65145882D01*
X50630666Y-65100171D01*
X50631067Y-65060689D01*
X50631748Y-65032467D01*
X50777408Y-65032467D01*
X50777422Y-65108667D01*
X51217689Y-65108667D01*
X51217604Y-65015534D01*
X51215996Y-64959493D01*
X51211856Y-64900799D01*
X51206064Y-64851828D01*
X51205826Y-64850338D01*
X51186690Y-64771192D01*
X51156887Y-64709802D01*
X51114478Y-64663105D01*
X51068561Y-64633435D01*
X51017626Y-64615153D01*
X50969800Y-64616571D01*
X50918533Y-64637788D01*
X50865499Y-64679289D01*
X50826200Y-64736798D01*
X50799931Y-64811550D01*
X50790635Y-64861508D01*
X50784107Y-64918216D01*
X50779382Y-64978319D01*
X50777417Y-65029439D01*
X50777408Y-65032467D01*
X50631748Y-65032467D01*
X50633859Y-64945000D01*
X50642150Y-64848111D01*
X50656832Y-64766719D01*
X50678793Y-64697523D01*
X50708922Y-64637220D01*
X50748110Y-64582508D01*
X50765132Y-64562967D01*
X50804963Y-64530550D01*
X50859013Y-64501320D01*
X50918923Y-64478791D01*
X50976339Y-64466479D01*
X50997556Y-64465200D01*
X51056369Y-64473217D01*
G37*
X51209761Y-59566913D02*
X51250942Y-59567832D01*
X51280403Y-59569687D01*
X51300855Y-59572639D01*
X51315013Y-59576850D01*
X51325591Y-59582482D01*
X51334074Y-59588727D01*
X51349807Y-59602239D01*
X51360236Y-59615683D01*
X51364239Y-59630924D01*
X51360694Y-59649826D01*
X51348479Y-59674255D01*
X51326471Y-59706073D01*
X51293549Y-59747148D01*
X51248591Y-59799342D01*
X51190475Y-59864522D01*
X51123699Y-59938356D01*
X50883058Y-60203645D01*
X51102189Y-60209289D01*
X51177728Y-60211331D01*
X51233954Y-60213302D01*
X51274124Y-60215639D01*
X51301496Y-60218781D01*
X51319328Y-60223164D01*
X51330879Y-60229224D01*
X51339407Y-60237400D01*
X51342882Y-60241584D01*
X51361972Y-60278565D01*
X51359093Y-60313508D01*
X51334700Y-60343936D01*
X51324886Y-60350897D01*
X51313426Y-60356323D01*
X51297568Y-60360403D01*
X51274563Y-60363329D01*
X51241662Y-60365292D01*
X51196116Y-60366483D01*
X51135173Y-60367092D01*
X51056086Y-60367311D01*
X50997556Y-60367334D01*
X50906007Y-60367260D01*
X50834287Y-60366913D01*
X50779645Y-60366101D01*
X50739332Y-60364633D01*
X50710598Y-60362319D01*
X50690693Y-60358967D01*
X50676868Y-60354388D01*
X50666372Y-60348389D01*
X50660411Y-60343936D01*
X50646291Y-60332650D01*
X50635629Y-60322101D01*
X50629492Y-60310693D01*
X50628943Y-60296830D01*
X50635048Y-60278914D01*
X50648873Y-60255348D01*
X50671481Y-60224535D01*
X50703938Y-60184878D01*
X50747308Y-60134780D01*
X50802658Y-60072643D01*
X50871051Y-59996872D01*
X50949684Y-59910134D01*
X51113478Y-59729511D01*
X50893629Y-59723867D01*
X50817951Y-59721829D01*
X50761594Y-59719863D01*
X50721306Y-59717534D01*
X50693835Y-59714406D01*
X50675929Y-59710045D01*
X50664337Y-59704016D01*
X50655808Y-59695884D01*
X50652223Y-59691572D01*
X50633270Y-59657041D01*
X50636041Y-59624183D01*
X50652233Y-59598118D01*
X50673799Y-59571467D01*
X50988751Y-59568152D01*
X51081379Y-59567235D01*
X51154144Y-59566768D01*
X51209761Y-59566913D01*
G36*
X51209761Y-59566913D02*
G01*
X51250942Y-59567832D01*
X51280403Y-59569687D01*
X51300855Y-59572639D01*
X51315013Y-59576850D01*
X51325591Y-59582482D01*
X51334074Y-59588727D01*
X51349807Y-59602239D01*
X51360236Y-59615683D01*
X51364239Y-59630924D01*
X51360694Y-59649826D01*
X51348479Y-59674255D01*
X51326471Y-59706073D01*
X51293549Y-59747148D01*
X51248591Y-59799342D01*
X51190475Y-59864522D01*
X51123699Y-59938356D01*
X50883058Y-60203645D01*
X51102189Y-60209289D01*
X51177728Y-60211331D01*
X51233954Y-60213302D01*
X51274124Y-60215639D01*
X51301496Y-60218781D01*
X51319328Y-60223164D01*
X51330879Y-60229224D01*
X51339407Y-60237400D01*
X51342882Y-60241584D01*
X51361972Y-60278565D01*
X51359093Y-60313508D01*
X51334700Y-60343936D01*
X51324886Y-60350897D01*
X51313426Y-60356323D01*
X51297568Y-60360403D01*
X51274563Y-60363329D01*
X51241662Y-60365292D01*
X51196116Y-60366483D01*
X51135173Y-60367092D01*
X51056086Y-60367311D01*
X50997556Y-60367334D01*
X50906007Y-60367260D01*
X50834287Y-60366913D01*
X50779645Y-60366101D01*
X50739332Y-60364633D01*
X50710598Y-60362319D01*
X50690693Y-60358967D01*
X50676868Y-60354388D01*
X50666372Y-60348389D01*
X50660411Y-60343936D01*
X50646291Y-60332650D01*
X50635629Y-60322101D01*
X50629492Y-60310693D01*
X50628943Y-60296830D01*
X50635048Y-60278914D01*
X50648873Y-60255348D01*
X50671481Y-60224535D01*
X50703938Y-60184878D01*
X50747308Y-60134780D01*
X50802658Y-60072643D01*
X50871051Y-59996872D01*
X50949684Y-59910134D01*
X51113478Y-59729511D01*
X50893629Y-59723867D01*
X50817951Y-59721829D01*
X50761594Y-59719863D01*
X50721306Y-59717534D01*
X50693835Y-59714406D01*
X50675929Y-59710045D01*
X50664337Y-59704016D01*
X50655808Y-59695884D01*
X50652223Y-59691572D01*
X50633270Y-59657041D01*
X50636041Y-59624183D01*
X50652233Y-59598118D01*
X50673799Y-59571467D01*
X50988751Y-59568152D01*
X51081379Y-59567235D01*
X51154144Y-59566768D01*
X51209761Y-59566913D01*
G37*
X51201135Y-60707409D02*
X51248386Y-60711648D01*
X51273612Y-60718736D01*
X51275588Y-60720111D01*
X51307108Y-60759028D01*
X51332070Y-60816086D01*
X51349940Y-60887669D01*
X51360186Y-60970158D01*
X51362273Y-61059939D01*
X51355668Y-61153392D01*
X51347556Y-61208356D01*
X51323154Y-61294566D01*
X51283262Y-61374692D01*
X51231487Y-61441777D01*
X51221139Y-61451973D01*
X51177635Y-61485102D01*
X51123718Y-61514994D01*
X51067192Y-61538157D01*
X51015859Y-61551098D01*
X50996144Y-61552658D01*
X50955019Y-61546018D01*
X50903852Y-61528368D01*
X50849994Y-61503097D01*
X50800795Y-61473589D01*
X50767934Y-61447519D01*
X50719052Y-61386565D01*
X50680145Y-61307769D01*
X50652094Y-61213957D01*
X50635779Y-61107950D01*
X50631792Y-61010800D01*
X50636199Y-60928881D01*
X50647695Y-60860365D01*
X50665567Y-60807743D01*
X50689099Y-60773508D01*
X50702524Y-60764179D01*
X50733748Y-60754693D01*
X50761995Y-60761077D01*
X50788782Y-60781230D01*
X50801313Y-60812545D01*
X50800296Y-60857983D01*
X50793506Y-60893126D01*
X50780571Y-60971219D01*
X50779342Y-61051026D01*
X50789841Y-61140355D01*
X50794290Y-61165029D01*
X50817708Y-61248091D01*
X50852545Y-61313073D01*
X50898204Y-61359261D01*
X50954094Y-61385945D01*
X50982988Y-61391463D01*
X51041612Y-61387851D01*
X51093479Y-61364529D01*
X51137578Y-61323624D01*
X51172899Y-61267259D01*
X51198429Y-61197560D01*
X51213159Y-61116652D01*
X51216078Y-61026660D01*
X51206175Y-60929710D01*
X51205241Y-60924236D01*
X51198059Y-60885675D01*
X51191121Y-60864294D01*
X51180827Y-60855027D01*
X51163576Y-60852806D01*
X51154441Y-60852756D01*
X51116089Y-60852756D01*
X51116089Y-60921231D01*
X51111947Y-60981700D01*
X51098747Y-61022965D01*
X51075330Y-61046975D01*
X51040536Y-61055677D01*
X51035994Y-61055783D01*
X51006254Y-61050692D01*
X50985019Y-61033233D01*
X50970966Y-61000739D01*
X50962773Y-60950543D01*
X50959761Y-60901923D01*
X50958033Y-60831256D01*
X50960670Y-60779998D01*
X50970400Y-60745039D01*
X50989953Y-60723270D01*
X51022056Y-60711580D01*
X51069438Y-60706860D01*
X51131671Y-60706000D01*
X51201135Y-60707409D01*
G36*
X51201135Y-60707409D02*
G01*
X51248386Y-60711648D01*
X51273612Y-60718736D01*
X51275588Y-60720111D01*
X51307108Y-60759028D01*
X51332070Y-60816086D01*
X51349940Y-60887669D01*
X51360186Y-60970158D01*
X51362273Y-61059939D01*
X51355668Y-61153392D01*
X51347556Y-61208356D01*
X51323154Y-61294566D01*
X51283262Y-61374692D01*
X51231487Y-61441777D01*
X51221139Y-61451973D01*
X51177635Y-61485102D01*
X51123718Y-61514994D01*
X51067192Y-61538157D01*
X51015859Y-61551098D01*
X50996144Y-61552658D01*
X50955019Y-61546018D01*
X50903852Y-61528368D01*
X50849994Y-61503097D01*
X50800795Y-61473589D01*
X50767934Y-61447519D01*
X50719052Y-61386565D01*
X50680145Y-61307769D01*
X50652094Y-61213957D01*
X50635779Y-61107950D01*
X50631792Y-61010800D01*
X50636199Y-60928881D01*
X50647695Y-60860365D01*
X50665567Y-60807743D01*
X50689099Y-60773508D01*
X50702524Y-60764179D01*
X50733748Y-60754693D01*
X50761995Y-60761077D01*
X50788782Y-60781230D01*
X50801313Y-60812545D01*
X50800296Y-60857983D01*
X50793506Y-60893126D01*
X50780571Y-60971219D01*
X50779342Y-61051026D01*
X50789841Y-61140355D01*
X50794290Y-61165029D01*
X50817708Y-61248091D01*
X50852545Y-61313073D01*
X50898204Y-61359261D01*
X50954094Y-61385945D01*
X50982988Y-61391463D01*
X51041612Y-61387851D01*
X51093479Y-61364529D01*
X51137578Y-61323624D01*
X51172899Y-61267259D01*
X51198429Y-61197560D01*
X51213159Y-61116652D01*
X51216078Y-61026660D01*
X51206175Y-60929710D01*
X51205241Y-60924236D01*
X51198059Y-60885675D01*
X51191121Y-60864294D01*
X51180827Y-60855027D01*
X51163576Y-60852806D01*
X51154441Y-60852756D01*
X51116089Y-60852756D01*
X51116089Y-60921231D01*
X51111947Y-60981700D01*
X51098747Y-61022965D01*
X51075330Y-61046975D01*
X51040536Y-61055677D01*
X51035994Y-61055783D01*
X51006254Y-61050692D01*
X50985019Y-61033233D01*
X50970966Y-61000739D01*
X50962773Y-60950543D01*
X50959761Y-60901923D01*
X50958033Y-60831256D01*
X50960670Y-60779998D01*
X50970400Y-60745039D01*
X50989953Y-60723270D01*
X51022056Y-60711580D01*
X51069438Y-60706860D01*
X51131671Y-60706000D01*
X51201135Y-60707409D01*
G37*
X50725592Y-58505669D02*
X50743103Y-58510404D01*
X50756174Y-58521467D01*
X50765513Y-58541452D01*
X50771827Y-58572954D01*
X50775822Y-58618568D01*
X50778206Y-58680887D01*
X50779686Y-58762507D01*
X50780014Y-58787523D01*
X50783067Y-59029600D01*
X50847978Y-59032986D01*
X50912889Y-59036371D01*
X50912889Y-58868224D01*
X50913131Y-58802534D01*
X50914156Y-58755628D01*
X50916411Y-58723717D01*
X50920342Y-58703009D01*
X50926398Y-58689716D01*
X50935024Y-58680045D01*
X50935093Y-58679983D01*
X50968712Y-58662444D01*
X51005048Y-58663078D01*
X51036023Y-58681486D01*
X51039207Y-58685129D01*
X51047412Y-58698059D01*
X51053121Y-58715776D01*
X51056762Y-58742230D01*
X51058767Y-58781368D01*
X51059564Y-58837138D01*
X51059645Y-58872806D01*
X51059645Y-59035245D01*
X51217689Y-59035245D01*
X51217689Y-58788639D01*
X51217831Y-58707220D01*
X51218414Y-58645390D01*
X51219668Y-58600163D01*
X51221827Y-58568552D01*
X51225123Y-58547569D01*
X51229789Y-58534227D01*
X51236057Y-58525539D01*
X51238333Y-58523350D01*
X51269880Y-58507186D01*
X51305768Y-58506003D01*
X51336885Y-58519264D01*
X51346871Y-58529757D01*
X51352369Y-58540671D01*
X51356622Y-58557583D01*
X51359780Y-58583167D01*
X51361992Y-58620099D01*
X51363406Y-58671054D01*
X51364172Y-58738706D01*
X51364438Y-58825731D01*
X51364445Y-58845406D01*
X51364387Y-58933889D01*
X51364067Y-59002573D01*
X51363267Y-59054236D01*
X51361767Y-59091655D01*
X51359349Y-59117610D01*
X51355794Y-59134878D01*
X51350882Y-59146238D01*
X51344395Y-59154468D01*
X51339738Y-59158983D01*
X51331489Y-59165779D01*
X51321269Y-59171088D01*
X51306400Y-59175094D01*
X51284202Y-59177979D01*
X51251993Y-59179926D01*
X51207096Y-59181119D01*
X51146828Y-59181739D01*
X51068511Y-59181971D01*
X51002594Y-59182000D01*
X50910228Y-59181929D01*
X50837717Y-59181592D01*
X50782337Y-59180802D01*
X50741365Y-59179374D01*
X50712078Y-59177121D01*
X50691753Y-59173857D01*
X50677666Y-59169396D01*
X50667095Y-59163552D01*
X50660411Y-59158603D01*
X50630667Y-59135206D01*
X50630667Y-58845026D01*
X50630860Y-58748457D01*
X50631774Y-58672099D01*
X50633911Y-58613583D01*
X50637775Y-58570545D01*
X50643867Y-58540617D01*
X50652690Y-58521432D01*
X50664746Y-58510624D01*
X50680539Y-58505827D01*
X50700570Y-58504673D01*
X50702935Y-58504667D01*
X50725592Y-58505669D01*
G36*
X50725592Y-58505669D02*
G01*
X50743103Y-58510404D01*
X50756174Y-58521467D01*
X50765513Y-58541452D01*
X50771827Y-58572954D01*
X50775822Y-58618568D01*
X50778206Y-58680887D01*
X50779686Y-58762507D01*
X50780014Y-58787523D01*
X50783067Y-59029600D01*
X50847978Y-59032986D01*
X50912889Y-59036371D01*
X50912889Y-58868224D01*
X50913131Y-58802534D01*
X50914156Y-58755628D01*
X50916411Y-58723717D01*
X50920342Y-58703009D01*
X50926398Y-58689716D01*
X50935024Y-58680045D01*
X50935093Y-58679983D01*
X50968712Y-58662444D01*
X51005048Y-58663078D01*
X51036023Y-58681486D01*
X51039207Y-58685129D01*
X51047412Y-58698059D01*
X51053121Y-58715776D01*
X51056762Y-58742230D01*
X51058767Y-58781368D01*
X51059564Y-58837138D01*
X51059645Y-58872806D01*
X51059645Y-59035245D01*
X51217689Y-59035245D01*
X51217689Y-58788639D01*
X51217831Y-58707220D01*
X51218414Y-58645390D01*
X51219668Y-58600163D01*
X51221827Y-58568552D01*
X51225123Y-58547569D01*
X51229789Y-58534227D01*
X51236057Y-58525539D01*
X51238333Y-58523350D01*
X51269880Y-58507186D01*
X51305768Y-58506003D01*
X51336885Y-58519264D01*
X51346871Y-58529757D01*
X51352369Y-58540671D01*
X51356622Y-58557583D01*
X51359780Y-58583167D01*
X51361992Y-58620099D01*
X51363406Y-58671054D01*
X51364172Y-58738706D01*
X51364438Y-58825731D01*
X51364445Y-58845406D01*
X51364387Y-58933889D01*
X51364067Y-59002573D01*
X51363267Y-59054236D01*
X51361767Y-59091655D01*
X51359349Y-59117610D01*
X51355794Y-59134878D01*
X51350882Y-59146238D01*
X51344395Y-59154468D01*
X51339738Y-59158983D01*
X51331489Y-59165779D01*
X51321269Y-59171088D01*
X51306400Y-59175094D01*
X51284202Y-59177979D01*
X51251993Y-59179926D01*
X51207096Y-59181119D01*
X51146828Y-59181739D01*
X51068511Y-59181971D01*
X51002594Y-59182000D01*
X50910228Y-59181929D01*
X50837717Y-59181592D01*
X50782337Y-59180802D01*
X50741365Y-59179374D01*
X50712078Y-59177121D01*
X50691753Y-59173857D01*
X50677666Y-59169396D01*
X50667095Y-59163552D01*
X50660411Y-59158603D01*
X50630667Y-59135206D01*
X50630667Y-58845026D01*
X50630860Y-58748457D01*
X50631774Y-58672099D01*
X50633911Y-58613583D01*
X50637775Y-58570545D01*
X50643867Y-58540617D01*
X50652690Y-58521432D01*
X50664746Y-58510624D01*
X50680539Y-58505827D01*
X50700570Y-58504673D01*
X50702935Y-58504667D01*
X50725592Y-58505669D01*
G37*
X51320267Y-63445763D02*
X51341867Y-63460489D01*
X51348666Y-63468346D01*
X51353946Y-63478488D01*
X51357898Y-63493644D01*
X51360713Y-63516541D01*
X51362582Y-63549909D01*
X51363698Y-63596475D01*
X51364251Y-63658967D01*
X51364433Y-63740114D01*
X51364445Y-63782222D01*
X51364365Y-63872398D01*
X51363998Y-63942724D01*
X51363152Y-63995929D01*
X51361636Y-64034740D01*
X51359259Y-64061887D01*
X51355829Y-64080098D01*
X51351154Y-64092100D01*
X51345044Y-64100622D01*
X51341867Y-64103956D01*
X51334270Y-64110555D01*
X51324470Y-64115727D01*
X51309839Y-64119646D01*
X51287752Y-64122484D01*
X51255582Y-64124415D01*
X51210703Y-64125612D01*
X51150489Y-64126248D01*
X51072313Y-64126497D01*
X50999523Y-64126534D01*
X50906307Y-64126500D01*
X50833031Y-64126265D01*
X50777058Y-64125630D01*
X50735751Y-64124394D01*
X50706472Y-64122356D01*
X50686584Y-64119317D01*
X50673450Y-64115077D01*
X50664432Y-64109435D01*
X50656893Y-64102191D01*
X50655212Y-64100406D01*
X50647772Y-64091745D01*
X50642009Y-64081682D01*
X50637712Y-64067425D01*
X50634664Y-64046183D01*
X50632651Y-64015164D01*
X50631460Y-63971577D01*
X50630875Y-63912631D01*
X50630683Y-63835534D01*
X50630667Y-63780801D01*
X50630746Y-63691594D01*
X50631118Y-63622186D01*
X50631985Y-63569797D01*
X50633546Y-63531647D01*
X50636003Y-63504959D01*
X50639557Y-63486953D01*
X50644410Y-63474849D01*
X50650761Y-63465869D01*
X50653684Y-63462618D01*
X50684742Y-63442843D01*
X50720428Y-63439282D01*
X50752110Y-63452291D01*
X50758513Y-63458306D01*
X50764721Y-63468035D01*
X50769510Y-63483701D01*
X50773114Y-63508208D01*
X50775764Y-63544461D01*
X50777695Y-63595365D01*
X50779139Y-63663826D01*
X50780018Y-63726417D01*
X50783067Y-63974134D01*
X50847978Y-63977519D01*
X50912889Y-63980905D01*
X50912889Y-63812758D01*
X50913519Y-63739759D01*
X50916153Y-63686317D01*
X50921909Y-63649428D01*
X50931904Y-63626088D01*
X50947256Y-63613294D01*
X50969082Y-63608042D01*
X50989338Y-63607245D01*
X51014192Y-63609723D01*
X51032506Y-63619077D01*
X51045237Y-63638183D01*
X51053341Y-63669918D01*
X51057776Y-63717159D01*
X51059499Y-63782783D01*
X51059645Y-63818601D01*
X51059645Y-63979778D01*
X51217689Y-63979778D01*
X51217689Y-63731422D01*
X51217802Y-63650013D01*
X51218312Y-63588142D01*
X51219470Y-63542768D01*
X51221530Y-63510854D01*
X51224746Y-63489359D01*
X51229372Y-63475243D01*
X51235659Y-63465468D01*
X51240267Y-63460489D01*
X51267160Y-63443410D01*
X51291067Y-63437911D01*
X51320267Y-63445763D01*
G36*
X51320267Y-63445763D02*
G01*
X51341867Y-63460489D01*
X51348666Y-63468346D01*
X51353946Y-63478488D01*
X51357898Y-63493644D01*
X51360713Y-63516541D01*
X51362582Y-63549909D01*
X51363698Y-63596475D01*
X51364251Y-63658967D01*
X51364433Y-63740114D01*
X51364445Y-63782222D01*
X51364365Y-63872398D01*
X51363998Y-63942724D01*
X51363152Y-63995929D01*
X51361636Y-64034740D01*
X51359259Y-64061887D01*
X51355829Y-64080098D01*
X51351154Y-64092100D01*
X51345044Y-64100622D01*
X51341867Y-64103956D01*
X51334270Y-64110555D01*
X51324470Y-64115727D01*
X51309839Y-64119646D01*
X51287752Y-64122484D01*
X51255582Y-64124415D01*
X51210703Y-64125612D01*
X51150489Y-64126248D01*
X51072313Y-64126497D01*
X50999523Y-64126534D01*
X50906307Y-64126500D01*
X50833031Y-64126265D01*
X50777058Y-64125630D01*
X50735751Y-64124394D01*
X50706472Y-64122356D01*
X50686584Y-64119317D01*
X50673450Y-64115077D01*
X50664432Y-64109435D01*
X50656893Y-64102191D01*
X50655212Y-64100406D01*
X50647772Y-64091745D01*
X50642009Y-64081682D01*
X50637712Y-64067425D01*
X50634664Y-64046183D01*
X50632651Y-64015164D01*
X50631460Y-63971577D01*
X50630875Y-63912631D01*
X50630683Y-63835534D01*
X50630667Y-63780801D01*
X50630746Y-63691594D01*
X50631118Y-63622186D01*
X50631985Y-63569797D01*
X50633546Y-63531647D01*
X50636003Y-63504959D01*
X50639557Y-63486953D01*
X50644410Y-63474849D01*
X50650761Y-63465869D01*
X50653684Y-63462618D01*
X50684742Y-63442843D01*
X50720428Y-63439282D01*
X50752110Y-63452291D01*
X50758513Y-63458306D01*
X50764721Y-63468035D01*
X50769510Y-63483701D01*
X50773114Y-63508208D01*
X50775764Y-63544461D01*
X50777695Y-63595365D01*
X50779139Y-63663826D01*
X50780018Y-63726417D01*
X50783067Y-63974134D01*
X50847978Y-63977519D01*
X50912889Y-63980905D01*
X50912889Y-63812758D01*
X50913519Y-63739759D01*
X50916153Y-63686317D01*
X50921909Y-63649428D01*
X50931904Y-63626088D01*
X50947256Y-63613294D01*
X50969082Y-63608042D01*
X50989338Y-63607245D01*
X51014192Y-63609723D01*
X51032506Y-63619077D01*
X51045237Y-63638183D01*
X51053341Y-63669918D01*
X51057776Y-63717159D01*
X51059499Y-63782783D01*
X51059645Y-63818601D01*
X51059645Y-63979778D01*
X51217689Y-63979778D01*
X51217689Y-63731422D01*
X51217802Y-63650013D01*
X51218312Y-63588142D01*
X51219470Y-63542768D01*
X51221530Y-63510854D01*
X51224746Y-63489359D01*
X51229372Y-63475243D01*
X51235659Y-63465468D01*
X51240267Y-63460489D01*
X51267160Y-63443410D01*
X51291067Y-63437911D01*
X51320267Y-63445763D01*
G37*
X50703961Y-55169804D02*
X50722495Y-55173839D01*
X50748857Y-55182654D01*
X50785352Y-55197131D01*
X50834287Y-55218155D01*
X50897965Y-55246612D01*
X50978693Y-55283385D01*
X51022816Y-55303625D01*
X51101585Y-55340175D01*
X51174023Y-55374485D01*
X51237480Y-55405248D01*
X51289308Y-55431152D01*
X51326859Y-55450890D01*
X51347484Y-55463150D01*
X51350333Y-55465576D01*
X51362902Y-55496617D01*
X51361219Y-55531679D01*
X51345932Y-55559800D01*
X51344689Y-55560946D01*
X51327754Y-55572132D01*
X51294770Y-55590896D01*
X51249980Y-55614925D01*
X51197632Y-55641903D01*
X51178342Y-55651599D01*
X51031750Y-55724786D01*
X51190993Y-55804560D01*
X51246015Y-55833033D01*
X51293732Y-55859450D01*
X51330493Y-55881652D01*
X51352644Y-55897481D01*
X51357341Y-55902846D01*
X51363702Y-55944543D01*
X51350333Y-55978951D01*
X51336046Y-55989072D01*
X51304292Y-56006586D01*
X51258197Y-56030065D01*
X51200885Y-56058080D01*
X51135480Y-56089201D01*
X51065107Y-56122001D01*
X50992891Y-56155050D01*
X50921955Y-56186919D01*
X50855425Y-56216181D01*
X50796426Y-56241405D01*
X50748081Y-56261164D01*
X50713515Y-56274028D01*
X50695853Y-56278569D01*
X50695213Y-56278523D01*
X50672988Y-56267474D01*
X50650353Y-56245390D01*
X50649368Y-56244090D01*
X50634025Y-56216947D01*
X50634174Y-56191842D01*
X50637066Y-56182432D01*
X50643318Y-56170966D01*
X50655614Y-56158790D01*
X50676508Y-56144443D01*
X50708549Y-56126464D01*
X50754288Y-56103393D01*
X50816277Y-56073770D01*
X50873498Y-56047055D01*
X50939826Y-56016320D01*
X50999474Y-55988779D01*
X51049325Y-55965862D01*
X51086264Y-55949002D01*
X51107173Y-55939627D01*
X51110445Y-55938260D01*
X51105097Y-55932111D01*
X51082709Y-55917978D01*
X51046546Y-55897743D01*
X50999877Y-55873285D01*
X50980622Y-55863552D01*
X50915604Y-55830583D01*
X50868254Y-55805157D01*
X50835819Y-55785188D01*
X50815546Y-55768590D01*
X50804682Y-55753276D01*
X50800475Y-55737160D01*
X50800000Y-55726657D01*
X50801642Y-55708130D01*
X50808431Y-55691896D01*
X50823166Y-55675765D01*
X50848644Y-55657549D01*
X50887661Y-55635061D01*
X50943014Y-55606111D01*
X50974503Y-55590138D01*
X51024687Y-55564230D01*
X51066304Y-55541633D01*
X51095842Y-55524342D01*
X51109789Y-55514350D01*
X51110370Y-55512991D01*
X51099393Y-55506539D01*
X51070890Y-55492092D01*
X51027844Y-55471097D01*
X50973238Y-55445003D01*
X50910054Y-55415254D01*
X50878671Y-55400620D01*
X50797678Y-55362550D01*
X50735356Y-55331895D01*
X50689671Y-55307063D01*
X50658589Y-55286463D01*
X50640078Y-55268502D01*
X50632104Y-55251590D01*
X50632634Y-55234135D01*
X50639635Y-55214545D01*
X50639977Y-55213790D01*
X50660278Y-55187187D01*
X50681161Y-55172530D01*
X50690952Y-55169662D01*
X50703961Y-55169804D01*
G36*
X50703961Y-55169804D02*
G01*
X50722495Y-55173839D01*
X50748857Y-55182654D01*
X50785352Y-55197131D01*
X50834287Y-55218155D01*
X50897965Y-55246612D01*
X50978693Y-55283385D01*
X51022816Y-55303625D01*
X51101585Y-55340175D01*
X51174023Y-55374485D01*
X51237480Y-55405248D01*
X51289308Y-55431152D01*
X51326859Y-55450890D01*
X51347484Y-55463150D01*
X51350333Y-55465576D01*
X51362902Y-55496617D01*
X51361219Y-55531679D01*
X51345932Y-55559800D01*
X51344689Y-55560946D01*
X51327754Y-55572132D01*
X51294770Y-55590896D01*
X51249980Y-55614925D01*
X51197632Y-55641903D01*
X51178342Y-55651599D01*
X51031750Y-55724786D01*
X51190993Y-55804560D01*
X51246015Y-55833033D01*
X51293732Y-55859450D01*
X51330493Y-55881652D01*
X51352644Y-55897481D01*
X51357341Y-55902846D01*
X51363702Y-55944543D01*
X51350333Y-55978951D01*
X51336046Y-55989072D01*
X51304292Y-56006586D01*
X51258197Y-56030065D01*
X51200885Y-56058080D01*
X51135480Y-56089201D01*
X51065107Y-56122001D01*
X50992891Y-56155050D01*
X50921955Y-56186919D01*
X50855425Y-56216181D01*
X50796426Y-56241405D01*
X50748081Y-56261164D01*
X50713515Y-56274028D01*
X50695853Y-56278569D01*
X50695213Y-56278523D01*
X50672988Y-56267474D01*
X50650353Y-56245390D01*
X50649368Y-56244090D01*
X50634025Y-56216947D01*
X50634174Y-56191842D01*
X50637066Y-56182432D01*
X50643318Y-56170966D01*
X50655614Y-56158790D01*
X50676508Y-56144443D01*
X50708549Y-56126464D01*
X50754288Y-56103393D01*
X50816277Y-56073770D01*
X50873498Y-56047055D01*
X50939826Y-56016320D01*
X50999474Y-55988779D01*
X51049325Y-55965862D01*
X51086264Y-55949002D01*
X51107173Y-55939627D01*
X51110445Y-55938260D01*
X51105097Y-55932111D01*
X51082709Y-55917978D01*
X51046546Y-55897743D01*
X50999877Y-55873285D01*
X50980622Y-55863552D01*
X50915604Y-55830583D01*
X50868254Y-55805157D01*
X50835819Y-55785188D01*
X50815546Y-55768590D01*
X50804682Y-55753276D01*
X50800475Y-55737160D01*
X50800000Y-55726657D01*
X50801642Y-55708130D01*
X50808431Y-55691896D01*
X50823166Y-55675765D01*
X50848644Y-55657549D01*
X50887661Y-55635061D01*
X50943014Y-55606111D01*
X50974503Y-55590138D01*
X51024687Y-55564230D01*
X51066304Y-55541633D01*
X51095842Y-55524342D01*
X51109789Y-55514350D01*
X51110370Y-55512991D01*
X51099393Y-55506539D01*
X51070890Y-55492092D01*
X51027844Y-55471097D01*
X50973238Y-55445003D01*
X50910054Y-55415254D01*
X50878671Y-55400620D01*
X50797678Y-55362550D01*
X50735356Y-55331895D01*
X50689671Y-55307063D01*
X50658589Y-55286463D01*
X50640078Y-55268502D01*
X50632104Y-55251590D01*
X50632634Y-55234135D01*
X50639635Y-55214545D01*
X50639977Y-55213790D01*
X50660278Y-55187187D01*
X50681161Y-55172530D01*
X50690952Y-55169662D01*
X50703961Y-55169804D01*
G37*
X51189312Y-62368376D02*
X51218859Y-62380002D01*
X51245086Y-62400123D01*
X51285176Y-62441016D01*
X51315749Y-62486617D01*
X51337803Y-62540313D01*
X51352335Y-62605492D01*
X51360341Y-62685544D01*
X51362818Y-62783857D01*
X51362777Y-62800089D01*
X51361418Y-62865649D01*
X51358330Y-62930666D01*
X51353956Y-62988052D01*
X51348740Y-63030722D01*
X51348141Y-63034172D01*
X51338091Y-63076596D01*
X51325396Y-63112580D01*
X51313790Y-63132950D01*
X51283172Y-63151907D01*
X51247518Y-63153227D01*
X51215744Y-63136885D01*
X51212151Y-63133229D01*
X51201476Y-63118115D01*
X51196876Y-63099215D01*
X51197659Y-63069962D01*
X51201727Y-63034451D01*
X51205362Y-62994770D01*
X51208428Y-62939145D01*
X51210653Y-62874206D01*
X51211764Y-62806585D01*
X51211837Y-62788800D01*
X51211564Y-62720928D01*
X51210246Y-62671254D01*
X51207427Y-62635410D01*
X51202650Y-62609024D01*
X51195457Y-62587726D01*
X51189467Y-62574926D01*
X51172833Y-62546800D01*
X51157768Y-62528868D01*
X51153497Y-62526247D01*
X51135863Y-62531776D01*
X51118792Y-62558060D01*
X51103058Y-62603278D01*
X51089438Y-62665608D01*
X51086404Y-62683971D01*
X51071338Y-62779890D01*
X51058746Y-62856441D01*
X51047711Y-62916580D01*
X51037320Y-62963260D01*
X51026656Y-62999437D01*
X51014805Y-63028065D01*
X51000851Y-63052098D01*
X50983881Y-63074492D01*
X50962978Y-63098202D01*
X50955649Y-63106180D01*
X50928299Y-63134153D01*
X50906629Y-63148960D01*
X50881832Y-63154752D01*
X50850583Y-63155689D01*
X50789305Y-63145375D01*
X50737240Y-63114552D01*
X50694558Y-63063395D01*
X50661425Y-62992083D01*
X50646564Y-62941200D01*
X50636966Y-62885900D01*
X50631536Y-62819653D01*
X50629967Y-62746506D01*
X50631951Y-62670503D01*
X50637181Y-62595688D01*
X50645350Y-62526106D01*
X50656150Y-62465802D01*
X50669273Y-62418820D01*
X50684413Y-62389206D01*
X50688869Y-62384660D01*
X50723450Y-62368854D01*
X50758951Y-62373647D01*
X50789325Y-62398164D01*
X50790196Y-62399334D01*
X50799554Y-62413754D01*
X50804476Y-62428808D01*
X50805073Y-62449805D01*
X50801461Y-62482057D01*
X50793754Y-62530873D01*
X50793105Y-62534800D01*
X50784169Y-62607539D01*
X50779761Y-62686017D01*
X50779719Y-62764727D01*
X50783879Y-62838161D01*
X50792079Y-62900811D01*
X50804157Y-62947170D01*
X50805371Y-62950216D01*
X50824215Y-62983848D01*
X50843285Y-62995664D01*
X50862039Y-62986414D01*
X50879937Y-62956847D01*
X50896437Y-62907711D01*
X50910996Y-62839757D01*
X50918006Y-62794445D01*
X50931489Y-62700256D01*
X50943814Y-62625344D01*
X50956049Y-62566517D01*
X50969261Y-62520585D01*
X50984517Y-62484355D01*
X51002885Y-62454638D01*
X51025431Y-62428242D01*
X51047571Y-62407030D01*
X51078419Y-62381865D01*
X51104945Y-62369481D01*
X51137626Y-62365608D01*
X51149595Y-62365467D01*
X51189312Y-62368376D01*
G36*
X51189312Y-62368376D02*
G01*
X51218859Y-62380002D01*
X51245086Y-62400123D01*
X51285176Y-62441016D01*
X51315749Y-62486617D01*
X51337803Y-62540313D01*
X51352335Y-62605492D01*
X51360341Y-62685544D01*
X51362818Y-62783857D01*
X51362777Y-62800089D01*
X51361418Y-62865649D01*
X51358330Y-62930666D01*
X51353956Y-62988052D01*
X51348740Y-63030722D01*
X51348141Y-63034172D01*
X51338091Y-63076596D01*
X51325396Y-63112580D01*
X51313790Y-63132950D01*
X51283172Y-63151907D01*
X51247518Y-63153227D01*
X51215744Y-63136885D01*
X51212151Y-63133229D01*
X51201476Y-63118115D01*
X51196876Y-63099215D01*
X51197659Y-63069962D01*
X51201727Y-63034451D01*
X51205362Y-62994770D01*
X51208428Y-62939145D01*
X51210653Y-62874206D01*
X51211764Y-62806585D01*
X51211837Y-62788800D01*
X51211564Y-62720928D01*
X51210246Y-62671254D01*
X51207427Y-62635410D01*
X51202650Y-62609024D01*
X51195457Y-62587726D01*
X51189467Y-62574926D01*
X51172833Y-62546800D01*
X51157768Y-62528868D01*
X51153497Y-62526247D01*
X51135863Y-62531776D01*
X51118792Y-62558060D01*
X51103058Y-62603278D01*
X51089438Y-62665608D01*
X51086404Y-62683971D01*
X51071338Y-62779890D01*
X51058746Y-62856441D01*
X51047711Y-62916580D01*
X51037320Y-62963260D01*
X51026656Y-62999437D01*
X51014805Y-63028065D01*
X51000851Y-63052098D01*
X50983881Y-63074492D01*
X50962978Y-63098202D01*
X50955649Y-63106180D01*
X50928299Y-63134153D01*
X50906629Y-63148960D01*
X50881832Y-63154752D01*
X50850583Y-63155689D01*
X50789305Y-63145375D01*
X50737240Y-63114552D01*
X50694558Y-63063395D01*
X50661425Y-62992083D01*
X50646564Y-62941200D01*
X50636966Y-62885900D01*
X50631536Y-62819653D01*
X50629967Y-62746506D01*
X50631951Y-62670503D01*
X50637181Y-62595688D01*
X50645350Y-62526106D01*
X50656150Y-62465802D01*
X50669273Y-62418820D01*
X50684413Y-62389206D01*
X50688869Y-62384660D01*
X50723450Y-62368854D01*
X50758951Y-62373647D01*
X50789325Y-62398164D01*
X50790196Y-62399334D01*
X50799554Y-62413754D01*
X50804476Y-62428808D01*
X50805073Y-62449805D01*
X50801461Y-62482057D01*
X50793754Y-62530873D01*
X50793105Y-62534800D01*
X50784169Y-62607539D01*
X50779761Y-62686017D01*
X50779719Y-62764727D01*
X50783879Y-62838161D01*
X50792079Y-62900811D01*
X50804157Y-62947170D01*
X50805371Y-62950216D01*
X50824215Y-62983848D01*
X50843285Y-62995664D01*
X50862039Y-62986414D01*
X50879937Y-62956847D01*
X50896437Y-62907711D01*
X50910996Y-62839757D01*
X50918006Y-62794445D01*
X50931489Y-62700256D01*
X50943814Y-62625344D01*
X50956049Y-62566517D01*
X50969261Y-62520585D01*
X50984517Y-62484355D01*
X51002885Y-62454638D01*
X51025431Y-62428242D01*
X51047571Y-62407030D01*
X51078419Y-62381865D01*
X51104945Y-62369481D01*
X51137626Y-62365608D01*
X51149595Y-62365467D01*
X51189312Y-62368376D01*
G37*
X49518318Y-57720654D02*
X49535599Y-57746233D01*
X49558883Y-57785927D01*
X49586534Y-57836503D01*
X49616915Y-57894726D01*
X49648390Y-57957363D01*
X49679322Y-58021179D01*
X49708073Y-58082940D01*
X49733008Y-58139412D01*
X49752489Y-58187362D01*
X49760918Y-58210814D01*
X49798733Y-58344579D01*
X49823736Y-58482473D01*
X49836740Y-58630178D01*
X49839068Y-58756967D01*
X49837973Y-58824922D01*
X49835875Y-58890523D01*
X49833034Y-58947953D01*
X49829706Y-58991397D01*
X49828022Y-59005502D01*
X49799187Y-59144516D01*
X49754068Y-59286043D01*
X49695350Y-59423525D01*
X49625720Y-59550406D01*
X49573041Y-59627911D01*
X49464839Y-59755319D01*
X49338271Y-59873622D01*
X49196466Y-59980628D01*
X49042551Y-60074148D01*
X48879653Y-60151990D01*
X48762356Y-60195844D01*
X48578728Y-60246092D01*
X48384181Y-60279591D01*
X48182925Y-60296351D01*
X47979168Y-60296384D01*
X47777121Y-60279699D01*
X47580992Y-60246307D01*
X47394991Y-60196220D01*
X47383403Y-60192403D01*
X47221350Y-60129519D01*
X47073432Y-60052772D01*
X46935465Y-59959558D01*
X46803261Y-59847273D01*
X46757999Y-59803408D01*
X46634057Y-59667266D01*
X46531515Y-59527309D01*
X46449256Y-59381389D01*
X46386164Y-59227358D01*
X46341123Y-59063068D01*
X46323633Y-58967511D01*
X46308066Y-58808777D01*
X46310671Y-58650371D01*
X46331845Y-58490230D01*
X46371985Y-58326290D01*
X46431489Y-58156487D01*
X46510754Y-57978757D01*
X46516299Y-57967490D01*
X46544325Y-57909795D01*
X46568402Y-57858248D01*
X46586849Y-57816609D01*
X46597986Y-57788638D01*
X46600533Y-57779067D01*
X46605541Y-57759850D01*
X46609747Y-57755239D01*
X46620180Y-57760342D01*
X46646468Y-57776382D01*
X46685857Y-57801512D01*
X46735591Y-57833886D01*
X46792915Y-57871657D01*
X46855076Y-57912978D01*
X46919318Y-57956002D01*
X46982885Y-57998883D01*
X47043025Y-58039774D01*
X47096980Y-58076829D01*
X47141997Y-58108200D01*
X47175321Y-58132041D01*
X47194197Y-58146506D01*
X47196387Y-58148491D01*
X47191738Y-58158609D01*
X47174562Y-58180950D01*
X47148040Y-58211520D01*
X47133564Y-58227264D01*
X47058282Y-58323753D01*
X47002841Y-58430464D01*
X46967741Y-58545968D01*
X46953480Y-58668838D01*
X46954651Y-58738239D01*
X46971812Y-58859377D01*
X47007694Y-58968595D01*
X47062559Y-59066218D01*
X47136670Y-59152572D01*
X47230288Y-59227985D01*
X47343676Y-59292782D01*
X47430267Y-59330199D01*
X47565966Y-59374052D01*
X47713450Y-59406372D01*
X47868914Y-59427243D01*
X48028556Y-59436749D01*
X48188573Y-59434973D01*
X48345161Y-59421997D01*
X48494518Y-59397906D01*
X48632840Y-59362782D01*
X48756324Y-59316708D01*
X48790578Y-59300427D01*
X48904664Y-59232180D01*
X49001157Y-59151721D01*
X49079270Y-59060230D01*
X49138217Y-58958889D01*
X49177212Y-58848880D01*
X49195468Y-58731385D01*
X49196811Y-58689917D01*
X49185890Y-58568359D01*
X49153074Y-58447922D01*
X49099039Y-58330134D01*
X49024465Y-58216523D01*
X48946139Y-58125115D01*
X48901608Y-58078585D01*
X49198871Y-57897317D01*
X49273033Y-57852220D01*
X49341246Y-57810981D01*
X49401059Y-57775065D01*
X49450020Y-57745934D01*
X49485679Y-57725050D01*
X49505584Y-57713876D01*
X49508679Y-57712425D01*
X49518318Y-57720654D01*
G36*
X49518318Y-57720654D02*
G01*
X49535599Y-57746233D01*
X49558883Y-57785927D01*
X49586534Y-57836503D01*
X49616915Y-57894726D01*
X49648390Y-57957363D01*
X49679322Y-58021179D01*
X49708073Y-58082940D01*
X49733008Y-58139412D01*
X49752489Y-58187362D01*
X49760918Y-58210814D01*
X49798733Y-58344579D01*
X49823736Y-58482473D01*
X49836740Y-58630178D01*
X49839068Y-58756967D01*
X49837973Y-58824922D01*
X49835875Y-58890523D01*
X49833034Y-58947953D01*
X49829706Y-58991397D01*
X49828022Y-59005502D01*
X49799187Y-59144516D01*
X49754068Y-59286043D01*
X49695350Y-59423525D01*
X49625720Y-59550406D01*
X49573041Y-59627911D01*
X49464839Y-59755319D01*
X49338271Y-59873622D01*
X49196466Y-59980628D01*
X49042551Y-60074148D01*
X48879653Y-60151990D01*
X48762356Y-60195844D01*
X48578728Y-60246092D01*
X48384181Y-60279591D01*
X48182925Y-60296351D01*
X47979168Y-60296384D01*
X47777121Y-60279699D01*
X47580992Y-60246307D01*
X47394991Y-60196220D01*
X47383403Y-60192403D01*
X47221350Y-60129519D01*
X47073432Y-60052772D01*
X46935465Y-59959558D01*
X46803261Y-59847273D01*
X46757999Y-59803408D01*
X46634057Y-59667266D01*
X46531515Y-59527309D01*
X46449256Y-59381389D01*
X46386164Y-59227358D01*
X46341123Y-59063068D01*
X46323633Y-58967511D01*
X46308066Y-58808777D01*
X46310671Y-58650371D01*
X46331845Y-58490230D01*
X46371985Y-58326290D01*
X46431489Y-58156487D01*
X46510754Y-57978757D01*
X46516299Y-57967490D01*
X46544325Y-57909795D01*
X46568402Y-57858248D01*
X46586849Y-57816609D01*
X46597986Y-57788638D01*
X46600533Y-57779067D01*
X46605541Y-57759850D01*
X46609747Y-57755239D01*
X46620180Y-57760342D01*
X46646468Y-57776382D01*
X46685857Y-57801512D01*
X46735591Y-57833886D01*
X46792915Y-57871657D01*
X46855076Y-57912978D01*
X46919318Y-57956002D01*
X46982885Y-57998883D01*
X47043025Y-58039774D01*
X47096980Y-58076829D01*
X47141997Y-58108200D01*
X47175321Y-58132041D01*
X47194197Y-58146506D01*
X47196387Y-58148491D01*
X47191738Y-58158609D01*
X47174562Y-58180950D01*
X47148040Y-58211520D01*
X47133564Y-58227264D01*
X47058282Y-58323753D01*
X47002841Y-58430464D01*
X46967741Y-58545968D01*
X46953480Y-58668838D01*
X46954651Y-58738239D01*
X46971812Y-58859377D01*
X47007694Y-58968595D01*
X47062559Y-59066218D01*
X47136670Y-59152572D01*
X47230288Y-59227985D01*
X47343676Y-59292782D01*
X47430267Y-59330199D01*
X47565966Y-59374052D01*
X47713450Y-59406372D01*
X47868914Y-59427243D01*
X48028556Y-59436749D01*
X48188573Y-59434973D01*
X48345161Y-59421997D01*
X48494518Y-59397906D01*
X48632840Y-59362782D01*
X48756324Y-59316708D01*
X48790578Y-59300427D01*
X48904664Y-59232180D01*
X49001157Y-59151721D01*
X49079270Y-59060230D01*
X49138217Y-58958889D01*
X49177212Y-58848880D01*
X49195468Y-58731385D01*
X49196811Y-58689917D01*
X49185890Y-58568359D01*
X49153074Y-58447922D01*
X49099039Y-58330134D01*
X49024465Y-58216523D01*
X48946139Y-58125115D01*
X48901608Y-58078585D01*
X49198871Y-57897317D01*
X49273033Y-57852220D01*
X49341246Y-57810981D01*
X49401059Y-57775065D01*
X49450020Y-57745934D01*
X49485679Y-57725050D01*
X49505584Y-57713876D01*
X49508679Y-57712425D01*
X49518318Y-57720654D01*
G37*
X49795289Y-53548845D02*
X49699333Y-53548845D01*
X49655970Y-53549576D01*
X49622805Y-53551528D01*
X49605024Y-53554337D01*
X49603378Y-53555579D01*
X49610262Y-53567001D01*
X49628105Y-53589716D01*
X49647479Y-53612415D01*
X49688214Y-53667000D01*
X49729217Y-53736479D01*
X49766723Y-53813530D01*
X49796964Y-53890835D01*
X49806612Y-53921687D01*
X49821178Y-53990184D01*
X49831139Y-54073036D01*
X49836183Y-54162429D01*
X49835996Y-54250552D01*
X49830266Y-54329593D01*
X49824458Y-54367289D01*
X49786397Y-54505386D01*
X49728673Y-54632687D01*
X49651811Y-54748508D01*
X49556339Y-54852163D01*
X49442779Y-54942967D01*
X49331981Y-55009769D01*
X49215225Y-55064636D01*
X49095876Y-55106637D01*
X48969883Y-55136633D01*
X48833194Y-55155489D01*
X48681758Y-55164068D01*
X48604311Y-55164794D01*
X48547534Y-55162700D01*
X48391495Y-55156943D01*
X48195659Y-55134998D01*
X48016932Y-55099014D01*
X47855445Y-55049041D01*
X47711326Y-54985132D01*
X47584706Y-54907338D01*
X47475715Y-54815711D01*
X47384483Y-54710303D01*
X47353532Y-54665138D01*
X47297385Y-54564189D01*
X47257774Y-54460899D01*
X47233614Y-54350811D01*
X47223819Y-54229470D01*
X47224865Y-54136964D01*
X47235831Y-54007310D01*
X47254831Y-53909243D01*
X47809065Y-53909243D01*
X47812322Y-53990584D01*
X47831215Y-54063420D01*
X47846784Y-54095374D01*
X47889781Y-54153299D01*
X47946553Y-54202256D01*
X48019175Y-54243410D01*
X48109721Y-54277926D01*
X48220266Y-54306967D01*
X48226133Y-54308248D01*
X48288388Y-54318419D01*
X48366194Y-54326061D01*
X48454320Y-54331130D01*
X48547534Y-54333583D01*
X48640602Y-54333376D01*
X48728292Y-54330463D01*
X48805372Y-54324800D01*
X48866609Y-54316345D01*
X48878950Y-54313762D01*
X48986233Y-54281960D01*
X49073258Y-54240302D01*
X49140242Y-54188437D01*
X49187405Y-54126019D01*
X49214965Y-54052700D01*
X49223141Y-53968131D01*
X49212151Y-53871965D01*
X49196429Y-53808489D01*
X49178239Y-53759346D01*
X49152391Y-53705217D01*
X49128689Y-53664556D01*
X49082321Y-53594000D01*
X47932130Y-53594000D01*
X47888562Y-53661408D01*
X47847640Y-53739933D01*
X47820989Y-53824119D01*
X47809065Y-53909243D01*
X47254831Y-53909243D01*
X47257646Y-53894716D01*
X47291314Y-53795925D01*
X47337836Y-53707679D01*
X47372048Y-53658814D01*
X47393962Y-53629447D01*
X47408933Y-53607757D01*
X47413333Y-53599547D01*
X47402504Y-53597932D01*
X47371851Y-53596641D01*
X47324126Y-53595662D01*
X47262079Y-53594983D01*
X47188462Y-53594590D01*
X47106027Y-53594470D01*
X47017525Y-53594612D01*
X46925707Y-53595003D01*
X46833324Y-53595629D01*
X46743128Y-53596480D01*
X46657871Y-53597540D01*
X46580303Y-53598799D01*
X46513176Y-53600244D01*
X46459241Y-53601862D01*
X46421250Y-53603639D01*
X46414267Y-53604131D01*
X46343851Y-53611708D01*
X46288702Y-53623269D01*
X46241581Y-53641008D01*
X46195247Y-53667118D01*
X46185667Y-53673385D01*
X46148978Y-53697817D01*
X46148978Y-52792489D01*
X47833845Y-52792293D01*
X48068262Y-52792274D01*
X48281203Y-52792248D01*
X48473768Y-52792175D01*
X48647059Y-52792018D01*
X48802176Y-52791736D01*
X48940220Y-52791291D01*
X49062292Y-52790644D01*
X49169494Y-52789755D01*
X49262926Y-52788587D01*
X49343690Y-52787099D01*
X49412886Y-52785254D01*
X49471615Y-52783011D01*
X49520979Y-52780331D01*
X49562078Y-52777177D01*
X49596013Y-52773508D01*
X49623886Y-52769287D01*
X49646798Y-52764473D01*
X49665849Y-52759027D01*
X49682140Y-52752912D01*
X49696773Y-52746088D01*
X49710849Y-52738515D01*
X49725468Y-52730155D01*
X49734574Y-52724961D01*
X49795289Y-52690696D01*
X49795289Y-53548845D01*
G36*
X49795289Y-53548845D02*
G01*
X49699333Y-53548845D01*
X49655970Y-53549576D01*
X49622805Y-53551528D01*
X49605024Y-53554337D01*
X49603378Y-53555579D01*
X49610262Y-53567001D01*
X49628105Y-53589716D01*
X49647479Y-53612415D01*
X49688214Y-53667000D01*
X49729217Y-53736479D01*
X49766723Y-53813530D01*
X49796964Y-53890835D01*
X49806612Y-53921687D01*
X49821178Y-53990184D01*
X49831139Y-54073036D01*
X49836183Y-54162429D01*
X49835996Y-54250552D01*
X49830266Y-54329593D01*
X49824458Y-54367289D01*
X49786397Y-54505386D01*
X49728673Y-54632687D01*
X49651811Y-54748508D01*
X49556339Y-54852163D01*
X49442779Y-54942967D01*
X49331981Y-55009769D01*
X49215225Y-55064636D01*
X49095876Y-55106637D01*
X48969883Y-55136633D01*
X48833194Y-55155489D01*
X48681758Y-55164068D01*
X48604311Y-55164794D01*
X48547534Y-55162700D01*
X48391495Y-55156943D01*
X48195659Y-55134998D01*
X48016932Y-55099014D01*
X47855445Y-55049041D01*
X47711326Y-54985132D01*
X47584706Y-54907338D01*
X47475715Y-54815711D01*
X47384483Y-54710303D01*
X47353532Y-54665138D01*
X47297385Y-54564189D01*
X47257774Y-54460899D01*
X47233614Y-54350811D01*
X47223819Y-54229470D01*
X47224865Y-54136964D01*
X47235831Y-54007310D01*
X47254831Y-53909243D01*
X47809065Y-53909243D01*
X47812322Y-53990584D01*
X47831215Y-54063420D01*
X47846784Y-54095374D01*
X47889781Y-54153299D01*
X47946553Y-54202256D01*
X48019175Y-54243410D01*
X48109721Y-54277926D01*
X48220266Y-54306967D01*
X48226133Y-54308248D01*
X48288388Y-54318419D01*
X48366194Y-54326061D01*
X48454320Y-54331130D01*
X48547534Y-54333583D01*
X48640602Y-54333376D01*
X48728292Y-54330463D01*
X48805372Y-54324800D01*
X48866609Y-54316345D01*
X48878950Y-54313762D01*
X48986233Y-54281960D01*
X49073258Y-54240302D01*
X49140242Y-54188437D01*
X49187405Y-54126019D01*
X49214965Y-54052700D01*
X49223141Y-53968131D01*
X49212151Y-53871965D01*
X49196429Y-53808489D01*
X49178239Y-53759346D01*
X49152391Y-53705217D01*
X49128689Y-53664556D01*
X49082321Y-53594000D01*
X47932130Y-53594000D01*
X47888562Y-53661408D01*
X47847640Y-53739933D01*
X47820989Y-53824119D01*
X47809065Y-53909243D01*
X47254831Y-53909243D01*
X47257646Y-53894716D01*
X47291314Y-53795925D01*
X47337836Y-53707679D01*
X47372048Y-53658814D01*
X47393962Y-53629447D01*
X47408933Y-53607757D01*
X47413333Y-53599547D01*
X47402504Y-53597932D01*
X47371851Y-53596641D01*
X47324126Y-53595662D01*
X47262079Y-53594983D01*
X47188462Y-53594590D01*
X47106027Y-53594470D01*
X47017525Y-53594612D01*
X46925707Y-53595003D01*
X46833324Y-53595629D01*
X46743128Y-53596480D01*
X46657871Y-53597540D01*
X46580303Y-53598799D01*
X46513176Y-53600244D01*
X46459241Y-53601862D01*
X46421250Y-53603639D01*
X46414267Y-53604131D01*
X46343851Y-53611708D01*
X46288702Y-53623269D01*
X46241581Y-53641008D01*
X46195247Y-53667118D01*
X46185667Y-53673385D01*
X46148978Y-53697817D01*
X46148978Y-52792489D01*
X47833845Y-52792293D01*
X48068262Y-52792274D01*
X48281203Y-52792248D01*
X48473768Y-52792175D01*
X48647059Y-52792018D01*
X48802176Y-52791736D01*
X48940220Y-52791291D01*
X49062292Y-52790644D01*
X49169494Y-52789755D01*
X49262926Y-52788587D01*
X49343690Y-52787099D01*
X49412886Y-52785254D01*
X49471615Y-52783011D01*
X49520979Y-52780331D01*
X49562078Y-52777177D01*
X49596013Y-52773508D01*
X49623886Y-52769287D01*
X49646798Y-52764473D01*
X49665849Y-52759027D01*
X49682140Y-52752912D01*
X49696773Y-52746088D01*
X49710849Y-52738515D01*
X49725468Y-52730155D01*
X49734574Y-52724961D01*
X49795289Y-52690696D01*
X49795289Y-53548845D01*
G37*
X49787721Y-55377233D02*
X49789747Y-55408218D01*
X49791542Y-55456843D01*
X49793051Y-55520637D01*
X49794216Y-55597131D01*
X49794980Y-55683856D01*
X49795286Y-55778343D01*
X49795289Y-55789250D01*
X49795289Y-56212143D01*
X49699222Y-56215405D01*
X49603156Y-56218667D01*
X49654143Y-56280756D01*
X49721657Y-56378086D01*
X49776349Y-56487987D01*
X49806578Y-56574451D01*
X49821266Y-56643522D01*
X49831259Y-56726875D01*
X49836246Y-56816641D01*
X49835913Y-56904955D01*
X49829951Y-56983949D01*
X49824238Y-57020178D01*
X49786376Y-57160197D01*
X49731532Y-57286622D01*
X49660524Y-57398540D01*
X49574168Y-57495038D01*
X49473279Y-57575200D01*
X49358676Y-57638113D01*
X49232584Y-57682488D01*
X49176001Y-57694822D01*
X49113802Y-57702432D01*
X49038963Y-57706061D01*
X49005067Y-57706555D01*
X49001882Y-57706490D01*
X48911312Y-57704622D01*
X48832412Y-57696278D01*
X48761190Y-57680032D01*
X48690464Y-57654395D01*
X48638093Y-57630399D01*
X48542796Y-57571780D01*
X48454770Y-57493683D01*
X48375617Y-57398485D01*
X48306940Y-57288562D01*
X48250341Y-57166290D01*
X48207421Y-57034045D01*
X48192482Y-56969378D01*
X48170377Y-56833196D01*
X48155794Y-56684751D01*
X48149413Y-56533295D01*
X48150710Y-56432694D01*
X48673442Y-56432694D01*
X48678696Y-56553470D01*
X48694863Y-56656140D01*
X48722561Y-56742694D01*
X48762408Y-56815119D01*
X48809358Y-56870049D01*
X48867245Y-56914596D01*
X48930293Y-56939320D01*
X49001882Y-56946552D01*
X49076933Y-56937259D01*
X49140760Y-56909072D01*
X49196398Y-56860603D01*
X49200811Y-56855546D01*
X49235637Y-56807252D01*
X49258220Y-56755543D01*
X49270140Y-56694811D01*
X49272983Y-56619448D01*
X49272578Y-56601341D01*
X49269925Y-56547522D01*
X49264509Y-56507492D01*
X49254345Y-56472476D01*
X49237450Y-56433697D01*
X49232272Y-56423055D01*
X49196444Y-56362404D01*
X49153812Y-56315585D01*
X49138573Y-56302848D01*
X49082062Y-56258178D01*
X48886186Y-56258178D01*
X48807539Y-56258714D01*
X48749588Y-56260404D01*
X48710475Y-56263372D01*
X48688341Y-56267743D01*
X48681874Y-56271828D01*
X48678711Y-56287753D01*
X48676088Y-56321536D01*
X48674255Y-56368460D01*
X48673457Y-56423807D01*
X48673442Y-56432694D01*
X48150710Y-56432694D01*
X48151045Y-56406736D01*
X48157824Y-56244850D01*
X48098845Y-56252270D01*
X47999692Y-56271562D01*
X47918972Y-56302696D01*
X47856066Y-56346531D01*
X47810356Y-56403929D01*
X47781222Y-56475752D01*
X47768047Y-56562859D01*
X47770211Y-56666114D01*
X47774212Y-56704089D01*
X47799380Y-56845280D01*
X47840414Y-56982093D01*
X47878415Y-57076622D01*
X47897790Y-57121782D01*
X47913360Y-57160215D01*
X47923005Y-57186566D01*
X47925052Y-57194254D01*
X47915974Y-57203998D01*
X47887005Y-57220717D01*
X47837817Y-57244568D01*
X47768084Y-57275707D01*
X47677479Y-57314293D01*
X47661689Y-57320890D01*
X47589372Y-57350947D01*
X47524025Y-57377926D01*
X47468506Y-57400664D01*
X47425672Y-57417994D01*
X47398381Y-57428752D01*
X47389542Y-57431859D01*
X47384787Y-57421860D01*
X47379510Y-57395583D01*
X47375831Y-57367311D01*
X47371074Y-57337154D01*
X47361628Y-57289367D01*
X47348420Y-57228188D01*
X47332376Y-57157854D01*
X47314420Y-57082606D01*
X47307397Y-57054045D01*
X47281809Y-56948984D01*
X47261747Y-56861320D01*
X47246569Y-56786732D01*
X47235635Y-56720897D01*
X47228304Y-56659493D01*
X47223935Y-56598198D01*
X47221887Y-56532690D01*
X47221489Y-56474672D01*
X47228152Y-56305226D01*
X47248167Y-56153308D01*
X47281802Y-56018044D01*
X47329325Y-55898561D01*
X47391005Y-55793985D01*
X47454565Y-55716376D01*
X47528699Y-55647535D01*
X47608471Y-55593794D01*
X47700691Y-55550890D01*
X47743761Y-55535416D01*
X47782742Y-55522556D01*
X47818889Y-55511354D01*
X47854034Y-55501680D01*
X47890010Y-55493404D01*
X47928650Y-55486397D01*
X47971785Y-55480528D01*
X48021249Y-55475669D01*
X48078873Y-55471690D01*
X48146491Y-55468460D01*
X48225934Y-55465851D01*
X48319036Y-55463733D01*
X48427627Y-55461976D01*
X48553542Y-55460451D01*
X48698612Y-55459028D01*
X48841378Y-55457775D01*
X48997568Y-55456449D01*
X49132839Y-55455244D01*
X49248846Y-55454034D01*
X49347245Y-55452694D01*
X49429693Y-55451100D01*
X49497846Y-55449125D01*
X49553360Y-55446644D01*
X49597892Y-55443531D01*
X49633098Y-55439662D01*
X49660634Y-55434911D01*
X49682156Y-55429152D01*
X49699322Y-55422261D01*
X49713786Y-55414111D01*
X49727206Y-55404577D01*
X49741238Y-55393534D01*
X49746671Y-55389234D01*
X49769510Y-55373414D01*
X49785063Y-55366378D01*
X49785522Y-55366356D01*
X49787721Y-55377233D01*
G36*
X49787721Y-55377233D02*
G01*
X49789747Y-55408218D01*
X49791542Y-55456843D01*
X49793051Y-55520637D01*
X49794216Y-55597131D01*
X49794980Y-55683856D01*
X49795286Y-55778343D01*
X49795289Y-55789250D01*
X49795289Y-56212143D01*
X49699222Y-56215405D01*
X49603156Y-56218667D01*
X49654143Y-56280756D01*
X49721657Y-56378086D01*
X49776349Y-56487987D01*
X49806578Y-56574451D01*
X49821266Y-56643522D01*
X49831259Y-56726875D01*
X49836246Y-56816641D01*
X49835913Y-56904955D01*
X49829951Y-56983949D01*
X49824238Y-57020178D01*
X49786376Y-57160197D01*
X49731532Y-57286622D01*
X49660524Y-57398540D01*
X49574168Y-57495038D01*
X49473279Y-57575200D01*
X49358676Y-57638113D01*
X49232584Y-57682488D01*
X49176001Y-57694822D01*
X49113802Y-57702432D01*
X49038963Y-57706061D01*
X49005067Y-57706555D01*
X49001882Y-57706490D01*
X48911312Y-57704622D01*
X48832412Y-57696278D01*
X48761190Y-57680032D01*
X48690464Y-57654395D01*
X48638093Y-57630399D01*
X48542796Y-57571780D01*
X48454770Y-57493683D01*
X48375617Y-57398485D01*
X48306940Y-57288562D01*
X48250341Y-57166290D01*
X48207421Y-57034045D01*
X48192482Y-56969378D01*
X48170377Y-56833196D01*
X48155794Y-56684751D01*
X48149413Y-56533295D01*
X48150710Y-56432694D01*
X48673442Y-56432694D01*
X48678696Y-56553470D01*
X48694863Y-56656140D01*
X48722561Y-56742694D01*
X48762408Y-56815119D01*
X48809358Y-56870049D01*
X48867245Y-56914596D01*
X48930293Y-56939320D01*
X49001882Y-56946552D01*
X49076933Y-56937259D01*
X49140760Y-56909072D01*
X49196398Y-56860603D01*
X49200811Y-56855546D01*
X49235637Y-56807252D01*
X49258220Y-56755543D01*
X49270140Y-56694811D01*
X49272983Y-56619448D01*
X49272578Y-56601341D01*
X49269925Y-56547522D01*
X49264509Y-56507492D01*
X49254345Y-56472476D01*
X49237450Y-56433697D01*
X49232272Y-56423055D01*
X49196444Y-56362404D01*
X49153812Y-56315585D01*
X49138573Y-56302848D01*
X49082062Y-56258178D01*
X48886186Y-56258178D01*
X48807539Y-56258714D01*
X48749588Y-56260404D01*
X48710475Y-56263372D01*
X48688341Y-56267743D01*
X48681874Y-56271828D01*
X48678711Y-56287753D01*
X48676088Y-56321536D01*
X48674255Y-56368460D01*
X48673457Y-56423807D01*
X48673442Y-56432694D01*
X48150710Y-56432694D01*
X48151045Y-56406736D01*
X48157824Y-56244850D01*
X48098845Y-56252270D01*
X47999692Y-56271562D01*
X47918972Y-56302696D01*
X47856066Y-56346531D01*
X47810356Y-56403929D01*
X47781222Y-56475752D01*
X47768047Y-56562859D01*
X47770211Y-56666114D01*
X47774212Y-56704089D01*
X47799380Y-56845280D01*
X47840414Y-56982093D01*
X47878415Y-57076622D01*
X47897790Y-57121782D01*
X47913360Y-57160215D01*
X47923005Y-57186566D01*
X47925052Y-57194254D01*
X47915974Y-57203998D01*
X47887005Y-57220717D01*
X47837817Y-57244568D01*
X47768084Y-57275707D01*
X47677479Y-57314293D01*
X47661689Y-57320890D01*
X47589372Y-57350947D01*
X47524025Y-57377926D01*
X47468506Y-57400664D01*
X47425672Y-57417994D01*
X47398381Y-57428752D01*
X47389542Y-57431859D01*
X47384787Y-57421860D01*
X47379510Y-57395583D01*
X47375831Y-57367311D01*
X47371074Y-57337154D01*
X47361628Y-57289367D01*
X47348420Y-57228188D01*
X47332376Y-57157854D01*
X47314420Y-57082606D01*
X47307397Y-57054045D01*
X47281809Y-56948984D01*
X47261747Y-56861320D01*
X47246569Y-56786732D01*
X47235635Y-56720897D01*
X47228304Y-56659493D01*
X47223935Y-56598198D01*
X47221887Y-56532690D01*
X47221489Y-56474672D01*
X47228152Y-56305226D01*
X47248167Y-56153308D01*
X47281802Y-56018044D01*
X47329325Y-55898561D01*
X47391005Y-55793985D01*
X47454565Y-55716376D01*
X47528699Y-55647535D01*
X47608471Y-55593794D01*
X47700691Y-55550890D01*
X47743761Y-55535416D01*
X47782742Y-55522556D01*
X47818889Y-55511354D01*
X47854034Y-55501680D01*
X47890010Y-55493404D01*
X47928650Y-55486397D01*
X47971785Y-55480528D01*
X48021249Y-55475669D01*
X48078873Y-55471690D01*
X48146491Y-55468460D01*
X48225934Y-55465851D01*
X48319036Y-55463733D01*
X48427627Y-55461976D01*
X48553542Y-55460451D01*
X48698612Y-55459028D01*
X48841378Y-55457775D01*
X48997568Y-55456449D01*
X49132839Y-55455244D01*
X49248846Y-55454034D01*
X49347245Y-55452694D01*
X49429693Y-55451100D01*
X49497846Y-55449125D01*
X49553360Y-55446644D01*
X49597892Y-55443531D01*
X49633098Y-55439662D01*
X49660634Y-55434911D01*
X49682156Y-55429152D01*
X49699322Y-55422261D01*
X49713786Y-55414111D01*
X49727206Y-55404577D01*
X49741238Y-55393534D01*
X49746671Y-55389234D01*
X49769510Y-55373414D01*
X49785063Y-55366378D01*
X49785522Y-55366356D01*
X49787721Y-55377233D01*
G37*
X48284339Y-60536676D02*
X48524841Y-60536708D01*
X48744648Y-60536772D01*
X48944701Y-60536876D01*
X49125944Y-60537027D01*
X49289316Y-60537234D01*
X49435760Y-60537506D01*
X49566217Y-60537850D01*
X49681629Y-60538274D01*
X49782938Y-60538787D01*
X49871084Y-60539397D01*
X49947010Y-60540112D01*
X50011657Y-60540940D01*
X50065967Y-60541889D01*
X50110880Y-60542967D01*
X50147340Y-60544183D01*
X50176287Y-60545545D01*
X50198663Y-60547061D01*
X50215409Y-60548738D01*
X50227468Y-60550586D01*
X50235780Y-60552613D01*
X50241287Y-60554825D01*
X50243137Y-60555908D01*
X50250149Y-60560071D01*
X50256596Y-60563605D01*
X50262500Y-60567435D01*
X50267886Y-60572482D01*
X50272778Y-60579671D01*
X50277198Y-60589923D01*
X50281172Y-60604164D01*
X50284721Y-60623314D01*
X50287870Y-60648299D01*
X50290642Y-60680040D01*
X50293061Y-60719462D01*
X50295151Y-60767486D01*
X50296935Y-60825037D01*
X50298437Y-60893037D01*
X50299680Y-60972410D01*
X50300689Y-61064079D01*
X50301485Y-61168966D01*
X50302094Y-61287996D01*
X50302539Y-61422090D01*
X50302843Y-61572173D01*
X50303030Y-61739167D01*
X50303124Y-61923996D01*
X50303148Y-62127583D01*
X50303125Y-62350850D01*
X50303080Y-62594722D01*
X50303037Y-62860121D01*
X50303032Y-62898504D01*
X50302989Y-63165482D01*
X50302918Y-63410802D01*
X50302813Y-63635383D01*
X50302666Y-63840145D01*
X50302469Y-64026006D01*
X50302216Y-64193888D01*
X50301900Y-64344708D01*
X50301513Y-64479387D01*
X50301047Y-64598844D01*
X50300497Y-64703999D01*
X50299853Y-64795771D01*
X50299111Y-64875079D01*
X50298261Y-64942843D01*
X50297297Y-64999982D01*
X50296211Y-65047417D01*
X50294997Y-65086066D01*
X50293647Y-65116849D01*
X50292155Y-65140685D01*
X50290511Y-65158494D01*
X50288711Y-65171195D01*
X50286745Y-65179708D01*
X50285077Y-65184066D01*
X50281506Y-65192528D01*
X50278870Y-65200297D01*
X50276234Y-65207402D01*
X50272662Y-65213873D01*
X50267221Y-65219739D01*
X50258975Y-65225029D01*
X50246990Y-65229774D01*
X50230331Y-65234002D01*
X50208063Y-65237743D01*
X50179252Y-65241027D01*
X50142963Y-65243883D01*
X50098261Y-65246340D01*
X50044211Y-65248429D01*
X49979879Y-65250178D01*
X49904330Y-65251617D01*
X49816630Y-65252776D01*
X49715843Y-65253683D01*
X49601034Y-65254369D01*
X49471270Y-65254863D01*
X49325615Y-65255195D01*
X49163135Y-65255393D01*
X48982895Y-65255487D01*
X48783960Y-65255508D01*
X48565396Y-65255485D01*
X48326268Y-65255446D01*
X48065640Y-65255422D01*
X48023489Y-65255422D01*
X47760592Y-65255436D01*
X47519332Y-65255461D01*
X47298765Y-65255471D01*
X47097952Y-65255442D01*
X46915949Y-65255348D01*
X46751816Y-65255162D01*
X46604611Y-65254859D01*
X46473392Y-65254414D01*
X46363467Y-65253834D01*
X46357217Y-65253801D01*
X46255144Y-65252995D01*
X46166233Y-65251970D01*
X46089541Y-65250700D01*
X46024127Y-65249160D01*
X45969049Y-65247324D01*
X45923365Y-65245167D01*
X45886134Y-65242663D01*
X45856413Y-65239787D01*
X45833262Y-65236513D01*
X45815739Y-65232815D01*
X45802901Y-65228669D01*
X45793808Y-65224047D01*
X45787518Y-65218926D01*
X45783088Y-65213278D01*
X45779578Y-65207079D01*
X45776045Y-65200304D01*
X45772476Y-65194308D01*
X45769900Y-65189075D01*
X45767572Y-65180899D01*
X45765478Y-65168686D01*
X45763607Y-65151341D01*
X45761947Y-65127769D01*
X45760484Y-65096877D01*
X45759208Y-65057568D01*
X45758104Y-65008750D01*
X45757188Y-64950997D01*
X46363467Y-64950997D01*
X46421311Y-64911207D01*
X46437079Y-64900036D01*
X46451041Y-64889966D01*
X46464384Y-64880938D01*
X46478293Y-64872897D01*
X46493956Y-64865786D01*
X46512558Y-64859547D01*
X46535286Y-64854125D01*
X46563327Y-64849462D01*
X46597867Y-64845501D01*
X46640092Y-64842185D01*
X46691189Y-64839459D01*
X46752344Y-64837264D01*
X46824744Y-64835545D01*
X46909575Y-64834244D01*
X47008022Y-64833305D01*
X47121274Y-64832670D01*
X47250516Y-64832284D01*
X47396934Y-64832088D01*
X47561716Y-64832027D01*
X47746047Y-64832043D01*
X47951113Y-64832080D01*
X48073733Y-64832089D01*
X48290682Y-64832065D01*
X48486242Y-64832031D01*
X48661599Y-64832043D01*
X48817941Y-64832158D01*
X48956457Y-64832430D01*
X49078334Y-64832918D01*
X49184760Y-64833676D01*
X49276922Y-64834762D01*
X49356009Y-64836231D01*
X49423208Y-64838140D01*
X49479707Y-64840544D01*
X49526693Y-64843501D01*
X49565355Y-64847066D01*
X49596880Y-64851295D01*
X49622455Y-64856246D01*
X49643270Y-64861973D01*
X49660511Y-64868533D01*
X49675365Y-64875983D01*
X49689022Y-64884379D01*
X49702669Y-64893776D01*
X49717493Y-64904232D01*
X49726383Y-64910323D01*
X49784000Y-64949096D01*
X49784000Y-64417532D01*
X49783965Y-64294283D01*
X49783815Y-64191787D01*
X49783478Y-64108220D01*
X49782886Y-64041756D01*
X49781967Y-63990571D01*
X49780651Y-63952841D01*
X49778869Y-63926740D01*
X49776551Y-63910444D01*
X49773626Y-63902128D01*
X49770024Y-63899968D01*
X49765675Y-63902139D01*
X49764245Y-63903335D01*
X49727173Y-63928485D01*
X49674372Y-63954383D01*
X49612370Y-63977992D01*
X49585957Y-63986261D01*
X49568016Y-63990878D01*
X49546955Y-63994779D01*
X49520689Y-63998048D01*
X49487132Y-64000766D01*
X49444199Y-64003015D01*
X49389804Y-64004877D01*
X49321862Y-64006436D01*
X49238288Y-64007772D01*
X49136995Y-64008969D01*
X49015900Y-64010108D01*
X48971200Y-64010485D01*
X48846049Y-64011502D01*
X48741682Y-64012260D01*
X48656307Y-64012703D01*
X48588133Y-64012770D01*
X48535365Y-64012405D01*
X48496214Y-64011548D01*
X48468885Y-64010141D01*
X48451586Y-64008125D01*
X48442526Y-64005443D01*
X48439912Y-64002036D01*
X48441951Y-63997844D01*
X48446267Y-63993371D01*
X48459202Y-63983016D01*
X48488276Y-63960958D01*
X48531359Y-63928757D01*
X48586318Y-63887974D01*
X48651023Y-63840170D01*
X48723342Y-63786905D01*
X48801144Y-63729740D01*
X48882298Y-63670237D01*
X48964672Y-63609955D01*
X49046136Y-63550455D01*
X49124557Y-63493298D01*
X49197804Y-63440045D01*
X49263747Y-63392257D01*
X49320254Y-63351493D01*
X49365193Y-63319316D01*
X49396434Y-63297285D01*
X49403066Y-63292717D01*
X49439969Y-63269796D01*
X49487959Y-63242988D01*
X49537497Y-63217589D01*
X49544177Y-63214368D01*
X49592372Y-63192690D01*
X49629934Y-63180104D01*
X49665760Y-63174374D01*
X49707800Y-63173256D01*
X49784000Y-63173890D01*
X49784000Y-62019451D01*
X49690269Y-62110615D01*
X49640375Y-62157412D01*
X49583895Y-62207699D01*
X49529626Y-62253744D01*
X49504273Y-62274169D01*
X49464728Y-62304607D01*
X49411516Y-62344662D01*
X49346267Y-62393161D01*
X49270611Y-62448935D01*
X49186177Y-62510811D01*
X49094594Y-62577619D01*
X48997492Y-62648187D01*
X48896501Y-62721345D01*
X48793250Y-62795921D01*
X48689368Y-62870744D01*
X48586485Y-62944643D01*
X48486231Y-63016446D01*
X48390236Y-63084984D01*
X48300127Y-63149084D01*
X48217536Y-63207575D01*
X48144092Y-63259286D01*
X48081424Y-63303047D01*
X48031161Y-63337685D01*
X47994934Y-63362030D01*
X47974371Y-63374911D01*
X47970268Y-63376669D01*
X47958942Y-63368710D01*
X47931762Y-63347915D01*
X47890429Y-63315647D01*
X47836644Y-63273270D01*
X47772106Y-63222147D01*
X47698518Y-63163641D01*
X47617578Y-63099114D01*
X47530988Y-63029931D01*
X47440448Y-62957453D01*
X47347660Y-62883046D01*
X47273302Y-62823317D01*
X47254322Y-62808070D01*
X47162137Y-62733890D01*
X47072804Y-62661869D01*
X46988024Y-62593369D01*
X46909498Y-62529755D01*
X46838926Y-62472388D01*
X46778009Y-62422633D01*
X46728447Y-62381852D01*
X46707778Y-62364688D01*
X46607116Y-62278396D01*
X46523859Y-62201797D01*
X46456038Y-62132983D01*
X46401689Y-62070048D01*
X46394322Y-62060667D01*
X46363717Y-62021156D01*
X46363467Y-63152916D01*
X46411444Y-63147627D01*
X46468788Y-63150930D01*
X46537063Y-63172461D01*
X46616812Y-63212435D01*
X46689095Y-63257743D01*
X46711740Y-63273961D01*
X46749296Y-63302014D01*
X46799621Y-63340230D01*
X46860573Y-63386937D01*
X46930011Y-63440461D01*
X47005794Y-63499131D01*
X47085780Y-63561275D01*
X47167828Y-63625221D01*
X47249796Y-63689295D01*
X47329543Y-63751827D01*
X47404927Y-63811143D01*
X47473807Y-63865571D01*
X47534042Y-63913439D01*
X47583489Y-63953075D01*
X47620008Y-63982806D01*
X47641458Y-64000961D01*
X47644756Y-64004020D01*
X47636749Y-64006879D01*
X47606455Y-64009093D01*
X47554156Y-64010657D01*
X47480131Y-64011567D01*
X47384663Y-64011820D01*
X47268034Y-64011413D01*
X47148045Y-64010504D01*
X47015933Y-64009182D01*
X46904194Y-64007657D01*
X46810625Y-64005681D01*
X46733019Y-64003006D01*
X46669174Y-63999382D01*
X46616883Y-63994561D01*
X46573944Y-63988294D01*
X46538151Y-63980332D01*
X46507300Y-63970427D01*
X46479186Y-63958331D01*
X46451605Y-63943793D01*
X46426566Y-63929111D01*
X46363467Y-63891114D01*
X46363467Y-64950997D01*
X45757188Y-64950997D01*
X45757161Y-64949327D01*
X45756367Y-64878204D01*
X45755709Y-64794288D01*
X45755175Y-64696483D01*
X45754753Y-64583694D01*
X45754429Y-64454829D01*
X45754192Y-64308791D01*
X45754030Y-64144486D01*
X45753930Y-63960820D01*
X45753880Y-63756697D01*
X45753867Y-63545553D01*
X45753867Y-61925200D01*
X45850654Y-61925200D01*
X45964593Y-61914335D01*
X46072216Y-61882718D01*
X46171215Y-61831815D01*
X46259284Y-61763093D01*
X46334116Y-61678019D01*
X46391984Y-61581032D01*
X46431605Y-61474764D01*
X46450173Y-61367750D01*
X46450161Y-61366653D01*
X47266578Y-61366653D01*
X47266742Y-61464470D01*
X47267211Y-61554864D01*
X47267947Y-61635430D01*
X47268916Y-61703762D01*
X47270080Y-61757456D01*
X47271403Y-61794105D01*
X47272849Y-61811304D01*
X47273302Y-61812311D01*
X47286259Y-61806402D01*
X47308508Y-61792072D01*
X47309991Y-61791025D01*
X47340144Y-61772238D01*
X47376975Y-61752591D01*
X47385111Y-61748692D01*
X47393540Y-61745156D01*
X47403659Y-61742030D01*
X47416860Y-61739286D01*
X47434538Y-61736892D01*
X47458084Y-61734819D01*
X47488893Y-61733035D01*
X47528357Y-61731512D01*
X47577869Y-61730219D01*
X47638823Y-61729126D01*
X47712611Y-61728203D01*
X47800628Y-61727419D01*
X47904265Y-61726745D01*
X48024916Y-61726150D01*
X48163974Y-61725605D01*
X48322832Y-61725079D01*
X48501689Y-61724545D01*
X48686807Y-61724006D01*
X48850745Y-61723572D01*
X48994903Y-61723309D01*
X49120679Y-61723284D01*
X49229471Y-61723565D01*
X49322677Y-61724219D01*
X49401697Y-61725314D01*
X49467928Y-61726918D01*
X49522770Y-61729097D01*
X49567621Y-61731919D01*
X49603878Y-61735451D01*
X49632941Y-61739761D01*
X49656209Y-61744917D01*
X49675079Y-61750985D01*
X49690951Y-61758033D01*
X49705222Y-61766129D01*
X49719291Y-61775340D01*
X49731758Y-61783840D01*
X49758052Y-61800976D01*
X49775637Y-61811122D01*
X49778857Y-61812311D01*
X49779934Y-61801404D01*
X49780935Y-61770211D01*
X49781835Y-61721023D01*
X49782610Y-61656133D01*
X49783237Y-61577830D01*
X49783691Y-61488407D01*
X49783949Y-61390156D01*
X49784000Y-61321245D01*
X49783780Y-61216252D01*
X49783148Y-61119410D01*
X49782149Y-61032907D01*
X49780827Y-60958932D01*
X49779226Y-60899674D01*
X49777391Y-60857320D01*
X49775365Y-60834060D01*
X49774093Y-60830178D01*
X49759191Y-60837876D01*
X49751160Y-60845874D01*
X49734034Y-60859046D01*
X49703783Y-60876285D01*
X49679222Y-60888207D01*
X49620311Y-60914845D01*
X48443445Y-60917920D01*
X47266578Y-60920995D01*
X47266578Y-61366653D01*
X46450161Y-61366653D01*
X46449034Y-61262100D01*
X46429530Y-61159925D01*
X46393006Y-61063334D01*
X46340805Y-60974438D01*
X46274273Y-60895346D01*
X46194752Y-60828169D01*
X46103587Y-60775017D01*
X46002123Y-60737999D01*
X45891702Y-60719227D01*
X45841806Y-60717289D01*
X45753867Y-60717289D01*
X45753867Y-60665360D01*
X45756711Y-60629053D01*
X45768511Y-60602155D01*
X45792249Y-60575049D01*
X45830631Y-60536667D01*
X48022202Y-60536667D01*
X48284339Y-60536676D01*
G36*
X48284339Y-60536676D02*
G01*
X48524841Y-60536708D01*
X48744648Y-60536772D01*
X48944701Y-60536876D01*
X49125944Y-60537027D01*
X49289316Y-60537234D01*
X49435760Y-60537506D01*
X49566217Y-60537850D01*
X49681629Y-60538274D01*
X49782938Y-60538787D01*
X49871084Y-60539397D01*
X49947010Y-60540112D01*
X50011657Y-60540940D01*
X50065967Y-60541889D01*
X50110880Y-60542967D01*
X50147340Y-60544183D01*
X50176287Y-60545545D01*
X50198663Y-60547061D01*
X50215409Y-60548738D01*
X50227468Y-60550586D01*
X50235780Y-60552613D01*
X50241287Y-60554825D01*
X50243137Y-60555908D01*
X50250149Y-60560071D01*
X50256596Y-60563605D01*
X50262500Y-60567435D01*
X50267886Y-60572482D01*
X50272778Y-60579671D01*
X50277198Y-60589923D01*
X50281172Y-60604164D01*
X50284721Y-60623314D01*
X50287870Y-60648299D01*
X50290642Y-60680040D01*
X50293061Y-60719462D01*
X50295151Y-60767486D01*
X50296935Y-60825037D01*
X50298437Y-60893037D01*
X50299680Y-60972410D01*
X50300689Y-61064079D01*
X50301485Y-61168966D01*
X50302094Y-61287996D01*
X50302539Y-61422090D01*
X50302843Y-61572173D01*
X50303030Y-61739167D01*
X50303124Y-61923996D01*
X50303148Y-62127583D01*
X50303125Y-62350850D01*
X50303080Y-62594722D01*
X50303037Y-62860121D01*
X50303032Y-62898504D01*
X50302989Y-63165482D01*
X50302918Y-63410802D01*
X50302813Y-63635383D01*
X50302666Y-63840145D01*
X50302469Y-64026006D01*
X50302216Y-64193888D01*
X50301900Y-64344708D01*
X50301513Y-64479387D01*
X50301047Y-64598844D01*
X50300497Y-64703999D01*
X50299853Y-64795771D01*
X50299111Y-64875079D01*
X50298261Y-64942843D01*
X50297297Y-64999982D01*
X50296211Y-65047417D01*
X50294997Y-65086066D01*
X50293647Y-65116849D01*
X50292155Y-65140685D01*
X50290511Y-65158494D01*
X50288711Y-65171195D01*
X50286745Y-65179708D01*
X50285077Y-65184066D01*
X50281506Y-65192528D01*
X50278870Y-65200297D01*
X50276234Y-65207402D01*
X50272662Y-65213873D01*
X50267221Y-65219739D01*
X50258975Y-65225029D01*
X50246990Y-65229774D01*
X50230331Y-65234002D01*
X50208063Y-65237743D01*
X50179252Y-65241027D01*
X50142963Y-65243883D01*
X50098261Y-65246340D01*
X50044211Y-65248429D01*
X49979879Y-65250178D01*
X49904330Y-65251617D01*
X49816630Y-65252776D01*
X49715843Y-65253683D01*
X49601034Y-65254369D01*
X49471270Y-65254863D01*
X49325615Y-65255195D01*
X49163135Y-65255393D01*
X48982895Y-65255487D01*
X48783960Y-65255508D01*
X48565396Y-65255485D01*
X48326268Y-65255446D01*
X48065640Y-65255422D01*
X48023489Y-65255422D01*
X47760592Y-65255436D01*
X47519332Y-65255461D01*
X47298765Y-65255471D01*
X47097952Y-65255442D01*
X46915949Y-65255348D01*
X46751816Y-65255162D01*
X46604611Y-65254859D01*
X46473392Y-65254414D01*
X46363467Y-65253834D01*
X46357217Y-65253801D01*
X46255144Y-65252995D01*
X46166233Y-65251970D01*
X46089541Y-65250700D01*
X46024127Y-65249160D01*
X45969049Y-65247324D01*
X45923365Y-65245167D01*
X45886134Y-65242663D01*
X45856413Y-65239787D01*
X45833262Y-65236513D01*
X45815739Y-65232815D01*
X45802901Y-65228669D01*
X45793808Y-65224047D01*
X45787518Y-65218926D01*
X45783088Y-65213278D01*
X45779578Y-65207079D01*
X45776045Y-65200304D01*
X45772476Y-65194308D01*
X45769900Y-65189075D01*
X45767572Y-65180899D01*
X45765478Y-65168686D01*
X45763607Y-65151341D01*
X45761947Y-65127769D01*
X45760484Y-65096877D01*
X45759208Y-65057568D01*
X45758104Y-65008750D01*
X45757188Y-64950997D01*
X46363467Y-64950997D01*
X46421311Y-64911207D01*
X46437079Y-64900036D01*
X46451041Y-64889966D01*
X46464384Y-64880938D01*
X46478293Y-64872897D01*
X46493956Y-64865786D01*
X46512558Y-64859547D01*
X46535286Y-64854125D01*
X46563327Y-64849462D01*
X46597867Y-64845501D01*
X46640092Y-64842185D01*
X46691189Y-64839459D01*
X46752344Y-64837264D01*
X46824744Y-64835545D01*
X46909575Y-64834244D01*
X47008022Y-64833305D01*
X47121274Y-64832670D01*
X47250516Y-64832284D01*
X47396934Y-64832088D01*
X47561716Y-64832027D01*
X47746047Y-64832043D01*
X47951113Y-64832080D01*
X48073733Y-64832089D01*
X48290682Y-64832065D01*
X48486242Y-64832031D01*
X48661599Y-64832043D01*
X48817941Y-64832158D01*
X48956457Y-64832430D01*
X49078334Y-64832918D01*
X49184760Y-64833676D01*
X49276922Y-64834762D01*
X49356009Y-64836231D01*
X49423208Y-64838140D01*
X49479707Y-64840544D01*
X49526693Y-64843501D01*
X49565355Y-64847066D01*
X49596880Y-64851295D01*
X49622455Y-64856246D01*
X49643270Y-64861973D01*
X49660511Y-64868533D01*
X49675365Y-64875983D01*
X49689022Y-64884379D01*
X49702669Y-64893776D01*
X49717493Y-64904232D01*
X49726383Y-64910323D01*
X49784000Y-64949096D01*
X49784000Y-64417532D01*
X49783965Y-64294283D01*
X49783815Y-64191787D01*
X49783478Y-64108220D01*
X49782886Y-64041756D01*
X49781967Y-63990571D01*
X49780651Y-63952841D01*
X49778869Y-63926740D01*
X49776551Y-63910444D01*
X49773626Y-63902128D01*
X49770024Y-63899968D01*
X49765675Y-63902139D01*
X49764245Y-63903335D01*
X49727173Y-63928485D01*
X49674372Y-63954383D01*
X49612370Y-63977992D01*
X49585957Y-63986261D01*
X49568016Y-63990878D01*
X49546955Y-63994779D01*
X49520689Y-63998048D01*
X49487132Y-64000766D01*
X49444199Y-64003015D01*
X49389804Y-64004877D01*
X49321862Y-64006436D01*
X49238288Y-64007772D01*
X49136995Y-64008969D01*
X49015900Y-64010108D01*
X48971200Y-64010485D01*
X48846049Y-64011502D01*
X48741682Y-64012260D01*
X48656307Y-64012703D01*
X48588133Y-64012770D01*
X48535365Y-64012405D01*
X48496214Y-64011548D01*
X48468885Y-64010141D01*
X48451586Y-64008125D01*
X48442526Y-64005443D01*
X48439912Y-64002036D01*
X48441951Y-63997844D01*
X48446267Y-63993371D01*
X48459202Y-63983016D01*
X48488276Y-63960958D01*
X48531359Y-63928757D01*
X48586318Y-63887974D01*
X48651023Y-63840170D01*
X48723342Y-63786905D01*
X48801144Y-63729740D01*
X48882298Y-63670237D01*
X48964672Y-63609955D01*
X49046136Y-63550455D01*
X49124557Y-63493298D01*
X49197804Y-63440045D01*
X49263747Y-63392257D01*
X49320254Y-63351493D01*
X49365193Y-63319316D01*
X49396434Y-63297285D01*
X49403066Y-63292717D01*
X49439969Y-63269796D01*
X49487959Y-63242988D01*
X49537497Y-63217589D01*
X49544177Y-63214368D01*
X49592372Y-63192690D01*
X49629934Y-63180104D01*
X49665760Y-63174374D01*
X49707800Y-63173256D01*
X49784000Y-63173890D01*
X49784000Y-62019451D01*
X49690269Y-62110615D01*
X49640375Y-62157412D01*
X49583895Y-62207699D01*
X49529626Y-62253744D01*
X49504273Y-62274169D01*
X49464728Y-62304607D01*
X49411516Y-62344662D01*
X49346267Y-62393161D01*
X49270611Y-62448935D01*
X49186177Y-62510811D01*
X49094594Y-62577619D01*
X48997492Y-62648187D01*
X48896501Y-62721345D01*
X48793250Y-62795921D01*
X48689368Y-62870744D01*
X48586485Y-62944643D01*
X48486231Y-63016446D01*
X48390236Y-63084984D01*
X48300127Y-63149084D01*
X48217536Y-63207575D01*
X48144092Y-63259286D01*
X48081424Y-63303047D01*
X48031161Y-63337685D01*
X47994934Y-63362030D01*
X47974371Y-63374911D01*
X47970268Y-63376669D01*
X47958942Y-63368710D01*
X47931762Y-63347915D01*
X47890429Y-63315647D01*
X47836644Y-63273270D01*
X47772106Y-63222147D01*
X47698518Y-63163641D01*
X47617578Y-63099114D01*
X47530988Y-63029931D01*
X47440448Y-62957453D01*
X47347660Y-62883046D01*
X47273302Y-62823317D01*
X47254322Y-62808070D01*
X47162137Y-62733890D01*
X47072804Y-62661869D01*
X46988024Y-62593369D01*
X46909498Y-62529755D01*
X46838926Y-62472388D01*
X46778009Y-62422633D01*
X46728447Y-62381852D01*
X46707778Y-62364688D01*
X46607116Y-62278396D01*
X46523859Y-62201797D01*
X46456038Y-62132983D01*
X46401689Y-62070048D01*
X46394322Y-62060667D01*
X46363717Y-62021156D01*
X46363467Y-63152916D01*
X46411444Y-63147627D01*
X46468788Y-63150930D01*
X46537063Y-63172461D01*
X46616812Y-63212435D01*
X46689095Y-63257743D01*
X46711740Y-63273961D01*
X46749296Y-63302014D01*
X46799621Y-63340230D01*
X46860573Y-63386937D01*
X46930011Y-63440461D01*
X47005794Y-63499131D01*
X47085780Y-63561275D01*
X47167828Y-63625221D01*
X47249796Y-63689295D01*
X47329543Y-63751827D01*
X47404927Y-63811143D01*
X47473807Y-63865571D01*
X47534042Y-63913439D01*
X47583489Y-63953075D01*
X47620008Y-63982806D01*
X47641458Y-64000961D01*
X47644756Y-64004020D01*
X47636749Y-64006879D01*
X47606455Y-64009093D01*
X47554156Y-64010657D01*
X47480131Y-64011567D01*
X47384663Y-64011820D01*
X47268034Y-64011413D01*
X47148045Y-64010504D01*
X47015933Y-64009182D01*
X46904194Y-64007657D01*
X46810625Y-64005681D01*
X46733019Y-64003006D01*
X46669174Y-63999382D01*
X46616883Y-63994561D01*
X46573944Y-63988294D01*
X46538151Y-63980332D01*
X46507300Y-63970427D01*
X46479186Y-63958331D01*
X46451605Y-63943793D01*
X46426566Y-63929111D01*
X46363467Y-63891114D01*
X46363467Y-64950997D01*
X45757188Y-64950997D01*
X45757161Y-64949327D01*
X45756367Y-64878204D01*
X45755709Y-64794288D01*
X45755175Y-64696483D01*
X45754753Y-64583694D01*
X45754429Y-64454829D01*
X45754192Y-64308791D01*
X45754030Y-64144486D01*
X45753930Y-63960820D01*
X45753880Y-63756697D01*
X45753867Y-63545553D01*
X45753867Y-61925200D01*
X45850654Y-61925200D01*
X45964593Y-61914335D01*
X46072216Y-61882718D01*
X46171215Y-61831815D01*
X46259284Y-61763093D01*
X46334116Y-61678019D01*
X46391984Y-61581032D01*
X46431605Y-61474764D01*
X46450173Y-61367750D01*
X46450161Y-61366653D01*
X47266578Y-61366653D01*
X47266742Y-61464470D01*
X47267211Y-61554864D01*
X47267947Y-61635430D01*
X47268916Y-61703762D01*
X47270080Y-61757456D01*
X47271403Y-61794105D01*
X47272849Y-61811304D01*
X47273302Y-61812311D01*
X47286259Y-61806402D01*
X47308508Y-61792072D01*
X47309991Y-61791025D01*
X47340144Y-61772238D01*
X47376975Y-61752591D01*
X47385111Y-61748692D01*
X47393540Y-61745156D01*
X47403659Y-61742030D01*
X47416860Y-61739286D01*
X47434538Y-61736892D01*
X47458084Y-61734819D01*
X47488893Y-61733035D01*
X47528357Y-61731512D01*
X47577869Y-61730219D01*
X47638823Y-61729126D01*
X47712611Y-61728203D01*
X47800628Y-61727419D01*
X47904265Y-61726745D01*
X48024916Y-61726150D01*
X48163974Y-61725605D01*
X48322832Y-61725079D01*
X48501689Y-61724545D01*
X48686807Y-61724006D01*
X48850745Y-61723572D01*
X48994903Y-61723309D01*
X49120679Y-61723284D01*
X49229471Y-61723565D01*
X49322677Y-61724219D01*
X49401697Y-61725314D01*
X49467928Y-61726918D01*
X49522770Y-61729097D01*
X49567621Y-61731919D01*
X49603878Y-61735451D01*
X49632941Y-61739761D01*
X49656209Y-61744917D01*
X49675079Y-61750985D01*
X49690951Y-61758033D01*
X49705222Y-61766129D01*
X49719291Y-61775340D01*
X49731758Y-61783840D01*
X49758052Y-61800976D01*
X49775637Y-61811122D01*
X49778857Y-61812311D01*
X49779934Y-61801404D01*
X49780935Y-61770211D01*
X49781835Y-61721023D01*
X49782610Y-61656133D01*
X49783237Y-61577830D01*
X49783691Y-61488407D01*
X49783949Y-61390156D01*
X49784000Y-61321245D01*
X49783780Y-61216252D01*
X49783148Y-61119410D01*
X49782149Y-61032907D01*
X49780827Y-60958932D01*
X49779226Y-60899674D01*
X49777391Y-60857320D01*
X49775365Y-60834060D01*
X49774093Y-60830178D01*
X49759191Y-60837876D01*
X49751160Y-60845874D01*
X49734034Y-60859046D01*
X49703783Y-60876285D01*
X49679222Y-60888207D01*
X49620311Y-60914845D01*
X48443445Y-60917920D01*
X47266578Y-60920995D01*
X47266578Y-61366653D01*
X46450161Y-61366653D01*
X46449034Y-61262100D01*
X46429530Y-61159925D01*
X46393006Y-61063334D01*
X46340805Y-60974438D01*
X46274273Y-60895346D01*
X46194752Y-60828169D01*
X46103587Y-60775017D01*
X46002123Y-60737999D01*
X45891702Y-60719227D01*
X45841806Y-60717289D01*
X45753867Y-60717289D01*
X45753867Y-60665360D01*
X45756711Y-60629053D01*
X45768511Y-60602155D01*
X45792249Y-60575049D01*
X45830631Y-60536667D01*
X48022202Y-60536667D01*
X48284339Y-60536676D01*
G37*
%TD*%
M02*
