%TF.GenerationSoftware,KiCad,Pcbnew,8.0.1*%
%TF.CreationDate,2024-04-04T11:04:08+02:00*%
%TF.ProjectId,ZX Spectrum AMP,5a582053-7065-4637-9472-756d20414d50,rev?*%
%TF.SameCoordinates,Original*%
%TF.FileFunction,Copper,L2,Bot*%
%TF.FilePolarity,Positive*%
%FSLAX46Y46*%
G04 Gerber Fmt 4.6, Leading zero omitted, Abs format (unit mm)*
G04 Created by KiCad (PCBNEW 8.0.1) date 2024-04-04 11:04:08*
%MOMM*%
%LPD*%
G01*
G04 APERTURE LIST*
%TA.AperFunction,ComponentPad*%
%ADD10C,1.600000*%
%TD*%
%TA.AperFunction,ComponentPad*%
%ADD11O,1.600000X1.600000*%
%TD*%
%TA.AperFunction,ComponentPad*%
%ADD12R,1.700000X1.700000*%
%TD*%
%TA.AperFunction,ComponentPad*%
%ADD13O,1.700000X1.700000*%
%TD*%
%TA.AperFunction,ComponentPad*%
%ADD14R,1.600000X1.600000*%
%TD*%
%TA.AperFunction,ComponentPad*%
%ADD15C,2.000000*%
%TD*%
%TA.AperFunction,ComponentPad*%
%ADD16C,2.340000*%
%TD*%
%TA.AperFunction,ComponentPad*%
%ADD17R,4.600000X2.000000*%
%TD*%
%TA.AperFunction,ComponentPad*%
%ADD18O,4.200000X2.000000*%
%TD*%
%TA.AperFunction,ComponentPad*%
%ADD19O,2.000000X4.200000*%
%TD*%
%TA.AperFunction,Conductor*%
%ADD20C,0.500000*%
%TD*%
G04 APERTURE END LIST*
D10*
%TO.P,R1,1*%
%TO.N,Net-(C5-Pad2)*%
X69770000Y-50550000D03*
D11*
%TO.P,R1,2*%
%TO.N,GND*%
X79930000Y-50550000D03*
%TD*%
D12*
%TO.P,HT1,1,1*%
%TO.N,Net-(C4-Pad2)*%
X44810600Y-36677600D03*
D13*
%TO.P,HT1,2,2*%
%TO.N,GND*%
X42270600Y-36677600D03*
%TD*%
D14*
%TO.P,C2,1*%
%TO.N,Net-(IC1-BYPASS)*%
X86500000Y-51975000D03*
D10*
%TO.P,C2,2*%
%TO.N,GND*%
X89000000Y-51975000D03*
%TD*%
D14*
%TO.P,C3,1*%
%TO.N,+9V*%
X86400000Y-68125000D03*
D10*
%TO.P,C3,2*%
%TO.N,GND*%
X88900000Y-68125000D03*
%TD*%
D14*
%TO.P,C4,1*%
%TO.N,Net-(C4-Pad1)*%
X76800000Y-42075000D03*
D10*
%TO.P,C4,2*%
%TO.N,Net-(C4-Pad2)*%
X76800000Y-39575000D03*
%TD*%
D14*
%TO.P,C5,1*%
%TO.N,Net-(C4-Pad1)*%
X68646100Y-43950000D03*
D10*
%TO.P,C5,2*%
%TO.N,Net-(C5-Pad2)*%
X71146100Y-43950000D03*
%TD*%
D14*
%TO.P,IC1,1,GAIN*%
%TO.N,unconnected-(IC1-GAIN-Pad1)*%
X70002400Y-57006800D03*
D11*
%TO.P,IC1,2,-*%
%TO.N,GND*%
X70002400Y-59546800D03*
%TO.P,IC1,3,+*%
%TO.N,Net-(IC1-+)*%
X70002400Y-62086800D03*
%TO.P,IC1,4,GND*%
%TO.N,GND*%
X70002400Y-64626800D03*
%TO.P,IC1,5*%
%TO.N,Net-(C4-Pad1)*%
X77622400Y-64626800D03*
%TO.P,IC1,6,V+*%
%TO.N,+9V*%
X77622400Y-62086800D03*
%TO.P,IC1,7,BYPASS*%
%TO.N,Net-(IC1-BYPASS)*%
X77622400Y-59546800D03*
%TO.P,IC1,8,GAIN*%
%TO.N,unconnected-(IC1-GAIN-Pad8)*%
X77622400Y-57006800D03*
%TD*%
D15*
%TO.P,C1,1*%
%TO.N,Net-(IC1-+)*%
X62534800Y-56914400D03*
%TO.P,C1,2*%
%TO.N,GND*%
X62534800Y-64414400D03*
%TD*%
D12*
%TO.P,J3,1,Pin_1*%
%TO.N,+9V*%
X60040600Y-45421400D03*
D13*
%TO.P,J3,2,Pin_2*%
%TO.N,GND*%
X62580600Y-45421400D03*
%TD*%
D12*
%TO.P,MIC1,1,Pin_1*%
%TO.N,Net-(MIC1-Pin_1)*%
X49779000Y-45421400D03*
D13*
%TO.P,MIC1,2,Pin_2*%
%TO.N,GND*%
X52319000Y-45421400D03*
%TD*%
D16*
%TO.P,P1,1,1*%
%TO.N,Net-(MIC1-Pin_1)*%
X38750800Y-54750800D03*
%TO.P,P1,2,2*%
%TO.N,Net-(IC1-+)*%
X38750800Y-59750800D03*
%TO.P,P1,3,3*%
%TO.N,GND*%
X38750800Y-64750800D03*
%TD*%
D17*
%TO.P,J1,1*%
%TO.N,GND*%
X73761600Y-71221600D03*
D18*
%TO.P,J1,2*%
%TO.N,+9V*%
X73761600Y-77521600D03*
D19*
%TO.P,J1,3*%
%TO.N,unconnected-(J1-Pad3)*%
X78561600Y-74121600D03*
%TD*%
D16*
%TO.P,P2,1,1*%
%TO.N,Net-(MIC1-Pin_1)*%
X41698400Y-72012800D03*
%TO.P,P2,2,2*%
%TO.N,Net-(J2-Pad1)*%
X44198400Y-82012800D03*
%TO.P,P2,3,3*%
%TO.N,GND*%
X46698400Y-72012800D03*
%TD*%
D17*
%TO.P,J2,1*%
%TO.N,Net-(J2-Pad1)*%
X57829100Y-69247600D03*
D18*
%TO.P,J2,2*%
%TO.N,GND*%
X57929100Y-82397600D03*
D19*
%TO.P,J2,3*%
%TO.N,unconnected-(J2-Pad3)*%
X63229100Y-71552600D03*
%TD*%
D20*
%TO.N,GND*%
X55122400Y-44019700D02*
X53720700Y-45421400D01*
X62580600Y-45421400D02*
X61178900Y-44019700D01*
X89000000Y-68025000D02*
X89000000Y-51975000D01*
X61178900Y-44019700D02*
X55122400Y-44019700D01*
X53019900Y-45421400D02*
X53720700Y-45421400D01*
X73693800Y-69669900D02*
X73761600Y-69669900D01*
X62580600Y-52125000D02*
X62580600Y-45421400D01*
X70002400Y-59546800D02*
X62580600Y-52125000D01*
X52319000Y-45421400D02*
X53019900Y-45421400D01*
X46179100Y-40586100D02*
X42270600Y-36677600D01*
X46698400Y-72012800D02*
X39436400Y-64750800D01*
X73761600Y-71221600D02*
X73761600Y-69669900D01*
X70002400Y-64626800D02*
X70002400Y-65978500D01*
X70002400Y-65978500D02*
X73693800Y-69669900D01*
X88900000Y-68125000D02*
X89000000Y-68025000D01*
X39436400Y-64750800D02*
X38750800Y-64750800D01*
X48184600Y-40586100D02*
X46179100Y-40586100D01*
X53019900Y-45421400D02*
X48184600Y-40586100D01*
%TO.N,Net-(IC1-BYPASS)*%
X77622400Y-59546800D02*
X78974100Y-59546800D01*
X85194200Y-53326700D02*
X86500000Y-53326700D01*
X86500000Y-51975000D02*
X86500000Y-53326700D01*
X78974100Y-59546800D02*
X85194200Y-53326700D01*
%TO.N,+9V*%
X73761600Y-75969900D02*
X76613300Y-73118200D01*
X79057300Y-63521700D02*
X77622400Y-62086800D01*
X76613300Y-73118200D02*
X76613300Y-70569000D01*
X76613300Y-70569000D02*
X79057300Y-68125000D01*
X73761600Y-77521600D02*
X73761600Y-75969900D01*
X79057300Y-68125000D02*
X79057300Y-63521700D01*
X79057300Y-68125000D02*
X86400000Y-68125000D01*
%TO.N,Net-(C4-Pad1)*%
X76262000Y-63266400D02*
X76262000Y-43964700D01*
X76800000Y-42075000D02*
X76800000Y-43426700D01*
X77622400Y-64626800D02*
X76262000Y-63266400D01*
X76262000Y-43964700D02*
X76800000Y-43426700D01*
%TO.N,Net-(C4-Pad2)*%
X76800000Y-39575000D02*
X49109700Y-39575000D01*
X44810600Y-36677600D02*
X46212300Y-36677600D01*
X49109700Y-39575000D02*
X46212300Y-36677600D01*
%TO.N,Net-(C5-Pad2)*%
X71146100Y-49173900D02*
X69770000Y-50550000D01*
X71146100Y-43950000D02*
X71146100Y-49173900D01*
%TO.N,Net-(MIC1-Pin_1)*%
X49779000Y-45421400D02*
X48377300Y-45421400D01*
X37008400Y-56493200D02*
X38750800Y-54750800D01*
X37008400Y-67322800D02*
X37008400Y-56493200D01*
X41698400Y-72012800D02*
X37008400Y-67322800D01*
X39047900Y-54750800D02*
X48377300Y-45421400D01*
X38750800Y-54750800D02*
X39047900Y-54750800D01*
%TO.N,Net-(J2-Pad1)*%
X55411900Y-70799300D02*
X44198400Y-82012800D01*
X57829100Y-70799300D02*
X55411900Y-70799300D01*
X57829100Y-69247600D02*
X57829100Y-70799300D01*
%TD*%
M02*
