M48
; DRILL file {KiCad 7.0.10} date 
; FORMAT={-:-/ absolute / inch / decimal}
; #@! TF.CreationDate,2024-02-29T08:40:10+01:00
; #@! TF.GenerationSoftware,Kicad,Pcbnew,7.0.10
; #@! TF.FileFunction,Plated,1,2,PTH
FMAT,2
INCH
; #@! TA.AperFunction,Plated,PTH,ComponentDrill
T1C0.0315
; #@! TA.AperFunction,Plated,PTH,ComponentDrill
T2C0.0394
; #@! TA.AperFunction,Plated,PTH,ComponentDrill
T3C0.0512
%
G90
G05
T1
X2.6756Y-1.824
X2.756Y-2.2444
X2.756Y-2.3444
X2.756Y-2.4444
X2.756Y-2.5444
X2.774Y-1.824
X2.874Y-2.02
X2.9762Y-1.6068
X2.9762Y-1.7052
X3.056Y-2.2444
X3.056Y-2.3444
X3.056Y-2.4444
X3.056Y-2.5444
X3.274Y-2.02
X3.3826Y-2.24
X3.3837Y-2.4967
X3.481Y-2.24
X3.4822Y-2.4967
T2
X1.6642Y-1.444
X1.7642Y-1.444
X1.9598Y-1.7882
X2.0598Y-1.7882
X2.3638Y-1.7882
X2.462Y-2.2407
X2.462Y-2.536
X2.4638Y-1.7882
T3
X1.5256Y-2.1555
X1.5256Y-2.3524
X1.5256Y-2.5492
X1.6417Y-2.8351
X1.7401Y-3.2289
X1.8385Y-2.8351
T2
G00X2.2256Y-2.7263
M15
G01X2.3279Y-2.7263
M16
G05
G00X2.2374Y-3.244
M15
G01X2.324Y-3.244
M16
G05
G00X2.4893Y-2.7737
M15
G01X2.4893Y-2.8603
M16
G05
G00X2.8528Y-2.804
M15
G01X2.9552Y-2.804
M16
G05
G00X2.8607Y-3.052
M15
G01X2.9473Y-3.052
M16
G05
G00X3.093Y-2.8749
M15
G01X3.093Y-2.9615
M16
G05
M30
